G04 #@! TF.GenerationSoftware,KiCad,Pcbnew,(5.1.2-1)-1*
G04 #@! TF.CreationDate,2019-05-05T13:35:30-05:00*
G04 #@! TF.ProjectId,WiFi-Gate-Controller,57694669-2d47-4617-9465-2d436f6e7472,rev?*
G04 #@! TF.SameCoordinates,Original*
G04 #@! TF.FileFunction,Copper,L2,Bot*
G04 #@! TF.FilePolarity,Positive*
%FSLAX46Y46*%
G04 Gerber Fmt 4.6, Leading zero omitted, Abs format (unit mm)*
G04 Created by KiCad (PCBNEW (5.1.2-1)-1) date 2019-05-05 13:35:30*
%MOMM*%
%LPD*%
G04 APERTURE LIST*
%ADD10R,0.500000X1.300000*%
%ADD11R,0.500000X0.400000*%
%ADD12R,0.500000X0.750000*%
%ADD13R,0.800000X1.900000*%
%ADD14R,0.800000X0.900000*%
%ADD15C,2.400000*%
%ADD16R,2.400000X2.400000*%
%ADD17C,2.000000*%
%ADD18C,0.875000*%
%ADD19R,0.900000X0.800000*%
%ADD20C,1.250000*%
%ADD21C,0.975000*%
%ADD22R,1.700000X1.700000*%
%ADD23O,1.700000X1.700000*%
%ADD24R,0.840000X0.840000*%
%ADD25C,0.840000*%
%ADD26C,1.850000*%
%ADD27C,0.500000*%
%ADD28C,1.016000*%
%ADD29C,0.508000*%
%ADD30C,0.762000*%
%ADD31C,0.685800*%
%ADD32C,0.508000*%
%ADD33C,0.635000*%
%ADD34C,0.762000*%
%ADD35C,1.270000*%
%ADD36C,0.431800*%
%ADD37C,0.152400*%
%ADD38C,0.254000*%
%ADD39C,0.889000*%
%ADD40C,2.540000*%
%ADD41C,0.228600*%
G04 APERTURE END LIST*
D10*
X71700000Y-80250000D03*
D11*
X71700000Y-78800000D03*
X69300000Y-78800000D03*
D12*
X69300000Y-79750000D03*
D11*
X69300000Y-80700000D03*
D10*
X75200000Y-80250000D03*
D11*
X75200000Y-78800000D03*
X72800000Y-78800000D03*
D12*
X72800000Y-79750000D03*
D11*
X72800000Y-80700000D03*
D10*
X78700000Y-80250000D03*
D11*
X78700000Y-78800000D03*
X76300000Y-78800000D03*
D12*
X76300000Y-79750000D03*
D11*
X76300000Y-80700000D03*
D10*
X68200000Y-80250000D03*
D11*
X68200000Y-78800000D03*
X65800000Y-78800000D03*
D12*
X65800000Y-79750000D03*
D11*
X65800000Y-80700000D03*
D13*
X38700000Y-63500000D03*
X39800000Y-63500000D03*
D14*
X63700000Y-67617000D03*
X61800000Y-67617000D03*
X62750000Y-65617000D03*
D15*
X75000000Y-74250000D03*
X71500000Y-74250000D03*
X68000000Y-74250000D03*
D16*
X43500000Y-74250000D03*
D15*
X64500000Y-74281729D03*
X61000000Y-74250000D03*
X57500000Y-74250000D03*
X54000000Y-74250000D03*
X47000000Y-74250000D03*
X50500000Y-74250000D03*
D17*
G36*
X77777691Y-51601053D02*
G01*
X77798926Y-51604203D01*
X77819750Y-51609419D01*
X77839962Y-51616651D01*
X77859368Y-51625830D01*
X77877781Y-51636866D01*
X77895024Y-51649654D01*
X77910930Y-51664070D01*
X77925346Y-51679976D01*
X77938134Y-51697219D01*
X77949170Y-51715632D01*
X77958349Y-51735038D01*
X77965581Y-51755250D01*
X77970797Y-51776074D01*
X77973947Y-51797309D01*
X77975000Y-51818750D01*
X77975000Y-52256250D01*
X77973947Y-52277691D01*
X77970797Y-52298926D01*
X77965581Y-52319750D01*
X77958349Y-52339962D01*
X77949170Y-52359368D01*
X77938134Y-52377781D01*
X77925346Y-52395024D01*
X77910930Y-52410930D01*
X77895024Y-52425346D01*
X77877781Y-52438134D01*
X77859368Y-52449170D01*
X77839962Y-52458349D01*
X77819750Y-52465581D01*
X77798926Y-52470797D01*
X77777691Y-52473947D01*
X77756250Y-52475000D01*
X77243750Y-52475000D01*
X77222309Y-52473947D01*
X77201074Y-52470797D01*
X77180250Y-52465581D01*
X77160038Y-52458349D01*
X77140632Y-52449170D01*
X77122219Y-52438134D01*
X77104976Y-52425346D01*
X77089070Y-52410930D01*
X77074654Y-52395024D01*
X77061866Y-52377781D01*
X77050830Y-52359368D01*
X77041651Y-52339962D01*
X77034419Y-52319750D01*
X77029203Y-52298926D01*
X77026053Y-52277691D01*
X77025000Y-52256250D01*
X77025000Y-51818750D01*
X77026053Y-51797309D01*
X77029203Y-51776074D01*
X77034419Y-51755250D01*
X77041651Y-51735038D01*
X77050830Y-51715632D01*
X77061866Y-51697219D01*
X77074654Y-51679976D01*
X77089070Y-51664070D01*
X77104976Y-51649654D01*
X77122219Y-51636866D01*
X77140632Y-51625830D01*
X77160038Y-51616651D01*
X77180250Y-51609419D01*
X77201074Y-51604203D01*
X77222309Y-51601053D01*
X77243750Y-51600000D01*
X77756250Y-51600000D01*
X77777691Y-51601053D01*
X77777691Y-51601053D01*
G37*
D18*
X77500000Y-52037500D03*
D17*
G36*
X77777691Y-50026053D02*
G01*
X77798926Y-50029203D01*
X77819750Y-50034419D01*
X77839962Y-50041651D01*
X77859368Y-50050830D01*
X77877781Y-50061866D01*
X77895024Y-50074654D01*
X77910930Y-50089070D01*
X77925346Y-50104976D01*
X77938134Y-50122219D01*
X77949170Y-50140632D01*
X77958349Y-50160038D01*
X77965581Y-50180250D01*
X77970797Y-50201074D01*
X77973947Y-50222309D01*
X77975000Y-50243750D01*
X77975000Y-50681250D01*
X77973947Y-50702691D01*
X77970797Y-50723926D01*
X77965581Y-50744750D01*
X77958349Y-50764962D01*
X77949170Y-50784368D01*
X77938134Y-50802781D01*
X77925346Y-50820024D01*
X77910930Y-50835930D01*
X77895024Y-50850346D01*
X77877781Y-50863134D01*
X77859368Y-50874170D01*
X77839962Y-50883349D01*
X77819750Y-50890581D01*
X77798926Y-50895797D01*
X77777691Y-50898947D01*
X77756250Y-50900000D01*
X77243750Y-50900000D01*
X77222309Y-50898947D01*
X77201074Y-50895797D01*
X77180250Y-50890581D01*
X77160038Y-50883349D01*
X77140632Y-50874170D01*
X77122219Y-50863134D01*
X77104976Y-50850346D01*
X77089070Y-50835930D01*
X77074654Y-50820024D01*
X77061866Y-50802781D01*
X77050830Y-50784368D01*
X77041651Y-50764962D01*
X77034419Y-50744750D01*
X77029203Y-50723926D01*
X77026053Y-50702691D01*
X77025000Y-50681250D01*
X77025000Y-50243750D01*
X77026053Y-50222309D01*
X77029203Y-50201074D01*
X77034419Y-50180250D01*
X77041651Y-50160038D01*
X77050830Y-50140632D01*
X77061866Y-50122219D01*
X77074654Y-50104976D01*
X77089070Y-50089070D01*
X77104976Y-50074654D01*
X77122219Y-50061866D01*
X77140632Y-50050830D01*
X77160038Y-50041651D01*
X77180250Y-50034419D01*
X77201074Y-50029203D01*
X77222309Y-50026053D01*
X77243750Y-50025000D01*
X77756250Y-50025000D01*
X77777691Y-50026053D01*
X77777691Y-50026053D01*
G37*
D18*
X77500000Y-50462500D03*
D17*
G36*
X73777691Y-53351053D02*
G01*
X73798926Y-53354203D01*
X73819750Y-53359419D01*
X73839962Y-53366651D01*
X73859368Y-53375830D01*
X73877781Y-53386866D01*
X73895024Y-53399654D01*
X73910930Y-53414070D01*
X73925346Y-53429976D01*
X73938134Y-53447219D01*
X73949170Y-53465632D01*
X73958349Y-53485038D01*
X73965581Y-53505250D01*
X73970797Y-53526074D01*
X73973947Y-53547309D01*
X73975000Y-53568750D01*
X73975000Y-54006250D01*
X73973947Y-54027691D01*
X73970797Y-54048926D01*
X73965581Y-54069750D01*
X73958349Y-54089962D01*
X73949170Y-54109368D01*
X73938134Y-54127781D01*
X73925346Y-54145024D01*
X73910930Y-54160930D01*
X73895024Y-54175346D01*
X73877781Y-54188134D01*
X73859368Y-54199170D01*
X73839962Y-54208349D01*
X73819750Y-54215581D01*
X73798926Y-54220797D01*
X73777691Y-54223947D01*
X73756250Y-54225000D01*
X73243750Y-54225000D01*
X73222309Y-54223947D01*
X73201074Y-54220797D01*
X73180250Y-54215581D01*
X73160038Y-54208349D01*
X73140632Y-54199170D01*
X73122219Y-54188134D01*
X73104976Y-54175346D01*
X73089070Y-54160930D01*
X73074654Y-54145024D01*
X73061866Y-54127781D01*
X73050830Y-54109368D01*
X73041651Y-54089962D01*
X73034419Y-54069750D01*
X73029203Y-54048926D01*
X73026053Y-54027691D01*
X73025000Y-54006250D01*
X73025000Y-53568750D01*
X73026053Y-53547309D01*
X73029203Y-53526074D01*
X73034419Y-53505250D01*
X73041651Y-53485038D01*
X73050830Y-53465632D01*
X73061866Y-53447219D01*
X73074654Y-53429976D01*
X73089070Y-53414070D01*
X73104976Y-53399654D01*
X73122219Y-53386866D01*
X73140632Y-53375830D01*
X73160038Y-53366651D01*
X73180250Y-53359419D01*
X73201074Y-53354203D01*
X73222309Y-53351053D01*
X73243750Y-53350000D01*
X73756250Y-53350000D01*
X73777691Y-53351053D01*
X73777691Y-53351053D01*
G37*
D18*
X73500000Y-53787500D03*
D17*
G36*
X73777691Y-51776053D02*
G01*
X73798926Y-51779203D01*
X73819750Y-51784419D01*
X73839962Y-51791651D01*
X73859368Y-51800830D01*
X73877781Y-51811866D01*
X73895024Y-51824654D01*
X73910930Y-51839070D01*
X73925346Y-51854976D01*
X73938134Y-51872219D01*
X73949170Y-51890632D01*
X73958349Y-51910038D01*
X73965581Y-51930250D01*
X73970797Y-51951074D01*
X73973947Y-51972309D01*
X73975000Y-51993750D01*
X73975000Y-52431250D01*
X73973947Y-52452691D01*
X73970797Y-52473926D01*
X73965581Y-52494750D01*
X73958349Y-52514962D01*
X73949170Y-52534368D01*
X73938134Y-52552781D01*
X73925346Y-52570024D01*
X73910930Y-52585930D01*
X73895024Y-52600346D01*
X73877781Y-52613134D01*
X73859368Y-52624170D01*
X73839962Y-52633349D01*
X73819750Y-52640581D01*
X73798926Y-52645797D01*
X73777691Y-52648947D01*
X73756250Y-52650000D01*
X73243750Y-52650000D01*
X73222309Y-52648947D01*
X73201074Y-52645797D01*
X73180250Y-52640581D01*
X73160038Y-52633349D01*
X73140632Y-52624170D01*
X73122219Y-52613134D01*
X73104976Y-52600346D01*
X73089070Y-52585930D01*
X73074654Y-52570024D01*
X73061866Y-52552781D01*
X73050830Y-52534368D01*
X73041651Y-52514962D01*
X73034419Y-52494750D01*
X73029203Y-52473926D01*
X73026053Y-52452691D01*
X73025000Y-52431250D01*
X73025000Y-51993750D01*
X73026053Y-51972309D01*
X73029203Y-51951074D01*
X73034419Y-51930250D01*
X73041651Y-51910038D01*
X73050830Y-51890632D01*
X73061866Y-51872219D01*
X73074654Y-51854976D01*
X73089070Y-51839070D01*
X73104976Y-51824654D01*
X73122219Y-51811866D01*
X73140632Y-51800830D01*
X73160038Y-51791651D01*
X73180250Y-51784419D01*
X73201074Y-51779203D01*
X73222309Y-51776053D01*
X73243750Y-51775000D01*
X73756250Y-51775000D01*
X73777691Y-51776053D01*
X73777691Y-51776053D01*
G37*
D18*
X73500000Y-52212500D03*
D19*
X50500000Y-78800000D03*
X50500000Y-76900000D03*
X52500000Y-77850000D03*
X56000000Y-77850000D03*
X54000000Y-76900000D03*
X54000000Y-78800000D03*
X57500000Y-78800000D03*
X57500000Y-76900000D03*
X59500000Y-77850000D03*
X63000000Y-77850000D03*
X61000000Y-76900000D03*
X61000000Y-78800000D03*
D17*
G36*
X79149504Y-62026204D02*
G01*
X79173773Y-62029804D01*
X79197571Y-62035765D01*
X79220671Y-62044030D01*
X79242849Y-62054520D01*
X79263893Y-62067133D01*
X79283598Y-62081747D01*
X79301777Y-62098223D01*
X79318253Y-62116402D01*
X79332867Y-62136107D01*
X79345480Y-62157151D01*
X79355970Y-62179329D01*
X79364235Y-62202429D01*
X79370196Y-62226227D01*
X79373796Y-62250496D01*
X79375000Y-62275000D01*
X79375000Y-63025000D01*
X79373796Y-63049504D01*
X79370196Y-63073773D01*
X79364235Y-63097571D01*
X79355970Y-63120671D01*
X79345480Y-63142849D01*
X79332867Y-63163893D01*
X79318253Y-63183598D01*
X79301777Y-63201777D01*
X79283598Y-63218253D01*
X79263893Y-63232867D01*
X79242849Y-63245480D01*
X79220671Y-63255970D01*
X79197571Y-63264235D01*
X79173773Y-63270196D01*
X79149504Y-63273796D01*
X79125000Y-63275000D01*
X77875000Y-63275000D01*
X77850496Y-63273796D01*
X77826227Y-63270196D01*
X77802429Y-63264235D01*
X77779329Y-63255970D01*
X77757151Y-63245480D01*
X77736107Y-63232867D01*
X77716402Y-63218253D01*
X77698223Y-63201777D01*
X77681747Y-63183598D01*
X77667133Y-63163893D01*
X77654520Y-63142849D01*
X77644030Y-63120671D01*
X77635765Y-63097571D01*
X77629804Y-63073773D01*
X77626204Y-63049504D01*
X77625000Y-63025000D01*
X77625000Y-62275000D01*
X77626204Y-62250496D01*
X77629804Y-62226227D01*
X77635765Y-62202429D01*
X77644030Y-62179329D01*
X77654520Y-62157151D01*
X77667133Y-62136107D01*
X77681747Y-62116402D01*
X77698223Y-62098223D01*
X77716402Y-62081747D01*
X77736107Y-62067133D01*
X77757151Y-62054520D01*
X77779329Y-62044030D01*
X77802429Y-62035765D01*
X77826227Y-62029804D01*
X77850496Y-62026204D01*
X77875000Y-62025000D01*
X79125000Y-62025000D01*
X79149504Y-62026204D01*
X79149504Y-62026204D01*
G37*
D20*
X78500000Y-62650000D03*
D17*
G36*
X79149504Y-59226204D02*
G01*
X79173773Y-59229804D01*
X79197571Y-59235765D01*
X79220671Y-59244030D01*
X79242849Y-59254520D01*
X79263893Y-59267133D01*
X79283598Y-59281747D01*
X79301777Y-59298223D01*
X79318253Y-59316402D01*
X79332867Y-59336107D01*
X79345480Y-59357151D01*
X79355970Y-59379329D01*
X79364235Y-59402429D01*
X79370196Y-59426227D01*
X79373796Y-59450496D01*
X79375000Y-59475000D01*
X79375000Y-60225000D01*
X79373796Y-60249504D01*
X79370196Y-60273773D01*
X79364235Y-60297571D01*
X79355970Y-60320671D01*
X79345480Y-60342849D01*
X79332867Y-60363893D01*
X79318253Y-60383598D01*
X79301777Y-60401777D01*
X79283598Y-60418253D01*
X79263893Y-60432867D01*
X79242849Y-60445480D01*
X79220671Y-60455970D01*
X79197571Y-60464235D01*
X79173773Y-60470196D01*
X79149504Y-60473796D01*
X79125000Y-60475000D01*
X77875000Y-60475000D01*
X77850496Y-60473796D01*
X77826227Y-60470196D01*
X77802429Y-60464235D01*
X77779329Y-60455970D01*
X77757151Y-60445480D01*
X77736107Y-60432867D01*
X77716402Y-60418253D01*
X77698223Y-60401777D01*
X77681747Y-60383598D01*
X77667133Y-60363893D01*
X77654520Y-60342849D01*
X77644030Y-60320671D01*
X77635765Y-60297571D01*
X77629804Y-60273773D01*
X77626204Y-60249504D01*
X77625000Y-60225000D01*
X77625000Y-59475000D01*
X77626204Y-59450496D01*
X77629804Y-59426227D01*
X77635765Y-59402429D01*
X77644030Y-59379329D01*
X77654520Y-59357151D01*
X77667133Y-59336107D01*
X77681747Y-59316402D01*
X77698223Y-59298223D01*
X77716402Y-59281747D01*
X77736107Y-59267133D01*
X77757151Y-59254520D01*
X77779329Y-59244030D01*
X77802429Y-59235765D01*
X77826227Y-59229804D01*
X77850496Y-59226204D01*
X77875000Y-59225000D01*
X79125000Y-59225000D01*
X79149504Y-59226204D01*
X79149504Y-59226204D01*
G37*
D20*
X78500000Y-59850000D03*
D17*
G36*
X75995142Y-51451174D02*
G01*
X76018803Y-51454684D01*
X76042007Y-51460496D01*
X76064529Y-51468554D01*
X76086153Y-51478782D01*
X76106670Y-51491079D01*
X76125883Y-51505329D01*
X76143607Y-51521393D01*
X76159671Y-51539117D01*
X76173921Y-51558330D01*
X76186218Y-51578847D01*
X76196446Y-51600471D01*
X76204504Y-51622993D01*
X76210316Y-51646197D01*
X76213826Y-51669858D01*
X76215000Y-51693750D01*
X76215000Y-52181250D01*
X76213826Y-52205142D01*
X76210316Y-52228803D01*
X76204504Y-52252007D01*
X76196446Y-52274529D01*
X76186218Y-52296153D01*
X76173921Y-52316670D01*
X76159671Y-52335883D01*
X76143607Y-52353607D01*
X76125883Y-52369671D01*
X76106670Y-52383921D01*
X76086153Y-52396218D01*
X76064529Y-52406446D01*
X76042007Y-52414504D01*
X76018803Y-52420316D01*
X75995142Y-52423826D01*
X75971250Y-52425000D01*
X75058750Y-52425000D01*
X75034858Y-52423826D01*
X75011197Y-52420316D01*
X74987993Y-52414504D01*
X74965471Y-52406446D01*
X74943847Y-52396218D01*
X74923330Y-52383921D01*
X74904117Y-52369671D01*
X74886393Y-52353607D01*
X74870329Y-52335883D01*
X74856079Y-52316670D01*
X74843782Y-52296153D01*
X74833554Y-52274529D01*
X74825496Y-52252007D01*
X74819684Y-52228803D01*
X74816174Y-52205142D01*
X74815000Y-52181250D01*
X74815000Y-51693750D01*
X74816174Y-51669858D01*
X74819684Y-51646197D01*
X74825496Y-51622993D01*
X74833554Y-51600471D01*
X74843782Y-51578847D01*
X74856079Y-51558330D01*
X74870329Y-51539117D01*
X74886393Y-51521393D01*
X74904117Y-51505329D01*
X74923330Y-51491079D01*
X74943847Y-51478782D01*
X74965471Y-51468554D01*
X74987993Y-51460496D01*
X75011197Y-51454684D01*
X75034858Y-51451174D01*
X75058750Y-51450000D01*
X75971250Y-51450000D01*
X75995142Y-51451174D01*
X75995142Y-51451174D01*
G37*
D21*
X75515000Y-51937500D03*
D17*
G36*
X75995142Y-49576174D02*
G01*
X76018803Y-49579684D01*
X76042007Y-49585496D01*
X76064529Y-49593554D01*
X76086153Y-49603782D01*
X76106670Y-49616079D01*
X76125883Y-49630329D01*
X76143607Y-49646393D01*
X76159671Y-49664117D01*
X76173921Y-49683330D01*
X76186218Y-49703847D01*
X76196446Y-49725471D01*
X76204504Y-49747993D01*
X76210316Y-49771197D01*
X76213826Y-49794858D01*
X76215000Y-49818750D01*
X76215000Y-50306250D01*
X76213826Y-50330142D01*
X76210316Y-50353803D01*
X76204504Y-50377007D01*
X76196446Y-50399529D01*
X76186218Y-50421153D01*
X76173921Y-50441670D01*
X76159671Y-50460883D01*
X76143607Y-50478607D01*
X76125883Y-50494671D01*
X76106670Y-50508921D01*
X76086153Y-50521218D01*
X76064529Y-50531446D01*
X76042007Y-50539504D01*
X76018803Y-50545316D01*
X75995142Y-50548826D01*
X75971250Y-50550000D01*
X75058750Y-50550000D01*
X75034858Y-50548826D01*
X75011197Y-50545316D01*
X74987993Y-50539504D01*
X74965471Y-50531446D01*
X74943847Y-50521218D01*
X74923330Y-50508921D01*
X74904117Y-50494671D01*
X74886393Y-50478607D01*
X74870329Y-50460883D01*
X74856079Y-50441670D01*
X74843782Y-50421153D01*
X74833554Y-50399529D01*
X74825496Y-50377007D01*
X74819684Y-50353803D01*
X74816174Y-50330142D01*
X74815000Y-50306250D01*
X74815000Y-49818750D01*
X74816174Y-49794858D01*
X74819684Y-49771197D01*
X74825496Y-49747993D01*
X74833554Y-49725471D01*
X74843782Y-49703847D01*
X74856079Y-49683330D01*
X74870329Y-49664117D01*
X74886393Y-49646393D01*
X74904117Y-49630329D01*
X74923330Y-49616079D01*
X74943847Y-49603782D01*
X74965471Y-49593554D01*
X74987993Y-49585496D01*
X75011197Y-49579684D01*
X75034858Y-49576174D01*
X75058750Y-49575000D01*
X75971250Y-49575000D01*
X75995142Y-49576174D01*
X75995142Y-49576174D01*
G37*
D21*
X75515000Y-50062500D03*
D22*
X87250000Y-50000000D03*
D23*
X87250000Y-52540000D03*
D17*
G36*
X51149504Y-71276204D02*
G01*
X51173773Y-71279804D01*
X51197571Y-71285765D01*
X51220671Y-71294030D01*
X51242849Y-71304520D01*
X51263893Y-71317133D01*
X51283598Y-71331747D01*
X51301777Y-71348223D01*
X51318253Y-71366402D01*
X51332867Y-71386107D01*
X51345480Y-71407151D01*
X51355970Y-71429329D01*
X51364235Y-71452429D01*
X51370196Y-71476227D01*
X51373796Y-71500496D01*
X51375000Y-71525000D01*
X51375000Y-72275000D01*
X51373796Y-72299504D01*
X51370196Y-72323773D01*
X51364235Y-72347571D01*
X51355970Y-72370671D01*
X51345480Y-72392849D01*
X51332867Y-72413893D01*
X51318253Y-72433598D01*
X51301777Y-72451777D01*
X51283598Y-72468253D01*
X51263893Y-72482867D01*
X51242849Y-72495480D01*
X51220671Y-72505970D01*
X51197571Y-72514235D01*
X51173773Y-72520196D01*
X51149504Y-72523796D01*
X51125000Y-72525000D01*
X49875000Y-72525000D01*
X49850496Y-72523796D01*
X49826227Y-72520196D01*
X49802429Y-72514235D01*
X49779329Y-72505970D01*
X49757151Y-72495480D01*
X49736107Y-72482867D01*
X49716402Y-72468253D01*
X49698223Y-72451777D01*
X49681747Y-72433598D01*
X49667133Y-72413893D01*
X49654520Y-72392849D01*
X49644030Y-72370671D01*
X49635765Y-72347571D01*
X49629804Y-72323773D01*
X49626204Y-72299504D01*
X49625000Y-72275000D01*
X49625000Y-71525000D01*
X49626204Y-71500496D01*
X49629804Y-71476227D01*
X49635765Y-71452429D01*
X49644030Y-71429329D01*
X49654520Y-71407151D01*
X49667133Y-71386107D01*
X49681747Y-71366402D01*
X49698223Y-71348223D01*
X49716402Y-71331747D01*
X49736107Y-71317133D01*
X49757151Y-71304520D01*
X49779329Y-71294030D01*
X49802429Y-71285765D01*
X49826227Y-71279804D01*
X49850496Y-71276204D01*
X49875000Y-71275000D01*
X51125000Y-71275000D01*
X51149504Y-71276204D01*
X51149504Y-71276204D01*
G37*
D20*
X50500000Y-71900000D03*
D17*
G36*
X51149504Y-68476204D02*
G01*
X51173773Y-68479804D01*
X51197571Y-68485765D01*
X51220671Y-68494030D01*
X51242849Y-68504520D01*
X51263893Y-68517133D01*
X51283598Y-68531747D01*
X51301777Y-68548223D01*
X51318253Y-68566402D01*
X51332867Y-68586107D01*
X51345480Y-68607151D01*
X51355970Y-68629329D01*
X51364235Y-68652429D01*
X51370196Y-68676227D01*
X51373796Y-68700496D01*
X51375000Y-68725000D01*
X51375000Y-69475000D01*
X51373796Y-69499504D01*
X51370196Y-69523773D01*
X51364235Y-69547571D01*
X51355970Y-69570671D01*
X51345480Y-69592849D01*
X51332867Y-69613893D01*
X51318253Y-69633598D01*
X51301777Y-69651777D01*
X51283598Y-69668253D01*
X51263893Y-69682867D01*
X51242849Y-69695480D01*
X51220671Y-69705970D01*
X51197571Y-69714235D01*
X51173773Y-69720196D01*
X51149504Y-69723796D01*
X51125000Y-69725000D01*
X49875000Y-69725000D01*
X49850496Y-69723796D01*
X49826227Y-69720196D01*
X49802429Y-69714235D01*
X49779329Y-69705970D01*
X49757151Y-69695480D01*
X49736107Y-69682867D01*
X49716402Y-69668253D01*
X49698223Y-69651777D01*
X49681747Y-69633598D01*
X49667133Y-69613893D01*
X49654520Y-69592849D01*
X49644030Y-69570671D01*
X49635765Y-69547571D01*
X49629804Y-69523773D01*
X49626204Y-69499504D01*
X49625000Y-69475000D01*
X49625000Y-68725000D01*
X49626204Y-68700496D01*
X49629804Y-68676227D01*
X49635765Y-68652429D01*
X49644030Y-68629329D01*
X49654520Y-68607151D01*
X49667133Y-68586107D01*
X49681747Y-68566402D01*
X49698223Y-68548223D01*
X49716402Y-68531747D01*
X49736107Y-68517133D01*
X49757151Y-68504520D01*
X49779329Y-68494030D01*
X49802429Y-68485765D01*
X49826227Y-68479804D01*
X49850496Y-68476204D01*
X49875000Y-68475000D01*
X51125000Y-68475000D01*
X51149504Y-68476204D01*
X51149504Y-68476204D01*
G37*
D20*
X50500000Y-69100000D03*
D17*
G36*
X54649504Y-71276204D02*
G01*
X54673773Y-71279804D01*
X54697571Y-71285765D01*
X54720671Y-71294030D01*
X54742849Y-71304520D01*
X54763893Y-71317133D01*
X54783598Y-71331747D01*
X54801777Y-71348223D01*
X54818253Y-71366402D01*
X54832867Y-71386107D01*
X54845480Y-71407151D01*
X54855970Y-71429329D01*
X54864235Y-71452429D01*
X54870196Y-71476227D01*
X54873796Y-71500496D01*
X54875000Y-71525000D01*
X54875000Y-72275000D01*
X54873796Y-72299504D01*
X54870196Y-72323773D01*
X54864235Y-72347571D01*
X54855970Y-72370671D01*
X54845480Y-72392849D01*
X54832867Y-72413893D01*
X54818253Y-72433598D01*
X54801777Y-72451777D01*
X54783598Y-72468253D01*
X54763893Y-72482867D01*
X54742849Y-72495480D01*
X54720671Y-72505970D01*
X54697571Y-72514235D01*
X54673773Y-72520196D01*
X54649504Y-72523796D01*
X54625000Y-72525000D01*
X53375000Y-72525000D01*
X53350496Y-72523796D01*
X53326227Y-72520196D01*
X53302429Y-72514235D01*
X53279329Y-72505970D01*
X53257151Y-72495480D01*
X53236107Y-72482867D01*
X53216402Y-72468253D01*
X53198223Y-72451777D01*
X53181747Y-72433598D01*
X53167133Y-72413893D01*
X53154520Y-72392849D01*
X53144030Y-72370671D01*
X53135765Y-72347571D01*
X53129804Y-72323773D01*
X53126204Y-72299504D01*
X53125000Y-72275000D01*
X53125000Y-71525000D01*
X53126204Y-71500496D01*
X53129804Y-71476227D01*
X53135765Y-71452429D01*
X53144030Y-71429329D01*
X53154520Y-71407151D01*
X53167133Y-71386107D01*
X53181747Y-71366402D01*
X53198223Y-71348223D01*
X53216402Y-71331747D01*
X53236107Y-71317133D01*
X53257151Y-71304520D01*
X53279329Y-71294030D01*
X53302429Y-71285765D01*
X53326227Y-71279804D01*
X53350496Y-71276204D01*
X53375000Y-71275000D01*
X54625000Y-71275000D01*
X54649504Y-71276204D01*
X54649504Y-71276204D01*
G37*
D20*
X54000000Y-71900000D03*
D17*
G36*
X54649504Y-68476204D02*
G01*
X54673773Y-68479804D01*
X54697571Y-68485765D01*
X54720671Y-68494030D01*
X54742849Y-68504520D01*
X54763893Y-68517133D01*
X54783598Y-68531747D01*
X54801777Y-68548223D01*
X54818253Y-68566402D01*
X54832867Y-68586107D01*
X54845480Y-68607151D01*
X54855970Y-68629329D01*
X54864235Y-68652429D01*
X54870196Y-68676227D01*
X54873796Y-68700496D01*
X54875000Y-68725000D01*
X54875000Y-69475000D01*
X54873796Y-69499504D01*
X54870196Y-69523773D01*
X54864235Y-69547571D01*
X54855970Y-69570671D01*
X54845480Y-69592849D01*
X54832867Y-69613893D01*
X54818253Y-69633598D01*
X54801777Y-69651777D01*
X54783598Y-69668253D01*
X54763893Y-69682867D01*
X54742849Y-69695480D01*
X54720671Y-69705970D01*
X54697571Y-69714235D01*
X54673773Y-69720196D01*
X54649504Y-69723796D01*
X54625000Y-69725000D01*
X53375000Y-69725000D01*
X53350496Y-69723796D01*
X53326227Y-69720196D01*
X53302429Y-69714235D01*
X53279329Y-69705970D01*
X53257151Y-69695480D01*
X53236107Y-69682867D01*
X53216402Y-69668253D01*
X53198223Y-69651777D01*
X53181747Y-69633598D01*
X53167133Y-69613893D01*
X53154520Y-69592849D01*
X53144030Y-69570671D01*
X53135765Y-69547571D01*
X53129804Y-69523773D01*
X53126204Y-69499504D01*
X53125000Y-69475000D01*
X53125000Y-68725000D01*
X53126204Y-68700496D01*
X53129804Y-68676227D01*
X53135765Y-68652429D01*
X53144030Y-68629329D01*
X53154520Y-68607151D01*
X53167133Y-68586107D01*
X53181747Y-68566402D01*
X53198223Y-68548223D01*
X53216402Y-68531747D01*
X53236107Y-68517133D01*
X53257151Y-68504520D01*
X53279329Y-68494030D01*
X53302429Y-68485765D01*
X53326227Y-68479804D01*
X53350496Y-68476204D01*
X53375000Y-68475000D01*
X54625000Y-68475000D01*
X54649504Y-68476204D01*
X54649504Y-68476204D01*
G37*
D20*
X54000000Y-69100000D03*
D17*
G36*
X58149504Y-68476204D02*
G01*
X58173773Y-68479804D01*
X58197571Y-68485765D01*
X58220671Y-68494030D01*
X58242849Y-68504520D01*
X58263893Y-68517133D01*
X58283598Y-68531747D01*
X58301777Y-68548223D01*
X58318253Y-68566402D01*
X58332867Y-68586107D01*
X58345480Y-68607151D01*
X58355970Y-68629329D01*
X58364235Y-68652429D01*
X58370196Y-68676227D01*
X58373796Y-68700496D01*
X58375000Y-68725000D01*
X58375000Y-69475000D01*
X58373796Y-69499504D01*
X58370196Y-69523773D01*
X58364235Y-69547571D01*
X58355970Y-69570671D01*
X58345480Y-69592849D01*
X58332867Y-69613893D01*
X58318253Y-69633598D01*
X58301777Y-69651777D01*
X58283598Y-69668253D01*
X58263893Y-69682867D01*
X58242849Y-69695480D01*
X58220671Y-69705970D01*
X58197571Y-69714235D01*
X58173773Y-69720196D01*
X58149504Y-69723796D01*
X58125000Y-69725000D01*
X56875000Y-69725000D01*
X56850496Y-69723796D01*
X56826227Y-69720196D01*
X56802429Y-69714235D01*
X56779329Y-69705970D01*
X56757151Y-69695480D01*
X56736107Y-69682867D01*
X56716402Y-69668253D01*
X56698223Y-69651777D01*
X56681747Y-69633598D01*
X56667133Y-69613893D01*
X56654520Y-69592849D01*
X56644030Y-69570671D01*
X56635765Y-69547571D01*
X56629804Y-69523773D01*
X56626204Y-69499504D01*
X56625000Y-69475000D01*
X56625000Y-68725000D01*
X56626204Y-68700496D01*
X56629804Y-68676227D01*
X56635765Y-68652429D01*
X56644030Y-68629329D01*
X56654520Y-68607151D01*
X56667133Y-68586107D01*
X56681747Y-68566402D01*
X56698223Y-68548223D01*
X56716402Y-68531747D01*
X56736107Y-68517133D01*
X56757151Y-68504520D01*
X56779329Y-68494030D01*
X56802429Y-68485765D01*
X56826227Y-68479804D01*
X56850496Y-68476204D01*
X56875000Y-68475000D01*
X58125000Y-68475000D01*
X58149504Y-68476204D01*
X58149504Y-68476204D01*
G37*
D20*
X57500000Y-69100000D03*
D17*
G36*
X58149504Y-71276204D02*
G01*
X58173773Y-71279804D01*
X58197571Y-71285765D01*
X58220671Y-71294030D01*
X58242849Y-71304520D01*
X58263893Y-71317133D01*
X58283598Y-71331747D01*
X58301777Y-71348223D01*
X58318253Y-71366402D01*
X58332867Y-71386107D01*
X58345480Y-71407151D01*
X58355970Y-71429329D01*
X58364235Y-71452429D01*
X58370196Y-71476227D01*
X58373796Y-71500496D01*
X58375000Y-71525000D01*
X58375000Y-72275000D01*
X58373796Y-72299504D01*
X58370196Y-72323773D01*
X58364235Y-72347571D01*
X58355970Y-72370671D01*
X58345480Y-72392849D01*
X58332867Y-72413893D01*
X58318253Y-72433598D01*
X58301777Y-72451777D01*
X58283598Y-72468253D01*
X58263893Y-72482867D01*
X58242849Y-72495480D01*
X58220671Y-72505970D01*
X58197571Y-72514235D01*
X58173773Y-72520196D01*
X58149504Y-72523796D01*
X58125000Y-72525000D01*
X56875000Y-72525000D01*
X56850496Y-72523796D01*
X56826227Y-72520196D01*
X56802429Y-72514235D01*
X56779329Y-72505970D01*
X56757151Y-72495480D01*
X56736107Y-72482867D01*
X56716402Y-72468253D01*
X56698223Y-72451777D01*
X56681747Y-72433598D01*
X56667133Y-72413893D01*
X56654520Y-72392849D01*
X56644030Y-72370671D01*
X56635765Y-72347571D01*
X56629804Y-72323773D01*
X56626204Y-72299504D01*
X56625000Y-72275000D01*
X56625000Y-71525000D01*
X56626204Y-71500496D01*
X56629804Y-71476227D01*
X56635765Y-71452429D01*
X56644030Y-71429329D01*
X56654520Y-71407151D01*
X56667133Y-71386107D01*
X56681747Y-71366402D01*
X56698223Y-71348223D01*
X56716402Y-71331747D01*
X56736107Y-71317133D01*
X56757151Y-71304520D01*
X56779329Y-71294030D01*
X56802429Y-71285765D01*
X56826227Y-71279804D01*
X56850496Y-71276204D01*
X56875000Y-71275000D01*
X58125000Y-71275000D01*
X58149504Y-71276204D01*
X58149504Y-71276204D01*
G37*
D20*
X57500000Y-71900000D03*
D17*
G36*
X61649504Y-71276204D02*
G01*
X61673773Y-71279804D01*
X61697571Y-71285765D01*
X61720671Y-71294030D01*
X61742849Y-71304520D01*
X61763893Y-71317133D01*
X61783598Y-71331747D01*
X61801777Y-71348223D01*
X61818253Y-71366402D01*
X61832867Y-71386107D01*
X61845480Y-71407151D01*
X61855970Y-71429329D01*
X61864235Y-71452429D01*
X61870196Y-71476227D01*
X61873796Y-71500496D01*
X61875000Y-71525000D01*
X61875000Y-72275000D01*
X61873796Y-72299504D01*
X61870196Y-72323773D01*
X61864235Y-72347571D01*
X61855970Y-72370671D01*
X61845480Y-72392849D01*
X61832867Y-72413893D01*
X61818253Y-72433598D01*
X61801777Y-72451777D01*
X61783598Y-72468253D01*
X61763893Y-72482867D01*
X61742849Y-72495480D01*
X61720671Y-72505970D01*
X61697571Y-72514235D01*
X61673773Y-72520196D01*
X61649504Y-72523796D01*
X61625000Y-72525000D01*
X60375000Y-72525000D01*
X60350496Y-72523796D01*
X60326227Y-72520196D01*
X60302429Y-72514235D01*
X60279329Y-72505970D01*
X60257151Y-72495480D01*
X60236107Y-72482867D01*
X60216402Y-72468253D01*
X60198223Y-72451777D01*
X60181747Y-72433598D01*
X60167133Y-72413893D01*
X60154520Y-72392849D01*
X60144030Y-72370671D01*
X60135765Y-72347571D01*
X60129804Y-72323773D01*
X60126204Y-72299504D01*
X60125000Y-72275000D01*
X60125000Y-71525000D01*
X60126204Y-71500496D01*
X60129804Y-71476227D01*
X60135765Y-71452429D01*
X60144030Y-71429329D01*
X60154520Y-71407151D01*
X60167133Y-71386107D01*
X60181747Y-71366402D01*
X60198223Y-71348223D01*
X60216402Y-71331747D01*
X60236107Y-71317133D01*
X60257151Y-71304520D01*
X60279329Y-71294030D01*
X60302429Y-71285765D01*
X60326227Y-71279804D01*
X60350496Y-71276204D01*
X60375000Y-71275000D01*
X61625000Y-71275000D01*
X61649504Y-71276204D01*
X61649504Y-71276204D01*
G37*
D20*
X61000000Y-71900000D03*
D17*
G36*
X61649504Y-68476204D02*
G01*
X61673773Y-68479804D01*
X61697571Y-68485765D01*
X61720671Y-68494030D01*
X61742849Y-68504520D01*
X61763893Y-68517133D01*
X61783598Y-68531747D01*
X61801777Y-68548223D01*
X61818253Y-68566402D01*
X61832867Y-68586107D01*
X61845480Y-68607151D01*
X61855970Y-68629329D01*
X61864235Y-68652429D01*
X61870196Y-68676227D01*
X61873796Y-68700496D01*
X61875000Y-68725000D01*
X61875000Y-69475000D01*
X61873796Y-69499504D01*
X61870196Y-69523773D01*
X61864235Y-69547571D01*
X61855970Y-69570671D01*
X61845480Y-69592849D01*
X61832867Y-69613893D01*
X61818253Y-69633598D01*
X61801777Y-69651777D01*
X61783598Y-69668253D01*
X61763893Y-69682867D01*
X61742849Y-69695480D01*
X61720671Y-69705970D01*
X61697571Y-69714235D01*
X61673773Y-69720196D01*
X61649504Y-69723796D01*
X61625000Y-69725000D01*
X60375000Y-69725000D01*
X60350496Y-69723796D01*
X60326227Y-69720196D01*
X60302429Y-69714235D01*
X60279329Y-69705970D01*
X60257151Y-69695480D01*
X60236107Y-69682867D01*
X60216402Y-69668253D01*
X60198223Y-69651777D01*
X60181747Y-69633598D01*
X60167133Y-69613893D01*
X60154520Y-69592849D01*
X60144030Y-69570671D01*
X60135765Y-69547571D01*
X60129804Y-69523773D01*
X60126204Y-69499504D01*
X60125000Y-69475000D01*
X60125000Y-68725000D01*
X60126204Y-68700496D01*
X60129804Y-68676227D01*
X60135765Y-68652429D01*
X60144030Y-68629329D01*
X60154520Y-68607151D01*
X60167133Y-68586107D01*
X60181747Y-68566402D01*
X60198223Y-68548223D01*
X60216402Y-68531747D01*
X60236107Y-68517133D01*
X60257151Y-68504520D01*
X60279329Y-68494030D01*
X60302429Y-68485765D01*
X60326227Y-68479804D01*
X60350496Y-68476204D01*
X60375000Y-68475000D01*
X61625000Y-68475000D01*
X61649504Y-68476204D01*
X61649504Y-68476204D01*
G37*
D20*
X61000000Y-69100000D03*
D17*
G36*
X65149504Y-68476204D02*
G01*
X65173773Y-68479804D01*
X65197571Y-68485765D01*
X65220671Y-68494030D01*
X65242849Y-68504520D01*
X65263893Y-68517133D01*
X65283598Y-68531747D01*
X65301777Y-68548223D01*
X65318253Y-68566402D01*
X65332867Y-68586107D01*
X65345480Y-68607151D01*
X65355970Y-68629329D01*
X65364235Y-68652429D01*
X65370196Y-68676227D01*
X65373796Y-68700496D01*
X65375000Y-68725000D01*
X65375000Y-69475000D01*
X65373796Y-69499504D01*
X65370196Y-69523773D01*
X65364235Y-69547571D01*
X65355970Y-69570671D01*
X65345480Y-69592849D01*
X65332867Y-69613893D01*
X65318253Y-69633598D01*
X65301777Y-69651777D01*
X65283598Y-69668253D01*
X65263893Y-69682867D01*
X65242849Y-69695480D01*
X65220671Y-69705970D01*
X65197571Y-69714235D01*
X65173773Y-69720196D01*
X65149504Y-69723796D01*
X65125000Y-69725000D01*
X63875000Y-69725000D01*
X63850496Y-69723796D01*
X63826227Y-69720196D01*
X63802429Y-69714235D01*
X63779329Y-69705970D01*
X63757151Y-69695480D01*
X63736107Y-69682867D01*
X63716402Y-69668253D01*
X63698223Y-69651777D01*
X63681747Y-69633598D01*
X63667133Y-69613893D01*
X63654520Y-69592849D01*
X63644030Y-69570671D01*
X63635765Y-69547571D01*
X63629804Y-69523773D01*
X63626204Y-69499504D01*
X63625000Y-69475000D01*
X63625000Y-68725000D01*
X63626204Y-68700496D01*
X63629804Y-68676227D01*
X63635765Y-68652429D01*
X63644030Y-68629329D01*
X63654520Y-68607151D01*
X63667133Y-68586107D01*
X63681747Y-68566402D01*
X63698223Y-68548223D01*
X63716402Y-68531747D01*
X63736107Y-68517133D01*
X63757151Y-68504520D01*
X63779329Y-68494030D01*
X63802429Y-68485765D01*
X63826227Y-68479804D01*
X63850496Y-68476204D01*
X63875000Y-68475000D01*
X65125000Y-68475000D01*
X65149504Y-68476204D01*
X65149504Y-68476204D01*
G37*
D20*
X64500000Y-69100000D03*
D17*
G36*
X65149504Y-71276204D02*
G01*
X65173773Y-71279804D01*
X65197571Y-71285765D01*
X65220671Y-71294030D01*
X65242849Y-71304520D01*
X65263893Y-71317133D01*
X65283598Y-71331747D01*
X65301777Y-71348223D01*
X65318253Y-71366402D01*
X65332867Y-71386107D01*
X65345480Y-71407151D01*
X65355970Y-71429329D01*
X65364235Y-71452429D01*
X65370196Y-71476227D01*
X65373796Y-71500496D01*
X65375000Y-71525000D01*
X65375000Y-72275000D01*
X65373796Y-72299504D01*
X65370196Y-72323773D01*
X65364235Y-72347571D01*
X65355970Y-72370671D01*
X65345480Y-72392849D01*
X65332867Y-72413893D01*
X65318253Y-72433598D01*
X65301777Y-72451777D01*
X65283598Y-72468253D01*
X65263893Y-72482867D01*
X65242849Y-72495480D01*
X65220671Y-72505970D01*
X65197571Y-72514235D01*
X65173773Y-72520196D01*
X65149504Y-72523796D01*
X65125000Y-72525000D01*
X63875000Y-72525000D01*
X63850496Y-72523796D01*
X63826227Y-72520196D01*
X63802429Y-72514235D01*
X63779329Y-72505970D01*
X63757151Y-72495480D01*
X63736107Y-72482867D01*
X63716402Y-72468253D01*
X63698223Y-72451777D01*
X63681747Y-72433598D01*
X63667133Y-72413893D01*
X63654520Y-72392849D01*
X63644030Y-72370671D01*
X63635765Y-72347571D01*
X63629804Y-72323773D01*
X63626204Y-72299504D01*
X63625000Y-72275000D01*
X63625000Y-71525000D01*
X63626204Y-71500496D01*
X63629804Y-71476227D01*
X63635765Y-71452429D01*
X63644030Y-71429329D01*
X63654520Y-71407151D01*
X63667133Y-71386107D01*
X63681747Y-71366402D01*
X63698223Y-71348223D01*
X63716402Y-71331747D01*
X63736107Y-71317133D01*
X63757151Y-71304520D01*
X63779329Y-71294030D01*
X63802429Y-71285765D01*
X63826227Y-71279804D01*
X63850496Y-71276204D01*
X63875000Y-71275000D01*
X65125000Y-71275000D01*
X65149504Y-71276204D01*
X65149504Y-71276204D01*
G37*
D20*
X64500000Y-71900000D03*
D17*
G36*
X68649504Y-71276204D02*
G01*
X68673773Y-71279804D01*
X68697571Y-71285765D01*
X68720671Y-71294030D01*
X68742849Y-71304520D01*
X68763893Y-71317133D01*
X68783598Y-71331747D01*
X68801777Y-71348223D01*
X68818253Y-71366402D01*
X68832867Y-71386107D01*
X68845480Y-71407151D01*
X68855970Y-71429329D01*
X68864235Y-71452429D01*
X68870196Y-71476227D01*
X68873796Y-71500496D01*
X68875000Y-71525000D01*
X68875000Y-72275000D01*
X68873796Y-72299504D01*
X68870196Y-72323773D01*
X68864235Y-72347571D01*
X68855970Y-72370671D01*
X68845480Y-72392849D01*
X68832867Y-72413893D01*
X68818253Y-72433598D01*
X68801777Y-72451777D01*
X68783598Y-72468253D01*
X68763893Y-72482867D01*
X68742849Y-72495480D01*
X68720671Y-72505970D01*
X68697571Y-72514235D01*
X68673773Y-72520196D01*
X68649504Y-72523796D01*
X68625000Y-72525000D01*
X67375000Y-72525000D01*
X67350496Y-72523796D01*
X67326227Y-72520196D01*
X67302429Y-72514235D01*
X67279329Y-72505970D01*
X67257151Y-72495480D01*
X67236107Y-72482867D01*
X67216402Y-72468253D01*
X67198223Y-72451777D01*
X67181747Y-72433598D01*
X67167133Y-72413893D01*
X67154520Y-72392849D01*
X67144030Y-72370671D01*
X67135765Y-72347571D01*
X67129804Y-72323773D01*
X67126204Y-72299504D01*
X67125000Y-72275000D01*
X67125000Y-71525000D01*
X67126204Y-71500496D01*
X67129804Y-71476227D01*
X67135765Y-71452429D01*
X67144030Y-71429329D01*
X67154520Y-71407151D01*
X67167133Y-71386107D01*
X67181747Y-71366402D01*
X67198223Y-71348223D01*
X67216402Y-71331747D01*
X67236107Y-71317133D01*
X67257151Y-71304520D01*
X67279329Y-71294030D01*
X67302429Y-71285765D01*
X67326227Y-71279804D01*
X67350496Y-71276204D01*
X67375000Y-71275000D01*
X68625000Y-71275000D01*
X68649504Y-71276204D01*
X68649504Y-71276204D01*
G37*
D20*
X68000000Y-71900000D03*
D17*
G36*
X68649504Y-68476204D02*
G01*
X68673773Y-68479804D01*
X68697571Y-68485765D01*
X68720671Y-68494030D01*
X68742849Y-68504520D01*
X68763893Y-68517133D01*
X68783598Y-68531747D01*
X68801777Y-68548223D01*
X68818253Y-68566402D01*
X68832867Y-68586107D01*
X68845480Y-68607151D01*
X68855970Y-68629329D01*
X68864235Y-68652429D01*
X68870196Y-68676227D01*
X68873796Y-68700496D01*
X68875000Y-68725000D01*
X68875000Y-69475000D01*
X68873796Y-69499504D01*
X68870196Y-69523773D01*
X68864235Y-69547571D01*
X68855970Y-69570671D01*
X68845480Y-69592849D01*
X68832867Y-69613893D01*
X68818253Y-69633598D01*
X68801777Y-69651777D01*
X68783598Y-69668253D01*
X68763893Y-69682867D01*
X68742849Y-69695480D01*
X68720671Y-69705970D01*
X68697571Y-69714235D01*
X68673773Y-69720196D01*
X68649504Y-69723796D01*
X68625000Y-69725000D01*
X67375000Y-69725000D01*
X67350496Y-69723796D01*
X67326227Y-69720196D01*
X67302429Y-69714235D01*
X67279329Y-69705970D01*
X67257151Y-69695480D01*
X67236107Y-69682867D01*
X67216402Y-69668253D01*
X67198223Y-69651777D01*
X67181747Y-69633598D01*
X67167133Y-69613893D01*
X67154520Y-69592849D01*
X67144030Y-69570671D01*
X67135765Y-69547571D01*
X67129804Y-69523773D01*
X67126204Y-69499504D01*
X67125000Y-69475000D01*
X67125000Y-68725000D01*
X67126204Y-68700496D01*
X67129804Y-68676227D01*
X67135765Y-68652429D01*
X67144030Y-68629329D01*
X67154520Y-68607151D01*
X67167133Y-68586107D01*
X67181747Y-68566402D01*
X67198223Y-68548223D01*
X67216402Y-68531747D01*
X67236107Y-68517133D01*
X67257151Y-68504520D01*
X67279329Y-68494030D01*
X67302429Y-68485765D01*
X67326227Y-68479804D01*
X67350496Y-68476204D01*
X67375000Y-68475000D01*
X68625000Y-68475000D01*
X68649504Y-68476204D01*
X68649504Y-68476204D01*
G37*
D20*
X68000000Y-69100000D03*
D17*
G36*
X72149504Y-68476204D02*
G01*
X72173773Y-68479804D01*
X72197571Y-68485765D01*
X72220671Y-68494030D01*
X72242849Y-68504520D01*
X72263893Y-68517133D01*
X72283598Y-68531747D01*
X72301777Y-68548223D01*
X72318253Y-68566402D01*
X72332867Y-68586107D01*
X72345480Y-68607151D01*
X72355970Y-68629329D01*
X72364235Y-68652429D01*
X72370196Y-68676227D01*
X72373796Y-68700496D01*
X72375000Y-68725000D01*
X72375000Y-69475000D01*
X72373796Y-69499504D01*
X72370196Y-69523773D01*
X72364235Y-69547571D01*
X72355970Y-69570671D01*
X72345480Y-69592849D01*
X72332867Y-69613893D01*
X72318253Y-69633598D01*
X72301777Y-69651777D01*
X72283598Y-69668253D01*
X72263893Y-69682867D01*
X72242849Y-69695480D01*
X72220671Y-69705970D01*
X72197571Y-69714235D01*
X72173773Y-69720196D01*
X72149504Y-69723796D01*
X72125000Y-69725000D01*
X70875000Y-69725000D01*
X70850496Y-69723796D01*
X70826227Y-69720196D01*
X70802429Y-69714235D01*
X70779329Y-69705970D01*
X70757151Y-69695480D01*
X70736107Y-69682867D01*
X70716402Y-69668253D01*
X70698223Y-69651777D01*
X70681747Y-69633598D01*
X70667133Y-69613893D01*
X70654520Y-69592849D01*
X70644030Y-69570671D01*
X70635765Y-69547571D01*
X70629804Y-69523773D01*
X70626204Y-69499504D01*
X70625000Y-69475000D01*
X70625000Y-68725000D01*
X70626204Y-68700496D01*
X70629804Y-68676227D01*
X70635765Y-68652429D01*
X70644030Y-68629329D01*
X70654520Y-68607151D01*
X70667133Y-68586107D01*
X70681747Y-68566402D01*
X70698223Y-68548223D01*
X70716402Y-68531747D01*
X70736107Y-68517133D01*
X70757151Y-68504520D01*
X70779329Y-68494030D01*
X70802429Y-68485765D01*
X70826227Y-68479804D01*
X70850496Y-68476204D01*
X70875000Y-68475000D01*
X72125000Y-68475000D01*
X72149504Y-68476204D01*
X72149504Y-68476204D01*
G37*
D20*
X71500000Y-69100000D03*
D17*
G36*
X72149504Y-71276204D02*
G01*
X72173773Y-71279804D01*
X72197571Y-71285765D01*
X72220671Y-71294030D01*
X72242849Y-71304520D01*
X72263893Y-71317133D01*
X72283598Y-71331747D01*
X72301777Y-71348223D01*
X72318253Y-71366402D01*
X72332867Y-71386107D01*
X72345480Y-71407151D01*
X72355970Y-71429329D01*
X72364235Y-71452429D01*
X72370196Y-71476227D01*
X72373796Y-71500496D01*
X72375000Y-71525000D01*
X72375000Y-72275000D01*
X72373796Y-72299504D01*
X72370196Y-72323773D01*
X72364235Y-72347571D01*
X72355970Y-72370671D01*
X72345480Y-72392849D01*
X72332867Y-72413893D01*
X72318253Y-72433598D01*
X72301777Y-72451777D01*
X72283598Y-72468253D01*
X72263893Y-72482867D01*
X72242849Y-72495480D01*
X72220671Y-72505970D01*
X72197571Y-72514235D01*
X72173773Y-72520196D01*
X72149504Y-72523796D01*
X72125000Y-72525000D01*
X70875000Y-72525000D01*
X70850496Y-72523796D01*
X70826227Y-72520196D01*
X70802429Y-72514235D01*
X70779329Y-72505970D01*
X70757151Y-72495480D01*
X70736107Y-72482867D01*
X70716402Y-72468253D01*
X70698223Y-72451777D01*
X70681747Y-72433598D01*
X70667133Y-72413893D01*
X70654520Y-72392849D01*
X70644030Y-72370671D01*
X70635765Y-72347571D01*
X70629804Y-72323773D01*
X70626204Y-72299504D01*
X70625000Y-72275000D01*
X70625000Y-71525000D01*
X70626204Y-71500496D01*
X70629804Y-71476227D01*
X70635765Y-71452429D01*
X70644030Y-71429329D01*
X70654520Y-71407151D01*
X70667133Y-71386107D01*
X70681747Y-71366402D01*
X70698223Y-71348223D01*
X70716402Y-71331747D01*
X70736107Y-71317133D01*
X70757151Y-71304520D01*
X70779329Y-71294030D01*
X70802429Y-71285765D01*
X70826227Y-71279804D01*
X70850496Y-71276204D01*
X70875000Y-71275000D01*
X72125000Y-71275000D01*
X72149504Y-71276204D01*
X72149504Y-71276204D01*
G37*
D20*
X71500000Y-71900000D03*
D17*
G36*
X75649504Y-71276204D02*
G01*
X75673773Y-71279804D01*
X75697571Y-71285765D01*
X75720671Y-71294030D01*
X75742849Y-71304520D01*
X75763893Y-71317133D01*
X75783598Y-71331747D01*
X75801777Y-71348223D01*
X75818253Y-71366402D01*
X75832867Y-71386107D01*
X75845480Y-71407151D01*
X75855970Y-71429329D01*
X75864235Y-71452429D01*
X75870196Y-71476227D01*
X75873796Y-71500496D01*
X75875000Y-71525000D01*
X75875000Y-72275000D01*
X75873796Y-72299504D01*
X75870196Y-72323773D01*
X75864235Y-72347571D01*
X75855970Y-72370671D01*
X75845480Y-72392849D01*
X75832867Y-72413893D01*
X75818253Y-72433598D01*
X75801777Y-72451777D01*
X75783598Y-72468253D01*
X75763893Y-72482867D01*
X75742849Y-72495480D01*
X75720671Y-72505970D01*
X75697571Y-72514235D01*
X75673773Y-72520196D01*
X75649504Y-72523796D01*
X75625000Y-72525000D01*
X74375000Y-72525000D01*
X74350496Y-72523796D01*
X74326227Y-72520196D01*
X74302429Y-72514235D01*
X74279329Y-72505970D01*
X74257151Y-72495480D01*
X74236107Y-72482867D01*
X74216402Y-72468253D01*
X74198223Y-72451777D01*
X74181747Y-72433598D01*
X74167133Y-72413893D01*
X74154520Y-72392849D01*
X74144030Y-72370671D01*
X74135765Y-72347571D01*
X74129804Y-72323773D01*
X74126204Y-72299504D01*
X74125000Y-72275000D01*
X74125000Y-71525000D01*
X74126204Y-71500496D01*
X74129804Y-71476227D01*
X74135765Y-71452429D01*
X74144030Y-71429329D01*
X74154520Y-71407151D01*
X74167133Y-71386107D01*
X74181747Y-71366402D01*
X74198223Y-71348223D01*
X74216402Y-71331747D01*
X74236107Y-71317133D01*
X74257151Y-71304520D01*
X74279329Y-71294030D01*
X74302429Y-71285765D01*
X74326227Y-71279804D01*
X74350496Y-71276204D01*
X74375000Y-71275000D01*
X75625000Y-71275000D01*
X75649504Y-71276204D01*
X75649504Y-71276204D01*
G37*
D20*
X75000000Y-71900000D03*
D17*
G36*
X75649504Y-68476204D02*
G01*
X75673773Y-68479804D01*
X75697571Y-68485765D01*
X75720671Y-68494030D01*
X75742849Y-68504520D01*
X75763893Y-68517133D01*
X75783598Y-68531747D01*
X75801777Y-68548223D01*
X75818253Y-68566402D01*
X75832867Y-68586107D01*
X75845480Y-68607151D01*
X75855970Y-68629329D01*
X75864235Y-68652429D01*
X75870196Y-68676227D01*
X75873796Y-68700496D01*
X75875000Y-68725000D01*
X75875000Y-69475000D01*
X75873796Y-69499504D01*
X75870196Y-69523773D01*
X75864235Y-69547571D01*
X75855970Y-69570671D01*
X75845480Y-69592849D01*
X75832867Y-69613893D01*
X75818253Y-69633598D01*
X75801777Y-69651777D01*
X75783598Y-69668253D01*
X75763893Y-69682867D01*
X75742849Y-69695480D01*
X75720671Y-69705970D01*
X75697571Y-69714235D01*
X75673773Y-69720196D01*
X75649504Y-69723796D01*
X75625000Y-69725000D01*
X74375000Y-69725000D01*
X74350496Y-69723796D01*
X74326227Y-69720196D01*
X74302429Y-69714235D01*
X74279329Y-69705970D01*
X74257151Y-69695480D01*
X74236107Y-69682867D01*
X74216402Y-69668253D01*
X74198223Y-69651777D01*
X74181747Y-69633598D01*
X74167133Y-69613893D01*
X74154520Y-69592849D01*
X74144030Y-69570671D01*
X74135765Y-69547571D01*
X74129804Y-69523773D01*
X74126204Y-69499504D01*
X74125000Y-69475000D01*
X74125000Y-68725000D01*
X74126204Y-68700496D01*
X74129804Y-68676227D01*
X74135765Y-68652429D01*
X74144030Y-68629329D01*
X74154520Y-68607151D01*
X74167133Y-68586107D01*
X74181747Y-68566402D01*
X74198223Y-68548223D01*
X74216402Y-68531747D01*
X74236107Y-68517133D01*
X74257151Y-68504520D01*
X74279329Y-68494030D01*
X74302429Y-68485765D01*
X74326227Y-68479804D01*
X74350496Y-68476204D01*
X74375000Y-68475000D01*
X75625000Y-68475000D01*
X75649504Y-68476204D01*
X75649504Y-68476204D01*
G37*
D20*
X75000000Y-69100000D03*
D24*
X35750000Y-41250000D03*
D25*
X34750000Y-41900000D03*
X35750000Y-42550000D03*
X34750000Y-43200000D03*
X35750000Y-43850000D03*
D26*
X35530000Y-38975000D03*
X35530000Y-46125000D03*
D27*
X76715000Y-48350000D03*
X75515000Y-48350000D03*
X74315000Y-48350000D03*
X76715000Y-45950000D03*
X75515000Y-45950000D03*
X74315000Y-45950000D03*
X76715000Y-47150000D03*
X74315000Y-47150000D03*
X75515000Y-47150000D03*
D28*
X84750000Y-59000000D03*
D29*
X32750000Y-60267000D03*
X32750000Y-60775000D03*
X32750000Y-61283000D03*
X32750000Y-61791000D03*
X32750000Y-62299000D03*
X33493000Y-62299000D03*
X33500000Y-61791000D03*
X33500000Y-61283000D03*
X33500000Y-60775000D03*
X33500000Y-60267000D03*
D30*
X31750000Y-69000000D03*
D28*
X73500000Y-51250000D03*
D30*
X84750000Y-68250000D03*
D29*
X46000000Y-35500000D03*
X42000000Y-45000000D03*
X43750000Y-43250000D03*
X46000000Y-40750000D03*
X49250000Y-51750000D03*
X72000000Y-57897029D03*
X48606000Y-50869000D03*
X79500000Y-48250000D03*
X65250000Y-44500000D03*
X64982600Y-41103843D03*
X63750000Y-39000000D03*
X50892000Y-38740442D03*
X48750000Y-40250000D03*
X66000000Y-44500000D03*
X65250000Y-40500000D03*
X65250000Y-38250000D03*
X49250000Y-40750000D03*
X64500000Y-44500000D03*
X64500000Y-40500000D03*
X64500000Y-38250000D03*
X49750000Y-41250000D03*
X66750000Y-44500000D03*
X66750000Y-40500000D03*
X66750000Y-38250000D03*
X55750000Y-45750000D03*
X58500000Y-43250000D03*
X55250000Y-46216600D03*
X55250000Y-41500000D03*
X77750000Y-55500000D03*
X46500000Y-45750000D03*
X41494000Y-56457000D03*
X41494000Y-56965000D03*
X40732000Y-56965000D03*
X40732000Y-56457000D03*
X41494000Y-55949000D03*
X40732000Y-55949000D03*
X40732000Y-55441000D03*
X41494000Y-55441000D03*
X41100000Y-59000000D03*
X37300000Y-63100000D03*
X52250000Y-59150000D03*
X59250000Y-59150000D03*
X73250000Y-59150000D03*
X66250000Y-59150000D03*
D28*
X75615000Y-55000000D03*
X70535000Y-51785000D03*
X70154000Y-40596000D03*
D29*
X37684000Y-52450000D03*
X52250000Y-52250000D03*
X57500000Y-45408000D03*
X52250000Y-40750000D03*
X45250000Y-49750000D03*
D28*
X40082000Y-37450000D03*
D31*
X60036000Y-34168500D03*
D29*
X40732000Y-54933000D03*
X41494000Y-54933000D03*
X58250000Y-56000000D03*
X53750000Y-56000000D03*
X53250000Y-54500000D03*
X52250000Y-55500000D03*
X47000000Y-47250000D03*
X81250000Y-50000000D03*
X79000000Y-50000000D03*
X46500000Y-46750000D03*
X81750000Y-49500000D03*
X78500000Y-49500000D03*
X47000000Y-46250000D03*
X73750000Y-56000000D03*
X50250000Y-41750000D03*
X62000000Y-45500000D03*
X50750000Y-42250000D03*
X61339597Y-45500000D03*
X59250000Y-40500000D03*
X52352150Y-42250000D03*
X80250000Y-39500000D03*
X80750000Y-39000000D03*
X52763343Y-41733231D03*
X60250000Y-40092220D03*
X56750000Y-44750000D03*
X67000000Y-53250000D03*
X56250000Y-45250000D03*
X60250000Y-55000000D03*
X55750000Y-48000000D03*
X55750000Y-52750000D03*
X55750000Y-55500000D03*
X51750000Y-56000000D03*
D30*
X52500000Y-78750000D03*
X56000000Y-78750000D03*
X59500000Y-78750000D03*
X63000000Y-78750000D03*
X52250000Y-65000000D03*
X59250000Y-65000000D03*
X66250000Y-65000000D03*
X73250000Y-65000000D03*
D29*
X41204000Y-64700000D03*
X42104000Y-66600000D03*
X56250000Y-43750000D03*
X59250000Y-43161400D03*
X62500000Y-43161400D03*
X62500000Y-39500000D03*
X36000000Y-50750000D03*
X46000000Y-51351601D03*
X52750000Y-51504000D03*
X42250000Y-35500000D03*
X52818750Y-50742000D03*
X41000000Y-35500000D03*
D28*
X76631000Y-52119000D03*
D32*
X68200000Y-78800000D02*
X68200000Y-80250000D01*
X71700000Y-78800000D02*
X71700000Y-80250000D01*
X75200000Y-78800000D02*
X75200000Y-80250000D01*
X78700000Y-78800000D02*
X78700000Y-80250000D01*
X67700000Y-79750000D02*
X68200000Y-80250000D01*
X65800000Y-79750000D02*
X67700000Y-79750000D01*
X68700000Y-79750000D02*
X68200000Y-80250000D01*
X69300000Y-79750000D02*
X68700000Y-79750000D01*
X71200000Y-79750000D02*
X71700000Y-80250000D01*
X69300000Y-79750000D02*
X71200000Y-79750000D01*
X72200000Y-79750000D02*
X71700000Y-80250000D01*
X72800000Y-79750000D02*
X72200000Y-79750000D01*
X74700000Y-79750000D02*
X75200000Y-80250000D01*
X72800000Y-79750000D02*
X74700000Y-79750000D01*
X75700000Y-79750000D02*
X76300000Y-79750000D01*
X75200000Y-80250000D02*
X75700000Y-79750000D01*
X78200000Y-79750000D02*
X78700000Y-80250000D01*
X76300000Y-79750000D02*
X78200000Y-79750000D01*
D33*
X79585000Y-80250000D02*
X78700000Y-80250000D01*
X80000000Y-79835000D02*
X79585000Y-80250000D01*
X80000000Y-79750000D02*
X80000000Y-79835000D01*
D34*
X31750000Y-69000000D02*
X31750000Y-67550000D01*
X74315000Y-48350000D02*
X76715000Y-48350000D01*
X76715000Y-48350000D02*
X76715000Y-47150000D01*
X76715000Y-47150000D02*
X76715000Y-45950000D01*
X76715000Y-45950000D02*
X74315000Y-45950000D01*
X74315000Y-45950000D02*
X74315000Y-48350000D01*
X74315000Y-47150000D02*
X76715000Y-47150000D01*
X75515000Y-48350000D02*
X75515000Y-45950000D01*
X75515000Y-48350000D02*
X75515000Y-50000000D01*
X76715000Y-48350000D02*
X77500000Y-49135000D01*
X77500000Y-49135000D02*
X77500000Y-50500000D01*
X73500000Y-52250000D02*
X73500000Y-51250000D01*
D35*
X83750000Y-76000000D02*
X80000000Y-79750000D01*
X84750000Y-75000000D02*
X83750000Y-76000000D01*
X84750000Y-68250000D02*
X84750000Y-75000000D01*
X84750000Y-68250000D02*
X84750000Y-59000000D01*
D33*
X54000000Y-74250000D02*
X54000000Y-76900000D01*
X54000000Y-78800000D02*
X54000000Y-76900000D01*
D36*
X71581580Y-81868420D02*
X56118420Y-81868420D01*
X72750000Y-80700000D02*
X71581580Y-81868420D01*
X72800000Y-80700000D02*
X72750000Y-80700000D01*
X54000000Y-79750000D02*
X54000000Y-78800000D01*
X56118420Y-81868420D02*
X54000000Y-79750000D01*
D33*
X54000000Y-71950000D02*
X54000000Y-74250000D01*
D37*
X42000000Y-45000000D02*
X43750000Y-43250000D01*
X46000000Y-40750000D02*
X46000000Y-35500000D01*
X49780760Y-52280760D02*
X49780760Y-54469240D01*
X49250000Y-51750000D02*
X49780760Y-52280760D01*
X49780761Y-56502513D02*
X50997487Y-57719237D01*
X49780760Y-54469240D02*
X49780761Y-56502513D01*
X50997487Y-57719237D02*
X55500000Y-57719238D01*
X55500000Y-57719238D02*
X71780763Y-57719238D01*
X71822209Y-57719238D02*
X72000000Y-57897029D01*
X71780763Y-57719238D02*
X71822209Y-57719238D01*
X79500000Y-55326382D02*
X79500000Y-48250000D01*
X76826382Y-58000000D02*
X79500000Y-55326382D01*
X72500000Y-58111279D02*
X72500000Y-58000000D01*
X71500000Y-58024048D02*
X71500000Y-58111279D01*
X55373744Y-58024048D02*
X71500000Y-58024048D01*
X71500000Y-58111279D02*
X71768351Y-58379630D01*
X72500000Y-58000000D02*
X76826382Y-58000000D01*
X72231649Y-58379630D02*
X72500000Y-58111279D01*
X55373742Y-58024046D02*
X55373744Y-58024048D01*
X50871232Y-58024046D02*
X55373742Y-58024046D01*
X49475950Y-56628767D02*
X50871232Y-58024046D01*
X49475950Y-52690200D02*
X49475950Y-56628767D01*
X71768351Y-58379630D02*
X72231649Y-58379630D01*
X48606000Y-51820250D02*
X49475950Y-52690200D01*
X48606000Y-50869000D02*
X48606000Y-51820250D01*
X65250000Y-41371243D02*
X64982600Y-41103843D01*
X65250000Y-44500000D02*
X65250000Y-41371243D01*
X51252482Y-39000000D02*
X51246923Y-38994441D01*
X63750000Y-39000000D02*
X51252482Y-39000000D01*
X51151558Y-39000000D02*
X51252482Y-39000000D01*
X50892000Y-38740442D02*
X51151558Y-39000000D01*
X66000000Y-41250000D02*
X65250000Y-40500000D01*
X66000000Y-44500000D02*
X66000000Y-41250000D01*
X48750000Y-40250000D02*
X48750000Y-39887868D01*
X48750000Y-39890790D02*
X48750000Y-40250000D01*
X48750000Y-39306060D02*
X48750000Y-39890790D01*
X50407838Y-37648222D02*
X48750000Y-39306060D01*
X64648222Y-37648222D02*
X50407838Y-37648222D01*
X65250000Y-38250000D02*
X64648222Y-37648222D01*
X49250000Y-40750000D02*
X49250000Y-39818934D01*
X64500000Y-40500000D02*
X64500000Y-44500000D01*
X49250000Y-40390790D02*
X49250000Y-40750000D01*
X49250000Y-39237126D02*
X49250000Y-40390790D01*
X50534095Y-37953031D02*
X49250000Y-39237126D01*
X64203031Y-37953031D02*
X50534095Y-37953031D01*
X64500000Y-38250000D02*
X64203031Y-37953031D01*
X49750000Y-39750000D02*
X49750000Y-41250000D01*
X66750000Y-44500000D02*
X66750000Y-41250000D01*
X66750000Y-41250000D02*
X66750000Y-40500000D01*
X66267399Y-38732601D02*
X64232601Y-38732601D01*
X66750000Y-38250000D02*
X66267399Y-38732601D01*
X64232601Y-38732601D02*
X64000000Y-38500000D01*
X49750000Y-40890790D02*
X49750000Y-41250000D01*
X49750000Y-39168192D02*
X49750000Y-40890790D01*
X50660351Y-38257841D02*
X49750000Y-39168192D01*
X63653841Y-38257841D02*
X50660351Y-38257841D01*
X63896000Y-38500000D02*
X63653841Y-38257841D01*
X64000000Y-38500000D02*
X63896000Y-38500000D01*
X55750000Y-45390790D02*
X55750000Y-45750000D01*
X55750000Y-43390790D02*
X55750000Y-45390790D01*
X55890790Y-43250000D02*
X55750000Y-43390790D01*
X56250000Y-43250000D02*
X55890790Y-43250000D01*
X56250000Y-43250000D02*
X58500000Y-43250000D01*
X55250000Y-41500000D02*
X55250000Y-46216600D01*
D33*
X57500000Y-74250000D02*
X57500000Y-76900000D01*
X57500000Y-76900000D02*
X57500000Y-78800000D01*
D36*
X69250000Y-80700000D02*
X69300000Y-80700000D01*
X68665790Y-81284210D02*
X69250000Y-80700000D01*
X59152410Y-81284210D02*
X68665790Y-81284210D01*
X57500000Y-79631800D02*
X59152410Y-81284210D01*
X57500000Y-78800000D02*
X57500000Y-79631800D01*
D33*
X57500000Y-71950000D02*
X57500000Y-74250000D01*
X61000000Y-78800000D02*
X61000000Y-76900000D01*
X61000000Y-74250000D02*
X61000000Y-76900000D01*
D36*
X61000000Y-79631800D02*
X61000000Y-78800000D01*
X62068200Y-80700000D02*
X61000000Y-79631800D01*
X65800000Y-80700000D02*
X62068200Y-80700000D01*
D33*
X61000000Y-71950000D02*
X61000000Y-74250000D01*
D37*
X51000000Y-55964250D02*
X51000000Y-47500000D01*
X51535750Y-56500000D02*
X51000000Y-55964250D01*
X62500000Y-56500000D02*
X51535750Y-56500000D01*
X74500000Y-56000000D02*
X74000000Y-55500000D01*
X49250000Y-45750000D02*
X46500000Y-45750000D01*
X51000000Y-47500000D02*
X49250000Y-45750000D01*
X74000000Y-55500000D02*
X63500000Y-55500000D01*
X76890790Y-56000000D02*
X74500000Y-56000000D01*
X77390790Y-55500000D02*
X76890790Y-56000000D01*
X63500000Y-55500000D02*
X62500000Y-56500000D01*
X77750000Y-55500000D02*
X77390790Y-55500000D01*
D38*
X40740790Y-59000000D02*
X37300000Y-62440790D01*
X41100000Y-59000000D02*
X40740790Y-59000000D01*
X37300000Y-62440790D02*
X37300000Y-63100000D01*
D39*
X78500000Y-59000000D02*
X78500000Y-59800000D01*
X77550000Y-59800000D02*
X78500000Y-59800000D01*
X78500000Y-59800000D02*
X79450000Y-59800000D01*
X79450000Y-59800000D02*
X79250000Y-59600000D01*
X79250000Y-59600000D02*
X79250000Y-59000000D01*
X78500000Y-59800000D02*
X78300000Y-59800000D01*
X78300000Y-59800000D02*
X77500000Y-59000000D01*
D34*
X74365000Y-53750000D02*
X75615000Y-55000000D01*
X73500000Y-53750000D02*
X74365000Y-53750000D01*
D33*
X75000000Y-71950000D02*
X75000000Y-74250000D01*
X71500000Y-71950000D02*
X71500000Y-74250000D01*
X68000000Y-71950000D02*
X68000000Y-74250000D01*
X64500000Y-71950000D02*
X64500000Y-74281729D01*
D32*
X35530000Y-46125000D02*
X33400000Y-43995000D01*
X33400000Y-41105000D02*
X35530000Y-38975000D01*
X33400000Y-43995000D02*
X33400000Y-41105000D01*
D37*
X58250000Y-56000000D02*
X53750000Y-56000000D01*
X53250000Y-54500000D02*
X52250000Y-55500000D01*
X72850000Y-78800000D02*
X73587182Y-78062818D01*
D38*
X72800000Y-78800000D02*
X72850000Y-78800000D01*
D37*
X77279250Y-77750000D02*
X79925250Y-77750000D01*
X76966432Y-78062818D02*
X77279250Y-77750000D01*
X73587182Y-78062818D02*
X76966432Y-78062818D01*
X49387868Y-47250000D02*
X47000000Y-47250000D01*
X50085570Y-47947702D02*
X49387868Y-47250000D01*
X50085570Y-56376256D02*
X50085570Y-47947702D01*
X51123742Y-57414428D02*
X50085570Y-56376256D01*
X76980887Y-57414429D02*
X51123742Y-57414428D01*
X79000000Y-55395316D02*
X76980887Y-57414429D01*
X79000000Y-50000000D02*
X79000000Y-55395316D01*
X80000000Y-77750000D02*
X83445190Y-74304810D01*
X79925250Y-77750000D02*
X80000000Y-77750000D01*
X83445190Y-52195190D02*
X81250000Y-50000000D01*
X83445190Y-74304810D02*
X83445190Y-52195190D01*
D38*
X76300000Y-78800000D02*
X76804000Y-78800000D01*
D37*
X50390380Y-47821446D02*
X49318934Y-46750000D01*
X49318934Y-46750000D02*
X46500000Y-46750000D01*
X51249999Y-57109619D02*
X50390380Y-56250000D01*
X50390380Y-56250000D02*
X50390380Y-47821446D01*
X76854631Y-57109619D02*
X51249999Y-57109619D01*
X78500000Y-49500000D02*
X78500000Y-55464250D01*
X78500000Y-55464250D02*
X76854631Y-57109619D01*
X83750000Y-74500000D02*
X83750000Y-51500000D01*
X83750000Y-51500000D02*
X81750000Y-49500000D01*
X80000000Y-78250000D02*
X83750000Y-74500000D01*
X77354000Y-78250000D02*
X80000000Y-78250000D01*
X76804000Y-78800000D02*
X77354000Y-78250000D01*
X49250000Y-46250000D02*
X47000000Y-46250000D01*
X50695190Y-56090506D02*
X50695190Y-47695190D01*
X50695190Y-47695190D02*
X49250000Y-46250000D01*
X62626256Y-56804810D02*
X51409493Y-56804809D01*
X63431066Y-56000000D02*
X62626256Y-56804810D01*
X51409493Y-56804809D02*
X50695190Y-56090506D01*
X73750000Y-56000000D02*
X63431066Y-56000000D01*
X62000000Y-44500000D02*
X62000000Y-45500000D01*
X62000000Y-39304810D02*
X62000000Y-44500000D01*
X51996958Y-39477042D02*
X52169190Y-39304810D01*
X52169190Y-39304810D02*
X62000000Y-39304810D01*
X50522958Y-39477042D02*
X51996958Y-39477042D01*
X50250000Y-39750000D02*
X50522958Y-39477042D01*
X50250000Y-41750000D02*
X50250000Y-39750000D01*
X50750000Y-42250000D02*
X50750000Y-39781852D01*
X61250000Y-39609620D02*
X61339597Y-39699217D01*
X50750000Y-39781852D02*
X52200148Y-39781852D01*
X52372380Y-39609620D02*
X61250000Y-39609620D01*
X61339597Y-39699217D02*
X61339597Y-45500000D01*
X52200148Y-39781852D02*
X52372380Y-39609620D01*
D38*
X65800000Y-78800000D02*
X65850000Y-78800000D01*
D37*
X53068153Y-40219240D02*
X58969240Y-40219240D01*
X53068153Y-41318153D02*
X53068153Y-40219240D01*
X53245944Y-41964880D02*
X53245944Y-41495944D01*
X53245944Y-41495944D02*
X53068153Y-41318153D01*
X58969240Y-40219240D02*
X59250000Y-40500000D01*
X52352150Y-42250000D02*
X52960824Y-42250000D01*
X52960824Y-42250000D02*
X53245944Y-41964880D01*
X80250000Y-50181066D02*
X80250000Y-50000000D01*
X82835570Y-73914430D02*
X82835570Y-52766636D01*
X80000000Y-76750000D02*
X82835570Y-73914430D01*
X65850000Y-78800000D02*
X67400000Y-77250000D01*
X76629750Y-77250000D02*
X77129750Y-76750000D01*
X82835570Y-52766636D02*
X80250000Y-50181066D01*
X67400000Y-77250000D02*
X76629750Y-77250000D01*
X77129750Y-76750000D02*
X80000000Y-76750000D01*
X80250000Y-39500000D02*
X80250000Y-50000000D01*
X52835570Y-39914430D02*
X57250000Y-39914430D01*
X52763343Y-41733231D02*
X52763343Y-40151087D01*
X59664430Y-39914430D02*
X60072210Y-39914430D01*
X52763343Y-39986657D02*
X52835570Y-39914430D01*
X57250000Y-39914430D02*
X59664430Y-39914430D01*
X52763343Y-40151087D02*
X52763343Y-39986657D01*
X60072210Y-39914430D02*
X60250000Y-40092220D01*
D38*
X69300000Y-78800000D02*
X69350000Y-78800000D01*
D37*
X83140380Y-52640380D02*
X80750000Y-50250000D01*
X80000000Y-77250000D02*
X83140380Y-74109620D01*
X77204500Y-77250000D02*
X80000000Y-77250000D01*
X76798090Y-77656410D02*
X77204500Y-77250000D01*
X80750000Y-50250000D02*
X80750000Y-39000000D01*
X83140380Y-74109620D02*
X83140380Y-52640380D01*
X70493590Y-77656410D02*
X76798090Y-77656410D01*
X69350000Y-78800000D02*
X70493590Y-77656410D01*
X56750000Y-44750000D02*
X56750000Y-45714250D01*
X56750000Y-45714250D02*
X57285750Y-46250000D01*
X60554810Y-49519060D02*
X60554810Y-50123744D01*
X57285750Y-46250000D02*
X60554810Y-49519060D01*
X60554810Y-50123744D02*
X60554810Y-52804810D01*
X61000000Y-53250000D02*
X67000000Y-53250000D01*
X60554810Y-52804810D02*
X61000000Y-53250000D01*
X60250000Y-49645316D02*
X60250000Y-50250000D01*
X56250000Y-45645316D02*
X60250000Y-49645316D01*
X56250000Y-45250000D02*
X56250000Y-45645316D01*
X60250000Y-50250000D02*
X60250000Y-55000000D01*
X55750000Y-48000000D02*
X55750000Y-51250000D01*
X55750000Y-51250000D02*
X55750000Y-52750000D01*
X55750000Y-55500000D02*
X52964250Y-55500000D01*
X52464250Y-56000000D02*
X52964250Y-55500000D01*
X51750000Y-56000000D02*
X52464250Y-56000000D01*
D33*
X50500000Y-78800000D02*
X50500000Y-76900000D01*
X50500000Y-76900000D02*
X50500000Y-74250000D01*
D36*
X74497370Y-82452630D02*
X53202630Y-82452630D01*
X76250000Y-80700000D02*
X74497370Y-82452630D01*
X76300000Y-80700000D02*
X76250000Y-80700000D01*
X50500000Y-79750000D02*
X50500000Y-78800000D01*
X53202630Y-82452630D02*
X50500000Y-79750000D01*
D33*
X50500000Y-71950000D02*
X50500000Y-74250000D01*
D34*
X52500000Y-77850000D02*
X52500000Y-78750000D01*
X56000000Y-77850000D02*
X56000000Y-78750000D01*
X59500000Y-77850000D02*
X59500000Y-78750000D01*
X63000000Y-77850000D02*
X63000000Y-78750000D01*
D40*
X49250000Y-65000000D02*
X52250000Y-65000000D01*
X47000000Y-67250000D02*
X49250000Y-65000000D01*
X47000000Y-74250000D02*
X47000000Y-67250000D01*
X52250000Y-65000000D02*
X59250000Y-65000000D01*
X66250000Y-65000000D02*
X73250000Y-65000000D01*
X62750000Y-65000000D02*
X66250000Y-65000000D01*
X59250000Y-65000000D02*
X62750000Y-65000000D01*
D38*
X42104000Y-65600000D02*
X41204000Y-64700000D01*
X42104000Y-66600000D02*
X42104000Y-65600000D01*
D37*
X59250000Y-43214250D02*
X59250000Y-43161400D01*
X58714250Y-43750000D02*
X59250000Y-43214250D01*
X56250000Y-43750000D02*
X58714250Y-43750000D01*
X62500000Y-43161400D02*
X62500000Y-39500000D01*
X45398399Y-50750000D02*
X46000000Y-51351601D01*
X36000000Y-50750000D02*
X45398399Y-50750000D01*
X42250000Y-38318934D02*
X42250000Y-35500000D01*
X51304809Y-47373743D02*
X42250000Y-38318934D01*
X51304810Y-50058810D02*
X51304809Y-47373743D01*
X52750000Y-51504000D02*
X51304810Y-50058810D01*
X41482601Y-35017399D02*
X41253999Y-35246001D01*
X41253999Y-35246001D02*
X41000000Y-35500000D01*
X42732601Y-35268351D02*
X42481649Y-35017399D01*
X42732601Y-38370469D02*
X42732601Y-35268351D01*
X51609618Y-47247486D02*
X42732601Y-38370469D01*
X51609618Y-48609618D02*
X51609618Y-47247486D01*
X42481649Y-35017399D02*
X41482601Y-35017399D01*
X52818750Y-49818750D02*
X51609618Y-48609618D01*
X52818750Y-50742000D02*
X52818750Y-49818750D01*
D39*
X50500000Y-69050000D02*
X54000000Y-69050000D01*
X54000000Y-69050000D02*
X57500000Y-69050000D01*
X57500000Y-69050000D02*
X61000000Y-69050000D01*
X64500000Y-69050000D02*
X68000000Y-69050000D01*
X68000000Y-69050000D02*
X71500000Y-69050000D01*
X71500000Y-69050000D02*
X75000000Y-69050000D01*
X75000000Y-69050000D02*
X75400000Y-69050000D01*
X78500000Y-64050000D02*
X78500000Y-62700000D01*
X78500000Y-65950000D02*
X78500000Y-64050000D01*
X77450000Y-69050000D02*
X75000000Y-69050000D01*
X78500000Y-68000000D02*
X77450000Y-69050000D01*
X78500000Y-65950000D02*
X78500000Y-68000000D01*
D34*
X61800000Y-69000000D02*
X61750000Y-69050000D01*
D39*
X61000000Y-69050000D02*
X61750000Y-69050000D01*
X63500000Y-69050000D02*
X64500000Y-69050000D01*
X61750000Y-69050000D02*
X63500000Y-69050000D01*
D34*
X61750000Y-68879000D02*
X61750000Y-69050000D01*
X61800000Y-68829000D02*
X61750000Y-68879000D01*
X61800000Y-67617000D02*
X61800000Y-68829000D01*
X63700000Y-68850000D02*
X63500000Y-69050000D01*
X63700000Y-67617000D02*
X63700000Y-68850000D01*
X76512000Y-52000000D02*
X76631000Y-52119000D01*
X75515000Y-52000000D02*
X76512000Y-52000000D01*
X76750000Y-52000000D02*
X76631000Y-52119000D01*
X77500000Y-52000000D02*
X76750000Y-52000000D01*
D38*
G36*
X43123000Y-67873000D02*
G01*
X26329400Y-67873000D01*
X26329400Y-64647465D01*
X40670600Y-64647465D01*
X40670600Y-64752535D01*
X40691098Y-64855587D01*
X40731307Y-64952660D01*
X40789681Y-65040023D01*
X40863977Y-65114319D01*
X40951340Y-65172693D01*
X41048413Y-65212902D01*
X41151465Y-65233400D01*
X41162664Y-65233400D01*
X41697601Y-65768337D01*
X41697600Y-66252058D01*
X41689681Y-66259977D01*
X41631307Y-66347340D01*
X41591098Y-66444413D01*
X41570600Y-66547465D01*
X41570600Y-66652535D01*
X41591098Y-66755587D01*
X41631307Y-66852660D01*
X41689681Y-66940023D01*
X41763977Y-67014319D01*
X41851340Y-67072693D01*
X41948413Y-67112902D01*
X42051465Y-67133400D01*
X42156535Y-67133400D01*
X42259587Y-67112902D01*
X42356660Y-67072693D01*
X42444023Y-67014319D01*
X42518319Y-66940023D01*
X42576693Y-66852660D01*
X42616902Y-66755587D01*
X42637400Y-66652535D01*
X42637400Y-66547465D01*
X42616902Y-66444413D01*
X42576693Y-66347340D01*
X42518319Y-66259977D01*
X42510400Y-66252058D01*
X42510400Y-65619952D01*
X42512365Y-65599999D01*
X42510400Y-65580046D01*
X42510400Y-65580040D01*
X42504519Y-65520332D01*
X42481281Y-65443725D01*
X42443544Y-65373124D01*
X42392758Y-65311242D01*
X42377254Y-65298518D01*
X41737400Y-64658664D01*
X41737400Y-64647465D01*
X41716902Y-64544413D01*
X41676693Y-64447340D01*
X41618319Y-64359977D01*
X41544023Y-64285681D01*
X41456660Y-64227307D01*
X41359587Y-64187098D01*
X41256535Y-64166600D01*
X41151465Y-64166600D01*
X41048413Y-64187098D01*
X40951340Y-64227307D01*
X40863977Y-64285681D01*
X40789681Y-64359977D01*
X40731307Y-64447340D01*
X40691098Y-64544413D01*
X40670600Y-64647465D01*
X26329400Y-64647465D01*
X26329400Y-63047465D01*
X36766600Y-63047465D01*
X36766600Y-63152535D01*
X36787098Y-63255587D01*
X36827307Y-63352660D01*
X36885681Y-63440023D01*
X36959977Y-63514319D01*
X37047340Y-63572693D01*
X37144413Y-63612902D01*
X37247465Y-63633400D01*
X37352535Y-63633400D01*
X37455587Y-63612902D01*
X37552660Y-63572693D01*
X37640023Y-63514319D01*
X37714319Y-63440023D01*
X37772693Y-63352660D01*
X37812902Y-63255587D01*
X37833400Y-63152535D01*
X37833400Y-63047465D01*
X37812902Y-62944413D01*
X37772693Y-62847340D01*
X37714319Y-62759977D01*
X37706400Y-62752058D01*
X37706400Y-62609126D01*
X40844639Y-59470888D01*
X40847340Y-59472693D01*
X40944413Y-59512902D01*
X41047465Y-59533400D01*
X41152535Y-59533400D01*
X41255587Y-59512902D01*
X41352660Y-59472693D01*
X41440023Y-59414319D01*
X41514319Y-59340023D01*
X41572693Y-59252660D01*
X41612902Y-59155587D01*
X41633400Y-59052535D01*
X41633400Y-58947465D01*
X41612902Y-58844413D01*
X41572693Y-58747340D01*
X41514319Y-58659977D01*
X41440023Y-58585681D01*
X41352660Y-58527307D01*
X41255587Y-58487098D01*
X41152535Y-58466600D01*
X41047465Y-58466600D01*
X40944413Y-58487098D01*
X40847340Y-58527307D01*
X40759977Y-58585681D01*
X40752837Y-58592821D01*
X40740790Y-58591635D01*
X40720837Y-58593600D01*
X40720830Y-58593600D01*
X40668394Y-58598765D01*
X40661121Y-58599481D01*
X40584515Y-58622719D01*
X40513914Y-58660456D01*
X40488536Y-58681283D01*
X40467535Y-58698518D01*
X40467530Y-58698523D01*
X40452032Y-58711242D01*
X40439313Y-58726740D01*
X37026746Y-62139308D01*
X37011242Y-62152032D01*
X36960456Y-62213915D01*
X36922719Y-62284516D01*
X36899481Y-62361123D01*
X36893600Y-62420831D01*
X36893600Y-62420837D01*
X36891635Y-62440790D01*
X36893600Y-62460743D01*
X36893600Y-62752058D01*
X36885681Y-62759977D01*
X36827307Y-62847340D01*
X36787098Y-62944413D01*
X36766600Y-63047465D01*
X26329400Y-63047465D01*
X26329400Y-57627000D01*
X43123000Y-57627000D01*
X43123000Y-67873000D01*
X43123000Y-67873000D01*
G37*
X43123000Y-67873000D02*
X26329400Y-67873000D01*
X26329400Y-64647465D01*
X40670600Y-64647465D01*
X40670600Y-64752535D01*
X40691098Y-64855587D01*
X40731307Y-64952660D01*
X40789681Y-65040023D01*
X40863977Y-65114319D01*
X40951340Y-65172693D01*
X41048413Y-65212902D01*
X41151465Y-65233400D01*
X41162664Y-65233400D01*
X41697601Y-65768337D01*
X41697600Y-66252058D01*
X41689681Y-66259977D01*
X41631307Y-66347340D01*
X41591098Y-66444413D01*
X41570600Y-66547465D01*
X41570600Y-66652535D01*
X41591098Y-66755587D01*
X41631307Y-66852660D01*
X41689681Y-66940023D01*
X41763977Y-67014319D01*
X41851340Y-67072693D01*
X41948413Y-67112902D01*
X42051465Y-67133400D01*
X42156535Y-67133400D01*
X42259587Y-67112902D01*
X42356660Y-67072693D01*
X42444023Y-67014319D01*
X42518319Y-66940023D01*
X42576693Y-66852660D01*
X42616902Y-66755587D01*
X42637400Y-66652535D01*
X42637400Y-66547465D01*
X42616902Y-66444413D01*
X42576693Y-66347340D01*
X42518319Y-66259977D01*
X42510400Y-66252058D01*
X42510400Y-65619952D01*
X42512365Y-65599999D01*
X42510400Y-65580046D01*
X42510400Y-65580040D01*
X42504519Y-65520332D01*
X42481281Y-65443725D01*
X42443544Y-65373124D01*
X42392758Y-65311242D01*
X42377254Y-65298518D01*
X41737400Y-64658664D01*
X41737400Y-64647465D01*
X41716902Y-64544413D01*
X41676693Y-64447340D01*
X41618319Y-64359977D01*
X41544023Y-64285681D01*
X41456660Y-64227307D01*
X41359587Y-64187098D01*
X41256535Y-64166600D01*
X41151465Y-64166600D01*
X41048413Y-64187098D01*
X40951340Y-64227307D01*
X40863977Y-64285681D01*
X40789681Y-64359977D01*
X40731307Y-64447340D01*
X40691098Y-64544413D01*
X40670600Y-64647465D01*
X26329400Y-64647465D01*
X26329400Y-63047465D01*
X36766600Y-63047465D01*
X36766600Y-63152535D01*
X36787098Y-63255587D01*
X36827307Y-63352660D01*
X36885681Y-63440023D01*
X36959977Y-63514319D01*
X37047340Y-63572693D01*
X37144413Y-63612902D01*
X37247465Y-63633400D01*
X37352535Y-63633400D01*
X37455587Y-63612902D01*
X37552660Y-63572693D01*
X37640023Y-63514319D01*
X37714319Y-63440023D01*
X37772693Y-63352660D01*
X37812902Y-63255587D01*
X37833400Y-63152535D01*
X37833400Y-63047465D01*
X37812902Y-62944413D01*
X37772693Y-62847340D01*
X37714319Y-62759977D01*
X37706400Y-62752058D01*
X37706400Y-62609126D01*
X40844639Y-59470888D01*
X40847340Y-59472693D01*
X40944413Y-59512902D01*
X41047465Y-59533400D01*
X41152535Y-59533400D01*
X41255587Y-59512902D01*
X41352660Y-59472693D01*
X41440023Y-59414319D01*
X41514319Y-59340023D01*
X41572693Y-59252660D01*
X41612902Y-59155587D01*
X41633400Y-59052535D01*
X41633400Y-58947465D01*
X41612902Y-58844413D01*
X41572693Y-58747340D01*
X41514319Y-58659977D01*
X41440023Y-58585681D01*
X41352660Y-58527307D01*
X41255587Y-58487098D01*
X41152535Y-58466600D01*
X41047465Y-58466600D01*
X40944413Y-58487098D01*
X40847340Y-58527307D01*
X40759977Y-58585681D01*
X40752837Y-58592821D01*
X40740790Y-58591635D01*
X40720837Y-58593600D01*
X40720830Y-58593600D01*
X40668394Y-58598765D01*
X40661121Y-58599481D01*
X40584515Y-58622719D01*
X40513914Y-58660456D01*
X40488536Y-58681283D01*
X40467535Y-58698518D01*
X40467530Y-58698523D01*
X40452032Y-58711242D01*
X40439313Y-58726740D01*
X37026746Y-62139308D01*
X37011242Y-62152032D01*
X36960456Y-62213915D01*
X36922719Y-62284516D01*
X36899481Y-62361123D01*
X36893600Y-62420831D01*
X36893600Y-62420837D01*
X36891635Y-62440790D01*
X36893600Y-62460743D01*
X36893600Y-62752058D01*
X36885681Y-62759977D01*
X36827307Y-62847340D01*
X36787098Y-62944413D01*
X36766600Y-63047465D01*
X26329400Y-63047465D01*
X26329400Y-57627000D01*
X43123000Y-57627000D01*
X43123000Y-67873000D01*
D41*
G36*
X64635700Y-36750000D02*
G01*
X64637896Y-36772299D01*
X64644401Y-36793741D01*
X64654963Y-36813502D01*
X64669178Y-36830822D01*
X64686498Y-36845037D01*
X64706259Y-36855599D01*
X64727701Y-36862104D01*
X64750000Y-36864300D01*
X84490662Y-36864300D01*
X84664120Y-37283065D01*
X85076077Y-37899601D01*
X85600399Y-38423923D01*
X86216935Y-38835880D01*
X86901994Y-39119640D01*
X87629249Y-39264300D01*
X88370751Y-39264300D01*
X89098006Y-39119640D01*
X89783065Y-38835880D01*
X90399601Y-38423923D01*
X90923923Y-37899601D01*
X91335880Y-37283065D01*
X91607100Y-36628280D01*
X91607101Y-60135700D01*
X85727900Y-60135700D01*
X85727900Y-58951965D01*
X85713750Y-58808298D01*
X85657833Y-58623963D01*
X85567028Y-58454079D01*
X85444825Y-58305175D01*
X85295921Y-58182972D01*
X85126037Y-58092167D01*
X84941702Y-58036250D01*
X84750000Y-58017369D01*
X84558299Y-58036250D01*
X84373964Y-58092167D01*
X84204080Y-58182972D01*
X84169100Y-58211679D01*
X84169100Y-52540000D01*
X86051329Y-52540000D01*
X86074361Y-52773849D01*
X86142572Y-52998712D01*
X86253341Y-53205946D01*
X86402412Y-53387588D01*
X86584054Y-53536659D01*
X86791288Y-53647428D01*
X87016151Y-53715639D01*
X87191406Y-53732900D01*
X87308594Y-53732900D01*
X87483849Y-53715639D01*
X87708712Y-53647428D01*
X87915946Y-53536659D01*
X88097588Y-53387588D01*
X88246659Y-53205946D01*
X88357428Y-52998712D01*
X88425639Y-52773849D01*
X88448671Y-52540000D01*
X88425639Y-52306151D01*
X88357428Y-52081288D01*
X88246659Y-51874054D01*
X88097588Y-51692412D01*
X87915946Y-51543341D01*
X87708712Y-51432572D01*
X87483849Y-51364361D01*
X87308594Y-51347100D01*
X87191406Y-51347100D01*
X87016151Y-51364361D01*
X86791288Y-51432572D01*
X86584054Y-51543341D01*
X86402412Y-51692412D01*
X86253341Y-51874054D01*
X86142572Y-52081288D01*
X86074361Y-52306151D01*
X86051329Y-52540000D01*
X84169100Y-52540000D01*
X84169100Y-51520579D01*
X84171127Y-51499999D01*
X84163035Y-51417842D01*
X84156163Y-51395187D01*
X84139071Y-51338842D01*
X84100154Y-51266034D01*
X84047782Y-51202218D01*
X84031794Y-51189097D01*
X83692697Y-50850000D01*
X86029918Y-50850000D01*
X86037029Y-50922199D01*
X86058089Y-50991624D01*
X86092288Y-51055607D01*
X86138313Y-51111687D01*
X86194393Y-51157712D01*
X86258376Y-51191911D01*
X86327801Y-51212971D01*
X86400000Y-51220082D01*
X87145225Y-51218300D01*
X87237300Y-51126225D01*
X87237300Y-50012700D01*
X87262700Y-50012700D01*
X87262700Y-51126225D01*
X87354775Y-51218300D01*
X88100000Y-51220082D01*
X88172199Y-51212971D01*
X88241624Y-51191911D01*
X88305607Y-51157712D01*
X88361687Y-51111687D01*
X88407712Y-51055607D01*
X88441911Y-50991624D01*
X88462971Y-50922199D01*
X88470082Y-50850000D01*
X88468300Y-50104775D01*
X88376225Y-50012700D01*
X87262700Y-50012700D01*
X87237300Y-50012700D01*
X86123775Y-50012700D01*
X86031700Y-50104775D01*
X86029918Y-50850000D01*
X83692697Y-50850000D01*
X82346900Y-49504204D01*
X82346900Y-49441210D01*
X82323961Y-49325891D01*
X82278966Y-49217262D01*
X82234023Y-49150000D01*
X86029918Y-49150000D01*
X86031700Y-49895225D01*
X86123775Y-49987300D01*
X87237300Y-49987300D01*
X87237300Y-48873775D01*
X87262700Y-48873775D01*
X87262700Y-49987300D01*
X88376225Y-49987300D01*
X88468300Y-49895225D01*
X88470082Y-49150000D01*
X88462971Y-49077801D01*
X88441911Y-49008376D01*
X88407712Y-48944393D01*
X88361687Y-48888313D01*
X88305607Y-48842288D01*
X88241624Y-48808089D01*
X88172199Y-48787029D01*
X88100000Y-48779918D01*
X87354775Y-48781700D01*
X87262700Y-48873775D01*
X87237300Y-48873775D01*
X87145225Y-48781700D01*
X86400000Y-48779918D01*
X86327801Y-48787029D01*
X86258376Y-48808089D01*
X86194393Y-48842288D01*
X86138313Y-48888313D01*
X86092288Y-48944393D01*
X86058089Y-49008376D01*
X86037029Y-49077801D01*
X86029918Y-49150000D01*
X82234023Y-49150000D01*
X82213642Y-49119499D01*
X82130501Y-49036358D01*
X82032738Y-48971034D01*
X81924109Y-48926039D01*
X81808790Y-48903100D01*
X81691210Y-48903100D01*
X81575891Y-48926039D01*
X81467262Y-48971034D01*
X81369499Y-49036358D01*
X81286358Y-49119499D01*
X81221034Y-49217262D01*
X81176039Y-49325891D01*
X81169100Y-49360775D01*
X81169100Y-39425043D01*
X81213642Y-39380501D01*
X81278966Y-39282738D01*
X81323961Y-39174109D01*
X81346900Y-39058790D01*
X81346900Y-38941210D01*
X81323961Y-38825891D01*
X81278966Y-38717262D01*
X81213642Y-38619499D01*
X81130501Y-38536358D01*
X81032738Y-38471034D01*
X80924109Y-38426039D01*
X80808790Y-38403100D01*
X80691210Y-38403100D01*
X80575891Y-38426039D01*
X80467262Y-38471034D01*
X80369499Y-38536358D01*
X80286358Y-38619499D01*
X80221034Y-38717262D01*
X80176039Y-38825891D01*
X80159423Y-38909423D01*
X80075891Y-38926039D01*
X79967262Y-38971034D01*
X79869499Y-39036358D01*
X79786358Y-39119499D01*
X79721034Y-39217262D01*
X79676039Y-39325891D01*
X79653100Y-39441210D01*
X79653100Y-39558790D01*
X79676039Y-39674109D01*
X79721034Y-39782738D01*
X79786358Y-39880501D01*
X79830900Y-39925043D01*
X79830901Y-47753216D01*
X79782738Y-47721034D01*
X79674109Y-47676039D01*
X79558790Y-47653100D01*
X79441210Y-47653100D01*
X79325891Y-47676039D01*
X79217262Y-47721034D01*
X79119499Y-47786358D01*
X79036358Y-47869499D01*
X78971034Y-47967262D01*
X78926039Y-48075891D01*
X78903100Y-48191210D01*
X78903100Y-48308790D01*
X78926039Y-48424109D01*
X78971034Y-48532738D01*
X79036358Y-48630501D01*
X79080901Y-48675044D01*
X79080901Y-49360779D01*
X79073961Y-49325891D01*
X79028966Y-49217262D01*
X78963642Y-49119499D01*
X78880501Y-49036358D01*
X78782738Y-48971034D01*
X78674109Y-48926039D01*
X78558790Y-48903100D01*
X78441210Y-48903100D01*
X78325891Y-48926039D01*
X78217262Y-48971034D01*
X78208509Y-48976883D01*
X78172032Y-48856635D01*
X78104813Y-48730877D01*
X78014350Y-48620649D01*
X77986734Y-48597985D01*
X77438900Y-48050152D01*
X77438900Y-47185555D01*
X77442402Y-47150000D01*
X77438900Y-47114444D01*
X77438900Y-45985556D01*
X77442402Y-45950000D01*
X77428425Y-45808091D01*
X77387032Y-45671635D01*
X77319813Y-45545877D01*
X77229351Y-45435649D01*
X77119123Y-45345187D01*
X76993365Y-45277968D01*
X76856909Y-45236575D01*
X76750556Y-45226100D01*
X76715000Y-45222598D01*
X76679444Y-45226100D01*
X75550556Y-45226100D01*
X75515000Y-45222598D01*
X75479444Y-45226100D01*
X74350556Y-45226100D01*
X74315000Y-45222598D01*
X74279444Y-45226100D01*
X74173091Y-45236575D01*
X74036635Y-45277968D01*
X73910877Y-45345187D01*
X73800649Y-45435649D01*
X73710187Y-45545877D01*
X73642968Y-45671635D01*
X73601575Y-45808091D01*
X73587598Y-45950000D01*
X73591100Y-45985556D01*
X73591100Y-47114439D01*
X73587598Y-47150000D01*
X73591101Y-47185561D01*
X73591101Y-48314434D01*
X73587598Y-48350000D01*
X73601575Y-48491909D01*
X73635700Y-48604405D01*
X73635700Y-50409422D01*
X73583806Y-50399100D01*
X73416194Y-50399100D01*
X73251802Y-50431800D01*
X73096948Y-50495942D01*
X72957583Y-50589063D01*
X72839063Y-50707583D01*
X72745942Y-50846948D01*
X72681800Y-51001802D01*
X72649100Y-51166194D01*
X72649100Y-51333806D01*
X72681800Y-51498198D01*
X72745942Y-51653052D01*
X72770532Y-51689854D01*
X72723320Y-51778181D01*
X72691265Y-51883854D01*
X72680441Y-51993750D01*
X72680441Y-52431250D01*
X72691265Y-52541146D01*
X72723320Y-52646819D01*
X72775376Y-52744208D01*
X72845430Y-52829570D01*
X72930792Y-52899624D01*
X73028181Y-52951680D01*
X73122823Y-52980389D01*
X73025000Y-52979918D01*
X72952801Y-52987029D01*
X72883376Y-53008089D01*
X72819393Y-53042288D01*
X72763313Y-53088313D01*
X72717288Y-53144393D01*
X72683089Y-53208376D01*
X72662029Y-53277801D01*
X72654918Y-53350000D01*
X72656700Y-53682725D01*
X72748775Y-53774800D01*
X73487300Y-53774800D01*
X73487300Y-53754800D01*
X73512700Y-53754800D01*
X73512700Y-53774800D01*
X73532700Y-53774800D01*
X73532700Y-53800200D01*
X73512700Y-53800200D01*
X73512700Y-54501225D01*
X73604775Y-54593300D01*
X73635700Y-54593449D01*
X73635700Y-55080900D01*
X63520580Y-55080900D01*
X63500000Y-55078873D01*
X63443722Y-55084416D01*
X63417842Y-55086965D01*
X63338842Y-55110929D01*
X63266034Y-55149846D01*
X63202218Y-55202218D01*
X63189099Y-55218204D01*
X62326404Y-56080900D01*
X58842502Y-56080900D01*
X58846900Y-56058790D01*
X58846900Y-55941210D01*
X58823961Y-55825891D01*
X58778966Y-55717262D01*
X58713642Y-55619499D01*
X58630501Y-55536358D01*
X58532738Y-55471034D01*
X58424109Y-55426039D01*
X58308790Y-55403100D01*
X58191210Y-55403100D01*
X58075891Y-55426039D01*
X57967262Y-55471034D01*
X57869499Y-55536358D01*
X57824957Y-55580900D01*
X56342502Y-55580900D01*
X56346900Y-55558790D01*
X56346900Y-55441210D01*
X56323961Y-55325891D01*
X56278966Y-55217262D01*
X56213642Y-55119499D01*
X56130501Y-55036358D01*
X56032738Y-54971034D01*
X55924109Y-54926039D01*
X55808790Y-54903100D01*
X55691210Y-54903100D01*
X55575891Y-54926039D01*
X55467262Y-54971034D01*
X55369499Y-55036358D01*
X55324957Y-55080900D01*
X53389225Y-55080900D01*
X53424109Y-55073961D01*
X53532738Y-55028966D01*
X53630501Y-54963642D01*
X53713642Y-54880501D01*
X53778966Y-54782738D01*
X53823961Y-54674109D01*
X53846900Y-54558790D01*
X53846900Y-54441210D01*
X53823961Y-54325891D01*
X53778966Y-54217262D01*
X53713642Y-54119499D01*
X53630501Y-54036358D01*
X53532738Y-53971034D01*
X53424109Y-53926039D01*
X53308790Y-53903100D01*
X53191210Y-53903100D01*
X53075891Y-53926039D01*
X52967262Y-53971034D01*
X52869499Y-54036358D01*
X52786358Y-54119499D01*
X52721034Y-54217262D01*
X52676039Y-54325891D01*
X52653100Y-54441210D01*
X52653100Y-54504203D01*
X52254204Y-54903100D01*
X52191210Y-54903100D01*
X52075891Y-54926039D01*
X51967262Y-54971034D01*
X51869499Y-55036358D01*
X51786358Y-55119499D01*
X51721034Y-55217262D01*
X51676039Y-55325891D01*
X51659423Y-55409423D01*
X51575891Y-55426039D01*
X51467262Y-55471034D01*
X51419100Y-55503215D01*
X51419100Y-50765796D01*
X52153100Y-51499797D01*
X52153100Y-51562790D01*
X52176039Y-51678109D01*
X52221034Y-51786738D01*
X52286358Y-51884501D01*
X52369499Y-51967642D01*
X52467262Y-52032966D01*
X52575891Y-52077961D01*
X52691210Y-52100900D01*
X52808790Y-52100900D01*
X52924109Y-52077961D01*
X53032738Y-52032966D01*
X53130501Y-51967642D01*
X53213642Y-51884501D01*
X53278966Y-51786738D01*
X53323961Y-51678109D01*
X53346900Y-51562790D01*
X53346900Y-51445210D01*
X53323961Y-51329891D01*
X53278966Y-51221262D01*
X53240780Y-51164113D01*
X53282392Y-51122501D01*
X53347716Y-51024738D01*
X53392711Y-50916109D01*
X53415650Y-50800790D01*
X53415650Y-50683210D01*
X53392711Y-50567891D01*
X53347716Y-50459262D01*
X53282392Y-50361499D01*
X53237850Y-50316957D01*
X53237850Y-49839330D01*
X53239877Y-49818750D01*
X53231785Y-49736592D01*
X53225921Y-49717262D01*
X53207821Y-49657592D01*
X53168904Y-49584784D01*
X53116532Y-49520968D01*
X53100544Y-49507847D01*
X52028718Y-48436022D01*
X52028718Y-47941210D01*
X55153100Y-47941210D01*
X55153100Y-48058790D01*
X55176039Y-48174109D01*
X55221034Y-48282738D01*
X55286358Y-48380501D01*
X55330900Y-48425043D01*
X55330901Y-51229411D01*
X55330900Y-51229421D01*
X55330901Y-52324956D01*
X55286358Y-52369499D01*
X55221034Y-52467262D01*
X55176039Y-52575891D01*
X55153100Y-52691210D01*
X55153100Y-52808790D01*
X55176039Y-52924109D01*
X55221034Y-53032738D01*
X55286358Y-53130501D01*
X55369499Y-53213642D01*
X55467262Y-53278966D01*
X55575891Y-53323961D01*
X55691210Y-53346900D01*
X55808790Y-53346900D01*
X55924109Y-53323961D01*
X56032738Y-53278966D01*
X56130501Y-53213642D01*
X56213642Y-53130501D01*
X56278966Y-53032738D01*
X56323961Y-52924109D01*
X56346900Y-52808790D01*
X56346900Y-52691210D01*
X56323961Y-52575891D01*
X56278966Y-52467262D01*
X56213642Y-52369499D01*
X56169100Y-52324957D01*
X56169100Y-48425043D01*
X56213642Y-48380501D01*
X56278966Y-48282738D01*
X56323961Y-48174109D01*
X56346900Y-48058790D01*
X56346900Y-47941210D01*
X56323961Y-47825891D01*
X56278966Y-47717262D01*
X56213642Y-47619499D01*
X56130501Y-47536358D01*
X56032738Y-47471034D01*
X55924109Y-47426039D01*
X55808790Y-47403100D01*
X55691210Y-47403100D01*
X55575891Y-47426039D01*
X55467262Y-47471034D01*
X55369499Y-47536358D01*
X55286358Y-47619499D01*
X55221034Y-47717262D01*
X55176039Y-47825891D01*
X55153100Y-47941210D01*
X52028718Y-47941210D01*
X52028718Y-47268066D01*
X52030745Y-47247486D01*
X52022653Y-47165328D01*
X52017957Y-47149846D01*
X51998689Y-47086328D01*
X51959772Y-47013520D01*
X51907400Y-46949704D01*
X51891413Y-46936584D01*
X46248129Y-41293301D01*
X46282738Y-41278966D01*
X46380501Y-41213642D01*
X46463642Y-41130501D01*
X46528966Y-41032738D01*
X46573961Y-40924109D01*
X46596900Y-40808790D01*
X46596900Y-40691210D01*
X46573961Y-40575891D01*
X46528966Y-40467262D01*
X46463642Y-40369499D01*
X46419100Y-40324957D01*
X46419100Y-40191210D01*
X48153100Y-40191210D01*
X48153100Y-40308790D01*
X48176039Y-40424109D01*
X48221034Y-40532738D01*
X48286358Y-40630501D01*
X48369499Y-40713642D01*
X48467262Y-40778966D01*
X48575891Y-40823961D01*
X48659423Y-40840577D01*
X48676039Y-40924109D01*
X48721034Y-41032738D01*
X48786358Y-41130501D01*
X48869499Y-41213642D01*
X48967262Y-41278966D01*
X49075891Y-41323961D01*
X49159423Y-41340577D01*
X49176039Y-41424109D01*
X49221034Y-41532738D01*
X49286358Y-41630501D01*
X49369499Y-41713642D01*
X49467262Y-41778966D01*
X49575891Y-41823961D01*
X49659423Y-41840577D01*
X49676039Y-41924109D01*
X49721034Y-42032738D01*
X49786358Y-42130501D01*
X49869499Y-42213642D01*
X49967262Y-42278966D01*
X50075891Y-42323961D01*
X50159423Y-42340577D01*
X50176039Y-42424109D01*
X50221034Y-42532738D01*
X50286358Y-42630501D01*
X50369499Y-42713642D01*
X50467262Y-42778966D01*
X50575891Y-42823961D01*
X50691210Y-42846900D01*
X50808790Y-42846900D01*
X50924109Y-42823961D01*
X51032738Y-42778966D01*
X51130501Y-42713642D01*
X51213642Y-42630501D01*
X51278966Y-42532738D01*
X51323961Y-42424109D01*
X51346900Y-42308790D01*
X51346900Y-42191210D01*
X51323961Y-42075891D01*
X51278966Y-41967262D01*
X51213642Y-41869499D01*
X51169100Y-41824957D01*
X51169100Y-40200952D01*
X52179568Y-40200952D01*
X52200148Y-40202979D01*
X52220728Y-40200952D01*
X52282306Y-40194887D01*
X52344244Y-40176099D01*
X52344243Y-41308188D01*
X52299701Y-41352730D01*
X52234377Y-41450493D01*
X52189382Y-41559122D01*
X52166443Y-41674441D01*
X52166443Y-41680843D01*
X52069412Y-41721034D01*
X51971649Y-41786358D01*
X51888508Y-41869499D01*
X51823184Y-41967262D01*
X51778189Y-42075891D01*
X51755250Y-42191210D01*
X51755250Y-42308790D01*
X51778189Y-42424109D01*
X51823184Y-42532738D01*
X51888508Y-42630501D01*
X51971649Y-42713642D01*
X52069412Y-42778966D01*
X52178041Y-42823961D01*
X52293360Y-42846900D01*
X52410940Y-42846900D01*
X52526259Y-42823961D01*
X52634888Y-42778966D01*
X52732651Y-42713642D01*
X52777193Y-42669100D01*
X52940244Y-42669100D01*
X52960824Y-42671127D01*
X52981404Y-42669100D01*
X53042982Y-42663035D01*
X53121982Y-42639071D01*
X53194790Y-42600154D01*
X53258606Y-42547782D01*
X53271731Y-42531789D01*
X53527739Y-42275782D01*
X53543726Y-42262662D01*
X53596098Y-42198846D01*
X53635015Y-42126038D01*
X53658979Y-42047038D01*
X53665044Y-41985460D01*
X53665044Y-41985459D01*
X53667071Y-41964880D01*
X53665044Y-41944300D01*
X53665044Y-41516521D01*
X53667071Y-41495943D01*
X53664246Y-41467262D01*
X53661681Y-41441210D01*
X54653100Y-41441210D01*
X54653100Y-41558790D01*
X54676039Y-41674109D01*
X54721034Y-41782738D01*
X54786358Y-41880501D01*
X54830900Y-41925043D01*
X54830901Y-45791556D01*
X54786358Y-45836099D01*
X54721034Y-45933862D01*
X54676039Y-46042491D01*
X54653100Y-46157810D01*
X54653100Y-46275390D01*
X54676039Y-46390709D01*
X54721034Y-46499338D01*
X54786358Y-46597101D01*
X54869499Y-46680242D01*
X54967262Y-46745566D01*
X55075891Y-46790561D01*
X55191210Y-46813500D01*
X55308790Y-46813500D01*
X55424109Y-46790561D01*
X55532738Y-46745566D01*
X55630501Y-46680242D01*
X55713642Y-46597101D01*
X55778966Y-46499338D01*
X55823961Y-46390709D01*
X55833659Y-46341953D01*
X55924109Y-46323961D01*
X56032738Y-46278966D01*
X56130501Y-46213642D01*
X56178065Y-46166078D01*
X59830900Y-49818913D01*
X59830901Y-50229411D01*
X59830900Y-50229421D01*
X59830901Y-54574956D01*
X59786358Y-54619499D01*
X59721034Y-54717262D01*
X59676039Y-54825891D01*
X59653100Y-54941210D01*
X59653100Y-55058790D01*
X59676039Y-55174109D01*
X59721034Y-55282738D01*
X59786358Y-55380501D01*
X59869499Y-55463642D01*
X59967262Y-55528966D01*
X60075891Y-55573961D01*
X60191210Y-55596900D01*
X60308790Y-55596900D01*
X60424109Y-55573961D01*
X60532738Y-55528966D01*
X60630501Y-55463642D01*
X60713642Y-55380501D01*
X60778966Y-55282738D01*
X60823961Y-55174109D01*
X60846900Y-55058790D01*
X60846900Y-54941210D01*
X60823961Y-54825891D01*
X60778966Y-54717262D01*
X60713642Y-54619499D01*
X60669100Y-54574957D01*
X60669100Y-54225000D01*
X72654918Y-54225000D01*
X72662029Y-54297199D01*
X72683089Y-54366624D01*
X72717288Y-54430607D01*
X72763313Y-54486687D01*
X72819393Y-54532712D01*
X72883376Y-54566911D01*
X72952801Y-54587971D01*
X73025000Y-54595082D01*
X73395225Y-54593300D01*
X73487300Y-54501225D01*
X73487300Y-53800200D01*
X72748775Y-53800200D01*
X72656700Y-53892275D01*
X72654918Y-54225000D01*
X60669100Y-54225000D01*
X60669100Y-53511797D01*
X60689097Y-53531794D01*
X60702218Y-53547782D01*
X60766034Y-53600154D01*
X60838842Y-53639071D01*
X60917842Y-53663035D01*
X61000000Y-53671127D01*
X61020580Y-53669100D01*
X66574957Y-53669100D01*
X66619499Y-53713642D01*
X66717262Y-53778966D01*
X66825891Y-53823961D01*
X66941210Y-53846900D01*
X67058790Y-53846900D01*
X67174109Y-53823961D01*
X67282738Y-53778966D01*
X67380501Y-53713642D01*
X67463642Y-53630501D01*
X67528966Y-53532738D01*
X67573961Y-53424109D01*
X67596900Y-53308790D01*
X67596900Y-53191210D01*
X67573961Y-53075891D01*
X67528966Y-52967262D01*
X67463642Y-52869499D01*
X67380501Y-52786358D01*
X67282738Y-52721034D01*
X67174109Y-52676039D01*
X67058790Y-52653100D01*
X66941210Y-52653100D01*
X66825891Y-52676039D01*
X66717262Y-52721034D01*
X66619499Y-52786358D01*
X66574957Y-52830900D01*
X61173597Y-52830900D01*
X60973910Y-52631214D01*
X60973910Y-49539640D01*
X60975937Y-49519060D01*
X60967845Y-49436902D01*
X60964550Y-49426039D01*
X60943881Y-49357902D01*
X60904964Y-49285094D01*
X60852592Y-49221278D01*
X60836606Y-49208159D01*
X57596655Y-45968209D01*
X57596650Y-45968203D01*
X57169100Y-45540654D01*
X57169100Y-45175043D01*
X57213642Y-45130501D01*
X57278966Y-45032738D01*
X57323961Y-44924109D01*
X57346900Y-44808790D01*
X57346900Y-44691210D01*
X57323961Y-44575891D01*
X57278966Y-44467262D01*
X57213642Y-44369499D01*
X57130501Y-44286358D01*
X57032738Y-44221034D01*
X56924109Y-44176039D01*
X56889225Y-44169100D01*
X58693670Y-44169100D01*
X58714250Y-44171127D01*
X58734830Y-44169100D01*
X58796408Y-44163035D01*
X58875408Y-44139071D01*
X58948216Y-44100154D01*
X59012032Y-44047782D01*
X59025157Y-44031789D01*
X59298647Y-43758300D01*
X59308790Y-43758300D01*
X59424109Y-43735361D01*
X59532738Y-43690366D01*
X59630501Y-43625042D01*
X59713642Y-43541901D01*
X59778966Y-43444138D01*
X59823961Y-43335509D01*
X59846900Y-43220190D01*
X59846900Y-43102610D01*
X59823961Y-42987291D01*
X59778966Y-42878662D01*
X59713642Y-42780899D01*
X59630501Y-42697758D01*
X59532738Y-42632434D01*
X59424109Y-42587439D01*
X59308790Y-42564500D01*
X59191210Y-42564500D01*
X59075891Y-42587439D01*
X58967262Y-42632434D01*
X58869499Y-42697758D01*
X58820794Y-42746463D01*
X58782738Y-42721034D01*
X58674109Y-42676039D01*
X58558790Y-42653100D01*
X58441210Y-42653100D01*
X58325891Y-42676039D01*
X58217262Y-42721034D01*
X58119499Y-42786358D01*
X58074957Y-42830900D01*
X55911369Y-42830900D01*
X55890789Y-42828873D01*
X55808632Y-42836965D01*
X55729632Y-42860929D01*
X55669100Y-42893284D01*
X55669100Y-41925043D01*
X55713642Y-41880501D01*
X55778966Y-41782738D01*
X55823961Y-41674109D01*
X55846900Y-41558790D01*
X55846900Y-41441210D01*
X55823961Y-41325891D01*
X55778966Y-41217262D01*
X55713642Y-41119499D01*
X55630501Y-41036358D01*
X55532738Y-40971034D01*
X55424109Y-40926039D01*
X55308790Y-40903100D01*
X55191210Y-40903100D01*
X55075891Y-40926039D01*
X54967262Y-40971034D01*
X54869499Y-41036358D01*
X54786358Y-41119499D01*
X54721034Y-41217262D01*
X54676039Y-41325891D01*
X54653100Y-41441210D01*
X53661681Y-41441210D01*
X53658979Y-41413786D01*
X53635015Y-41334786D01*
X53596098Y-41261978D01*
X53543726Y-41198162D01*
X53527733Y-41185037D01*
X53487253Y-41144557D01*
X53487253Y-40638340D01*
X58668924Y-40638340D01*
X58676039Y-40674109D01*
X58721034Y-40782738D01*
X58786358Y-40880501D01*
X58869499Y-40963642D01*
X58967262Y-41028966D01*
X59075891Y-41073961D01*
X59191210Y-41096900D01*
X59308790Y-41096900D01*
X59424109Y-41073961D01*
X59532738Y-41028966D01*
X59630501Y-40963642D01*
X59713642Y-40880501D01*
X59778966Y-40782738D01*
X59823961Y-40674109D01*
X59846900Y-40558790D01*
X59846900Y-40533263D01*
X59869499Y-40555862D01*
X59967262Y-40621186D01*
X60075891Y-40666181D01*
X60191210Y-40689120D01*
X60308790Y-40689120D01*
X60424109Y-40666181D01*
X60532738Y-40621186D01*
X60630501Y-40555862D01*
X60713642Y-40472721D01*
X60778966Y-40374958D01*
X60823961Y-40266329D01*
X60846900Y-40151010D01*
X60846900Y-40033430D01*
X60845963Y-40028720D01*
X60920497Y-40028720D01*
X60920498Y-45074956D01*
X60875955Y-45119499D01*
X60810631Y-45217262D01*
X60765636Y-45325891D01*
X60742697Y-45441210D01*
X60742697Y-45558790D01*
X60765636Y-45674109D01*
X60810631Y-45782738D01*
X60875955Y-45880501D01*
X60959096Y-45963642D01*
X61056859Y-46028966D01*
X61165488Y-46073961D01*
X61280807Y-46096900D01*
X61398387Y-46096900D01*
X61513706Y-46073961D01*
X61622335Y-46028966D01*
X61669799Y-45997251D01*
X61717262Y-46028966D01*
X61825891Y-46073961D01*
X61941210Y-46096900D01*
X62058790Y-46096900D01*
X62174109Y-46073961D01*
X62282738Y-46028966D01*
X62380501Y-45963642D01*
X62463642Y-45880501D01*
X62528966Y-45782738D01*
X62573961Y-45674109D01*
X62596900Y-45558790D01*
X62596900Y-45441210D01*
X62573961Y-45325891D01*
X62528966Y-45217262D01*
X62463642Y-45119499D01*
X62419100Y-45074957D01*
X62419100Y-43753902D01*
X62441210Y-43758300D01*
X62558790Y-43758300D01*
X62674109Y-43735361D01*
X62782738Y-43690366D01*
X62880501Y-43625042D01*
X62963642Y-43541901D01*
X63028966Y-43444138D01*
X63073961Y-43335509D01*
X63096900Y-43220190D01*
X63096900Y-43102610D01*
X63073961Y-42987291D01*
X63028966Y-42878662D01*
X62963642Y-42780899D01*
X62919100Y-42736357D01*
X62919100Y-40441210D01*
X63903100Y-40441210D01*
X63903100Y-40558790D01*
X63926039Y-40674109D01*
X63971034Y-40782738D01*
X64036358Y-40880501D01*
X64080900Y-40925043D01*
X64080901Y-44074956D01*
X64036358Y-44119499D01*
X63971034Y-44217262D01*
X63926039Y-44325891D01*
X63903100Y-44441210D01*
X63903100Y-44558790D01*
X63926039Y-44674109D01*
X63971034Y-44782738D01*
X64036358Y-44880501D01*
X64119499Y-44963642D01*
X64217262Y-45028966D01*
X64325891Y-45073961D01*
X64441210Y-45096900D01*
X64558790Y-45096900D01*
X64674109Y-45073961D01*
X64782738Y-45028966D01*
X64875000Y-44967318D01*
X64967262Y-45028966D01*
X65075891Y-45073961D01*
X65191210Y-45096900D01*
X65308790Y-45096900D01*
X65424109Y-45073961D01*
X65532738Y-45028966D01*
X65625000Y-44967318D01*
X65717262Y-45028966D01*
X65825891Y-45073961D01*
X65941210Y-45096900D01*
X66058790Y-45096900D01*
X66174109Y-45073961D01*
X66282738Y-45028966D01*
X66375000Y-44967318D01*
X66467262Y-45028966D01*
X66575891Y-45073961D01*
X66691210Y-45096900D01*
X66808790Y-45096900D01*
X66924109Y-45073961D01*
X67032738Y-45028966D01*
X67130501Y-44963642D01*
X67213642Y-44880501D01*
X67278966Y-44782738D01*
X67323961Y-44674109D01*
X67346900Y-44558790D01*
X67346900Y-44441210D01*
X67323961Y-44325891D01*
X67278966Y-44217262D01*
X67213642Y-44119499D01*
X67169100Y-44074957D01*
X67169100Y-40925043D01*
X67213642Y-40880501D01*
X67278966Y-40782738D01*
X67323961Y-40674109D01*
X67346900Y-40558790D01*
X67346900Y-40441210D01*
X67323961Y-40325891D01*
X67278966Y-40217262D01*
X67213642Y-40119499D01*
X67130501Y-40036358D01*
X67032738Y-39971034D01*
X66924109Y-39926039D01*
X66808790Y-39903100D01*
X66691210Y-39903100D01*
X66575891Y-39926039D01*
X66467262Y-39971034D01*
X66369499Y-40036358D01*
X66286358Y-40119499D01*
X66221034Y-40217262D01*
X66176039Y-40325891D01*
X66153100Y-40441210D01*
X66153100Y-40558790D01*
X66176039Y-40674109D01*
X66221034Y-40782738D01*
X66286358Y-40880501D01*
X66330900Y-40925043D01*
X66330900Y-40992573D01*
X66297782Y-40952218D01*
X66281794Y-40939097D01*
X65846900Y-40504204D01*
X65846900Y-40441210D01*
X65823961Y-40325891D01*
X65778966Y-40217262D01*
X65713642Y-40119499D01*
X65630501Y-40036358D01*
X65532738Y-39971034D01*
X65424109Y-39926039D01*
X65308790Y-39903100D01*
X65191210Y-39903100D01*
X65075891Y-39926039D01*
X64967262Y-39971034D01*
X64875000Y-40032682D01*
X64782738Y-39971034D01*
X64674109Y-39926039D01*
X64558790Y-39903100D01*
X64441210Y-39903100D01*
X64325891Y-39926039D01*
X64217262Y-39971034D01*
X64119499Y-40036358D01*
X64036358Y-40119499D01*
X63971034Y-40217262D01*
X63926039Y-40325891D01*
X63903100Y-40441210D01*
X62919100Y-40441210D01*
X62919100Y-39925043D01*
X62963642Y-39880501D01*
X63028966Y-39782738D01*
X63073961Y-39674109D01*
X63096900Y-39558790D01*
X63096900Y-39441210D01*
X63092502Y-39419100D01*
X63324957Y-39419100D01*
X63369499Y-39463642D01*
X63467262Y-39528966D01*
X63575891Y-39573961D01*
X63691210Y-39596900D01*
X63808790Y-39596900D01*
X63924109Y-39573961D01*
X64032738Y-39528966D01*
X64130501Y-39463642D01*
X64213642Y-39380501D01*
X64278966Y-39282738D01*
X64323961Y-39174109D01*
X64328418Y-39151701D01*
X66246819Y-39151701D01*
X66267399Y-39153728D01*
X66287979Y-39151701D01*
X66349557Y-39145636D01*
X66428557Y-39121672D01*
X66501365Y-39082755D01*
X66565181Y-39030383D01*
X66578306Y-39014390D01*
X66745796Y-38846900D01*
X66808790Y-38846900D01*
X66924109Y-38823961D01*
X67032738Y-38778966D01*
X67130501Y-38713642D01*
X67213642Y-38630501D01*
X67278966Y-38532738D01*
X67323961Y-38424109D01*
X67346900Y-38308790D01*
X67346900Y-38191210D01*
X67323961Y-38075891D01*
X67278966Y-37967262D01*
X67213642Y-37869499D01*
X67130501Y-37786358D01*
X67032738Y-37721034D01*
X66924109Y-37676039D01*
X66808790Y-37653100D01*
X66691210Y-37653100D01*
X66575891Y-37676039D01*
X66467262Y-37721034D01*
X66369499Y-37786358D01*
X66286358Y-37869499D01*
X66221034Y-37967262D01*
X66176039Y-38075891D01*
X66153100Y-38191210D01*
X66153100Y-38254204D01*
X66093803Y-38313501D01*
X65845963Y-38313501D01*
X65846900Y-38308790D01*
X65846900Y-38191210D01*
X65823961Y-38075891D01*
X65778966Y-37967262D01*
X65713642Y-37869499D01*
X65630501Y-37786358D01*
X65532738Y-37721034D01*
X65424109Y-37676039D01*
X65308790Y-37653100D01*
X65245796Y-37653100D01*
X64959129Y-37366433D01*
X64946004Y-37350440D01*
X64882188Y-37298068D01*
X64809380Y-37259151D01*
X64730380Y-37235187D01*
X64668802Y-37229122D01*
X64648222Y-37227095D01*
X64627642Y-37229122D01*
X50428418Y-37229122D01*
X50407838Y-37227095D01*
X50387258Y-37229122D01*
X50325680Y-37235187D01*
X50246680Y-37259151D01*
X50173872Y-37298068D01*
X50110056Y-37350440D01*
X50096935Y-37366428D01*
X48468211Y-38995153D01*
X48452218Y-39008278D01*
X48399846Y-39072095D01*
X48360929Y-39144903D01*
X48337982Y-39220549D01*
X48336965Y-39223903D01*
X48328873Y-39306060D01*
X48330900Y-39326641D01*
X48330901Y-39824956D01*
X48286358Y-39869499D01*
X48221034Y-39967262D01*
X48176039Y-40075891D01*
X48153100Y-40191210D01*
X46419100Y-40191210D01*
X46419100Y-35925043D01*
X46463642Y-35880501D01*
X46528966Y-35782738D01*
X46573961Y-35674109D01*
X46596900Y-35558790D01*
X46596900Y-35441210D01*
X46573961Y-35325891D01*
X46528966Y-35217262D01*
X46463642Y-35119499D01*
X46380501Y-35036358D01*
X46282738Y-34971034D01*
X46174109Y-34926039D01*
X46058790Y-34903100D01*
X45941210Y-34903100D01*
X45825891Y-34926039D01*
X45717262Y-34971034D01*
X45619499Y-35036358D01*
X45536358Y-35119499D01*
X45471034Y-35217262D01*
X45426039Y-35325891D01*
X45403100Y-35441210D01*
X45403100Y-35558790D01*
X45426039Y-35674109D01*
X45471034Y-35782738D01*
X45536358Y-35880501D01*
X45580901Y-35925044D01*
X45580900Y-40324957D01*
X45536358Y-40369499D01*
X45471034Y-40467262D01*
X45456699Y-40501871D01*
X43151701Y-38196873D01*
X43151701Y-35288931D01*
X43153728Y-35268351D01*
X43145636Y-35186193D01*
X43141250Y-35171735D01*
X43121672Y-35107193D01*
X43082755Y-35034385D01*
X43030383Y-34970569D01*
X43014385Y-34957440D01*
X42792557Y-34735611D01*
X42779431Y-34719617D01*
X42715615Y-34667245D01*
X42642807Y-34628328D01*
X42563807Y-34604364D01*
X42502229Y-34598299D01*
X42481649Y-34596272D01*
X42461069Y-34598299D01*
X41503180Y-34598299D01*
X41482600Y-34596272D01*
X41401489Y-34604261D01*
X41400443Y-34604364D01*
X41321443Y-34628328D01*
X41248635Y-34667245D01*
X41184819Y-34719617D01*
X41171694Y-34735610D01*
X41004204Y-34903100D01*
X40941210Y-34903100D01*
X40825891Y-34926039D01*
X40717262Y-34971034D01*
X40619499Y-35036358D01*
X40536358Y-35119499D01*
X40471034Y-35217262D01*
X40426039Y-35325891D01*
X40403100Y-35441210D01*
X40403100Y-35558790D01*
X40426039Y-35674109D01*
X40471034Y-35782738D01*
X40536358Y-35880501D01*
X40619499Y-35963642D01*
X40717262Y-36028966D01*
X40825891Y-36073961D01*
X40941210Y-36096900D01*
X41058790Y-36096900D01*
X41174109Y-36073961D01*
X41282738Y-36028966D01*
X41380501Y-35963642D01*
X41463642Y-35880501D01*
X41528966Y-35782738D01*
X41573961Y-35674109D01*
X41596900Y-35558790D01*
X41596900Y-35495796D01*
X41653501Y-35439195D01*
X41653100Y-35441210D01*
X41653100Y-35558790D01*
X41676039Y-35674109D01*
X41721034Y-35782738D01*
X41786358Y-35880501D01*
X41830901Y-35925044D01*
X41830900Y-38298354D01*
X41828873Y-38318934D01*
X41830900Y-38339513D01*
X41836965Y-38401091D01*
X41860929Y-38480091D01*
X41899846Y-38552899D01*
X41952218Y-38616716D01*
X41968211Y-38629841D01*
X48669270Y-45330900D01*
X46925043Y-45330900D01*
X46880501Y-45286358D01*
X46782738Y-45221034D01*
X46674109Y-45176039D01*
X46558790Y-45153100D01*
X46441210Y-45153100D01*
X46325891Y-45176039D01*
X46217262Y-45221034D01*
X46119499Y-45286358D01*
X46036358Y-45369499D01*
X45971034Y-45467262D01*
X45926039Y-45575891D01*
X45903100Y-45691210D01*
X45903100Y-45808790D01*
X45926039Y-45924109D01*
X45971034Y-46032738D01*
X46036358Y-46130501D01*
X46119499Y-46213642D01*
X46173912Y-46250000D01*
X46119499Y-46286358D01*
X46036358Y-46369499D01*
X45971034Y-46467262D01*
X45926039Y-46575891D01*
X45903100Y-46691210D01*
X45903100Y-46808790D01*
X45926039Y-46924109D01*
X45971034Y-47032738D01*
X46036358Y-47130501D01*
X46119499Y-47213642D01*
X46217262Y-47278966D01*
X46325891Y-47323961D01*
X46409423Y-47340577D01*
X46426039Y-47424109D01*
X46471034Y-47532738D01*
X46536358Y-47630501D01*
X46619499Y-47713642D01*
X46717262Y-47778966D01*
X46825891Y-47823961D01*
X46941210Y-47846900D01*
X47058790Y-47846900D01*
X47174109Y-47823961D01*
X47282738Y-47778966D01*
X47380501Y-47713642D01*
X47425043Y-47669100D01*
X49214272Y-47669100D01*
X49666471Y-48121299D01*
X49666471Y-51322328D01*
X49630501Y-51286358D01*
X49532738Y-51221034D01*
X49424109Y-51176039D01*
X49308790Y-51153100D01*
X49191210Y-51153100D01*
X49125295Y-51166212D01*
X49134966Y-51151738D01*
X49179961Y-51043109D01*
X49202900Y-50927790D01*
X49202900Y-50810210D01*
X49179961Y-50694891D01*
X49134966Y-50586262D01*
X49069642Y-50488499D01*
X48986501Y-50405358D01*
X48888738Y-50340034D01*
X48780109Y-50295039D01*
X48664790Y-50272100D01*
X48547210Y-50272100D01*
X48431891Y-50295039D01*
X48323262Y-50340034D01*
X48225499Y-50405358D01*
X48142358Y-50488499D01*
X48077034Y-50586262D01*
X48032039Y-50694891D01*
X48009100Y-50810210D01*
X48009100Y-50927790D01*
X48032039Y-51043109D01*
X48077034Y-51151738D01*
X48142358Y-51249501D01*
X48186900Y-51294043D01*
X48186901Y-51799660D01*
X48184873Y-51820250D01*
X48192965Y-51902407D01*
X48216930Y-51981408D01*
X48251880Y-52046794D01*
X48255847Y-52054216D01*
X48308219Y-52118032D01*
X48324206Y-52131152D01*
X49056850Y-52863797D01*
X49056851Y-56608177D01*
X49054823Y-56628767D01*
X49062915Y-56710924D01*
X49086880Y-56789926D01*
X49125796Y-56862732D01*
X49125797Y-56862733D01*
X49178169Y-56926549D01*
X49194157Y-56939670D01*
X50560330Y-58305841D01*
X50573450Y-58321828D01*
X50637266Y-58374200D01*
X50672578Y-58393075D01*
X50710073Y-58413117D01*
X50736480Y-58421127D01*
X50789074Y-58437081D01*
X50850652Y-58443146D01*
X50871232Y-58445173D01*
X50891812Y-58443146D01*
X55353144Y-58443146D01*
X55353164Y-58443148D01*
X55373744Y-58445175D01*
X55394324Y-58443148D01*
X71239173Y-58443148D01*
X71457440Y-58661414D01*
X71470569Y-58677412D01*
X71534385Y-58729784D01*
X71607193Y-58768701D01*
X71686193Y-58792665D01*
X71768351Y-58800757D01*
X71788931Y-58798730D01*
X72211069Y-58798730D01*
X72231649Y-58800757D01*
X72252229Y-58798730D01*
X72313807Y-58792665D01*
X72392807Y-58768701D01*
X72465615Y-58729784D01*
X72529431Y-58677412D01*
X72542556Y-58661418D01*
X72781785Y-58422189D01*
X72785549Y-58419100D01*
X76805802Y-58419100D01*
X76826382Y-58421127D01*
X76846962Y-58419100D01*
X76908540Y-58413035D01*
X76987540Y-58389071D01*
X77060348Y-58350154D01*
X77124164Y-58297782D01*
X77137289Y-58281789D01*
X79781796Y-55637283D01*
X79797782Y-55624164D01*
X79850154Y-55560348D01*
X79889071Y-55487540D01*
X79913035Y-55408540D01*
X79919100Y-55346962D01*
X79919100Y-55346961D01*
X79921127Y-55326382D01*
X79919100Y-55305802D01*
X79919100Y-50438493D01*
X79952218Y-50478848D01*
X79968211Y-50491973D01*
X82416471Y-52940234D01*
X82416471Y-60135700D01*
X79743920Y-60135700D01*
X79743300Y-59954775D01*
X79651225Y-59862700D01*
X78512700Y-59862700D01*
X78512700Y-59882700D01*
X78487300Y-59882700D01*
X78487300Y-59862700D01*
X77348775Y-59862700D01*
X77256700Y-59954775D01*
X77256080Y-60135700D01*
X43592900Y-60135700D01*
X43592900Y-59225000D01*
X77254918Y-59225000D01*
X77256700Y-59745225D01*
X77348775Y-59837300D01*
X78487300Y-59837300D01*
X78487300Y-58948775D01*
X78512700Y-58948775D01*
X78512700Y-59837300D01*
X79651225Y-59837300D01*
X79743300Y-59745225D01*
X79745082Y-59225000D01*
X79737971Y-59152801D01*
X79716911Y-59083376D01*
X79682712Y-59019393D01*
X79636687Y-58963313D01*
X79580607Y-58917288D01*
X79516624Y-58883089D01*
X79447199Y-58862029D01*
X79375000Y-58854918D01*
X78604775Y-58856700D01*
X78512700Y-58948775D01*
X78487300Y-58948775D01*
X78395225Y-58856700D01*
X77625000Y-58854918D01*
X77552801Y-58862029D01*
X77483376Y-58883089D01*
X77419393Y-58917288D01*
X77363313Y-58963313D01*
X77317288Y-59019393D01*
X77283089Y-59083376D01*
X77262029Y-59152801D01*
X77254918Y-59225000D01*
X43592900Y-59225000D01*
X43592900Y-57500000D01*
X43586311Y-57433104D01*
X43566798Y-57368778D01*
X43535111Y-57309495D01*
X43492467Y-57257533D01*
X43440505Y-57214889D01*
X43381222Y-57183202D01*
X43316896Y-57163689D01*
X43250000Y-57157100D01*
X26392900Y-57157100D01*
X26392900Y-50691210D01*
X35403100Y-50691210D01*
X35403100Y-50808790D01*
X35426039Y-50924109D01*
X35471034Y-51032738D01*
X35536358Y-51130501D01*
X35619499Y-51213642D01*
X35717262Y-51278966D01*
X35825891Y-51323961D01*
X35941210Y-51346900D01*
X36058790Y-51346900D01*
X36174109Y-51323961D01*
X36282738Y-51278966D01*
X36380501Y-51213642D01*
X36425043Y-51169100D01*
X45224803Y-51169100D01*
X45403100Y-51347398D01*
X45403100Y-51410391D01*
X45426039Y-51525710D01*
X45471034Y-51634339D01*
X45536358Y-51732102D01*
X45619499Y-51815243D01*
X45717262Y-51880567D01*
X45825891Y-51925562D01*
X45941210Y-51948501D01*
X46058790Y-51948501D01*
X46174109Y-51925562D01*
X46282738Y-51880567D01*
X46380501Y-51815243D01*
X46463642Y-51732102D01*
X46528966Y-51634339D01*
X46573961Y-51525710D01*
X46596900Y-51410391D01*
X46596900Y-51292811D01*
X46573961Y-51177492D01*
X46528966Y-51068863D01*
X46463642Y-50971100D01*
X46380501Y-50887959D01*
X46282738Y-50822635D01*
X46174109Y-50777640D01*
X46058790Y-50754701D01*
X45995797Y-50754701D01*
X45709306Y-50468211D01*
X45696181Y-50452218D01*
X45632365Y-50399846D01*
X45559557Y-50360929D01*
X45480557Y-50336965D01*
X45418979Y-50330900D01*
X45398399Y-50328873D01*
X45377819Y-50330900D01*
X36425043Y-50330900D01*
X36380501Y-50286358D01*
X36282738Y-50221034D01*
X36174109Y-50176039D01*
X36058790Y-50153100D01*
X35941210Y-50153100D01*
X35825891Y-50176039D01*
X35717262Y-50221034D01*
X35619499Y-50286358D01*
X35536358Y-50369499D01*
X35471034Y-50467262D01*
X35426039Y-50575891D01*
X35403100Y-50691210D01*
X26392900Y-50691210D01*
X26392900Y-41105000D01*
X32800213Y-41105000D01*
X32803101Y-41134321D01*
X32803100Y-43965688D01*
X32800213Y-43995000D01*
X32803100Y-44024311D01*
X32803100Y-44024321D01*
X32811737Y-44112012D01*
X32841876Y-44211368D01*
X32845868Y-44224528D01*
X32901295Y-44328224D01*
X32935169Y-44369499D01*
X32975886Y-44419114D01*
X32998666Y-44437809D01*
X34312348Y-45751491D01*
X34310825Y-45755167D01*
X34262100Y-46000123D01*
X34262100Y-46249877D01*
X34310825Y-46494833D01*
X34406401Y-46725576D01*
X34545158Y-46933239D01*
X34721761Y-47109842D01*
X34929424Y-47248599D01*
X35160167Y-47344175D01*
X35405123Y-47392900D01*
X35654877Y-47392900D01*
X35899833Y-47344175D01*
X36130576Y-47248599D01*
X36338239Y-47109842D01*
X36514842Y-46933239D01*
X36653599Y-46725576D01*
X36749175Y-46494833D01*
X36797900Y-46249877D01*
X36797900Y-46000123D01*
X36749175Y-45755167D01*
X36653599Y-45524424D01*
X36514842Y-45316761D01*
X36338239Y-45140158D01*
X36130576Y-45001401D01*
X35985261Y-44941210D01*
X41403100Y-44941210D01*
X41403100Y-45058790D01*
X41426039Y-45174109D01*
X41471034Y-45282738D01*
X41536358Y-45380501D01*
X41619499Y-45463642D01*
X41717262Y-45528966D01*
X41825891Y-45573961D01*
X41941210Y-45596900D01*
X42058790Y-45596900D01*
X42174109Y-45573961D01*
X42282738Y-45528966D01*
X42380501Y-45463642D01*
X42463642Y-45380501D01*
X42528966Y-45282738D01*
X42573961Y-45174109D01*
X42596900Y-45058790D01*
X42596900Y-44995796D01*
X43745797Y-43846900D01*
X43808790Y-43846900D01*
X43924109Y-43823961D01*
X44032738Y-43778966D01*
X44130501Y-43713642D01*
X44213642Y-43630501D01*
X44278966Y-43532738D01*
X44323961Y-43424109D01*
X44346900Y-43308790D01*
X44346900Y-43191210D01*
X44323961Y-43075891D01*
X44278966Y-42967262D01*
X44213642Y-42869499D01*
X44130501Y-42786358D01*
X44032738Y-42721034D01*
X43924109Y-42676039D01*
X43808790Y-42653100D01*
X43691210Y-42653100D01*
X43575891Y-42676039D01*
X43467262Y-42721034D01*
X43369499Y-42786358D01*
X43286358Y-42869499D01*
X43221034Y-42967262D01*
X43176039Y-43075891D01*
X43153100Y-43191210D01*
X43153100Y-43254203D01*
X42004204Y-44403100D01*
X41941210Y-44403100D01*
X41825891Y-44426039D01*
X41717262Y-44471034D01*
X41619499Y-44536358D01*
X41536358Y-44619499D01*
X41471034Y-44717262D01*
X41426039Y-44825891D01*
X41403100Y-44941210D01*
X35985261Y-44941210D01*
X35899833Y-44905825D01*
X35654877Y-44857100D01*
X35405123Y-44857100D01*
X35160167Y-44905825D01*
X35156491Y-44907348D01*
X33996900Y-43747757D01*
X33996900Y-43324407D01*
X34016418Y-43422530D01*
X34073927Y-43561368D01*
X34157417Y-43686320D01*
X34263680Y-43792583D01*
X34388632Y-43876073D01*
X34527470Y-43933582D01*
X34674861Y-43962900D01*
X34825139Y-43962900D01*
X34972530Y-43933582D01*
X34987542Y-43927364D01*
X35016418Y-44072530D01*
X35073927Y-44211368D01*
X35157417Y-44336320D01*
X35263680Y-44442583D01*
X35388632Y-44526073D01*
X35527470Y-44583582D01*
X35674861Y-44612900D01*
X35825139Y-44612900D01*
X35972530Y-44583582D01*
X36111368Y-44526073D01*
X36236320Y-44442583D01*
X36342583Y-44336320D01*
X36426073Y-44211368D01*
X36483582Y-44072530D01*
X36512900Y-43925139D01*
X36512900Y-43774861D01*
X36483582Y-43627470D01*
X36426073Y-43488632D01*
X36342583Y-43363680D01*
X36236320Y-43257417D01*
X36150389Y-43200000D01*
X36236320Y-43142583D01*
X36342583Y-43036320D01*
X36426073Y-42911368D01*
X36483582Y-42772530D01*
X36512900Y-42625139D01*
X36512900Y-42474861D01*
X36483582Y-42327470D01*
X36426073Y-42188632D01*
X36342583Y-42063680D01*
X36275292Y-41996389D01*
X36301857Y-41988331D01*
X36361427Y-41956490D01*
X36413640Y-41913640D01*
X36456490Y-41861427D01*
X36488331Y-41801857D01*
X36507938Y-41737220D01*
X36514559Y-41670000D01*
X36514559Y-40830000D01*
X36507938Y-40762780D01*
X36488331Y-40698143D01*
X36456490Y-40638573D01*
X36413640Y-40586360D01*
X36361427Y-40543510D01*
X36301857Y-40511669D01*
X36237220Y-40492062D01*
X36170000Y-40485441D01*
X35330000Y-40485441D01*
X35262780Y-40492062D01*
X35198143Y-40511669D01*
X35138573Y-40543510D01*
X35086360Y-40586360D01*
X35043510Y-40638573D01*
X35011669Y-40698143D01*
X34992062Y-40762780D01*
X34985441Y-40830000D01*
X34985441Y-41171766D01*
X34972530Y-41166418D01*
X34825139Y-41137100D01*
X34674861Y-41137100D01*
X34527470Y-41166418D01*
X34388632Y-41223927D01*
X34263680Y-41307417D01*
X34157417Y-41413680D01*
X34073927Y-41538632D01*
X34016418Y-41677470D01*
X33996900Y-41775593D01*
X33996900Y-41352243D01*
X35156491Y-40192652D01*
X35160167Y-40194175D01*
X35405123Y-40242900D01*
X35654877Y-40242900D01*
X35899833Y-40194175D01*
X36130576Y-40098599D01*
X36338239Y-39959842D01*
X36514842Y-39783239D01*
X36653599Y-39575576D01*
X36749175Y-39344833D01*
X36797900Y-39099877D01*
X36797900Y-38850123D01*
X36749175Y-38605167D01*
X36653599Y-38374424D01*
X36514842Y-38166761D01*
X36338239Y-37990158D01*
X36130576Y-37851401D01*
X35899833Y-37755825D01*
X35654877Y-37707100D01*
X35405123Y-37707100D01*
X35160167Y-37755825D01*
X34929424Y-37851401D01*
X34721761Y-37990158D01*
X34545158Y-38166761D01*
X34406401Y-38374424D01*
X34310825Y-38605167D01*
X34262100Y-38850123D01*
X34262100Y-39099877D01*
X34310825Y-39344833D01*
X34312348Y-39348509D01*
X32998661Y-40662196D01*
X32975887Y-40680886D01*
X32957197Y-40703660D01*
X32957195Y-40703662D01*
X32901295Y-40771776D01*
X32845868Y-40875472D01*
X32825480Y-40942685D01*
X32811738Y-40987987D01*
X32808976Y-41016034D01*
X32800213Y-41105000D01*
X26392900Y-41105000D01*
X26392900Y-36628280D01*
X26664120Y-37283065D01*
X27076077Y-37899601D01*
X27600399Y-38423923D01*
X28216935Y-38835880D01*
X28901994Y-39119640D01*
X29629249Y-39264300D01*
X30370751Y-39264300D01*
X31098006Y-39119640D01*
X31783065Y-38835880D01*
X32399601Y-38423923D01*
X32923923Y-37899601D01*
X33335880Y-37283065D01*
X33619640Y-36598006D01*
X33764300Y-35870751D01*
X33764300Y-35129249D01*
X33619640Y-34401994D01*
X33335880Y-33716935D01*
X32923923Y-33100399D01*
X32399601Y-32576077D01*
X31783065Y-32164120D01*
X31128280Y-31892900D01*
X64635700Y-31892900D01*
X64635700Y-36750000D01*
X64635700Y-36750000D01*
G37*
X64635700Y-36750000D02*
X64637896Y-36772299D01*
X64644401Y-36793741D01*
X64654963Y-36813502D01*
X64669178Y-36830822D01*
X64686498Y-36845037D01*
X64706259Y-36855599D01*
X64727701Y-36862104D01*
X64750000Y-36864300D01*
X84490662Y-36864300D01*
X84664120Y-37283065D01*
X85076077Y-37899601D01*
X85600399Y-38423923D01*
X86216935Y-38835880D01*
X86901994Y-39119640D01*
X87629249Y-39264300D01*
X88370751Y-39264300D01*
X89098006Y-39119640D01*
X89783065Y-38835880D01*
X90399601Y-38423923D01*
X90923923Y-37899601D01*
X91335880Y-37283065D01*
X91607100Y-36628280D01*
X91607101Y-60135700D01*
X85727900Y-60135700D01*
X85727900Y-58951965D01*
X85713750Y-58808298D01*
X85657833Y-58623963D01*
X85567028Y-58454079D01*
X85444825Y-58305175D01*
X85295921Y-58182972D01*
X85126037Y-58092167D01*
X84941702Y-58036250D01*
X84750000Y-58017369D01*
X84558299Y-58036250D01*
X84373964Y-58092167D01*
X84204080Y-58182972D01*
X84169100Y-58211679D01*
X84169100Y-52540000D01*
X86051329Y-52540000D01*
X86074361Y-52773849D01*
X86142572Y-52998712D01*
X86253341Y-53205946D01*
X86402412Y-53387588D01*
X86584054Y-53536659D01*
X86791288Y-53647428D01*
X87016151Y-53715639D01*
X87191406Y-53732900D01*
X87308594Y-53732900D01*
X87483849Y-53715639D01*
X87708712Y-53647428D01*
X87915946Y-53536659D01*
X88097588Y-53387588D01*
X88246659Y-53205946D01*
X88357428Y-52998712D01*
X88425639Y-52773849D01*
X88448671Y-52540000D01*
X88425639Y-52306151D01*
X88357428Y-52081288D01*
X88246659Y-51874054D01*
X88097588Y-51692412D01*
X87915946Y-51543341D01*
X87708712Y-51432572D01*
X87483849Y-51364361D01*
X87308594Y-51347100D01*
X87191406Y-51347100D01*
X87016151Y-51364361D01*
X86791288Y-51432572D01*
X86584054Y-51543341D01*
X86402412Y-51692412D01*
X86253341Y-51874054D01*
X86142572Y-52081288D01*
X86074361Y-52306151D01*
X86051329Y-52540000D01*
X84169100Y-52540000D01*
X84169100Y-51520579D01*
X84171127Y-51499999D01*
X84163035Y-51417842D01*
X84156163Y-51395187D01*
X84139071Y-51338842D01*
X84100154Y-51266034D01*
X84047782Y-51202218D01*
X84031794Y-51189097D01*
X83692697Y-50850000D01*
X86029918Y-50850000D01*
X86037029Y-50922199D01*
X86058089Y-50991624D01*
X86092288Y-51055607D01*
X86138313Y-51111687D01*
X86194393Y-51157712D01*
X86258376Y-51191911D01*
X86327801Y-51212971D01*
X86400000Y-51220082D01*
X87145225Y-51218300D01*
X87237300Y-51126225D01*
X87237300Y-50012700D01*
X87262700Y-50012700D01*
X87262700Y-51126225D01*
X87354775Y-51218300D01*
X88100000Y-51220082D01*
X88172199Y-51212971D01*
X88241624Y-51191911D01*
X88305607Y-51157712D01*
X88361687Y-51111687D01*
X88407712Y-51055607D01*
X88441911Y-50991624D01*
X88462971Y-50922199D01*
X88470082Y-50850000D01*
X88468300Y-50104775D01*
X88376225Y-50012700D01*
X87262700Y-50012700D01*
X87237300Y-50012700D01*
X86123775Y-50012700D01*
X86031700Y-50104775D01*
X86029918Y-50850000D01*
X83692697Y-50850000D01*
X82346900Y-49504204D01*
X82346900Y-49441210D01*
X82323961Y-49325891D01*
X82278966Y-49217262D01*
X82234023Y-49150000D01*
X86029918Y-49150000D01*
X86031700Y-49895225D01*
X86123775Y-49987300D01*
X87237300Y-49987300D01*
X87237300Y-48873775D01*
X87262700Y-48873775D01*
X87262700Y-49987300D01*
X88376225Y-49987300D01*
X88468300Y-49895225D01*
X88470082Y-49150000D01*
X88462971Y-49077801D01*
X88441911Y-49008376D01*
X88407712Y-48944393D01*
X88361687Y-48888313D01*
X88305607Y-48842288D01*
X88241624Y-48808089D01*
X88172199Y-48787029D01*
X88100000Y-48779918D01*
X87354775Y-48781700D01*
X87262700Y-48873775D01*
X87237300Y-48873775D01*
X87145225Y-48781700D01*
X86400000Y-48779918D01*
X86327801Y-48787029D01*
X86258376Y-48808089D01*
X86194393Y-48842288D01*
X86138313Y-48888313D01*
X86092288Y-48944393D01*
X86058089Y-49008376D01*
X86037029Y-49077801D01*
X86029918Y-49150000D01*
X82234023Y-49150000D01*
X82213642Y-49119499D01*
X82130501Y-49036358D01*
X82032738Y-48971034D01*
X81924109Y-48926039D01*
X81808790Y-48903100D01*
X81691210Y-48903100D01*
X81575891Y-48926039D01*
X81467262Y-48971034D01*
X81369499Y-49036358D01*
X81286358Y-49119499D01*
X81221034Y-49217262D01*
X81176039Y-49325891D01*
X81169100Y-49360775D01*
X81169100Y-39425043D01*
X81213642Y-39380501D01*
X81278966Y-39282738D01*
X81323961Y-39174109D01*
X81346900Y-39058790D01*
X81346900Y-38941210D01*
X81323961Y-38825891D01*
X81278966Y-38717262D01*
X81213642Y-38619499D01*
X81130501Y-38536358D01*
X81032738Y-38471034D01*
X80924109Y-38426039D01*
X80808790Y-38403100D01*
X80691210Y-38403100D01*
X80575891Y-38426039D01*
X80467262Y-38471034D01*
X80369499Y-38536358D01*
X80286358Y-38619499D01*
X80221034Y-38717262D01*
X80176039Y-38825891D01*
X80159423Y-38909423D01*
X80075891Y-38926039D01*
X79967262Y-38971034D01*
X79869499Y-39036358D01*
X79786358Y-39119499D01*
X79721034Y-39217262D01*
X79676039Y-39325891D01*
X79653100Y-39441210D01*
X79653100Y-39558790D01*
X79676039Y-39674109D01*
X79721034Y-39782738D01*
X79786358Y-39880501D01*
X79830900Y-39925043D01*
X79830901Y-47753216D01*
X79782738Y-47721034D01*
X79674109Y-47676039D01*
X79558790Y-47653100D01*
X79441210Y-47653100D01*
X79325891Y-47676039D01*
X79217262Y-47721034D01*
X79119499Y-47786358D01*
X79036358Y-47869499D01*
X78971034Y-47967262D01*
X78926039Y-48075891D01*
X78903100Y-48191210D01*
X78903100Y-48308790D01*
X78926039Y-48424109D01*
X78971034Y-48532738D01*
X79036358Y-48630501D01*
X79080901Y-48675044D01*
X79080901Y-49360779D01*
X79073961Y-49325891D01*
X79028966Y-49217262D01*
X78963642Y-49119499D01*
X78880501Y-49036358D01*
X78782738Y-48971034D01*
X78674109Y-48926039D01*
X78558790Y-48903100D01*
X78441210Y-48903100D01*
X78325891Y-48926039D01*
X78217262Y-48971034D01*
X78208509Y-48976883D01*
X78172032Y-48856635D01*
X78104813Y-48730877D01*
X78014350Y-48620649D01*
X77986734Y-48597985D01*
X77438900Y-48050152D01*
X77438900Y-47185555D01*
X77442402Y-47150000D01*
X77438900Y-47114444D01*
X77438900Y-45985556D01*
X77442402Y-45950000D01*
X77428425Y-45808091D01*
X77387032Y-45671635D01*
X77319813Y-45545877D01*
X77229351Y-45435649D01*
X77119123Y-45345187D01*
X76993365Y-45277968D01*
X76856909Y-45236575D01*
X76750556Y-45226100D01*
X76715000Y-45222598D01*
X76679444Y-45226100D01*
X75550556Y-45226100D01*
X75515000Y-45222598D01*
X75479444Y-45226100D01*
X74350556Y-45226100D01*
X74315000Y-45222598D01*
X74279444Y-45226100D01*
X74173091Y-45236575D01*
X74036635Y-45277968D01*
X73910877Y-45345187D01*
X73800649Y-45435649D01*
X73710187Y-45545877D01*
X73642968Y-45671635D01*
X73601575Y-45808091D01*
X73587598Y-45950000D01*
X73591100Y-45985556D01*
X73591100Y-47114439D01*
X73587598Y-47150000D01*
X73591101Y-47185561D01*
X73591101Y-48314434D01*
X73587598Y-48350000D01*
X73601575Y-48491909D01*
X73635700Y-48604405D01*
X73635700Y-50409422D01*
X73583806Y-50399100D01*
X73416194Y-50399100D01*
X73251802Y-50431800D01*
X73096948Y-50495942D01*
X72957583Y-50589063D01*
X72839063Y-50707583D01*
X72745942Y-50846948D01*
X72681800Y-51001802D01*
X72649100Y-51166194D01*
X72649100Y-51333806D01*
X72681800Y-51498198D01*
X72745942Y-51653052D01*
X72770532Y-51689854D01*
X72723320Y-51778181D01*
X72691265Y-51883854D01*
X72680441Y-51993750D01*
X72680441Y-52431250D01*
X72691265Y-52541146D01*
X72723320Y-52646819D01*
X72775376Y-52744208D01*
X72845430Y-52829570D01*
X72930792Y-52899624D01*
X73028181Y-52951680D01*
X73122823Y-52980389D01*
X73025000Y-52979918D01*
X72952801Y-52987029D01*
X72883376Y-53008089D01*
X72819393Y-53042288D01*
X72763313Y-53088313D01*
X72717288Y-53144393D01*
X72683089Y-53208376D01*
X72662029Y-53277801D01*
X72654918Y-53350000D01*
X72656700Y-53682725D01*
X72748775Y-53774800D01*
X73487300Y-53774800D01*
X73487300Y-53754800D01*
X73512700Y-53754800D01*
X73512700Y-53774800D01*
X73532700Y-53774800D01*
X73532700Y-53800200D01*
X73512700Y-53800200D01*
X73512700Y-54501225D01*
X73604775Y-54593300D01*
X73635700Y-54593449D01*
X73635700Y-55080900D01*
X63520580Y-55080900D01*
X63500000Y-55078873D01*
X63443722Y-55084416D01*
X63417842Y-55086965D01*
X63338842Y-55110929D01*
X63266034Y-55149846D01*
X63202218Y-55202218D01*
X63189099Y-55218204D01*
X62326404Y-56080900D01*
X58842502Y-56080900D01*
X58846900Y-56058790D01*
X58846900Y-55941210D01*
X58823961Y-55825891D01*
X58778966Y-55717262D01*
X58713642Y-55619499D01*
X58630501Y-55536358D01*
X58532738Y-55471034D01*
X58424109Y-55426039D01*
X58308790Y-55403100D01*
X58191210Y-55403100D01*
X58075891Y-55426039D01*
X57967262Y-55471034D01*
X57869499Y-55536358D01*
X57824957Y-55580900D01*
X56342502Y-55580900D01*
X56346900Y-55558790D01*
X56346900Y-55441210D01*
X56323961Y-55325891D01*
X56278966Y-55217262D01*
X56213642Y-55119499D01*
X56130501Y-55036358D01*
X56032738Y-54971034D01*
X55924109Y-54926039D01*
X55808790Y-54903100D01*
X55691210Y-54903100D01*
X55575891Y-54926039D01*
X55467262Y-54971034D01*
X55369499Y-55036358D01*
X55324957Y-55080900D01*
X53389225Y-55080900D01*
X53424109Y-55073961D01*
X53532738Y-55028966D01*
X53630501Y-54963642D01*
X53713642Y-54880501D01*
X53778966Y-54782738D01*
X53823961Y-54674109D01*
X53846900Y-54558790D01*
X53846900Y-54441210D01*
X53823961Y-54325891D01*
X53778966Y-54217262D01*
X53713642Y-54119499D01*
X53630501Y-54036358D01*
X53532738Y-53971034D01*
X53424109Y-53926039D01*
X53308790Y-53903100D01*
X53191210Y-53903100D01*
X53075891Y-53926039D01*
X52967262Y-53971034D01*
X52869499Y-54036358D01*
X52786358Y-54119499D01*
X52721034Y-54217262D01*
X52676039Y-54325891D01*
X52653100Y-54441210D01*
X52653100Y-54504203D01*
X52254204Y-54903100D01*
X52191210Y-54903100D01*
X52075891Y-54926039D01*
X51967262Y-54971034D01*
X51869499Y-55036358D01*
X51786358Y-55119499D01*
X51721034Y-55217262D01*
X51676039Y-55325891D01*
X51659423Y-55409423D01*
X51575891Y-55426039D01*
X51467262Y-55471034D01*
X51419100Y-55503215D01*
X51419100Y-50765796D01*
X52153100Y-51499797D01*
X52153100Y-51562790D01*
X52176039Y-51678109D01*
X52221034Y-51786738D01*
X52286358Y-51884501D01*
X52369499Y-51967642D01*
X52467262Y-52032966D01*
X52575891Y-52077961D01*
X52691210Y-52100900D01*
X52808790Y-52100900D01*
X52924109Y-52077961D01*
X53032738Y-52032966D01*
X53130501Y-51967642D01*
X53213642Y-51884501D01*
X53278966Y-51786738D01*
X53323961Y-51678109D01*
X53346900Y-51562790D01*
X53346900Y-51445210D01*
X53323961Y-51329891D01*
X53278966Y-51221262D01*
X53240780Y-51164113D01*
X53282392Y-51122501D01*
X53347716Y-51024738D01*
X53392711Y-50916109D01*
X53415650Y-50800790D01*
X53415650Y-50683210D01*
X53392711Y-50567891D01*
X53347716Y-50459262D01*
X53282392Y-50361499D01*
X53237850Y-50316957D01*
X53237850Y-49839330D01*
X53239877Y-49818750D01*
X53231785Y-49736592D01*
X53225921Y-49717262D01*
X53207821Y-49657592D01*
X53168904Y-49584784D01*
X53116532Y-49520968D01*
X53100544Y-49507847D01*
X52028718Y-48436022D01*
X52028718Y-47941210D01*
X55153100Y-47941210D01*
X55153100Y-48058790D01*
X55176039Y-48174109D01*
X55221034Y-48282738D01*
X55286358Y-48380501D01*
X55330900Y-48425043D01*
X55330901Y-51229411D01*
X55330900Y-51229421D01*
X55330901Y-52324956D01*
X55286358Y-52369499D01*
X55221034Y-52467262D01*
X55176039Y-52575891D01*
X55153100Y-52691210D01*
X55153100Y-52808790D01*
X55176039Y-52924109D01*
X55221034Y-53032738D01*
X55286358Y-53130501D01*
X55369499Y-53213642D01*
X55467262Y-53278966D01*
X55575891Y-53323961D01*
X55691210Y-53346900D01*
X55808790Y-53346900D01*
X55924109Y-53323961D01*
X56032738Y-53278966D01*
X56130501Y-53213642D01*
X56213642Y-53130501D01*
X56278966Y-53032738D01*
X56323961Y-52924109D01*
X56346900Y-52808790D01*
X56346900Y-52691210D01*
X56323961Y-52575891D01*
X56278966Y-52467262D01*
X56213642Y-52369499D01*
X56169100Y-52324957D01*
X56169100Y-48425043D01*
X56213642Y-48380501D01*
X56278966Y-48282738D01*
X56323961Y-48174109D01*
X56346900Y-48058790D01*
X56346900Y-47941210D01*
X56323961Y-47825891D01*
X56278966Y-47717262D01*
X56213642Y-47619499D01*
X56130501Y-47536358D01*
X56032738Y-47471034D01*
X55924109Y-47426039D01*
X55808790Y-47403100D01*
X55691210Y-47403100D01*
X55575891Y-47426039D01*
X55467262Y-47471034D01*
X55369499Y-47536358D01*
X55286358Y-47619499D01*
X55221034Y-47717262D01*
X55176039Y-47825891D01*
X55153100Y-47941210D01*
X52028718Y-47941210D01*
X52028718Y-47268066D01*
X52030745Y-47247486D01*
X52022653Y-47165328D01*
X52017957Y-47149846D01*
X51998689Y-47086328D01*
X51959772Y-47013520D01*
X51907400Y-46949704D01*
X51891413Y-46936584D01*
X46248129Y-41293301D01*
X46282738Y-41278966D01*
X46380501Y-41213642D01*
X46463642Y-41130501D01*
X46528966Y-41032738D01*
X46573961Y-40924109D01*
X46596900Y-40808790D01*
X46596900Y-40691210D01*
X46573961Y-40575891D01*
X46528966Y-40467262D01*
X46463642Y-40369499D01*
X46419100Y-40324957D01*
X46419100Y-40191210D01*
X48153100Y-40191210D01*
X48153100Y-40308790D01*
X48176039Y-40424109D01*
X48221034Y-40532738D01*
X48286358Y-40630501D01*
X48369499Y-40713642D01*
X48467262Y-40778966D01*
X48575891Y-40823961D01*
X48659423Y-40840577D01*
X48676039Y-40924109D01*
X48721034Y-41032738D01*
X48786358Y-41130501D01*
X48869499Y-41213642D01*
X48967262Y-41278966D01*
X49075891Y-41323961D01*
X49159423Y-41340577D01*
X49176039Y-41424109D01*
X49221034Y-41532738D01*
X49286358Y-41630501D01*
X49369499Y-41713642D01*
X49467262Y-41778966D01*
X49575891Y-41823961D01*
X49659423Y-41840577D01*
X49676039Y-41924109D01*
X49721034Y-42032738D01*
X49786358Y-42130501D01*
X49869499Y-42213642D01*
X49967262Y-42278966D01*
X50075891Y-42323961D01*
X50159423Y-42340577D01*
X50176039Y-42424109D01*
X50221034Y-42532738D01*
X50286358Y-42630501D01*
X50369499Y-42713642D01*
X50467262Y-42778966D01*
X50575891Y-42823961D01*
X50691210Y-42846900D01*
X50808790Y-42846900D01*
X50924109Y-42823961D01*
X51032738Y-42778966D01*
X51130501Y-42713642D01*
X51213642Y-42630501D01*
X51278966Y-42532738D01*
X51323961Y-42424109D01*
X51346900Y-42308790D01*
X51346900Y-42191210D01*
X51323961Y-42075891D01*
X51278966Y-41967262D01*
X51213642Y-41869499D01*
X51169100Y-41824957D01*
X51169100Y-40200952D01*
X52179568Y-40200952D01*
X52200148Y-40202979D01*
X52220728Y-40200952D01*
X52282306Y-40194887D01*
X52344244Y-40176099D01*
X52344243Y-41308188D01*
X52299701Y-41352730D01*
X52234377Y-41450493D01*
X52189382Y-41559122D01*
X52166443Y-41674441D01*
X52166443Y-41680843D01*
X52069412Y-41721034D01*
X51971649Y-41786358D01*
X51888508Y-41869499D01*
X51823184Y-41967262D01*
X51778189Y-42075891D01*
X51755250Y-42191210D01*
X51755250Y-42308790D01*
X51778189Y-42424109D01*
X51823184Y-42532738D01*
X51888508Y-42630501D01*
X51971649Y-42713642D01*
X52069412Y-42778966D01*
X52178041Y-42823961D01*
X52293360Y-42846900D01*
X52410940Y-42846900D01*
X52526259Y-42823961D01*
X52634888Y-42778966D01*
X52732651Y-42713642D01*
X52777193Y-42669100D01*
X52940244Y-42669100D01*
X52960824Y-42671127D01*
X52981404Y-42669100D01*
X53042982Y-42663035D01*
X53121982Y-42639071D01*
X53194790Y-42600154D01*
X53258606Y-42547782D01*
X53271731Y-42531789D01*
X53527739Y-42275782D01*
X53543726Y-42262662D01*
X53596098Y-42198846D01*
X53635015Y-42126038D01*
X53658979Y-42047038D01*
X53665044Y-41985460D01*
X53665044Y-41985459D01*
X53667071Y-41964880D01*
X53665044Y-41944300D01*
X53665044Y-41516521D01*
X53667071Y-41495943D01*
X53664246Y-41467262D01*
X53661681Y-41441210D01*
X54653100Y-41441210D01*
X54653100Y-41558790D01*
X54676039Y-41674109D01*
X54721034Y-41782738D01*
X54786358Y-41880501D01*
X54830900Y-41925043D01*
X54830901Y-45791556D01*
X54786358Y-45836099D01*
X54721034Y-45933862D01*
X54676039Y-46042491D01*
X54653100Y-46157810D01*
X54653100Y-46275390D01*
X54676039Y-46390709D01*
X54721034Y-46499338D01*
X54786358Y-46597101D01*
X54869499Y-46680242D01*
X54967262Y-46745566D01*
X55075891Y-46790561D01*
X55191210Y-46813500D01*
X55308790Y-46813500D01*
X55424109Y-46790561D01*
X55532738Y-46745566D01*
X55630501Y-46680242D01*
X55713642Y-46597101D01*
X55778966Y-46499338D01*
X55823961Y-46390709D01*
X55833659Y-46341953D01*
X55924109Y-46323961D01*
X56032738Y-46278966D01*
X56130501Y-46213642D01*
X56178065Y-46166078D01*
X59830900Y-49818913D01*
X59830901Y-50229411D01*
X59830900Y-50229421D01*
X59830901Y-54574956D01*
X59786358Y-54619499D01*
X59721034Y-54717262D01*
X59676039Y-54825891D01*
X59653100Y-54941210D01*
X59653100Y-55058790D01*
X59676039Y-55174109D01*
X59721034Y-55282738D01*
X59786358Y-55380501D01*
X59869499Y-55463642D01*
X59967262Y-55528966D01*
X60075891Y-55573961D01*
X60191210Y-55596900D01*
X60308790Y-55596900D01*
X60424109Y-55573961D01*
X60532738Y-55528966D01*
X60630501Y-55463642D01*
X60713642Y-55380501D01*
X60778966Y-55282738D01*
X60823961Y-55174109D01*
X60846900Y-55058790D01*
X60846900Y-54941210D01*
X60823961Y-54825891D01*
X60778966Y-54717262D01*
X60713642Y-54619499D01*
X60669100Y-54574957D01*
X60669100Y-54225000D01*
X72654918Y-54225000D01*
X72662029Y-54297199D01*
X72683089Y-54366624D01*
X72717288Y-54430607D01*
X72763313Y-54486687D01*
X72819393Y-54532712D01*
X72883376Y-54566911D01*
X72952801Y-54587971D01*
X73025000Y-54595082D01*
X73395225Y-54593300D01*
X73487300Y-54501225D01*
X73487300Y-53800200D01*
X72748775Y-53800200D01*
X72656700Y-53892275D01*
X72654918Y-54225000D01*
X60669100Y-54225000D01*
X60669100Y-53511797D01*
X60689097Y-53531794D01*
X60702218Y-53547782D01*
X60766034Y-53600154D01*
X60838842Y-53639071D01*
X60917842Y-53663035D01*
X61000000Y-53671127D01*
X61020580Y-53669100D01*
X66574957Y-53669100D01*
X66619499Y-53713642D01*
X66717262Y-53778966D01*
X66825891Y-53823961D01*
X66941210Y-53846900D01*
X67058790Y-53846900D01*
X67174109Y-53823961D01*
X67282738Y-53778966D01*
X67380501Y-53713642D01*
X67463642Y-53630501D01*
X67528966Y-53532738D01*
X67573961Y-53424109D01*
X67596900Y-53308790D01*
X67596900Y-53191210D01*
X67573961Y-53075891D01*
X67528966Y-52967262D01*
X67463642Y-52869499D01*
X67380501Y-52786358D01*
X67282738Y-52721034D01*
X67174109Y-52676039D01*
X67058790Y-52653100D01*
X66941210Y-52653100D01*
X66825891Y-52676039D01*
X66717262Y-52721034D01*
X66619499Y-52786358D01*
X66574957Y-52830900D01*
X61173597Y-52830900D01*
X60973910Y-52631214D01*
X60973910Y-49539640D01*
X60975937Y-49519060D01*
X60967845Y-49436902D01*
X60964550Y-49426039D01*
X60943881Y-49357902D01*
X60904964Y-49285094D01*
X60852592Y-49221278D01*
X60836606Y-49208159D01*
X57596655Y-45968209D01*
X57596650Y-45968203D01*
X57169100Y-45540654D01*
X57169100Y-45175043D01*
X57213642Y-45130501D01*
X57278966Y-45032738D01*
X57323961Y-44924109D01*
X57346900Y-44808790D01*
X57346900Y-44691210D01*
X57323961Y-44575891D01*
X57278966Y-44467262D01*
X57213642Y-44369499D01*
X57130501Y-44286358D01*
X57032738Y-44221034D01*
X56924109Y-44176039D01*
X56889225Y-44169100D01*
X58693670Y-44169100D01*
X58714250Y-44171127D01*
X58734830Y-44169100D01*
X58796408Y-44163035D01*
X58875408Y-44139071D01*
X58948216Y-44100154D01*
X59012032Y-44047782D01*
X59025157Y-44031789D01*
X59298647Y-43758300D01*
X59308790Y-43758300D01*
X59424109Y-43735361D01*
X59532738Y-43690366D01*
X59630501Y-43625042D01*
X59713642Y-43541901D01*
X59778966Y-43444138D01*
X59823961Y-43335509D01*
X59846900Y-43220190D01*
X59846900Y-43102610D01*
X59823961Y-42987291D01*
X59778966Y-42878662D01*
X59713642Y-42780899D01*
X59630501Y-42697758D01*
X59532738Y-42632434D01*
X59424109Y-42587439D01*
X59308790Y-42564500D01*
X59191210Y-42564500D01*
X59075891Y-42587439D01*
X58967262Y-42632434D01*
X58869499Y-42697758D01*
X58820794Y-42746463D01*
X58782738Y-42721034D01*
X58674109Y-42676039D01*
X58558790Y-42653100D01*
X58441210Y-42653100D01*
X58325891Y-42676039D01*
X58217262Y-42721034D01*
X58119499Y-42786358D01*
X58074957Y-42830900D01*
X55911369Y-42830900D01*
X55890789Y-42828873D01*
X55808632Y-42836965D01*
X55729632Y-42860929D01*
X55669100Y-42893284D01*
X55669100Y-41925043D01*
X55713642Y-41880501D01*
X55778966Y-41782738D01*
X55823961Y-41674109D01*
X55846900Y-41558790D01*
X55846900Y-41441210D01*
X55823961Y-41325891D01*
X55778966Y-41217262D01*
X55713642Y-41119499D01*
X55630501Y-41036358D01*
X55532738Y-40971034D01*
X55424109Y-40926039D01*
X55308790Y-40903100D01*
X55191210Y-40903100D01*
X55075891Y-40926039D01*
X54967262Y-40971034D01*
X54869499Y-41036358D01*
X54786358Y-41119499D01*
X54721034Y-41217262D01*
X54676039Y-41325891D01*
X54653100Y-41441210D01*
X53661681Y-41441210D01*
X53658979Y-41413786D01*
X53635015Y-41334786D01*
X53596098Y-41261978D01*
X53543726Y-41198162D01*
X53527733Y-41185037D01*
X53487253Y-41144557D01*
X53487253Y-40638340D01*
X58668924Y-40638340D01*
X58676039Y-40674109D01*
X58721034Y-40782738D01*
X58786358Y-40880501D01*
X58869499Y-40963642D01*
X58967262Y-41028966D01*
X59075891Y-41073961D01*
X59191210Y-41096900D01*
X59308790Y-41096900D01*
X59424109Y-41073961D01*
X59532738Y-41028966D01*
X59630501Y-40963642D01*
X59713642Y-40880501D01*
X59778966Y-40782738D01*
X59823961Y-40674109D01*
X59846900Y-40558790D01*
X59846900Y-40533263D01*
X59869499Y-40555862D01*
X59967262Y-40621186D01*
X60075891Y-40666181D01*
X60191210Y-40689120D01*
X60308790Y-40689120D01*
X60424109Y-40666181D01*
X60532738Y-40621186D01*
X60630501Y-40555862D01*
X60713642Y-40472721D01*
X60778966Y-40374958D01*
X60823961Y-40266329D01*
X60846900Y-40151010D01*
X60846900Y-40033430D01*
X60845963Y-40028720D01*
X60920497Y-40028720D01*
X60920498Y-45074956D01*
X60875955Y-45119499D01*
X60810631Y-45217262D01*
X60765636Y-45325891D01*
X60742697Y-45441210D01*
X60742697Y-45558790D01*
X60765636Y-45674109D01*
X60810631Y-45782738D01*
X60875955Y-45880501D01*
X60959096Y-45963642D01*
X61056859Y-46028966D01*
X61165488Y-46073961D01*
X61280807Y-46096900D01*
X61398387Y-46096900D01*
X61513706Y-46073961D01*
X61622335Y-46028966D01*
X61669799Y-45997251D01*
X61717262Y-46028966D01*
X61825891Y-46073961D01*
X61941210Y-46096900D01*
X62058790Y-46096900D01*
X62174109Y-46073961D01*
X62282738Y-46028966D01*
X62380501Y-45963642D01*
X62463642Y-45880501D01*
X62528966Y-45782738D01*
X62573961Y-45674109D01*
X62596900Y-45558790D01*
X62596900Y-45441210D01*
X62573961Y-45325891D01*
X62528966Y-45217262D01*
X62463642Y-45119499D01*
X62419100Y-45074957D01*
X62419100Y-43753902D01*
X62441210Y-43758300D01*
X62558790Y-43758300D01*
X62674109Y-43735361D01*
X62782738Y-43690366D01*
X62880501Y-43625042D01*
X62963642Y-43541901D01*
X63028966Y-43444138D01*
X63073961Y-43335509D01*
X63096900Y-43220190D01*
X63096900Y-43102610D01*
X63073961Y-42987291D01*
X63028966Y-42878662D01*
X62963642Y-42780899D01*
X62919100Y-42736357D01*
X62919100Y-40441210D01*
X63903100Y-40441210D01*
X63903100Y-40558790D01*
X63926039Y-40674109D01*
X63971034Y-40782738D01*
X64036358Y-40880501D01*
X64080900Y-40925043D01*
X64080901Y-44074956D01*
X64036358Y-44119499D01*
X63971034Y-44217262D01*
X63926039Y-44325891D01*
X63903100Y-44441210D01*
X63903100Y-44558790D01*
X63926039Y-44674109D01*
X63971034Y-44782738D01*
X64036358Y-44880501D01*
X64119499Y-44963642D01*
X64217262Y-45028966D01*
X64325891Y-45073961D01*
X64441210Y-45096900D01*
X64558790Y-45096900D01*
X64674109Y-45073961D01*
X64782738Y-45028966D01*
X64875000Y-44967318D01*
X64967262Y-45028966D01*
X65075891Y-45073961D01*
X65191210Y-45096900D01*
X65308790Y-45096900D01*
X65424109Y-45073961D01*
X65532738Y-45028966D01*
X65625000Y-44967318D01*
X65717262Y-45028966D01*
X65825891Y-45073961D01*
X65941210Y-45096900D01*
X66058790Y-45096900D01*
X66174109Y-45073961D01*
X66282738Y-45028966D01*
X66375000Y-44967318D01*
X66467262Y-45028966D01*
X66575891Y-45073961D01*
X66691210Y-45096900D01*
X66808790Y-45096900D01*
X66924109Y-45073961D01*
X67032738Y-45028966D01*
X67130501Y-44963642D01*
X67213642Y-44880501D01*
X67278966Y-44782738D01*
X67323961Y-44674109D01*
X67346900Y-44558790D01*
X67346900Y-44441210D01*
X67323961Y-44325891D01*
X67278966Y-44217262D01*
X67213642Y-44119499D01*
X67169100Y-44074957D01*
X67169100Y-40925043D01*
X67213642Y-40880501D01*
X67278966Y-40782738D01*
X67323961Y-40674109D01*
X67346900Y-40558790D01*
X67346900Y-40441210D01*
X67323961Y-40325891D01*
X67278966Y-40217262D01*
X67213642Y-40119499D01*
X67130501Y-40036358D01*
X67032738Y-39971034D01*
X66924109Y-39926039D01*
X66808790Y-39903100D01*
X66691210Y-39903100D01*
X66575891Y-39926039D01*
X66467262Y-39971034D01*
X66369499Y-40036358D01*
X66286358Y-40119499D01*
X66221034Y-40217262D01*
X66176039Y-40325891D01*
X66153100Y-40441210D01*
X66153100Y-40558790D01*
X66176039Y-40674109D01*
X66221034Y-40782738D01*
X66286358Y-40880501D01*
X66330900Y-40925043D01*
X66330900Y-40992573D01*
X66297782Y-40952218D01*
X66281794Y-40939097D01*
X65846900Y-40504204D01*
X65846900Y-40441210D01*
X65823961Y-40325891D01*
X65778966Y-40217262D01*
X65713642Y-40119499D01*
X65630501Y-40036358D01*
X65532738Y-39971034D01*
X65424109Y-39926039D01*
X65308790Y-39903100D01*
X65191210Y-39903100D01*
X65075891Y-39926039D01*
X64967262Y-39971034D01*
X64875000Y-40032682D01*
X64782738Y-39971034D01*
X64674109Y-39926039D01*
X64558790Y-39903100D01*
X64441210Y-39903100D01*
X64325891Y-39926039D01*
X64217262Y-39971034D01*
X64119499Y-40036358D01*
X64036358Y-40119499D01*
X63971034Y-40217262D01*
X63926039Y-40325891D01*
X63903100Y-40441210D01*
X62919100Y-40441210D01*
X62919100Y-39925043D01*
X62963642Y-39880501D01*
X63028966Y-39782738D01*
X63073961Y-39674109D01*
X63096900Y-39558790D01*
X63096900Y-39441210D01*
X63092502Y-39419100D01*
X63324957Y-39419100D01*
X63369499Y-39463642D01*
X63467262Y-39528966D01*
X63575891Y-39573961D01*
X63691210Y-39596900D01*
X63808790Y-39596900D01*
X63924109Y-39573961D01*
X64032738Y-39528966D01*
X64130501Y-39463642D01*
X64213642Y-39380501D01*
X64278966Y-39282738D01*
X64323961Y-39174109D01*
X64328418Y-39151701D01*
X66246819Y-39151701D01*
X66267399Y-39153728D01*
X66287979Y-39151701D01*
X66349557Y-39145636D01*
X66428557Y-39121672D01*
X66501365Y-39082755D01*
X66565181Y-39030383D01*
X66578306Y-39014390D01*
X66745796Y-38846900D01*
X66808790Y-38846900D01*
X66924109Y-38823961D01*
X67032738Y-38778966D01*
X67130501Y-38713642D01*
X67213642Y-38630501D01*
X67278966Y-38532738D01*
X67323961Y-38424109D01*
X67346900Y-38308790D01*
X67346900Y-38191210D01*
X67323961Y-38075891D01*
X67278966Y-37967262D01*
X67213642Y-37869499D01*
X67130501Y-37786358D01*
X67032738Y-37721034D01*
X66924109Y-37676039D01*
X66808790Y-37653100D01*
X66691210Y-37653100D01*
X66575891Y-37676039D01*
X66467262Y-37721034D01*
X66369499Y-37786358D01*
X66286358Y-37869499D01*
X66221034Y-37967262D01*
X66176039Y-38075891D01*
X66153100Y-38191210D01*
X66153100Y-38254204D01*
X66093803Y-38313501D01*
X65845963Y-38313501D01*
X65846900Y-38308790D01*
X65846900Y-38191210D01*
X65823961Y-38075891D01*
X65778966Y-37967262D01*
X65713642Y-37869499D01*
X65630501Y-37786358D01*
X65532738Y-37721034D01*
X65424109Y-37676039D01*
X65308790Y-37653100D01*
X65245796Y-37653100D01*
X64959129Y-37366433D01*
X64946004Y-37350440D01*
X64882188Y-37298068D01*
X64809380Y-37259151D01*
X64730380Y-37235187D01*
X64668802Y-37229122D01*
X64648222Y-37227095D01*
X64627642Y-37229122D01*
X50428418Y-37229122D01*
X50407838Y-37227095D01*
X50387258Y-37229122D01*
X50325680Y-37235187D01*
X50246680Y-37259151D01*
X50173872Y-37298068D01*
X50110056Y-37350440D01*
X50096935Y-37366428D01*
X48468211Y-38995153D01*
X48452218Y-39008278D01*
X48399846Y-39072095D01*
X48360929Y-39144903D01*
X48337982Y-39220549D01*
X48336965Y-39223903D01*
X48328873Y-39306060D01*
X48330900Y-39326641D01*
X48330901Y-39824956D01*
X48286358Y-39869499D01*
X48221034Y-39967262D01*
X48176039Y-40075891D01*
X48153100Y-40191210D01*
X46419100Y-40191210D01*
X46419100Y-35925043D01*
X46463642Y-35880501D01*
X46528966Y-35782738D01*
X46573961Y-35674109D01*
X46596900Y-35558790D01*
X46596900Y-35441210D01*
X46573961Y-35325891D01*
X46528966Y-35217262D01*
X46463642Y-35119499D01*
X46380501Y-35036358D01*
X46282738Y-34971034D01*
X46174109Y-34926039D01*
X46058790Y-34903100D01*
X45941210Y-34903100D01*
X45825891Y-34926039D01*
X45717262Y-34971034D01*
X45619499Y-35036358D01*
X45536358Y-35119499D01*
X45471034Y-35217262D01*
X45426039Y-35325891D01*
X45403100Y-35441210D01*
X45403100Y-35558790D01*
X45426039Y-35674109D01*
X45471034Y-35782738D01*
X45536358Y-35880501D01*
X45580901Y-35925044D01*
X45580900Y-40324957D01*
X45536358Y-40369499D01*
X45471034Y-40467262D01*
X45456699Y-40501871D01*
X43151701Y-38196873D01*
X43151701Y-35288931D01*
X43153728Y-35268351D01*
X43145636Y-35186193D01*
X43141250Y-35171735D01*
X43121672Y-35107193D01*
X43082755Y-35034385D01*
X43030383Y-34970569D01*
X43014385Y-34957440D01*
X42792557Y-34735611D01*
X42779431Y-34719617D01*
X42715615Y-34667245D01*
X42642807Y-34628328D01*
X42563807Y-34604364D01*
X42502229Y-34598299D01*
X42481649Y-34596272D01*
X42461069Y-34598299D01*
X41503180Y-34598299D01*
X41482600Y-34596272D01*
X41401489Y-34604261D01*
X41400443Y-34604364D01*
X41321443Y-34628328D01*
X41248635Y-34667245D01*
X41184819Y-34719617D01*
X41171694Y-34735610D01*
X41004204Y-34903100D01*
X40941210Y-34903100D01*
X40825891Y-34926039D01*
X40717262Y-34971034D01*
X40619499Y-35036358D01*
X40536358Y-35119499D01*
X40471034Y-35217262D01*
X40426039Y-35325891D01*
X40403100Y-35441210D01*
X40403100Y-35558790D01*
X40426039Y-35674109D01*
X40471034Y-35782738D01*
X40536358Y-35880501D01*
X40619499Y-35963642D01*
X40717262Y-36028966D01*
X40825891Y-36073961D01*
X40941210Y-36096900D01*
X41058790Y-36096900D01*
X41174109Y-36073961D01*
X41282738Y-36028966D01*
X41380501Y-35963642D01*
X41463642Y-35880501D01*
X41528966Y-35782738D01*
X41573961Y-35674109D01*
X41596900Y-35558790D01*
X41596900Y-35495796D01*
X41653501Y-35439195D01*
X41653100Y-35441210D01*
X41653100Y-35558790D01*
X41676039Y-35674109D01*
X41721034Y-35782738D01*
X41786358Y-35880501D01*
X41830901Y-35925044D01*
X41830900Y-38298354D01*
X41828873Y-38318934D01*
X41830900Y-38339513D01*
X41836965Y-38401091D01*
X41860929Y-38480091D01*
X41899846Y-38552899D01*
X41952218Y-38616716D01*
X41968211Y-38629841D01*
X48669270Y-45330900D01*
X46925043Y-45330900D01*
X46880501Y-45286358D01*
X46782738Y-45221034D01*
X46674109Y-45176039D01*
X46558790Y-45153100D01*
X46441210Y-45153100D01*
X46325891Y-45176039D01*
X46217262Y-45221034D01*
X46119499Y-45286358D01*
X46036358Y-45369499D01*
X45971034Y-45467262D01*
X45926039Y-45575891D01*
X45903100Y-45691210D01*
X45903100Y-45808790D01*
X45926039Y-45924109D01*
X45971034Y-46032738D01*
X46036358Y-46130501D01*
X46119499Y-46213642D01*
X46173912Y-46250000D01*
X46119499Y-46286358D01*
X46036358Y-46369499D01*
X45971034Y-46467262D01*
X45926039Y-46575891D01*
X45903100Y-46691210D01*
X45903100Y-46808790D01*
X45926039Y-46924109D01*
X45971034Y-47032738D01*
X46036358Y-47130501D01*
X46119499Y-47213642D01*
X46217262Y-47278966D01*
X46325891Y-47323961D01*
X46409423Y-47340577D01*
X46426039Y-47424109D01*
X46471034Y-47532738D01*
X46536358Y-47630501D01*
X46619499Y-47713642D01*
X46717262Y-47778966D01*
X46825891Y-47823961D01*
X46941210Y-47846900D01*
X47058790Y-47846900D01*
X47174109Y-47823961D01*
X47282738Y-47778966D01*
X47380501Y-47713642D01*
X47425043Y-47669100D01*
X49214272Y-47669100D01*
X49666471Y-48121299D01*
X49666471Y-51322328D01*
X49630501Y-51286358D01*
X49532738Y-51221034D01*
X49424109Y-51176039D01*
X49308790Y-51153100D01*
X49191210Y-51153100D01*
X49125295Y-51166212D01*
X49134966Y-51151738D01*
X49179961Y-51043109D01*
X49202900Y-50927790D01*
X49202900Y-50810210D01*
X49179961Y-50694891D01*
X49134966Y-50586262D01*
X49069642Y-50488499D01*
X48986501Y-50405358D01*
X48888738Y-50340034D01*
X48780109Y-50295039D01*
X48664790Y-50272100D01*
X48547210Y-50272100D01*
X48431891Y-50295039D01*
X48323262Y-50340034D01*
X48225499Y-50405358D01*
X48142358Y-50488499D01*
X48077034Y-50586262D01*
X48032039Y-50694891D01*
X48009100Y-50810210D01*
X48009100Y-50927790D01*
X48032039Y-51043109D01*
X48077034Y-51151738D01*
X48142358Y-51249501D01*
X48186900Y-51294043D01*
X48186901Y-51799660D01*
X48184873Y-51820250D01*
X48192965Y-51902407D01*
X48216930Y-51981408D01*
X48251880Y-52046794D01*
X48255847Y-52054216D01*
X48308219Y-52118032D01*
X48324206Y-52131152D01*
X49056850Y-52863797D01*
X49056851Y-56608177D01*
X49054823Y-56628767D01*
X49062915Y-56710924D01*
X49086880Y-56789926D01*
X49125796Y-56862732D01*
X49125797Y-56862733D01*
X49178169Y-56926549D01*
X49194157Y-56939670D01*
X50560330Y-58305841D01*
X50573450Y-58321828D01*
X50637266Y-58374200D01*
X50672578Y-58393075D01*
X50710073Y-58413117D01*
X50736480Y-58421127D01*
X50789074Y-58437081D01*
X50850652Y-58443146D01*
X50871232Y-58445173D01*
X50891812Y-58443146D01*
X55353144Y-58443146D01*
X55353164Y-58443148D01*
X55373744Y-58445175D01*
X55394324Y-58443148D01*
X71239173Y-58443148D01*
X71457440Y-58661414D01*
X71470569Y-58677412D01*
X71534385Y-58729784D01*
X71607193Y-58768701D01*
X71686193Y-58792665D01*
X71768351Y-58800757D01*
X71788931Y-58798730D01*
X72211069Y-58798730D01*
X72231649Y-58800757D01*
X72252229Y-58798730D01*
X72313807Y-58792665D01*
X72392807Y-58768701D01*
X72465615Y-58729784D01*
X72529431Y-58677412D01*
X72542556Y-58661418D01*
X72781785Y-58422189D01*
X72785549Y-58419100D01*
X76805802Y-58419100D01*
X76826382Y-58421127D01*
X76846962Y-58419100D01*
X76908540Y-58413035D01*
X76987540Y-58389071D01*
X77060348Y-58350154D01*
X77124164Y-58297782D01*
X77137289Y-58281789D01*
X79781796Y-55637283D01*
X79797782Y-55624164D01*
X79850154Y-55560348D01*
X79889071Y-55487540D01*
X79913035Y-55408540D01*
X79919100Y-55346962D01*
X79919100Y-55346961D01*
X79921127Y-55326382D01*
X79919100Y-55305802D01*
X79919100Y-50438493D01*
X79952218Y-50478848D01*
X79968211Y-50491973D01*
X82416471Y-52940234D01*
X82416471Y-60135700D01*
X79743920Y-60135700D01*
X79743300Y-59954775D01*
X79651225Y-59862700D01*
X78512700Y-59862700D01*
X78512700Y-59882700D01*
X78487300Y-59882700D01*
X78487300Y-59862700D01*
X77348775Y-59862700D01*
X77256700Y-59954775D01*
X77256080Y-60135700D01*
X43592900Y-60135700D01*
X43592900Y-59225000D01*
X77254918Y-59225000D01*
X77256700Y-59745225D01*
X77348775Y-59837300D01*
X78487300Y-59837300D01*
X78487300Y-58948775D01*
X78512700Y-58948775D01*
X78512700Y-59837300D01*
X79651225Y-59837300D01*
X79743300Y-59745225D01*
X79745082Y-59225000D01*
X79737971Y-59152801D01*
X79716911Y-59083376D01*
X79682712Y-59019393D01*
X79636687Y-58963313D01*
X79580607Y-58917288D01*
X79516624Y-58883089D01*
X79447199Y-58862029D01*
X79375000Y-58854918D01*
X78604775Y-58856700D01*
X78512700Y-58948775D01*
X78487300Y-58948775D01*
X78395225Y-58856700D01*
X77625000Y-58854918D01*
X77552801Y-58862029D01*
X77483376Y-58883089D01*
X77419393Y-58917288D01*
X77363313Y-58963313D01*
X77317288Y-59019393D01*
X77283089Y-59083376D01*
X77262029Y-59152801D01*
X77254918Y-59225000D01*
X43592900Y-59225000D01*
X43592900Y-57500000D01*
X43586311Y-57433104D01*
X43566798Y-57368778D01*
X43535111Y-57309495D01*
X43492467Y-57257533D01*
X43440505Y-57214889D01*
X43381222Y-57183202D01*
X43316896Y-57163689D01*
X43250000Y-57157100D01*
X26392900Y-57157100D01*
X26392900Y-50691210D01*
X35403100Y-50691210D01*
X35403100Y-50808790D01*
X35426039Y-50924109D01*
X35471034Y-51032738D01*
X35536358Y-51130501D01*
X35619499Y-51213642D01*
X35717262Y-51278966D01*
X35825891Y-51323961D01*
X35941210Y-51346900D01*
X36058790Y-51346900D01*
X36174109Y-51323961D01*
X36282738Y-51278966D01*
X36380501Y-51213642D01*
X36425043Y-51169100D01*
X45224803Y-51169100D01*
X45403100Y-51347398D01*
X45403100Y-51410391D01*
X45426039Y-51525710D01*
X45471034Y-51634339D01*
X45536358Y-51732102D01*
X45619499Y-51815243D01*
X45717262Y-51880567D01*
X45825891Y-51925562D01*
X45941210Y-51948501D01*
X46058790Y-51948501D01*
X46174109Y-51925562D01*
X46282738Y-51880567D01*
X46380501Y-51815243D01*
X46463642Y-51732102D01*
X46528966Y-51634339D01*
X46573961Y-51525710D01*
X46596900Y-51410391D01*
X46596900Y-51292811D01*
X46573961Y-51177492D01*
X46528966Y-51068863D01*
X46463642Y-50971100D01*
X46380501Y-50887959D01*
X46282738Y-50822635D01*
X46174109Y-50777640D01*
X46058790Y-50754701D01*
X45995797Y-50754701D01*
X45709306Y-50468211D01*
X45696181Y-50452218D01*
X45632365Y-50399846D01*
X45559557Y-50360929D01*
X45480557Y-50336965D01*
X45418979Y-50330900D01*
X45398399Y-50328873D01*
X45377819Y-50330900D01*
X36425043Y-50330900D01*
X36380501Y-50286358D01*
X36282738Y-50221034D01*
X36174109Y-50176039D01*
X36058790Y-50153100D01*
X35941210Y-50153100D01*
X35825891Y-50176039D01*
X35717262Y-50221034D01*
X35619499Y-50286358D01*
X35536358Y-50369499D01*
X35471034Y-50467262D01*
X35426039Y-50575891D01*
X35403100Y-50691210D01*
X26392900Y-50691210D01*
X26392900Y-41105000D01*
X32800213Y-41105000D01*
X32803101Y-41134321D01*
X32803100Y-43965688D01*
X32800213Y-43995000D01*
X32803100Y-44024311D01*
X32803100Y-44024321D01*
X32811737Y-44112012D01*
X32841876Y-44211368D01*
X32845868Y-44224528D01*
X32901295Y-44328224D01*
X32935169Y-44369499D01*
X32975886Y-44419114D01*
X32998666Y-44437809D01*
X34312348Y-45751491D01*
X34310825Y-45755167D01*
X34262100Y-46000123D01*
X34262100Y-46249877D01*
X34310825Y-46494833D01*
X34406401Y-46725576D01*
X34545158Y-46933239D01*
X34721761Y-47109842D01*
X34929424Y-47248599D01*
X35160167Y-47344175D01*
X35405123Y-47392900D01*
X35654877Y-47392900D01*
X35899833Y-47344175D01*
X36130576Y-47248599D01*
X36338239Y-47109842D01*
X36514842Y-46933239D01*
X36653599Y-46725576D01*
X36749175Y-46494833D01*
X36797900Y-46249877D01*
X36797900Y-46000123D01*
X36749175Y-45755167D01*
X36653599Y-45524424D01*
X36514842Y-45316761D01*
X36338239Y-45140158D01*
X36130576Y-45001401D01*
X35985261Y-44941210D01*
X41403100Y-44941210D01*
X41403100Y-45058790D01*
X41426039Y-45174109D01*
X41471034Y-45282738D01*
X41536358Y-45380501D01*
X41619499Y-45463642D01*
X41717262Y-45528966D01*
X41825891Y-45573961D01*
X41941210Y-45596900D01*
X42058790Y-45596900D01*
X42174109Y-45573961D01*
X42282738Y-45528966D01*
X42380501Y-45463642D01*
X42463642Y-45380501D01*
X42528966Y-45282738D01*
X42573961Y-45174109D01*
X42596900Y-45058790D01*
X42596900Y-44995796D01*
X43745797Y-43846900D01*
X43808790Y-43846900D01*
X43924109Y-43823961D01*
X44032738Y-43778966D01*
X44130501Y-43713642D01*
X44213642Y-43630501D01*
X44278966Y-43532738D01*
X44323961Y-43424109D01*
X44346900Y-43308790D01*
X44346900Y-43191210D01*
X44323961Y-43075891D01*
X44278966Y-42967262D01*
X44213642Y-42869499D01*
X44130501Y-42786358D01*
X44032738Y-42721034D01*
X43924109Y-42676039D01*
X43808790Y-42653100D01*
X43691210Y-42653100D01*
X43575891Y-42676039D01*
X43467262Y-42721034D01*
X43369499Y-42786358D01*
X43286358Y-42869499D01*
X43221034Y-42967262D01*
X43176039Y-43075891D01*
X43153100Y-43191210D01*
X43153100Y-43254203D01*
X42004204Y-44403100D01*
X41941210Y-44403100D01*
X41825891Y-44426039D01*
X41717262Y-44471034D01*
X41619499Y-44536358D01*
X41536358Y-44619499D01*
X41471034Y-44717262D01*
X41426039Y-44825891D01*
X41403100Y-44941210D01*
X35985261Y-44941210D01*
X35899833Y-44905825D01*
X35654877Y-44857100D01*
X35405123Y-44857100D01*
X35160167Y-44905825D01*
X35156491Y-44907348D01*
X33996900Y-43747757D01*
X33996900Y-43324407D01*
X34016418Y-43422530D01*
X34073927Y-43561368D01*
X34157417Y-43686320D01*
X34263680Y-43792583D01*
X34388632Y-43876073D01*
X34527470Y-43933582D01*
X34674861Y-43962900D01*
X34825139Y-43962900D01*
X34972530Y-43933582D01*
X34987542Y-43927364D01*
X35016418Y-44072530D01*
X35073927Y-44211368D01*
X35157417Y-44336320D01*
X35263680Y-44442583D01*
X35388632Y-44526073D01*
X35527470Y-44583582D01*
X35674861Y-44612900D01*
X35825139Y-44612900D01*
X35972530Y-44583582D01*
X36111368Y-44526073D01*
X36236320Y-44442583D01*
X36342583Y-44336320D01*
X36426073Y-44211368D01*
X36483582Y-44072530D01*
X36512900Y-43925139D01*
X36512900Y-43774861D01*
X36483582Y-43627470D01*
X36426073Y-43488632D01*
X36342583Y-43363680D01*
X36236320Y-43257417D01*
X36150389Y-43200000D01*
X36236320Y-43142583D01*
X36342583Y-43036320D01*
X36426073Y-42911368D01*
X36483582Y-42772530D01*
X36512900Y-42625139D01*
X36512900Y-42474861D01*
X36483582Y-42327470D01*
X36426073Y-42188632D01*
X36342583Y-42063680D01*
X36275292Y-41996389D01*
X36301857Y-41988331D01*
X36361427Y-41956490D01*
X36413640Y-41913640D01*
X36456490Y-41861427D01*
X36488331Y-41801857D01*
X36507938Y-41737220D01*
X36514559Y-41670000D01*
X36514559Y-40830000D01*
X36507938Y-40762780D01*
X36488331Y-40698143D01*
X36456490Y-40638573D01*
X36413640Y-40586360D01*
X36361427Y-40543510D01*
X36301857Y-40511669D01*
X36237220Y-40492062D01*
X36170000Y-40485441D01*
X35330000Y-40485441D01*
X35262780Y-40492062D01*
X35198143Y-40511669D01*
X35138573Y-40543510D01*
X35086360Y-40586360D01*
X35043510Y-40638573D01*
X35011669Y-40698143D01*
X34992062Y-40762780D01*
X34985441Y-40830000D01*
X34985441Y-41171766D01*
X34972530Y-41166418D01*
X34825139Y-41137100D01*
X34674861Y-41137100D01*
X34527470Y-41166418D01*
X34388632Y-41223927D01*
X34263680Y-41307417D01*
X34157417Y-41413680D01*
X34073927Y-41538632D01*
X34016418Y-41677470D01*
X33996900Y-41775593D01*
X33996900Y-41352243D01*
X35156491Y-40192652D01*
X35160167Y-40194175D01*
X35405123Y-40242900D01*
X35654877Y-40242900D01*
X35899833Y-40194175D01*
X36130576Y-40098599D01*
X36338239Y-39959842D01*
X36514842Y-39783239D01*
X36653599Y-39575576D01*
X36749175Y-39344833D01*
X36797900Y-39099877D01*
X36797900Y-38850123D01*
X36749175Y-38605167D01*
X36653599Y-38374424D01*
X36514842Y-38166761D01*
X36338239Y-37990158D01*
X36130576Y-37851401D01*
X35899833Y-37755825D01*
X35654877Y-37707100D01*
X35405123Y-37707100D01*
X35160167Y-37755825D01*
X34929424Y-37851401D01*
X34721761Y-37990158D01*
X34545158Y-38166761D01*
X34406401Y-38374424D01*
X34310825Y-38605167D01*
X34262100Y-38850123D01*
X34262100Y-39099877D01*
X34310825Y-39344833D01*
X34312348Y-39348509D01*
X32998661Y-40662196D01*
X32975887Y-40680886D01*
X32957197Y-40703660D01*
X32957195Y-40703662D01*
X32901295Y-40771776D01*
X32845868Y-40875472D01*
X32825480Y-40942685D01*
X32811738Y-40987987D01*
X32808976Y-41016034D01*
X32800213Y-41105000D01*
X26392900Y-41105000D01*
X26392900Y-36628280D01*
X26664120Y-37283065D01*
X27076077Y-37899601D01*
X27600399Y-38423923D01*
X28216935Y-38835880D01*
X28901994Y-39119640D01*
X29629249Y-39264300D01*
X30370751Y-39264300D01*
X31098006Y-39119640D01*
X31783065Y-38835880D01*
X32399601Y-38423923D01*
X32923923Y-37899601D01*
X33335880Y-37283065D01*
X33619640Y-36598006D01*
X33764300Y-35870751D01*
X33764300Y-35129249D01*
X33619640Y-34401994D01*
X33335880Y-33716935D01*
X32923923Y-33100399D01*
X32399601Y-32576077D01*
X31783065Y-32164120D01*
X31128280Y-31892900D01*
X64635700Y-31892900D01*
X64635700Y-36750000D01*
M02*
