G04 #@! TF.GenerationSoftware,KiCad,Pcbnew,(5.0.0-rc2-dev-390-g2bfbff1)*
G04 #@! TF.CreationDate,2018-04-26T20:39:25-05:00*
G04 #@! TF.ProjectId,WiFi-Gate-Controller,576946692D476174652D436F6E74726F,rev?*
G04 #@! TF.SameCoordinates,Original*
G04 #@! TF.FileFunction,Soldermask,Top*
G04 #@! TF.FilePolarity,Negative*
%FSLAX46Y46*%
G04 Gerber Fmt 4.6, Leading zero omitted, Abs format (unit mm)*
G04 Created by KiCad (PCBNEW (5.0.0-rc2-dev-390-g2bfbff1)) date Thursday, April 26, 2018 at 08:39:25 PM*
%MOMM*%
%LPD*%
G01*
G04 APERTURE LIST*
%ADD10R,0.800000X0.750000*%
%ADD11R,0.940000X2.040000*%
%ADD12R,0.590000X0.540000*%
%ADD13C,7.300000*%
%ADD14R,1.700000X0.900000*%
%ADD15R,1.900000X1.100000*%
%ADD16R,0.740000X2.400000*%
%ADD17C,2.400000*%
%ADD18R,2.400000X2.400000*%
%ADD19C,1.850000*%
%ADD20C,0.840000*%
%ADD21R,0.840000X0.840000*%
%ADD22R,3.300000X2.500000*%
%ADD23R,1.900000X0.800000*%
%ADD24R,0.800000X1.900000*%
%ADD25R,3.700000X3.700000*%
%ADD26C,0.500000*%
%ADD27R,0.750000X0.800000*%
%ADD28R,1.500000X1.050000*%
%ADD29R,1.500000X2.400000*%
%ADD30R,2.400000X1.500000*%
%ADD31R,1.050000X1.500000*%
%ADD32R,0.800000X0.800000*%
%ADD33R,0.500000X0.900000*%
%ADD34R,1.450000X0.450000*%
%ADD35R,0.650000X1.060000*%
%ADD36R,1.287500X1.287500*%
%ADD37R,0.250000X0.700000*%
%ADD38R,0.700000X0.250000*%
%ADD39R,0.800000X0.900000*%
%ADD40R,0.900000X1.700000*%
%ADD41R,2.500000X4.000000*%
%ADD42R,1.250000X1.000000*%
%ADD43R,1.000000X1.250000*%
%ADD44O,1.700000X1.700000*%
%ADD45R,1.700000X1.700000*%
%ADD46R,1.000000X1.400000*%
%ADD47R,1.200000X1.400000*%
%ADD48R,0.900000X0.500000*%
G04 APERTURE END LIST*
D10*
X40000000Y-66600000D03*
X41500000Y-66600000D03*
D11*
X38700000Y-63500000D03*
X39800000Y-63500000D03*
D12*
X37775000Y-64700000D03*
X37775000Y-63900000D03*
X37775000Y-63100000D03*
X37775000Y-62300000D03*
X40725000Y-62300000D03*
X40725000Y-63100000D03*
X40725000Y-63900000D03*
X40725000Y-64700000D03*
D13*
X88000000Y-35500000D03*
X88000000Y-79000000D03*
X30000000Y-79000000D03*
X30000000Y-35500000D03*
D14*
X40500000Y-49050000D03*
X40500000Y-52450000D03*
D15*
X57750000Y-50200000D03*
X57750000Y-47800000D03*
D16*
X46040000Y-33550000D03*
X46040000Y-37450000D03*
X44770000Y-33550000D03*
X44770000Y-37450000D03*
X43500000Y-33550000D03*
X43500000Y-37450000D03*
X42230000Y-33550000D03*
X42230000Y-37450000D03*
X40960000Y-33550000D03*
X40960000Y-37450000D03*
D17*
X75000000Y-74250000D03*
X71500000Y-74250000D03*
X68000000Y-74250000D03*
D18*
X43500000Y-74250000D03*
D17*
X64500000Y-74281729D03*
X61000000Y-74250000D03*
X57500000Y-74250000D03*
X54000000Y-74250000D03*
X47000000Y-74250000D03*
X50500000Y-74250000D03*
D19*
X35530000Y-46125000D03*
X35530000Y-38975000D03*
D20*
X35750000Y-43850000D03*
X34750000Y-43200000D03*
X35750000Y-42550000D03*
X34750000Y-41900000D03*
D21*
X35750000Y-41250000D03*
D22*
X37750000Y-79400000D03*
X37750000Y-72600000D03*
D23*
X83365000Y-50750000D03*
X83365000Y-49734000D03*
X83365000Y-48718000D03*
X83365000Y-47702000D03*
X83365000Y-43638000D03*
X83365000Y-41606000D03*
X83365000Y-40590000D03*
X83365000Y-39574000D03*
X83365000Y-38558000D03*
X68635000Y-40596000D03*
X68635000Y-41612000D03*
X68635000Y-42628000D03*
X68635000Y-43644000D03*
X68635000Y-44660000D03*
X68635000Y-45676000D03*
X68635000Y-46692000D03*
X68635000Y-47708000D03*
X68635000Y-48724000D03*
X68635000Y-49740000D03*
D24*
X70535000Y-53420000D03*
X73583000Y-53420000D03*
X74599000Y-53420000D03*
X75615000Y-53420000D03*
X76631000Y-53420000D03*
X77647000Y-53420000D03*
X78663000Y-53420000D03*
X79679000Y-53420000D03*
X80695000Y-53420000D03*
D25*
X75515000Y-47150000D03*
D26*
X75515000Y-47150000D03*
X74315000Y-47150000D03*
X76715000Y-47150000D03*
X74315000Y-45950000D03*
X75515000Y-45950000D03*
X76715000Y-45950000D03*
X74315000Y-48350000D03*
X75515000Y-48350000D03*
X76715000Y-48350000D03*
D27*
X30250000Y-69000000D03*
X30250000Y-70500000D03*
D10*
X30750000Y-49750000D03*
X32250000Y-49750000D03*
X30750000Y-52750000D03*
X32250000Y-52750000D03*
X57500000Y-34250000D03*
X59000000Y-34250000D03*
X57000000Y-46250000D03*
X58500000Y-46250000D03*
D27*
X51818750Y-39750000D03*
X51818750Y-41250000D03*
X51818750Y-51750000D03*
X51818750Y-53250000D03*
D10*
X44250000Y-49250000D03*
X45750000Y-49250000D03*
D27*
X50500000Y-52750000D03*
X50500000Y-54250000D03*
D10*
X61250000Y-50200000D03*
X59750000Y-50200000D03*
X59750000Y-47800000D03*
X61250000Y-47800000D03*
X38250000Y-54000000D03*
X36750000Y-54000000D03*
D28*
X28000000Y-72525000D03*
D29*
X28000000Y-70150000D03*
D30*
X29600000Y-54750000D03*
D31*
X27225000Y-54750000D03*
D32*
X85800000Y-60500000D03*
X84200000Y-60500000D03*
X84200000Y-63500000D03*
X85800000Y-63500000D03*
D33*
X57500000Y-32750000D03*
X59000000Y-32750000D03*
D14*
X50500000Y-70200000D03*
X50500000Y-67300000D03*
X54000000Y-70200000D03*
X54000000Y-67300000D03*
X57500000Y-67300000D03*
X57500000Y-70200000D03*
D33*
X82750000Y-63500000D03*
X81250000Y-63500000D03*
X81250000Y-60500000D03*
X82750000Y-60500000D03*
X82750000Y-57500000D03*
X81250000Y-57500000D03*
D14*
X61000000Y-67300000D03*
X61000000Y-70200000D03*
X64500000Y-70200000D03*
X64500000Y-67300000D03*
D33*
X81250000Y-66500000D03*
X82750000Y-66500000D03*
D14*
X68000000Y-67300000D03*
X68000000Y-70200000D03*
D33*
X36750000Y-49050000D03*
X38250000Y-49050000D03*
D14*
X71500000Y-70250000D03*
X71500000Y-67350000D03*
D33*
X38250000Y-52450000D03*
X36750000Y-52450000D03*
X36750000Y-50750000D03*
X38250000Y-50750000D03*
D14*
X75000000Y-67300000D03*
X75000000Y-70200000D03*
D34*
X60450000Y-35775000D03*
X60450000Y-36425000D03*
X60450000Y-37075000D03*
X60450000Y-37725000D03*
X56050000Y-37725000D03*
X56050000Y-37075000D03*
X56050000Y-36425000D03*
X56050000Y-35775000D03*
D35*
X51300000Y-62100000D03*
X52250000Y-62100000D03*
X53200000Y-62100000D03*
X53200000Y-59900000D03*
X51300000Y-59900000D03*
X52250000Y-59900000D03*
X59250000Y-59900000D03*
X58300000Y-59900000D03*
X60200000Y-59900000D03*
X60200000Y-62100000D03*
X59250000Y-62100000D03*
X58300000Y-62100000D03*
D36*
X53000000Y-48431250D03*
X53000000Y-47143750D03*
X53000000Y-45856250D03*
X53000000Y-44568750D03*
X51712500Y-48431250D03*
X51712500Y-47143750D03*
X51712500Y-45856250D03*
X51712500Y-44568750D03*
X50425000Y-48431250D03*
X50425000Y-47143750D03*
X50425000Y-45856250D03*
X50425000Y-44568750D03*
X49137500Y-48431250D03*
X49137500Y-47143750D03*
X49137500Y-45856250D03*
X49137500Y-44568750D03*
D37*
X53818750Y-49900000D03*
X53318750Y-49900000D03*
X52818750Y-49900000D03*
X52318750Y-49900000D03*
X51818750Y-49900000D03*
X51318750Y-49900000D03*
X50818750Y-49900000D03*
X50318750Y-49900000D03*
X49818750Y-49900000D03*
X49318750Y-49900000D03*
X48818750Y-49900000D03*
X48318750Y-49900000D03*
D38*
X47668750Y-49250000D03*
X47668750Y-48750000D03*
X47668750Y-48250000D03*
X47668750Y-47750000D03*
X47668750Y-47250000D03*
X47668750Y-46750000D03*
X47668750Y-46250000D03*
X47668750Y-45750000D03*
X47668750Y-45250000D03*
X47668750Y-44750000D03*
X47668750Y-44250000D03*
X47668750Y-43750000D03*
D37*
X48318750Y-43100000D03*
X48818750Y-43100000D03*
X49318750Y-43100000D03*
X49818750Y-43100000D03*
X50318750Y-43100000D03*
X50818750Y-43100000D03*
X51318750Y-43100000D03*
X51818750Y-43100000D03*
X52318750Y-43100000D03*
X52818750Y-43100000D03*
X53318750Y-43100000D03*
X53818750Y-43100000D03*
D38*
X54468750Y-43750000D03*
X54468750Y-44250000D03*
X54468750Y-44750000D03*
X54468750Y-45250000D03*
X54468750Y-45750000D03*
X54468750Y-46250000D03*
X54468750Y-46750000D03*
X54468750Y-47250000D03*
X54468750Y-47750000D03*
X54468750Y-48250000D03*
X54468750Y-48750000D03*
X54468750Y-49250000D03*
D35*
X65300000Y-62100000D03*
X66250000Y-62100000D03*
X67200000Y-62100000D03*
X67200000Y-59900000D03*
X65300000Y-59900000D03*
X66250000Y-59900000D03*
X73250000Y-59900000D03*
X72300000Y-59900000D03*
X74200000Y-59900000D03*
X74200000Y-62100000D03*
X73250000Y-62100000D03*
X72300000Y-62100000D03*
D39*
X52250000Y-65750000D03*
X51300000Y-63750000D03*
X53200000Y-63750000D03*
X60200000Y-63750000D03*
X58300000Y-63750000D03*
X59250000Y-65750000D03*
D40*
X33200000Y-72500000D03*
X30300000Y-72500000D03*
D14*
X28750000Y-52700000D03*
X28750000Y-49800000D03*
D27*
X33250000Y-69000000D03*
X33250000Y-70500000D03*
D41*
X30750000Y-58450000D03*
X30750000Y-64550000D03*
D42*
X36000000Y-64500000D03*
X36000000Y-62500000D03*
D43*
X39000000Y-60500000D03*
X41000000Y-60500000D03*
D44*
X87250000Y-52540000D03*
D45*
X87250000Y-50000000D03*
D46*
X31050000Y-41150000D03*
X32950000Y-41150000D03*
X32950000Y-43350000D03*
D47*
X31230000Y-43350000D03*
D32*
X84200000Y-57500000D03*
X85800000Y-57500000D03*
D39*
X67200000Y-63750000D03*
X65300000Y-63750000D03*
X66250000Y-65750000D03*
D32*
X85800000Y-66500000D03*
X84200000Y-66500000D03*
D39*
X73250000Y-65750000D03*
X72300000Y-63750000D03*
X74200000Y-63750000D03*
D14*
X47000000Y-63550000D03*
X47000000Y-66450000D03*
D33*
X32750000Y-46250000D03*
X31250000Y-46250000D03*
D48*
X42400000Y-63250000D03*
X42400000Y-61750000D03*
X42400000Y-63900000D03*
X42400000Y-65400000D03*
M02*
