G04 #@! TF.GenerationSoftware,KiCad,Pcbnew,(5.1.2-1)-1*
G04 #@! TF.CreationDate,2019-05-05T13:35:30-05:00*
G04 #@! TF.ProjectId,WiFi-Gate-Controller,57694669-2d47-4617-9465-2d436f6e7472,rev?*
G04 #@! TF.SameCoordinates,Original*
G04 #@! TF.FileFunction,Legend,Top*
G04 #@! TF.FilePolarity,Positive*
%FSLAX46Y46*%
G04 Gerber Fmt 4.6, Leading zero omitted, Abs format (unit mm)*
G04 Created by KiCad (PCBNEW (5.1.2-1)-1) date 2019-05-05 13:35:30*
%MOMM*%
%LPD*%
G04 APERTURE LIST*
%ADD10C,0.152400*%
%ADD11C,0.177800*%
%ADD12C,0.254000*%
%ADD13C,0.304800*%
%ADD14C,0.400000*%
%ADD15C,0.120000*%
%ADD16C,0.150000*%
%ADD17C,0.203200*%
G04 APERTURE END LIST*
D10*
X39242095Y-47959619D02*
X38903428Y-47475809D01*
X38661523Y-47959619D02*
X38661523Y-46943619D01*
X39048571Y-46943619D01*
X39145333Y-46992000D01*
X39193714Y-47040380D01*
X39242095Y-47137142D01*
X39242095Y-47282285D01*
X39193714Y-47379047D01*
X39145333Y-47427428D01*
X39048571Y-47475809D01*
X38661523Y-47475809D01*
X40064571Y-47911238D02*
X39967809Y-47959619D01*
X39774285Y-47959619D01*
X39677523Y-47911238D01*
X39629142Y-47814476D01*
X39629142Y-47427428D01*
X39677523Y-47330666D01*
X39774285Y-47282285D01*
X39967809Y-47282285D01*
X40064571Y-47330666D01*
X40112952Y-47427428D01*
X40112952Y-47524190D01*
X39629142Y-47620952D01*
X40500000Y-47911238D02*
X40596761Y-47959619D01*
X40790285Y-47959619D01*
X40887047Y-47911238D01*
X40935428Y-47814476D01*
X40935428Y-47766095D01*
X40887047Y-47669333D01*
X40790285Y-47620952D01*
X40645142Y-47620952D01*
X40548380Y-47572571D01*
X40500000Y-47475809D01*
X40500000Y-47427428D01*
X40548380Y-47330666D01*
X40645142Y-47282285D01*
X40790285Y-47282285D01*
X40887047Y-47330666D01*
X41757904Y-47911238D02*
X41661142Y-47959619D01*
X41467619Y-47959619D01*
X41370857Y-47911238D01*
X41322476Y-47814476D01*
X41322476Y-47427428D01*
X41370857Y-47330666D01*
X41467619Y-47282285D01*
X41661142Y-47282285D01*
X41757904Y-47330666D01*
X41806285Y-47427428D01*
X41806285Y-47524190D01*
X41322476Y-47620952D01*
X42096571Y-47282285D02*
X42483619Y-47282285D01*
X42241714Y-46943619D02*
X42241714Y-47814476D01*
X42290095Y-47911238D01*
X42386857Y-47959619D01*
X42483619Y-47959619D01*
X41419619Y-40459619D02*
X41419619Y-39443619D01*
X41661523Y-39443619D01*
X41806666Y-39492000D01*
X41903428Y-39588761D01*
X41951809Y-39685523D01*
X42000190Y-39879047D01*
X42000190Y-40024190D01*
X41951809Y-40217714D01*
X41903428Y-40314476D01*
X41806666Y-40411238D01*
X41661523Y-40459619D01*
X41419619Y-40459619D01*
X42822666Y-40411238D02*
X42725904Y-40459619D01*
X42532380Y-40459619D01*
X42435619Y-40411238D01*
X42387238Y-40314476D01*
X42387238Y-39927428D01*
X42435619Y-39830666D01*
X42532380Y-39782285D01*
X42725904Y-39782285D01*
X42822666Y-39830666D01*
X42871047Y-39927428D01*
X42871047Y-40024190D01*
X42387238Y-40120952D01*
X43306476Y-40459619D02*
X43306476Y-39443619D01*
X43306476Y-39830666D02*
X43403238Y-39782285D01*
X43596761Y-39782285D01*
X43693523Y-39830666D01*
X43741904Y-39879047D01*
X43790285Y-39975809D01*
X43790285Y-40266095D01*
X43741904Y-40362857D01*
X43693523Y-40411238D01*
X43596761Y-40459619D01*
X43403238Y-40459619D01*
X43306476Y-40411238D01*
X44661142Y-39782285D02*
X44661142Y-40459619D01*
X44225714Y-39782285D02*
X44225714Y-40314476D01*
X44274095Y-40411238D01*
X44370857Y-40459619D01*
X44516000Y-40459619D01*
X44612761Y-40411238D01*
X44661142Y-40362857D01*
X45580380Y-39782285D02*
X45580380Y-40604761D01*
X45532000Y-40701523D01*
X45483619Y-40749904D01*
X45386857Y-40798285D01*
X45241714Y-40798285D01*
X45144952Y-40749904D01*
X45580380Y-40411238D02*
X45483619Y-40459619D01*
X45290095Y-40459619D01*
X45193333Y-40411238D01*
X45144952Y-40362857D01*
X45096571Y-40266095D01*
X45096571Y-39975809D01*
X45144952Y-39879047D01*
X45193333Y-39830666D01*
X45290095Y-39782285D01*
X45483619Y-39782285D01*
X45580380Y-39830666D01*
D11*
X55750000Y-50750000D02*
G75*
G03X55750000Y-50750000I-250000J0D01*
G01*
X55600000Y-50750000D02*
G75*
G03X55600000Y-50750000I-100000J0D01*
G01*
X55900000Y-50750000D02*
G75*
G03X55900000Y-50750000I-400000J0D01*
G01*
X83250000Y-56250000D02*
X83250000Y-67750000D01*
X91750000Y-56250000D02*
X91750000Y-67750000D01*
X80965000Y-69906000D02*
X86215000Y-69906000D01*
X80965000Y-71906000D02*
X86215000Y-71906000D01*
X80965000Y-73906000D02*
X86215000Y-73906000D01*
X83465000Y-68656000D02*
X83465000Y-75406000D01*
X91750000Y-65000000D02*
X83250000Y-65000000D01*
X91750000Y-62000000D02*
X83250000Y-62000000D01*
X91750000Y-67750000D02*
X83250000Y-67750000D01*
X91750000Y-59000000D02*
X83250000Y-59000000D01*
X83250000Y-56250000D02*
X91750000Y-56250000D01*
D10*
X90459619Y-54675225D02*
X90459619Y-55159035D01*
X89443619Y-55159035D01*
X89927428Y-54336559D02*
X89927428Y-53997892D01*
X90459619Y-53852749D02*
X90459619Y-54336559D01*
X89443619Y-54336559D01*
X89443619Y-53852749D01*
X90459619Y-53417320D02*
X89443619Y-53417320D01*
X89443619Y-53175416D01*
X89492000Y-53030273D01*
X89588761Y-52933511D01*
X89685523Y-52885130D01*
X89879047Y-52836749D01*
X90024190Y-52836749D01*
X90217714Y-52885130D01*
X90314476Y-52933511D01*
X90411238Y-53030273D01*
X90459619Y-53175416D01*
X90459619Y-53417320D01*
X89927428Y-51627225D02*
X89927428Y-51288559D01*
X90459619Y-51143416D02*
X90459619Y-51627225D01*
X89443619Y-51627225D01*
X89443619Y-51143416D01*
X89782285Y-50707987D02*
X90459619Y-50707987D01*
X89879047Y-50707987D02*
X89830666Y-50659606D01*
X89782285Y-50562844D01*
X89782285Y-50417701D01*
X89830666Y-50320940D01*
X89927428Y-50272559D01*
X90459619Y-50272559D01*
X90459619Y-49353320D02*
X89927428Y-49353320D01*
X89830666Y-49401701D01*
X89782285Y-49498463D01*
X89782285Y-49691987D01*
X89830666Y-49788749D01*
X90411238Y-49353320D02*
X90459619Y-49450082D01*
X90459619Y-49691987D01*
X90411238Y-49788749D01*
X90314476Y-49837130D01*
X90217714Y-49837130D01*
X90120952Y-49788749D01*
X90072571Y-49691987D01*
X90072571Y-49450082D01*
X90024190Y-49353320D01*
X90459619Y-48869511D02*
X89443619Y-48869511D01*
X89830666Y-48869511D02*
X89782285Y-48772749D01*
X89782285Y-48579225D01*
X89830666Y-48482463D01*
X89879047Y-48434082D01*
X89975809Y-48385701D01*
X90266095Y-48385701D01*
X90362857Y-48434082D01*
X90411238Y-48482463D01*
X90459619Y-48579225D01*
X90459619Y-48772749D01*
X90411238Y-48869511D01*
X90459619Y-47805130D02*
X90411238Y-47901892D01*
X90314476Y-47950273D01*
X89443619Y-47950273D01*
X90411238Y-47031035D02*
X90459619Y-47127797D01*
X90459619Y-47321320D01*
X90411238Y-47418082D01*
X90314476Y-47466463D01*
X89927428Y-47466463D01*
X89830666Y-47418082D01*
X89782285Y-47321320D01*
X89782285Y-47127797D01*
X89830666Y-47031035D01*
X89927428Y-46982654D01*
X90024190Y-46982654D01*
X90120952Y-47466463D01*
X56445821Y-38943619D02*
X57026393Y-38943619D01*
X56736107Y-39959619D02*
X56736107Y-38943619D01*
X57752107Y-39911238D02*
X57655345Y-39959619D01*
X57461821Y-39959619D01*
X57365060Y-39911238D01*
X57316679Y-39814476D01*
X57316679Y-39427428D01*
X57365060Y-39330666D01*
X57461821Y-39282285D01*
X57655345Y-39282285D01*
X57752107Y-39330666D01*
X57800488Y-39427428D01*
X57800488Y-39524190D01*
X57316679Y-39620952D01*
X58235917Y-39959619D02*
X58235917Y-39282285D01*
X58235917Y-39379047D02*
X58284298Y-39330666D01*
X58381060Y-39282285D01*
X58526202Y-39282285D01*
X58622964Y-39330666D01*
X58671345Y-39427428D01*
X58671345Y-39959619D01*
X58671345Y-39427428D02*
X58719726Y-39330666D01*
X58816488Y-39282285D01*
X58961631Y-39282285D01*
X59058393Y-39330666D01*
X59106774Y-39427428D01*
X59106774Y-39959619D01*
X59590583Y-39282285D02*
X59590583Y-40298285D01*
X59590583Y-39330666D02*
X59687345Y-39282285D01*
X59880869Y-39282285D01*
X59977631Y-39330666D01*
X60026012Y-39379047D01*
X60074393Y-39475809D01*
X60074393Y-39766095D01*
X60026012Y-39862857D01*
X59977631Y-39911238D01*
X59880869Y-39959619D01*
X59687345Y-39959619D01*
X59590583Y-39911238D01*
D12*
X66574523Y-51206804D02*
X65969761Y-51630138D01*
X66574523Y-51932519D02*
X65304523Y-51932519D01*
X65304523Y-51448709D01*
X65365000Y-51327757D01*
X65425476Y-51267280D01*
X65546428Y-51206804D01*
X65727857Y-51206804D01*
X65848809Y-51267280D01*
X65909285Y-51327757D01*
X65969761Y-51448709D01*
X65969761Y-51932519D01*
X66514047Y-50178709D02*
X66574523Y-50299661D01*
X66574523Y-50541566D01*
X66514047Y-50662519D01*
X66393095Y-50722995D01*
X65909285Y-50722995D01*
X65788333Y-50662519D01*
X65727857Y-50541566D01*
X65727857Y-50299661D01*
X65788333Y-50178709D01*
X65909285Y-50118233D01*
X66030238Y-50118233D01*
X66151190Y-50722995D01*
X65727857Y-49694900D02*
X66574523Y-49392519D01*
X65727857Y-49090138D01*
X66574523Y-46973471D02*
X66574523Y-47699185D01*
X66574523Y-47336328D02*
X65304523Y-47336328D01*
X65485952Y-47457280D01*
X65606904Y-47578233D01*
X65667380Y-47699185D01*
X66453571Y-46429185D02*
X66514047Y-46368709D01*
X66574523Y-46429185D01*
X66514047Y-46489661D01*
X66453571Y-46429185D01*
X66574523Y-46429185D01*
X66574523Y-45159185D02*
X66574523Y-45884900D01*
X66574523Y-45522042D02*
X65304523Y-45522042D01*
X65485952Y-45642995D01*
X65606904Y-45763947D01*
X65667380Y-45884900D01*
X66574523Y-43647280D02*
X65304523Y-43647280D01*
X66211666Y-43223947D01*
X65304523Y-42800614D01*
X66574523Y-42800614D01*
X66574523Y-41651566D02*
X65909285Y-41651566D01*
X65788333Y-41712042D01*
X65727857Y-41832995D01*
X65727857Y-42074900D01*
X65788333Y-42195852D01*
X66514047Y-41651566D02*
X66574523Y-41772519D01*
X66574523Y-42074900D01*
X66514047Y-42195852D01*
X66393095Y-42256328D01*
X66272142Y-42256328D01*
X66151190Y-42195852D01*
X66090714Y-42074900D01*
X66090714Y-41772519D01*
X66030238Y-41651566D01*
X65727857Y-41167757D02*
X66574523Y-40865376D01*
X65727857Y-40562995D02*
X66574523Y-40865376D01*
X66876904Y-40986328D01*
X66937380Y-41046804D01*
X66997857Y-41167757D01*
X65425476Y-39172042D02*
X65365000Y-39111566D01*
X65304523Y-38990614D01*
X65304523Y-38688233D01*
X65365000Y-38567280D01*
X65425476Y-38506804D01*
X65546428Y-38446328D01*
X65667380Y-38446328D01*
X65848809Y-38506804D01*
X66574523Y-39232519D01*
X66574523Y-38446328D01*
X65304523Y-37660138D02*
X65304523Y-37539185D01*
X65365000Y-37418233D01*
X65425476Y-37357757D01*
X65546428Y-37297280D01*
X65788333Y-37236804D01*
X66090714Y-37236804D01*
X66332619Y-37297280D01*
X66453571Y-37357757D01*
X66514047Y-37418233D01*
X66574523Y-37539185D01*
X66574523Y-37660138D01*
X66514047Y-37781090D01*
X66453571Y-37841566D01*
X66332619Y-37902042D01*
X66090714Y-37962519D01*
X65788333Y-37962519D01*
X65546428Y-37902042D01*
X65425476Y-37841566D01*
X65365000Y-37781090D01*
X65304523Y-37660138D01*
X66574523Y-36027280D02*
X66574523Y-36752995D01*
X66574523Y-36390138D02*
X65304523Y-36390138D01*
X65485952Y-36511090D01*
X65606904Y-36632042D01*
X65667380Y-36752995D01*
X66574523Y-35422519D02*
X66574523Y-35180614D01*
X66514047Y-35059661D01*
X66453571Y-34999185D01*
X66272142Y-34878233D01*
X66030238Y-34817757D01*
X65546428Y-34817757D01*
X65425476Y-34878233D01*
X65365000Y-34938709D01*
X65304523Y-35059661D01*
X65304523Y-35301566D01*
X65365000Y-35422519D01*
X65425476Y-35482995D01*
X65546428Y-35543471D01*
X65848809Y-35543471D01*
X65969761Y-35482995D01*
X66030238Y-35422519D01*
X66090714Y-35301566D01*
X66090714Y-35059661D01*
X66030238Y-34938709D01*
X65969761Y-34878233D01*
X65848809Y-34817757D01*
X64574523Y-51932519D02*
X63304523Y-51932519D01*
X64211666Y-51509185D01*
X63304523Y-51085852D01*
X64574523Y-51085852D01*
X64574523Y-50481090D02*
X63727857Y-50481090D01*
X63304523Y-50481090D02*
X63365000Y-50541566D01*
X63425476Y-50481090D01*
X63365000Y-50420614D01*
X63304523Y-50481090D01*
X63425476Y-50481090D01*
X64574523Y-49876328D02*
X63304523Y-49876328D01*
X64090714Y-49755376D02*
X64574523Y-49392519D01*
X63727857Y-49392519D02*
X64211666Y-49876328D01*
X64514047Y-48364423D02*
X64574523Y-48485376D01*
X64574523Y-48727280D01*
X64514047Y-48848233D01*
X64393095Y-48908709D01*
X63909285Y-48908709D01*
X63788333Y-48848233D01*
X63727857Y-48727280D01*
X63727857Y-48485376D01*
X63788333Y-48364423D01*
X63909285Y-48303947D01*
X64030238Y-48303947D01*
X64151190Y-48908709D01*
X64574523Y-46187280D02*
X64574523Y-46792042D01*
X63304523Y-46792042D01*
X64574523Y-45219661D02*
X63909285Y-45219661D01*
X63788333Y-45280138D01*
X63727857Y-45401090D01*
X63727857Y-45642995D01*
X63788333Y-45763947D01*
X64514047Y-45219661D02*
X64574523Y-45340614D01*
X64574523Y-45642995D01*
X64514047Y-45763947D01*
X64393095Y-45824423D01*
X64272142Y-45824423D01*
X64151190Y-45763947D01*
X64090714Y-45642995D01*
X64090714Y-45340614D01*
X64030238Y-45219661D01*
X63727857Y-44735852D02*
X64574523Y-44493947D01*
X63969761Y-44252042D01*
X64574523Y-44010138D01*
X63727857Y-43768233D01*
X64574523Y-43284423D02*
X63727857Y-43284423D01*
X63969761Y-43284423D02*
X63848809Y-43223947D01*
X63788333Y-43163471D01*
X63727857Y-43042519D01*
X63727857Y-42921566D01*
X64514047Y-42014423D02*
X64574523Y-42135376D01*
X64574523Y-42377280D01*
X64514047Y-42498233D01*
X64393095Y-42558709D01*
X63909285Y-42558709D01*
X63788333Y-42498233D01*
X63727857Y-42377280D01*
X63727857Y-42135376D01*
X63788333Y-42014423D01*
X63909285Y-41953947D01*
X64030238Y-41953947D01*
X64151190Y-42558709D01*
X63727857Y-41409661D02*
X64574523Y-41409661D01*
X63848809Y-41409661D02*
X63788333Y-41349185D01*
X63727857Y-41228233D01*
X63727857Y-41046804D01*
X63788333Y-40925852D01*
X63909285Y-40865376D01*
X64574523Y-40865376D01*
X64514047Y-39716328D02*
X64574523Y-39837280D01*
X64574523Y-40079185D01*
X64514047Y-40200138D01*
X64453571Y-40260614D01*
X64332619Y-40321090D01*
X63969761Y-40321090D01*
X63848809Y-40260614D01*
X63788333Y-40200138D01*
X63727857Y-40079185D01*
X63727857Y-39837280D01*
X63788333Y-39716328D01*
X64514047Y-38688233D02*
X64574523Y-38809185D01*
X64574523Y-39051090D01*
X64514047Y-39172042D01*
X64393095Y-39232519D01*
X63909285Y-39232519D01*
X63788333Y-39172042D01*
X63727857Y-39051090D01*
X63727857Y-38809185D01*
X63788333Y-38688233D01*
X63909285Y-38627757D01*
X64030238Y-38627757D01*
X64151190Y-39232519D01*
D13*
X45220262Y-55706785D02*
X45673834Y-57611785D01*
X46036691Y-56251071D01*
X46399548Y-57611785D01*
X46853120Y-55706785D01*
X47578834Y-57611785D02*
X47578834Y-56341785D01*
X47578834Y-55706785D02*
X47488120Y-55797500D01*
X47578834Y-55888214D01*
X47669548Y-55797500D01*
X47578834Y-55706785D01*
X47578834Y-55888214D01*
X49120977Y-56613928D02*
X48485977Y-56613928D01*
X48485977Y-57611785D02*
X48485977Y-55706785D01*
X49393120Y-55706785D01*
X50118834Y-57611785D02*
X50118834Y-56341785D01*
X50118834Y-55706785D02*
X50028120Y-55797500D01*
X50118834Y-55888214D01*
X50209548Y-55797500D01*
X50118834Y-55706785D01*
X50118834Y-55888214D01*
X53475262Y-55797500D02*
X53293834Y-55706785D01*
X53021691Y-55706785D01*
X52749548Y-55797500D01*
X52568120Y-55978928D01*
X52477405Y-56160357D01*
X52386691Y-56523214D01*
X52386691Y-56795357D01*
X52477405Y-57158214D01*
X52568120Y-57339642D01*
X52749548Y-57521071D01*
X53021691Y-57611785D01*
X53203120Y-57611785D01*
X53475262Y-57521071D01*
X53565977Y-57430357D01*
X53565977Y-56795357D01*
X53203120Y-56795357D01*
X55198834Y-57611785D02*
X55198834Y-56613928D01*
X55108120Y-56432500D01*
X54926691Y-56341785D01*
X54563834Y-56341785D01*
X54382405Y-56432500D01*
X55198834Y-57521071D02*
X55017405Y-57611785D01*
X54563834Y-57611785D01*
X54382405Y-57521071D01*
X54291691Y-57339642D01*
X54291691Y-57158214D01*
X54382405Y-56976785D01*
X54563834Y-56886071D01*
X55017405Y-56886071D01*
X55198834Y-56795357D01*
X55833834Y-56341785D02*
X56559548Y-56341785D01*
X56105977Y-55706785D02*
X56105977Y-57339642D01*
X56196691Y-57521071D01*
X56378120Y-57611785D01*
X56559548Y-57611785D01*
X57920262Y-57521071D02*
X57738834Y-57611785D01*
X57375977Y-57611785D01*
X57194548Y-57521071D01*
X57103834Y-57339642D01*
X57103834Y-56613928D01*
X57194548Y-56432500D01*
X57375977Y-56341785D01*
X57738834Y-56341785D01*
X57920262Y-56432500D01*
X58010977Y-56613928D01*
X58010977Y-56795357D01*
X57103834Y-56976785D01*
X61367405Y-57430357D02*
X61276691Y-57521071D01*
X61004548Y-57611785D01*
X60823120Y-57611785D01*
X60550977Y-57521071D01*
X60369548Y-57339642D01*
X60278834Y-57158214D01*
X60188120Y-56795357D01*
X60188120Y-56523214D01*
X60278834Y-56160357D01*
X60369548Y-55978928D01*
X60550977Y-55797500D01*
X60823120Y-55706785D01*
X61004548Y-55706785D01*
X61276691Y-55797500D01*
X61367405Y-55888214D01*
X62455977Y-57611785D02*
X62274548Y-57521071D01*
X62183834Y-57430357D01*
X62093120Y-57248928D01*
X62093120Y-56704642D01*
X62183834Y-56523214D01*
X62274548Y-56432500D01*
X62455977Y-56341785D01*
X62728120Y-56341785D01*
X62909548Y-56432500D01*
X63000262Y-56523214D01*
X63090977Y-56704642D01*
X63090977Y-57248928D01*
X63000262Y-57430357D01*
X62909548Y-57521071D01*
X62728120Y-57611785D01*
X62455977Y-57611785D01*
X63907405Y-56341785D02*
X63907405Y-57611785D01*
X63907405Y-56523214D02*
X63998120Y-56432500D01*
X64179548Y-56341785D01*
X64451691Y-56341785D01*
X64633120Y-56432500D01*
X64723834Y-56613928D01*
X64723834Y-57611785D01*
X65358834Y-56341785D02*
X66084548Y-56341785D01*
X65630977Y-55706785D02*
X65630977Y-57339642D01*
X65721691Y-57521071D01*
X65903120Y-57611785D01*
X66084548Y-57611785D01*
X66719548Y-57611785D02*
X66719548Y-56341785D01*
X66719548Y-56704642D02*
X66810262Y-56523214D01*
X66900977Y-56432500D01*
X67082405Y-56341785D01*
X67263834Y-56341785D01*
X68170977Y-57611785D02*
X67989548Y-57521071D01*
X67898834Y-57430357D01*
X67808120Y-57248928D01*
X67808120Y-56704642D01*
X67898834Y-56523214D01*
X67989548Y-56432500D01*
X68170977Y-56341785D01*
X68443120Y-56341785D01*
X68624548Y-56432500D01*
X68715262Y-56523214D01*
X68805977Y-56704642D01*
X68805977Y-57248928D01*
X68715262Y-57430357D01*
X68624548Y-57521071D01*
X68443120Y-57611785D01*
X68170977Y-57611785D01*
X69894548Y-57611785D02*
X69713120Y-57521071D01*
X69622405Y-57339642D01*
X69622405Y-55706785D01*
X70892405Y-57611785D02*
X70710977Y-57521071D01*
X70620262Y-57339642D01*
X70620262Y-55706785D01*
X72343834Y-57521071D02*
X72162405Y-57611785D01*
X71799548Y-57611785D01*
X71618120Y-57521071D01*
X71527405Y-57339642D01*
X71527405Y-56613928D01*
X71618120Y-56432500D01*
X71799548Y-56341785D01*
X72162405Y-56341785D01*
X72343834Y-56432500D01*
X72434548Y-56613928D01*
X72434548Y-56795357D01*
X71527405Y-56976785D01*
X73250977Y-57611785D02*
X73250977Y-56341785D01*
X73250977Y-56704642D02*
X73341691Y-56523214D01*
X73432405Y-56432500D01*
X73613834Y-56341785D01*
X73795262Y-56341785D01*
D11*
X39600000Y-38500000D02*
G75*
G03X39600000Y-38500000I-100000J0D01*
G01*
X39750000Y-38500000D02*
G75*
G03X39750000Y-38500000I-250000J0D01*
G01*
X39900000Y-38500000D02*
G75*
G03X39900000Y-38500000I-400000J0D01*
G01*
D13*
X88036691Y-67189428D02*
X87310977Y-67189428D01*
X87310977Y-65665428D01*
X88544691Y-66391142D02*
X89052691Y-66391142D01*
X89270405Y-67189428D02*
X88544691Y-67189428D01*
X88544691Y-65665428D01*
X89270405Y-65665428D01*
X89923548Y-67189428D02*
X89923548Y-65665428D01*
X90286405Y-65665428D01*
X90504120Y-65738000D01*
X90649262Y-65883142D01*
X90721834Y-66028285D01*
X90794405Y-66318571D01*
X90794405Y-66536285D01*
X90721834Y-66826571D01*
X90649262Y-66971714D01*
X90504120Y-67116857D01*
X90286405Y-67189428D01*
X89923548Y-67189428D01*
X87310977Y-64189428D02*
X87310977Y-62665428D01*
X88181834Y-64189428D01*
X88181834Y-62665428D01*
X89488120Y-64116857D02*
X89342977Y-64189428D01*
X89052691Y-64189428D01*
X88907548Y-64116857D01*
X88834977Y-63971714D01*
X88834977Y-63391142D01*
X88907548Y-63246000D01*
X89052691Y-63173428D01*
X89342977Y-63173428D01*
X89488120Y-63246000D01*
X89560691Y-63391142D01*
X89560691Y-63536285D01*
X88834977Y-63681428D01*
X89996120Y-63173428D02*
X90576691Y-63173428D01*
X90213834Y-62665428D02*
X90213834Y-63971714D01*
X90286405Y-64116857D01*
X90431548Y-64189428D01*
X90576691Y-64189428D01*
X87238405Y-60754000D02*
X87964120Y-60754000D01*
X87093262Y-61189428D02*
X87601262Y-59665428D01*
X88109262Y-61189428D01*
X89270405Y-61116857D02*
X89125262Y-61189428D01*
X88834977Y-61189428D01*
X88689834Y-61116857D01*
X88617262Y-61044285D01*
X88544691Y-60899142D01*
X88544691Y-60463714D01*
X88617262Y-60318571D01*
X88689834Y-60246000D01*
X88834977Y-60173428D01*
X89125262Y-60173428D01*
X89270405Y-60246000D01*
X89705834Y-60173428D02*
X90286405Y-60173428D01*
X89923548Y-59665428D02*
X89923548Y-60971714D01*
X89996120Y-61116857D01*
X90141262Y-61189428D01*
X90286405Y-61189428D01*
X87310977Y-57391142D02*
X87818977Y-57391142D01*
X88036691Y-58189428D02*
X87310977Y-58189428D01*
X87310977Y-56665428D01*
X88036691Y-56665428D01*
X88689834Y-58189428D02*
X88689834Y-57173428D01*
X88689834Y-57463714D02*
X88762405Y-57318571D01*
X88834977Y-57246000D01*
X88980120Y-57173428D01*
X89125262Y-57173428D01*
X89633262Y-58189428D02*
X89633262Y-57173428D01*
X89633262Y-57463714D02*
X89705834Y-57318571D01*
X89778405Y-57246000D01*
X89923548Y-57173428D01*
X90068691Y-57173428D01*
X75689428Y-81262405D02*
X74165428Y-81262405D01*
X74673428Y-79883548D02*
X75689428Y-79883548D01*
X74092857Y-80246405D02*
X75181428Y-80609262D01*
X75181428Y-79665834D01*
X72189428Y-81262405D02*
X70665428Y-81262405D01*
X70665428Y-80681834D02*
X70665428Y-79738405D01*
X71246000Y-80246405D01*
X71246000Y-80028691D01*
X71318571Y-79883548D01*
X71391142Y-79810977D01*
X71536285Y-79738405D01*
X71899142Y-79738405D01*
X72044285Y-79810977D01*
X72116857Y-79883548D01*
X72189428Y-80028691D01*
X72189428Y-80464120D01*
X72116857Y-80609262D01*
X72044285Y-80681834D01*
X68689428Y-81262405D02*
X67165428Y-81262405D01*
X67310571Y-80609262D02*
X67238000Y-80536691D01*
X67165428Y-80391548D01*
X67165428Y-80028691D01*
X67238000Y-79883548D01*
X67310571Y-79810977D01*
X67455714Y-79738405D01*
X67600857Y-79738405D01*
X67818571Y-79810977D01*
X68689428Y-80681834D01*
X68689428Y-79738405D01*
X65189428Y-81262405D02*
X63665428Y-81262405D01*
X65189428Y-79738405D02*
X65189428Y-80609262D01*
X65189428Y-80173834D02*
X63665428Y-80173834D01*
X63883142Y-80318977D01*
X64028285Y-80464120D01*
X64100857Y-80609262D01*
X60165428Y-81842977D02*
X60165428Y-81552691D01*
X60238000Y-81407548D01*
X60383142Y-81262405D01*
X60673428Y-81189834D01*
X61181428Y-81189834D01*
X61471714Y-81262405D01*
X61616857Y-81407548D01*
X61689428Y-81552691D01*
X61689428Y-81842977D01*
X61616857Y-81988120D01*
X61471714Y-82133262D01*
X61181428Y-82205834D01*
X60673428Y-82205834D01*
X60383142Y-82133262D01*
X60238000Y-81988120D01*
X60165428Y-81842977D01*
X60673428Y-79883548D02*
X61689428Y-79883548D01*
X60092857Y-80246405D02*
X61181428Y-80609262D01*
X61181428Y-79665834D01*
X56665428Y-81842977D02*
X56665428Y-81552691D01*
X56738000Y-81407548D01*
X56883142Y-81262405D01*
X57173428Y-81189834D01*
X57681428Y-81189834D01*
X57971714Y-81262405D01*
X58116857Y-81407548D01*
X58189428Y-81552691D01*
X58189428Y-81842977D01*
X58116857Y-81988120D01*
X57971714Y-82133262D01*
X57681428Y-82205834D01*
X57173428Y-82205834D01*
X56883142Y-82133262D01*
X56738000Y-81988120D01*
X56665428Y-81842977D01*
X56665428Y-80681834D02*
X56665428Y-79738405D01*
X57246000Y-80246405D01*
X57246000Y-80028691D01*
X57318571Y-79883548D01*
X57391142Y-79810977D01*
X57536285Y-79738405D01*
X57899142Y-79738405D01*
X58044285Y-79810977D01*
X58116857Y-79883548D01*
X58189428Y-80028691D01*
X58189428Y-80464120D01*
X58116857Y-80609262D01*
X58044285Y-80681834D01*
X53165428Y-81842977D02*
X53165428Y-81552691D01*
X53238000Y-81407548D01*
X53383142Y-81262405D01*
X53673428Y-81189834D01*
X54181428Y-81189834D01*
X54471714Y-81262405D01*
X54616857Y-81407548D01*
X54689428Y-81552691D01*
X54689428Y-81842977D01*
X54616857Y-81988120D01*
X54471714Y-82133262D01*
X54181428Y-82205834D01*
X53673428Y-82205834D01*
X53383142Y-82133262D01*
X53238000Y-81988120D01*
X53165428Y-81842977D01*
X53310571Y-80609262D02*
X53238000Y-80536691D01*
X53165428Y-80391548D01*
X53165428Y-80028691D01*
X53238000Y-79883548D01*
X53310571Y-79810977D01*
X53455714Y-79738405D01*
X53600857Y-79738405D01*
X53818571Y-79810977D01*
X54689428Y-80681834D01*
X54689428Y-79738405D01*
X49665428Y-81842977D02*
X49665428Y-81552691D01*
X49738000Y-81407548D01*
X49883142Y-81262405D01*
X50173428Y-81189834D01*
X50681428Y-81189834D01*
X50971714Y-81262405D01*
X51116857Y-81407548D01*
X51189428Y-81552691D01*
X51189428Y-81842977D01*
X51116857Y-81988120D01*
X50971714Y-82133262D01*
X50681428Y-82205834D01*
X50173428Y-82205834D01*
X49883142Y-82133262D01*
X49738000Y-81988120D01*
X49665428Y-81842977D01*
X51189428Y-79738405D02*
X51189428Y-80609262D01*
X51189428Y-80173834D02*
X49665428Y-80173834D01*
X49883142Y-80318977D01*
X50028285Y-80464120D01*
X50100857Y-80609262D01*
X47108857Y-82278405D02*
X47108857Y-81117262D01*
X46165428Y-80609262D02*
X47689428Y-80101262D01*
X46165428Y-79593262D01*
X43608857Y-82278405D02*
X43608857Y-81117262D01*
X44189428Y-81697834D02*
X43028285Y-81697834D01*
X42665428Y-80609262D02*
X44189428Y-80101262D01*
X42665428Y-79593262D01*
D10*
X58850000Y-50500000D02*
X58850000Y-47500000D01*
X56650000Y-50500000D02*
X56650000Y-47500000D01*
D14*
X41650000Y-65800000D02*
G75*
G03X41650000Y-65800000I-100000J0D01*
G01*
D10*
X41250000Y-61500000D02*
X41250000Y-65500000D01*
X37250000Y-61500000D02*
X41250000Y-61500000D01*
X37250000Y-65500000D02*
X37250000Y-61500000D01*
X41250000Y-65500000D02*
X37250000Y-65500000D01*
D15*
X40258578Y-61210000D02*
X39741422Y-61210000D01*
X40258578Y-59790000D02*
X39741422Y-59790000D01*
X27840000Y-50393936D02*
X27840000Y-51598064D01*
X29660000Y-50393936D02*
X29660000Y-51598064D01*
D16*
X76748000Y-71212000D02*
X41748000Y-71212000D01*
X76748000Y-78812000D02*
X76748000Y-71212000D01*
X41748000Y-71212000D02*
X41748000Y-78812000D01*
X41748000Y-78412000D02*
X76748000Y-78412000D01*
X41748000Y-77312000D02*
X76748000Y-77312000D01*
X55748000Y-78412000D02*
X55748000Y-78812000D01*
X48748000Y-78412000D02*
X48748000Y-78812000D01*
X45248000Y-78412000D02*
X45248000Y-78812000D01*
X59248000Y-78412000D02*
X59248000Y-78812000D01*
X62748000Y-78412000D02*
X62748000Y-78812000D01*
X52248000Y-78412000D02*
X52248000Y-78812000D01*
X66248000Y-78412000D02*
X66248000Y-78812000D01*
X73248000Y-78412000D02*
X73248000Y-78812000D01*
X69748000Y-78412000D02*
X69748000Y-78812000D01*
D15*
X32740000Y-69587221D02*
X32740000Y-69912779D01*
X33760000Y-69587221D02*
X33760000Y-69912779D01*
X30760000Y-69587221D02*
X30760000Y-69912779D01*
X29740000Y-69587221D02*
X29740000Y-69912779D01*
X31662779Y-50006000D02*
X31337221Y-50006000D01*
X31662779Y-48986000D02*
X31337221Y-48986000D01*
X31662779Y-52906000D02*
X31337221Y-52906000D01*
X31662779Y-51886000D02*
X31337221Y-51886000D01*
X35010000Y-57240000D02*
X32260000Y-57240000D01*
X26490000Y-57240000D02*
X29240000Y-57240000D01*
X26490000Y-64695563D02*
X26490000Y-57240000D01*
X35010000Y-64695563D02*
X35010000Y-57240000D01*
X33945563Y-65760000D02*
X32260000Y-65760000D01*
X27554437Y-65760000D02*
X29240000Y-65760000D01*
X27554437Y-65760000D02*
X26490000Y-64695563D01*
X33945563Y-65760000D02*
X35010000Y-64695563D01*
X28240000Y-67000000D02*
X28240000Y-66000000D01*
X27740000Y-66500000D02*
X28740000Y-66500000D01*
X36870000Y-63758578D02*
X36870000Y-63241422D01*
X35450000Y-63758578D02*
X35450000Y-63241422D01*
X40294779Y-66090000D02*
X39969221Y-66090000D01*
X40294779Y-67110000D02*
X39969221Y-67110000D01*
X58087221Y-33658500D02*
X58412779Y-33658500D01*
X58087221Y-34678500D02*
X58412779Y-34678500D01*
X57912779Y-46553000D02*
X57587221Y-46553000D01*
X57912779Y-45533000D02*
X57587221Y-45533000D01*
X52328750Y-52662779D02*
X52328750Y-52337221D01*
X51308750Y-52662779D02*
X51308750Y-52337221D01*
X44837221Y-48740000D02*
X45162779Y-48740000D01*
X44837221Y-49760000D02*
X45162779Y-49760000D01*
X52328750Y-40337221D02*
X52328750Y-40662779D01*
X51308750Y-40337221D02*
X51308750Y-40662779D01*
X50767000Y-53952779D02*
X50767000Y-53627221D01*
X49747000Y-53952779D02*
X49747000Y-53627221D01*
X60662779Y-49690000D02*
X60337221Y-49690000D01*
X60662779Y-50710000D02*
X60337221Y-50710000D01*
X60662779Y-48310000D02*
X60337221Y-48310000D01*
X60662779Y-47290000D02*
X60337221Y-47290000D01*
X37662779Y-54510000D02*
X37337221Y-54510000D01*
X37662779Y-53490000D02*
X37337221Y-53490000D01*
X29000000Y-72000000D02*
X29000000Y-68800000D01*
X27000000Y-68800000D02*
X27000000Y-72000000D01*
X27000000Y-68800000D02*
X29000000Y-68800000D01*
X30950000Y-53750000D02*
X30950000Y-55750000D01*
X30950000Y-53750000D02*
X27750000Y-53750000D01*
X27750000Y-55750000D02*
X30950000Y-55750000D01*
X34500000Y-71200000D02*
X41000000Y-71200000D01*
X34500000Y-71200000D02*
X34500000Y-79600000D01*
X41000000Y-71200000D02*
X41000000Y-79600000D01*
X50670000Y-65510000D02*
X50670000Y-64050000D01*
X53830000Y-65510000D02*
X53830000Y-63350000D01*
X53830000Y-65510000D02*
X52900000Y-65510000D01*
X50670000Y-65510000D02*
X51600000Y-65510000D01*
X57670000Y-65510000D02*
X58600000Y-65510000D01*
X60830000Y-65510000D02*
X59900000Y-65510000D01*
X60830000Y-65510000D02*
X60830000Y-63350000D01*
X57670000Y-65510000D02*
X57670000Y-64050000D01*
X33265000Y-43450000D02*
X33265000Y-41050000D01*
X30165000Y-41050000D02*
X30165000Y-44000000D01*
X85800000Y-56765000D02*
X83515000Y-56765000D01*
X83515000Y-56765000D02*
X83515000Y-58235000D01*
X83515000Y-58235000D02*
X85800000Y-58235000D01*
X85800000Y-59765000D02*
X83515000Y-59765000D01*
X83515000Y-59765000D02*
X83515000Y-61235000D01*
X83515000Y-61235000D02*
X85800000Y-61235000D01*
X83515000Y-64235000D02*
X85800000Y-64235000D01*
X83515000Y-62765000D02*
X83515000Y-64235000D01*
X85800000Y-62765000D02*
X83515000Y-62765000D01*
X64670000Y-65510000D02*
X65600000Y-65510000D01*
X67830000Y-65510000D02*
X66900000Y-65510000D01*
X67830000Y-65510000D02*
X67830000Y-63350000D01*
X64670000Y-65510000D02*
X64670000Y-64050000D01*
X83515000Y-67235000D02*
X85800000Y-67235000D01*
X83515000Y-65765000D02*
X83515000Y-67235000D01*
X85800000Y-65765000D02*
X83515000Y-65765000D01*
X71670000Y-65510000D02*
X71670000Y-64050000D01*
X74830000Y-65510000D02*
X74830000Y-63350000D01*
X74830000Y-65510000D02*
X73900000Y-65510000D01*
X71670000Y-65510000D02*
X72600000Y-65510000D01*
X32352064Y-73410000D02*
X31147936Y-73410000D01*
X32352064Y-71590000D02*
X31147936Y-71590000D01*
X46090000Y-65602064D02*
X46090000Y-64397936D01*
X47910000Y-65602064D02*
X47910000Y-64397936D01*
X47933750Y-50110000D02*
X47458750Y-50110000D01*
X47458750Y-50110000D02*
X47458750Y-49635000D01*
X54203750Y-42890000D02*
X54678750Y-42890000D01*
X54678750Y-42890000D02*
X54678750Y-43365000D01*
X47933750Y-42890000D02*
X47458750Y-42890000D01*
X47458750Y-42890000D02*
X47458750Y-43365000D01*
X54203750Y-50110000D02*
X54678750Y-50110000D01*
X31837221Y-45740000D02*
X32162779Y-45740000D01*
X31837221Y-46760000D02*
X32162779Y-46760000D01*
X40265000Y-37265000D02*
X40265000Y-33735000D01*
X46735000Y-37265000D02*
X46735000Y-33735000D01*
X40330000Y-38590000D02*
X40330000Y-37265000D01*
X40265000Y-37265000D02*
X40330000Y-37265000D01*
X40265000Y-33735000D02*
X40330000Y-33735000D01*
X46670000Y-37265000D02*
X46735000Y-37265000D01*
X46670000Y-33735000D02*
X46735000Y-33735000D01*
X85920000Y-48670000D02*
X85920000Y-53870000D01*
X85980000Y-48670000D02*
X85920000Y-48670000D01*
X88580000Y-53870000D02*
X85920000Y-53870000D01*
X85980000Y-48670000D02*
X85980000Y-51270000D01*
X85980000Y-51270000D02*
X88580000Y-51270000D01*
X88580000Y-51270000D02*
X88580000Y-53870000D01*
X87250000Y-48670000D02*
X88580000Y-48670000D01*
X88580000Y-48670000D02*
X88580000Y-50000000D01*
X42000000Y-61501221D02*
X42000000Y-61826779D01*
X43020000Y-61501221D02*
X43020000Y-61826779D01*
X43020000Y-64487221D02*
X43020000Y-64812779D01*
X42000000Y-64487221D02*
X42000000Y-64812779D01*
X58412779Y-33218000D02*
X58087221Y-33218000D01*
X58412779Y-32198000D02*
X58087221Y-32198000D01*
X51410000Y-69352064D02*
X51410000Y-68147936D01*
X49590000Y-69352064D02*
X49590000Y-68147936D01*
X53090000Y-69352064D02*
X53090000Y-68147936D01*
X54910000Y-69352064D02*
X54910000Y-68147936D01*
X58410000Y-69352064D02*
X58410000Y-68147936D01*
X56590000Y-69352064D02*
X56590000Y-68147936D01*
X81837221Y-64010000D02*
X82162779Y-64010000D01*
X81837221Y-62990000D02*
X82162779Y-62990000D01*
X81837221Y-59990000D02*
X82162779Y-59990000D01*
X81837221Y-61010000D02*
X82162779Y-61010000D01*
X81837221Y-58010000D02*
X82162779Y-58010000D01*
X81837221Y-56990000D02*
X82162779Y-56990000D01*
X60090000Y-69352064D02*
X60090000Y-68147936D01*
X61910000Y-69352064D02*
X61910000Y-68147936D01*
X63590000Y-69352064D02*
X63590000Y-68147936D01*
X65410000Y-69352064D02*
X65410000Y-68147936D01*
X68910000Y-69352064D02*
X68910000Y-68147936D01*
X67090000Y-69352064D02*
X67090000Y-68147936D01*
X70590000Y-69352064D02*
X70590000Y-68147936D01*
X72410000Y-69352064D02*
X72410000Y-68147936D01*
X74090000Y-69352064D02*
X74090000Y-68147936D01*
X75910000Y-69352064D02*
X75910000Y-68147936D01*
X39632000Y-49092000D02*
X39332000Y-49092000D01*
X39332000Y-49092000D02*
X39332000Y-52392000D01*
X39332000Y-52392000D02*
X39632000Y-52392000D01*
X41832000Y-49092000D02*
X42132000Y-49092000D01*
X42132000Y-49092000D02*
X42132000Y-52392000D01*
X42132000Y-52392000D02*
X41832000Y-52392000D01*
D16*
X56575000Y-35075000D02*
X56575000Y-35250000D01*
X59925000Y-35075000D02*
X59925000Y-35325000D01*
X59925000Y-38425000D02*
X59925000Y-38175000D01*
X56575000Y-38425000D02*
X56575000Y-38175000D01*
X56575000Y-35075000D02*
X59925000Y-35075000D01*
X56575000Y-38425000D02*
X59925000Y-38425000D01*
X56575000Y-35250000D02*
X55325000Y-35250000D01*
D15*
X53860000Y-61900000D02*
X53860000Y-60100000D01*
X50640000Y-60100000D02*
X50640000Y-62550000D01*
X57640000Y-60100000D02*
X57640000Y-62550000D01*
X60860000Y-61900000D02*
X60860000Y-60100000D01*
X67860000Y-61900000D02*
X67860000Y-60100000D01*
X64640000Y-60100000D02*
X64640000Y-62550000D01*
X71640000Y-60100000D02*
X71640000Y-62550000D01*
X74860000Y-61900000D02*
X74860000Y-60100000D01*
X81837221Y-67010000D02*
X82162779Y-67010000D01*
X81837221Y-65990000D02*
X82162779Y-65990000D01*
X37337221Y-48540000D02*
X37662779Y-48540000D01*
X37337221Y-49560000D02*
X37662779Y-49560000D01*
X37337221Y-51940000D02*
X37662779Y-51940000D01*
X37337221Y-52960000D02*
X37662779Y-52960000D01*
X37337221Y-51260000D02*
X37662779Y-51260000D01*
X37337221Y-50240000D02*
X37662779Y-50240000D01*
D16*
X36655000Y-38400000D02*
X37130000Y-38400000D01*
X37130000Y-38400000D02*
X37130000Y-46700000D01*
X37130000Y-46700000D02*
X36655000Y-46700000D01*
X34405000Y-38400000D02*
X33930000Y-38400000D01*
X33930000Y-38400000D02*
X33930000Y-46700000D01*
X33930000Y-46700000D02*
X34405000Y-46700000D01*
X37430000Y-40250000D02*
X37430000Y-42250000D01*
D10*
X68635000Y-53420000D02*
X68635000Y-50400000D01*
X69900000Y-53420000D02*
X68635000Y-53420000D01*
X83365000Y-53420000D02*
X81350000Y-53420000D01*
X83365000Y-51400000D02*
X83365000Y-53420000D01*
D17*
X84165000Y-51850000D02*
G75*
G03X84165000Y-51850000I-150000J0D01*
G01*
D10*
X68635000Y-31700000D02*
X83365000Y-31700000D01*
D16*
X84100000Y-51850000D02*
G75*
G03X84100000Y-51850000I-85000J0D01*
G01*
X84300000Y-51850000D02*
G75*
G03X84300000Y-51850000I-285000J0D01*
G01*
X84400000Y-51850000D02*
G75*
G03X84400000Y-51850000I-385000J0D01*
G01*
X83700000Y-51850000D02*
X84300000Y-51850000D01*
D10*
X68635000Y-31700000D02*
X68635000Y-39701000D01*
X83365000Y-31700000D02*
X83365000Y-37796000D01*
D16*
X57273809Y-51861190D02*
X57273809Y-52337380D01*
X56940476Y-51337380D02*
X57273809Y-51861190D01*
X57607142Y-51337380D01*
X58464285Y-52337380D02*
X57892857Y-52337380D01*
X58178571Y-52337380D02*
X58178571Y-51337380D01*
X58083333Y-51480238D01*
X57988095Y-51575476D01*
X57892857Y-51623095D01*
X36668095Y-60227380D02*
X36668095Y-61036904D01*
X36715714Y-61132142D01*
X36763333Y-61179761D01*
X36858571Y-61227380D01*
X37049047Y-61227380D01*
X37144285Y-61179761D01*
X37191904Y-61132142D01*
X37239523Y-61036904D01*
X37239523Y-60227380D01*
X37668095Y-60322619D02*
X37715714Y-60275000D01*
X37810952Y-60227380D01*
X38049047Y-60227380D01*
X38144285Y-60275000D01*
X38191904Y-60322619D01*
X38239523Y-60417857D01*
X38239523Y-60513095D01*
X38191904Y-60655952D01*
X37620476Y-61227380D01*
X38239523Y-61227380D01*
X39833333Y-59354142D02*
X39785714Y-59401761D01*
X39642857Y-59449380D01*
X39547619Y-59449380D01*
X39404761Y-59401761D01*
X39309523Y-59306523D01*
X39261904Y-59211285D01*
X39214285Y-59020809D01*
X39214285Y-58877952D01*
X39261904Y-58687476D01*
X39309523Y-58592238D01*
X39404761Y-58497000D01*
X39547619Y-58449380D01*
X39642857Y-58449380D01*
X39785714Y-58497000D01*
X39833333Y-58544619D01*
X40404761Y-58877952D02*
X40309523Y-58830333D01*
X40261904Y-58782714D01*
X40214285Y-58687476D01*
X40214285Y-58639857D01*
X40261904Y-58544619D01*
X40309523Y-58497000D01*
X40404761Y-58449380D01*
X40595238Y-58449380D01*
X40690476Y-58497000D01*
X40738095Y-58544619D01*
X40785714Y-58639857D01*
X40785714Y-58687476D01*
X40738095Y-58782714D01*
X40690476Y-58830333D01*
X40595238Y-58877952D01*
X40404761Y-58877952D01*
X40309523Y-58925571D01*
X40261904Y-58973190D01*
X40214285Y-59068428D01*
X40214285Y-59258904D01*
X40261904Y-59354142D01*
X40309523Y-59401761D01*
X40404761Y-59449380D01*
X40595238Y-59449380D01*
X40690476Y-59401761D01*
X40738095Y-59354142D01*
X40785714Y-59258904D01*
X40785714Y-59068428D01*
X40738095Y-58973190D01*
X40690476Y-58925571D01*
X40595238Y-58877952D01*
X28627333Y-48400380D02*
X28151142Y-48400380D01*
X28151142Y-47400380D01*
X28913047Y-47495619D02*
X28960666Y-47448000D01*
X29055904Y-47400380D01*
X29294000Y-47400380D01*
X29389238Y-47448000D01*
X29436857Y-47495619D01*
X29484476Y-47590857D01*
X29484476Y-47686095D01*
X29436857Y-47828952D01*
X28865428Y-48400380D01*
X29484476Y-48400380D01*
D10*
X42161333Y-69693619D02*
X42161333Y-70419333D01*
X42112952Y-70564476D01*
X42016190Y-70661238D01*
X41871047Y-70709619D01*
X41774285Y-70709619D01*
X43177333Y-70709619D02*
X42596761Y-70709619D01*
X42887047Y-70709619D02*
X42887047Y-69693619D01*
X42790285Y-69838761D01*
X42693523Y-69935523D01*
X42596761Y-69983904D01*
D16*
X33083333Y-67863142D02*
X33035714Y-67910761D01*
X32892857Y-67958380D01*
X32797619Y-67958380D01*
X32654761Y-67910761D01*
X32559523Y-67815523D01*
X32511904Y-67720285D01*
X32464285Y-67529809D01*
X32464285Y-67386952D01*
X32511904Y-67196476D01*
X32559523Y-67101238D01*
X32654761Y-67006000D01*
X32797619Y-66958380D01*
X32892857Y-66958380D01*
X33035714Y-67006000D01*
X33083333Y-67053619D01*
X34035714Y-67958380D02*
X33464285Y-67958380D01*
X33750000Y-67958380D02*
X33750000Y-66958380D01*
X33654761Y-67101238D01*
X33559523Y-67196476D01*
X33464285Y-67244095D01*
X30083333Y-67863142D02*
X30035714Y-67910761D01*
X29892857Y-67958380D01*
X29797619Y-67958380D01*
X29654761Y-67910761D01*
X29559523Y-67815523D01*
X29511904Y-67720285D01*
X29464285Y-67529809D01*
X29464285Y-67386952D01*
X29511904Y-67196476D01*
X29559523Y-67101238D01*
X29654761Y-67006000D01*
X29797619Y-66958380D01*
X29892857Y-66958380D01*
X30035714Y-67006000D01*
X30083333Y-67053619D01*
X30464285Y-67053619D02*
X30511904Y-67006000D01*
X30607142Y-66958380D01*
X30845238Y-66958380D01*
X30940476Y-67006000D01*
X30988095Y-67053619D01*
X31035714Y-67148857D01*
X31035714Y-67244095D01*
X30988095Y-67386952D01*
X30416666Y-67958380D01*
X31035714Y-67958380D01*
X31294333Y-48686142D02*
X31246714Y-48733761D01*
X31103857Y-48781380D01*
X31008619Y-48781380D01*
X30865761Y-48733761D01*
X30770523Y-48638523D01*
X30722904Y-48543285D01*
X30675285Y-48352809D01*
X30675285Y-48209952D01*
X30722904Y-48019476D01*
X30770523Y-47924238D01*
X30865761Y-47829000D01*
X31008619Y-47781380D01*
X31103857Y-47781380D01*
X31246714Y-47829000D01*
X31294333Y-47876619D01*
X31627666Y-47781380D02*
X32246714Y-47781380D01*
X31913380Y-48162333D01*
X32056238Y-48162333D01*
X32151476Y-48209952D01*
X32199095Y-48257571D01*
X32246714Y-48352809D01*
X32246714Y-48590904D01*
X32199095Y-48686142D01*
X32151476Y-48733761D01*
X32056238Y-48781380D01*
X31770523Y-48781380D01*
X31675285Y-48733761D01*
X31627666Y-48686142D01*
X31294333Y-51480142D02*
X31246714Y-51527761D01*
X31103857Y-51575380D01*
X31008619Y-51575380D01*
X30865761Y-51527761D01*
X30770523Y-51432523D01*
X30722904Y-51337285D01*
X30675285Y-51146809D01*
X30675285Y-51003952D01*
X30722904Y-50813476D01*
X30770523Y-50718238D01*
X30865761Y-50623000D01*
X31008619Y-50575380D01*
X31103857Y-50575380D01*
X31246714Y-50623000D01*
X31294333Y-50670619D01*
X32151476Y-50908714D02*
X32151476Y-51575380D01*
X31913380Y-50527761D02*
X31675285Y-51242047D01*
X32294333Y-51242047D01*
D10*
X33958666Y-56819857D02*
X33910285Y-56868238D01*
X33765142Y-56916619D01*
X33668380Y-56916619D01*
X33523238Y-56868238D01*
X33426476Y-56771476D01*
X33378095Y-56674714D01*
X33329714Y-56481190D01*
X33329714Y-56336047D01*
X33378095Y-56142523D01*
X33426476Y-56045761D01*
X33523238Y-55949000D01*
X33668380Y-55900619D01*
X33765142Y-55900619D01*
X33910285Y-55949000D01*
X33958666Y-55997380D01*
X34877904Y-55900619D02*
X34394095Y-55900619D01*
X34345714Y-56384428D01*
X34394095Y-56336047D01*
X34490857Y-56287666D01*
X34732761Y-56287666D01*
X34829523Y-56336047D01*
X34877904Y-56384428D01*
X34926285Y-56481190D01*
X34926285Y-56723095D01*
X34877904Y-56819857D01*
X34829523Y-56868238D01*
X34732761Y-56916619D01*
X34490857Y-56916619D01*
X34394095Y-56868238D01*
X34345714Y-56819857D01*
D16*
X35993333Y-66212142D02*
X35945714Y-66259761D01*
X35802857Y-66307380D01*
X35707619Y-66307380D01*
X35564761Y-66259761D01*
X35469523Y-66164523D01*
X35421904Y-66069285D01*
X35374285Y-65878809D01*
X35374285Y-65735952D01*
X35421904Y-65545476D01*
X35469523Y-65450238D01*
X35564761Y-65355000D01*
X35707619Y-65307380D01*
X35802857Y-65307380D01*
X35945714Y-65355000D01*
X35993333Y-65402619D01*
X36850476Y-65307380D02*
X36660000Y-65307380D01*
X36564761Y-65355000D01*
X36517142Y-65402619D01*
X36421904Y-65545476D01*
X36374285Y-65735952D01*
X36374285Y-66116904D01*
X36421904Y-66212142D01*
X36469523Y-66259761D01*
X36564761Y-66307380D01*
X36755238Y-66307380D01*
X36850476Y-66259761D01*
X36898095Y-66212142D01*
X36945714Y-66116904D01*
X36945714Y-65878809D01*
X36898095Y-65783571D01*
X36850476Y-65735952D01*
X36755238Y-65688333D01*
X36564761Y-65688333D01*
X36469523Y-65735952D01*
X36421904Y-65783571D01*
X36374285Y-65878809D01*
X39965333Y-68387142D02*
X39917714Y-68434761D01*
X39774857Y-68482380D01*
X39679619Y-68482380D01*
X39536761Y-68434761D01*
X39441523Y-68339523D01*
X39393904Y-68244285D01*
X39346285Y-68053809D01*
X39346285Y-67910952D01*
X39393904Y-67720476D01*
X39441523Y-67625238D01*
X39536761Y-67530000D01*
X39679619Y-67482380D01*
X39774857Y-67482380D01*
X39917714Y-67530000D01*
X39965333Y-67577619D01*
X40298666Y-67482380D02*
X40965333Y-67482380D01*
X40536761Y-68482380D01*
X60631333Y-34634642D02*
X60583714Y-34682261D01*
X60440857Y-34729880D01*
X60345619Y-34729880D01*
X60202761Y-34682261D01*
X60107523Y-34587023D01*
X60059904Y-34491785D01*
X60012285Y-34301309D01*
X60012285Y-34158452D01*
X60059904Y-33967976D01*
X60107523Y-33872738D01*
X60202761Y-33777500D01*
X60345619Y-33729880D01*
X60440857Y-33729880D01*
X60583714Y-33777500D01*
X60631333Y-33825119D01*
X61107523Y-34729880D02*
X61298000Y-34729880D01*
X61393238Y-34682261D01*
X61440857Y-34634642D01*
X61536095Y-34491785D01*
X61583714Y-34301309D01*
X61583714Y-33920357D01*
X61536095Y-33825119D01*
X61488476Y-33777500D01*
X61393238Y-33729880D01*
X61202761Y-33729880D01*
X61107523Y-33777500D01*
X61059904Y-33825119D01*
X61012285Y-33920357D01*
X61012285Y-34158452D01*
X61059904Y-34253690D01*
X61107523Y-34301309D01*
X61202761Y-34348928D01*
X61393238Y-34348928D01*
X61488476Y-34301309D01*
X61536095Y-34253690D01*
X61583714Y-34158452D01*
D10*
X57096857Y-45182857D02*
X57048476Y-45231238D01*
X56903333Y-45279619D01*
X56806571Y-45279619D01*
X56661428Y-45231238D01*
X56564666Y-45134476D01*
X56516285Y-45037714D01*
X56467904Y-44844190D01*
X56467904Y-44699047D01*
X56516285Y-44505523D01*
X56564666Y-44408761D01*
X56661428Y-44312000D01*
X56806571Y-44263619D01*
X56903333Y-44263619D01*
X57048476Y-44312000D01*
X57096857Y-44360380D01*
X58064476Y-45279619D02*
X57483904Y-45279619D01*
X57774190Y-45279619D02*
X57774190Y-44263619D01*
X57677428Y-44408761D01*
X57580666Y-44505523D01*
X57483904Y-44553904D01*
X58693428Y-44263619D02*
X58790190Y-44263619D01*
X58886952Y-44312000D01*
X58935333Y-44360380D01*
X58983714Y-44457142D01*
X59032095Y-44650666D01*
X59032095Y-44892571D01*
X58983714Y-45086095D01*
X58935333Y-45182857D01*
X58886952Y-45231238D01*
X58790190Y-45279619D01*
X58693428Y-45279619D01*
X58596666Y-45231238D01*
X58548285Y-45182857D01*
X58499904Y-45086095D01*
X58451523Y-44892571D01*
X58451523Y-44650666D01*
X58499904Y-44457142D01*
X58548285Y-44360380D01*
X58596666Y-44312000D01*
X58693428Y-44263619D01*
D16*
X53662142Y-53162857D02*
X53709761Y-53210476D01*
X53757380Y-53353333D01*
X53757380Y-53448571D01*
X53709761Y-53591428D01*
X53614523Y-53686666D01*
X53519285Y-53734285D01*
X53328809Y-53781904D01*
X53185952Y-53781904D01*
X52995476Y-53734285D01*
X52900238Y-53686666D01*
X52805000Y-53591428D01*
X52757380Y-53448571D01*
X52757380Y-53353333D01*
X52805000Y-53210476D01*
X52852619Y-53162857D01*
X53757380Y-52210476D02*
X53757380Y-52781904D01*
X53757380Y-52496190D02*
X52757380Y-52496190D01*
X52900238Y-52591428D01*
X52995476Y-52686666D01*
X53043095Y-52781904D01*
X53757380Y-51258095D02*
X53757380Y-51829523D01*
X53757380Y-51543809D02*
X52757380Y-51543809D01*
X52900238Y-51639047D01*
X52995476Y-51734285D01*
X53043095Y-51829523D01*
X44357142Y-48177142D02*
X44309523Y-48224761D01*
X44166666Y-48272380D01*
X44071428Y-48272380D01*
X43928571Y-48224761D01*
X43833333Y-48129523D01*
X43785714Y-48034285D01*
X43738095Y-47843809D01*
X43738095Y-47700952D01*
X43785714Y-47510476D01*
X43833333Y-47415238D01*
X43928571Y-47320000D01*
X44071428Y-47272380D01*
X44166666Y-47272380D01*
X44309523Y-47320000D01*
X44357142Y-47367619D01*
X45309523Y-48272380D02*
X44738095Y-48272380D01*
X45023809Y-48272380D02*
X45023809Y-47272380D01*
X44928571Y-47415238D01*
X44833333Y-47510476D01*
X44738095Y-47558095D01*
X45690476Y-47367619D02*
X45738095Y-47320000D01*
X45833333Y-47272380D01*
X46071428Y-47272380D01*
X46166666Y-47320000D01*
X46214285Y-47367619D01*
X46261904Y-47462857D01*
X46261904Y-47558095D01*
X46214285Y-47700952D01*
X45642857Y-48272380D01*
X46261904Y-48272380D01*
X53605892Y-41142857D02*
X53653511Y-41190476D01*
X53701130Y-41333333D01*
X53701130Y-41428571D01*
X53653511Y-41571428D01*
X53558273Y-41666666D01*
X53463035Y-41714285D01*
X53272559Y-41761904D01*
X53129702Y-41761904D01*
X52939226Y-41714285D01*
X52843988Y-41666666D01*
X52748750Y-41571428D01*
X52701130Y-41428571D01*
X52701130Y-41333333D01*
X52748750Y-41190476D01*
X52796369Y-41142857D01*
X53701130Y-40190476D02*
X53701130Y-40761904D01*
X53701130Y-40476190D02*
X52701130Y-40476190D01*
X52843988Y-40571428D01*
X52939226Y-40666666D01*
X52986845Y-40761904D01*
X52701130Y-39857142D02*
X52701130Y-39238095D01*
X53082083Y-39571428D01*
X53082083Y-39428571D01*
X53129702Y-39333333D01*
X53177321Y-39285714D01*
X53272559Y-39238095D01*
X53510654Y-39238095D01*
X53605892Y-39285714D01*
X53653511Y-39333333D01*
X53701130Y-39428571D01*
X53701130Y-39714285D01*
X53653511Y-39809523D01*
X53605892Y-39857142D01*
X49184142Y-54432857D02*
X49231761Y-54480476D01*
X49279380Y-54623333D01*
X49279380Y-54718571D01*
X49231761Y-54861428D01*
X49136523Y-54956666D01*
X49041285Y-55004285D01*
X48850809Y-55051904D01*
X48707952Y-55051904D01*
X48517476Y-55004285D01*
X48422238Y-54956666D01*
X48327000Y-54861428D01*
X48279380Y-54718571D01*
X48279380Y-54623333D01*
X48327000Y-54480476D01*
X48374619Y-54432857D01*
X49279380Y-53480476D02*
X49279380Y-54051904D01*
X49279380Y-53766190D02*
X48279380Y-53766190D01*
X48422238Y-53861428D01*
X48517476Y-53956666D01*
X48565095Y-54051904D01*
X48612714Y-52623333D02*
X49279380Y-52623333D01*
X48231761Y-52861428D02*
X48946047Y-53099523D01*
X48946047Y-52480476D01*
X59857142Y-51987142D02*
X59809523Y-52034761D01*
X59666666Y-52082380D01*
X59571428Y-52082380D01*
X59428571Y-52034761D01*
X59333333Y-51939523D01*
X59285714Y-51844285D01*
X59238095Y-51653809D01*
X59238095Y-51510952D01*
X59285714Y-51320476D01*
X59333333Y-51225238D01*
X59428571Y-51130000D01*
X59571428Y-51082380D01*
X59666666Y-51082380D01*
X59809523Y-51130000D01*
X59857142Y-51177619D01*
X60809523Y-52082380D02*
X60238095Y-52082380D01*
X60523809Y-52082380D02*
X60523809Y-51082380D01*
X60428571Y-51225238D01*
X60333333Y-51320476D01*
X60238095Y-51368095D01*
X61666666Y-51082380D02*
X61476190Y-51082380D01*
X61380952Y-51130000D01*
X61333333Y-51177619D01*
X61238095Y-51320476D01*
X61190476Y-51510952D01*
X61190476Y-51891904D01*
X61238095Y-51987142D01*
X61285714Y-52034761D01*
X61380952Y-52082380D01*
X61571428Y-52082380D01*
X61666666Y-52034761D01*
X61714285Y-51987142D01*
X61761904Y-51891904D01*
X61761904Y-51653809D01*
X61714285Y-51558571D01*
X61666666Y-51510952D01*
X61571428Y-51463333D01*
X61380952Y-51463333D01*
X61285714Y-51510952D01*
X61238095Y-51558571D01*
X61190476Y-51653809D01*
X59857142Y-46781142D02*
X59809523Y-46828761D01*
X59666666Y-46876380D01*
X59571428Y-46876380D01*
X59428571Y-46828761D01*
X59333333Y-46733523D01*
X59285714Y-46638285D01*
X59238095Y-46447809D01*
X59238095Y-46304952D01*
X59285714Y-46114476D01*
X59333333Y-46019238D01*
X59428571Y-45924000D01*
X59571428Y-45876380D01*
X59666666Y-45876380D01*
X59809523Y-45924000D01*
X59857142Y-45971619D01*
X60809523Y-46876380D02*
X60238095Y-46876380D01*
X60523809Y-46876380D02*
X60523809Y-45876380D01*
X60428571Y-46019238D01*
X60333333Y-46114476D01*
X60238095Y-46162095D01*
X61142857Y-45876380D02*
X61809523Y-45876380D01*
X61380952Y-46876380D01*
X34120142Y-54401142D02*
X34072523Y-54448761D01*
X33929666Y-54496380D01*
X33834428Y-54496380D01*
X33691571Y-54448761D01*
X33596333Y-54353523D01*
X33548714Y-54258285D01*
X33501095Y-54067809D01*
X33501095Y-53924952D01*
X33548714Y-53734476D01*
X33596333Y-53639238D01*
X33691571Y-53544000D01*
X33834428Y-53496380D01*
X33929666Y-53496380D01*
X34072523Y-53544000D01*
X34120142Y-53591619D01*
X35072523Y-54496380D02*
X34501095Y-54496380D01*
X34786809Y-54496380D02*
X34786809Y-53496380D01*
X34691571Y-53639238D01*
X34596333Y-53734476D01*
X34501095Y-53782095D01*
X35643952Y-53924952D02*
X35548714Y-53877333D01*
X35501095Y-53829714D01*
X35453476Y-53734476D01*
X35453476Y-53686857D01*
X35501095Y-53591619D01*
X35548714Y-53544000D01*
X35643952Y-53496380D01*
X35834428Y-53496380D01*
X35929666Y-53544000D01*
X35977285Y-53591619D01*
X36024904Y-53686857D01*
X36024904Y-53734476D01*
X35977285Y-53829714D01*
X35929666Y-53877333D01*
X35834428Y-53924952D01*
X35643952Y-53924952D01*
X35548714Y-53972571D01*
X35501095Y-54020190D01*
X35453476Y-54115428D01*
X35453476Y-54305904D01*
X35501095Y-54401142D01*
X35548714Y-54448761D01*
X35643952Y-54496380D01*
X35834428Y-54496380D01*
X35929666Y-54448761D01*
X35977285Y-54401142D01*
X36024904Y-54305904D01*
X36024904Y-54115428D01*
X35977285Y-54020190D01*
X35929666Y-53972571D01*
X35834428Y-53924952D01*
D10*
X27250095Y-68459619D02*
X27250095Y-67443619D01*
X27492000Y-67443619D01*
X27637142Y-67492000D01*
X27733904Y-67588761D01*
X27782285Y-67685523D01*
X27830666Y-67879047D01*
X27830666Y-68024190D01*
X27782285Y-68217714D01*
X27733904Y-68314476D01*
X27637142Y-68411238D01*
X27492000Y-68459619D01*
X27250095Y-68459619D01*
X28217714Y-67540380D02*
X28266095Y-67492000D01*
X28362857Y-67443619D01*
X28604761Y-67443619D01*
X28701523Y-67492000D01*
X28749904Y-67540380D01*
X28798285Y-67637142D01*
X28798285Y-67733904D01*
X28749904Y-67879047D01*
X28169333Y-68459619D01*
X28798285Y-68459619D01*
X31350095Y-55209619D02*
X31350095Y-54193619D01*
X31592000Y-54193619D01*
X31737142Y-54242000D01*
X31833904Y-54338761D01*
X31882285Y-54435523D01*
X31930666Y-54629047D01*
X31930666Y-54774190D01*
X31882285Y-54967714D01*
X31833904Y-55064476D01*
X31737142Y-55161238D01*
X31592000Y-55209619D01*
X31350095Y-55209619D01*
X32269333Y-54193619D02*
X32898285Y-54193619D01*
X32559619Y-54580666D01*
X32704761Y-54580666D01*
X32801523Y-54629047D01*
X32849904Y-54677428D01*
X32898285Y-54774190D01*
X32898285Y-55016095D01*
X32849904Y-55112857D01*
X32801523Y-55161238D01*
X32704761Y-55209619D01*
X32414476Y-55209619D01*
X32317714Y-55161238D01*
X32269333Y-55112857D01*
X37000095Y-70709619D02*
X37000095Y-69693619D01*
X37242000Y-69693619D01*
X37387142Y-69742000D01*
X37483904Y-69838761D01*
X37532285Y-69935523D01*
X37580666Y-70129047D01*
X37580666Y-70274190D01*
X37532285Y-70467714D01*
X37483904Y-70564476D01*
X37387142Y-70661238D01*
X37242000Y-70709619D01*
X37000095Y-70709619D01*
X37919333Y-69693619D02*
X38596666Y-69693619D01*
X38161238Y-70709619D01*
X50459619Y-65499904D02*
X49443619Y-65499904D01*
X49443619Y-65258000D01*
X49492000Y-65112857D01*
X49588761Y-65016095D01*
X49685523Y-64967714D01*
X49879047Y-64919333D01*
X50024190Y-64919333D01*
X50217714Y-64967714D01*
X50314476Y-65016095D01*
X50411238Y-65112857D01*
X50459619Y-65258000D01*
X50459619Y-65499904D01*
X49879047Y-64338761D02*
X49830666Y-64435523D01*
X49782285Y-64483904D01*
X49685523Y-64532285D01*
X49637142Y-64532285D01*
X49540380Y-64483904D01*
X49492000Y-64435523D01*
X49443619Y-64338761D01*
X49443619Y-64145238D01*
X49492000Y-64048476D01*
X49540380Y-64000095D01*
X49637142Y-63951714D01*
X49685523Y-63951714D01*
X49782285Y-64000095D01*
X49830666Y-64048476D01*
X49879047Y-64145238D01*
X49879047Y-64338761D01*
X49927428Y-64435523D01*
X49975809Y-64483904D01*
X50072571Y-64532285D01*
X50266095Y-64532285D01*
X50362857Y-64483904D01*
X50411238Y-64435523D01*
X50459619Y-64338761D01*
X50459619Y-64145238D01*
X50411238Y-64048476D01*
X50362857Y-64000095D01*
X50266095Y-63951714D01*
X50072571Y-63951714D01*
X49975809Y-64000095D01*
X49927428Y-64048476D01*
X49879047Y-64145238D01*
X57459619Y-65499904D02*
X56443619Y-65499904D01*
X56443619Y-65258000D01*
X56492000Y-65112857D01*
X56588761Y-65016095D01*
X56685523Y-64967714D01*
X56879047Y-64919333D01*
X57024190Y-64919333D01*
X57217714Y-64967714D01*
X57314476Y-65016095D01*
X57411238Y-65112857D01*
X57459619Y-65258000D01*
X57459619Y-65499904D01*
X57459619Y-64435523D02*
X57459619Y-64242000D01*
X57411238Y-64145238D01*
X57362857Y-64096857D01*
X57217714Y-64000095D01*
X57024190Y-63951714D01*
X56637142Y-63951714D01*
X56540380Y-64000095D01*
X56492000Y-64048476D01*
X56443619Y-64145238D01*
X56443619Y-64338761D01*
X56492000Y-64435523D01*
X56540380Y-64483904D01*
X56637142Y-64532285D01*
X56879047Y-64532285D01*
X56975809Y-64483904D01*
X57024190Y-64435523D01*
X57072571Y-64338761D01*
X57072571Y-64145238D01*
X57024190Y-64048476D01*
X56975809Y-64000095D01*
X56879047Y-63951714D01*
D16*
X29917380Y-43464285D02*
X28917380Y-43464285D01*
X28917380Y-43226190D01*
X28965000Y-43083333D01*
X29060238Y-42988095D01*
X29155476Y-42940476D01*
X29345952Y-42892857D01*
X29488809Y-42892857D01*
X29679285Y-42940476D01*
X29774523Y-42988095D01*
X29869761Y-43083333D01*
X29917380Y-43226190D01*
X29917380Y-43464285D01*
X29917380Y-41940476D02*
X29917380Y-42511904D01*
X29917380Y-42226190D02*
X28917380Y-42226190D01*
X29060238Y-42321428D01*
X29155476Y-42416666D01*
X29203095Y-42511904D01*
X28917380Y-41321428D02*
X28917380Y-41226190D01*
X28965000Y-41130952D01*
X29012619Y-41083333D01*
X29107857Y-41035714D01*
X29298333Y-40988095D01*
X29536428Y-40988095D01*
X29726904Y-41035714D01*
X29822142Y-41083333D01*
X29869761Y-41130952D01*
X29917380Y-41226190D01*
X29917380Y-41321428D01*
X29869761Y-41416666D01*
X29822142Y-41464285D01*
X29726904Y-41511904D01*
X29536428Y-41559523D01*
X29298333Y-41559523D01*
X29107857Y-41511904D01*
X29012619Y-41464285D01*
X28965000Y-41416666D01*
X28917380Y-41321428D01*
X83967714Y-69609380D02*
X83967714Y-68609380D01*
X84205809Y-68609380D01*
X84348666Y-68657000D01*
X84443904Y-68752238D01*
X84491523Y-68847476D01*
X84539142Y-69037952D01*
X84539142Y-69180809D01*
X84491523Y-69371285D01*
X84443904Y-69466523D01*
X84348666Y-69561761D01*
X84205809Y-69609380D01*
X83967714Y-69609380D01*
X85491523Y-69609380D02*
X84920095Y-69609380D01*
X85205809Y-69609380D02*
X85205809Y-68609380D01*
X85110571Y-68752238D01*
X85015333Y-68847476D01*
X84920095Y-68895095D01*
X86443904Y-69609380D02*
X85872476Y-69609380D01*
X86158190Y-69609380D02*
X86158190Y-68609380D01*
X86062952Y-68752238D01*
X85967714Y-68847476D01*
X85872476Y-68895095D01*
X83967714Y-71514380D02*
X83967714Y-70514380D01*
X84205809Y-70514380D01*
X84348666Y-70562000D01*
X84443904Y-70657238D01*
X84491523Y-70752476D01*
X84539142Y-70942952D01*
X84539142Y-71085809D01*
X84491523Y-71276285D01*
X84443904Y-71371523D01*
X84348666Y-71466761D01*
X84205809Y-71514380D01*
X83967714Y-71514380D01*
X85491523Y-71514380D02*
X84920095Y-71514380D01*
X85205809Y-71514380D02*
X85205809Y-70514380D01*
X85110571Y-70657238D01*
X85015333Y-70752476D01*
X84920095Y-70800095D01*
X85872476Y-70609619D02*
X85920095Y-70562000D01*
X86015333Y-70514380D01*
X86253428Y-70514380D01*
X86348666Y-70562000D01*
X86396285Y-70609619D01*
X86443904Y-70704857D01*
X86443904Y-70800095D01*
X86396285Y-70942952D01*
X85824857Y-71514380D01*
X86443904Y-71514380D01*
X83967714Y-73419380D02*
X83967714Y-72419380D01*
X84205809Y-72419380D01*
X84348666Y-72467000D01*
X84443904Y-72562238D01*
X84491523Y-72657476D01*
X84539142Y-72847952D01*
X84539142Y-72990809D01*
X84491523Y-73181285D01*
X84443904Y-73276523D01*
X84348666Y-73371761D01*
X84205809Y-73419380D01*
X83967714Y-73419380D01*
X85491523Y-73419380D02*
X84920095Y-73419380D01*
X85205809Y-73419380D02*
X85205809Y-72419380D01*
X85110571Y-72562238D01*
X85015333Y-72657476D01*
X84920095Y-72705095D01*
X85824857Y-72419380D02*
X86443904Y-72419380D01*
X86110571Y-72800333D01*
X86253428Y-72800333D01*
X86348666Y-72847952D01*
X86396285Y-72895571D01*
X86443904Y-72990809D01*
X86443904Y-73228904D01*
X86396285Y-73324142D01*
X86348666Y-73371761D01*
X86253428Y-73419380D01*
X85967714Y-73419380D01*
X85872476Y-73371761D01*
X85824857Y-73324142D01*
X64452380Y-65964285D02*
X63452380Y-65964285D01*
X63452380Y-65726190D01*
X63500000Y-65583333D01*
X63595238Y-65488095D01*
X63690476Y-65440476D01*
X63880952Y-65392857D01*
X64023809Y-65392857D01*
X64214285Y-65440476D01*
X64309523Y-65488095D01*
X64404761Y-65583333D01*
X64452380Y-65726190D01*
X64452380Y-65964285D01*
X64452380Y-64440476D02*
X64452380Y-65011904D01*
X64452380Y-64726190D02*
X63452380Y-64726190D01*
X63595238Y-64821428D01*
X63690476Y-64916666D01*
X63738095Y-65011904D01*
X63785714Y-63583333D02*
X64452380Y-63583333D01*
X63404761Y-63821428D02*
X64119047Y-64059523D01*
X64119047Y-63440476D01*
X83967714Y-75324380D02*
X83967714Y-74324380D01*
X84205809Y-74324380D01*
X84348666Y-74372000D01*
X84443904Y-74467238D01*
X84491523Y-74562476D01*
X84539142Y-74752952D01*
X84539142Y-74895809D01*
X84491523Y-75086285D01*
X84443904Y-75181523D01*
X84348666Y-75276761D01*
X84205809Y-75324380D01*
X83967714Y-75324380D01*
X85491523Y-75324380D02*
X84920095Y-75324380D01*
X85205809Y-75324380D02*
X85205809Y-74324380D01*
X85110571Y-74467238D01*
X85015333Y-74562476D01*
X84920095Y-74610095D01*
X86396285Y-74324380D02*
X85920095Y-74324380D01*
X85872476Y-74800571D01*
X85920095Y-74752952D01*
X86015333Y-74705333D01*
X86253428Y-74705333D01*
X86348666Y-74752952D01*
X86396285Y-74800571D01*
X86443904Y-74895809D01*
X86443904Y-75133904D01*
X86396285Y-75229142D01*
X86348666Y-75276761D01*
X86253428Y-75324380D01*
X86015333Y-75324380D01*
X85920095Y-75276761D01*
X85872476Y-75229142D01*
X71452380Y-65964285D02*
X70452380Y-65964285D01*
X70452380Y-65726190D01*
X70500000Y-65583333D01*
X70595238Y-65488095D01*
X70690476Y-65440476D01*
X70880952Y-65392857D01*
X71023809Y-65392857D01*
X71214285Y-65440476D01*
X71309523Y-65488095D01*
X71404761Y-65583333D01*
X71452380Y-65726190D01*
X71452380Y-65964285D01*
X71452380Y-64440476D02*
X71452380Y-65011904D01*
X71452380Y-64726190D02*
X70452380Y-64726190D01*
X70595238Y-64821428D01*
X70690476Y-64916666D01*
X70738095Y-65011904D01*
X70452380Y-63583333D02*
X70452380Y-63773809D01*
X70500000Y-63869047D01*
X70547619Y-63916666D01*
X70690476Y-64011904D01*
X70880952Y-64059523D01*
X71261904Y-64059523D01*
X71357142Y-64011904D01*
X71404761Y-63964285D01*
X71452380Y-63869047D01*
X71452380Y-63678571D01*
X71404761Y-63583333D01*
X71357142Y-63535714D01*
X71261904Y-63488095D01*
X71023809Y-63488095D01*
X70928571Y-63535714D01*
X70880952Y-63583333D01*
X70833333Y-63678571D01*
X70833333Y-63869047D01*
X70880952Y-63964285D01*
X70928571Y-64011904D01*
X71023809Y-64059523D01*
X31583333Y-74772380D02*
X31107142Y-74772380D01*
X31107142Y-73772380D01*
X32440476Y-74772380D02*
X31869047Y-74772380D01*
X32154761Y-74772380D02*
X32154761Y-73772380D01*
X32059523Y-73915238D01*
X31964285Y-74010476D01*
X31869047Y-74058095D01*
X46788333Y-62497380D02*
X46312142Y-62497380D01*
X46312142Y-61497380D01*
X47026428Y-61497380D02*
X47645476Y-61497380D01*
X47312142Y-61878333D01*
X47455000Y-61878333D01*
X47550238Y-61925952D01*
X47597857Y-61973571D01*
X47645476Y-62068809D01*
X47645476Y-62306904D01*
X47597857Y-62402142D01*
X47550238Y-62449761D01*
X47455000Y-62497380D01*
X47169285Y-62497380D01*
X47074047Y-62449761D01*
X47026428Y-62402142D01*
X45589904Y-41304380D02*
X45589904Y-42113904D01*
X45637523Y-42209142D01*
X45685142Y-42256761D01*
X45780380Y-42304380D01*
X45970857Y-42304380D01*
X46066095Y-42256761D01*
X46113714Y-42209142D01*
X46161333Y-42113904D01*
X46161333Y-41304380D01*
X47161333Y-42304380D02*
X46589904Y-42304380D01*
X46875619Y-42304380D02*
X46875619Y-41304380D01*
X46780380Y-41447238D01*
X46685142Y-41542476D01*
X46589904Y-41590095D01*
X47780380Y-41304380D02*
X47875619Y-41304380D01*
X47970857Y-41352000D01*
X48018476Y-41399619D01*
X48066095Y-41494857D01*
X48113714Y-41685333D01*
X48113714Y-41923428D01*
X48066095Y-42113904D01*
X48018476Y-42209142D01*
X47970857Y-42256761D01*
X47875619Y-42304380D01*
X47780380Y-42304380D01*
X47685142Y-42256761D01*
X47637523Y-42209142D01*
X47589904Y-42113904D01*
X47542285Y-41923428D01*
X47542285Y-41685333D01*
X47589904Y-41494857D01*
X47637523Y-41399619D01*
X47685142Y-41352000D01*
X47780380Y-41304380D01*
X31833333Y-45352380D02*
X31357142Y-45352380D01*
X31357142Y-44352380D01*
X32595238Y-44685714D02*
X32595238Y-45352380D01*
X32357142Y-44304761D02*
X32119047Y-45019047D01*
X32738095Y-45019047D01*
X38931666Y-35208380D02*
X38931666Y-35922666D01*
X38884047Y-36065523D01*
X38788809Y-36160761D01*
X38645952Y-36208380D01*
X38550714Y-36208380D01*
X39312619Y-35208380D02*
X39931666Y-35208380D01*
X39598333Y-35589333D01*
X39741190Y-35589333D01*
X39836428Y-35636952D01*
X39884047Y-35684571D01*
X39931666Y-35779809D01*
X39931666Y-36017904D01*
X39884047Y-36113142D01*
X39836428Y-36160761D01*
X39741190Y-36208380D01*
X39455476Y-36208380D01*
X39360238Y-36160761D01*
X39312619Y-36113142D01*
X44392380Y-61830666D02*
X43916190Y-62164000D01*
X44392380Y-62402095D02*
X43392380Y-62402095D01*
X43392380Y-62021142D01*
X43440000Y-61925904D01*
X43487619Y-61878285D01*
X43582857Y-61830666D01*
X43725714Y-61830666D01*
X43820952Y-61878285D01*
X43868571Y-61925904D01*
X43916190Y-62021142D01*
X43916190Y-62402095D01*
X44392380Y-60878285D02*
X44392380Y-61449714D01*
X44392380Y-61164000D02*
X43392380Y-61164000D01*
X43535238Y-61259238D01*
X43630476Y-61354476D01*
X43678095Y-61449714D01*
X44392380Y-64816666D02*
X43916190Y-65150000D01*
X44392380Y-65388095D02*
X43392380Y-65388095D01*
X43392380Y-65007142D01*
X43440000Y-64911904D01*
X43487619Y-64864285D01*
X43582857Y-64816666D01*
X43725714Y-64816666D01*
X43820952Y-64864285D01*
X43868571Y-64911904D01*
X43916190Y-65007142D01*
X43916190Y-65388095D01*
X43487619Y-64435714D02*
X43440000Y-64388095D01*
X43392380Y-64292857D01*
X43392380Y-64054761D01*
X43440000Y-63959523D01*
X43487619Y-63911904D01*
X43582857Y-63864285D01*
X43678095Y-63864285D01*
X43820952Y-63911904D01*
X44392380Y-64483333D01*
X44392380Y-63864285D01*
X60631333Y-33160380D02*
X60298000Y-32684190D01*
X60059904Y-33160380D02*
X60059904Y-32160380D01*
X60440857Y-32160380D01*
X60536095Y-32208000D01*
X60583714Y-32255619D01*
X60631333Y-32350857D01*
X60631333Y-32493714D01*
X60583714Y-32588952D01*
X60536095Y-32636571D01*
X60440857Y-32684190D01*
X60059904Y-32684190D01*
X60964666Y-32160380D02*
X61583714Y-32160380D01*
X61250380Y-32541333D01*
X61393238Y-32541333D01*
X61488476Y-32588952D01*
X61536095Y-32636571D01*
X61583714Y-32731809D01*
X61583714Y-32969904D01*
X61536095Y-33065142D01*
X61488476Y-33112761D01*
X61393238Y-33160380D01*
X61107523Y-33160380D01*
X61012285Y-33112761D01*
X60964666Y-33065142D01*
X49132380Y-68916666D02*
X48656190Y-69250000D01*
X49132380Y-69488095D02*
X48132380Y-69488095D01*
X48132380Y-69107142D01*
X48180000Y-69011904D01*
X48227619Y-68964285D01*
X48322857Y-68916666D01*
X48465714Y-68916666D01*
X48560952Y-68964285D01*
X48608571Y-69011904D01*
X48656190Y-69107142D01*
X48656190Y-69488095D01*
X48465714Y-68059523D02*
X49132380Y-68059523D01*
X48084761Y-68297619D02*
X48799047Y-68535714D01*
X48799047Y-67916666D01*
X52632380Y-68916666D02*
X52156190Y-69250000D01*
X52632380Y-69488095D02*
X51632380Y-69488095D01*
X51632380Y-69107142D01*
X51680000Y-69011904D01*
X51727619Y-68964285D01*
X51822857Y-68916666D01*
X51965714Y-68916666D01*
X52060952Y-68964285D01*
X52108571Y-69011904D01*
X52156190Y-69107142D01*
X52156190Y-69488095D01*
X51632380Y-68011904D02*
X51632380Y-68488095D01*
X52108571Y-68535714D01*
X52060952Y-68488095D01*
X52013333Y-68392857D01*
X52013333Y-68154761D01*
X52060952Y-68059523D01*
X52108571Y-68011904D01*
X52203809Y-67964285D01*
X52441904Y-67964285D01*
X52537142Y-68011904D01*
X52584761Y-68059523D01*
X52632380Y-68154761D01*
X52632380Y-68392857D01*
X52584761Y-68488095D01*
X52537142Y-68535714D01*
X56132380Y-68916666D02*
X55656190Y-69250000D01*
X56132380Y-69488095D02*
X55132380Y-69488095D01*
X55132380Y-69107142D01*
X55180000Y-69011904D01*
X55227619Y-68964285D01*
X55322857Y-68916666D01*
X55465714Y-68916666D01*
X55560952Y-68964285D01*
X55608571Y-69011904D01*
X55656190Y-69107142D01*
X55656190Y-69488095D01*
X55132380Y-68059523D02*
X55132380Y-68250000D01*
X55180000Y-68345238D01*
X55227619Y-68392857D01*
X55370476Y-68488095D01*
X55560952Y-68535714D01*
X55941904Y-68535714D01*
X56037142Y-68488095D01*
X56084761Y-68440476D01*
X56132380Y-68345238D01*
X56132380Y-68154761D01*
X56084761Y-68059523D01*
X56037142Y-68011904D01*
X55941904Y-67964285D01*
X55703809Y-67964285D01*
X55608571Y-68011904D01*
X55560952Y-68059523D01*
X55513333Y-68154761D01*
X55513333Y-68345238D01*
X55560952Y-68440476D01*
X55608571Y-68488095D01*
X55703809Y-68535714D01*
X81960333Y-73444380D02*
X81627000Y-72968190D01*
X81388904Y-73444380D02*
X81388904Y-72444380D01*
X81769857Y-72444380D01*
X81865095Y-72492000D01*
X81912714Y-72539619D01*
X81960333Y-72634857D01*
X81960333Y-72777714D01*
X81912714Y-72872952D01*
X81865095Y-72920571D01*
X81769857Y-72968190D01*
X81388904Y-72968190D01*
X82293666Y-72444380D02*
X82960333Y-72444380D01*
X82531761Y-73444380D01*
X81960333Y-71514380D02*
X81627000Y-71038190D01*
X81388904Y-71514380D02*
X81388904Y-70514380D01*
X81769857Y-70514380D01*
X81865095Y-70562000D01*
X81912714Y-70609619D01*
X81960333Y-70704857D01*
X81960333Y-70847714D01*
X81912714Y-70942952D01*
X81865095Y-70990571D01*
X81769857Y-71038190D01*
X81388904Y-71038190D01*
X82531761Y-70942952D02*
X82436523Y-70895333D01*
X82388904Y-70847714D01*
X82341285Y-70752476D01*
X82341285Y-70704857D01*
X82388904Y-70609619D01*
X82436523Y-70562000D01*
X82531761Y-70514380D01*
X82722238Y-70514380D01*
X82817476Y-70562000D01*
X82865095Y-70609619D01*
X82912714Y-70704857D01*
X82912714Y-70752476D01*
X82865095Y-70847714D01*
X82817476Y-70895333D01*
X82722238Y-70942952D01*
X82531761Y-70942952D01*
X82436523Y-70990571D01*
X82388904Y-71038190D01*
X82341285Y-71133428D01*
X82341285Y-71323904D01*
X82388904Y-71419142D01*
X82436523Y-71466761D01*
X82531761Y-71514380D01*
X82722238Y-71514380D01*
X82817476Y-71466761D01*
X82865095Y-71419142D01*
X82912714Y-71323904D01*
X82912714Y-71133428D01*
X82865095Y-71038190D01*
X82817476Y-70990571D01*
X82722238Y-70942952D01*
X81967333Y-69609380D02*
X81634000Y-69133190D01*
X81395904Y-69609380D02*
X81395904Y-68609380D01*
X81776857Y-68609380D01*
X81872095Y-68657000D01*
X81919714Y-68704619D01*
X81967333Y-68799857D01*
X81967333Y-68942714D01*
X81919714Y-69037952D01*
X81872095Y-69085571D01*
X81776857Y-69133190D01*
X81395904Y-69133190D01*
X82443523Y-69609380D02*
X82634000Y-69609380D01*
X82729238Y-69561761D01*
X82776857Y-69514142D01*
X82872095Y-69371285D01*
X82919714Y-69180809D01*
X82919714Y-68799857D01*
X82872095Y-68704619D01*
X82824476Y-68657000D01*
X82729238Y-68609380D01*
X82538761Y-68609380D01*
X82443523Y-68657000D01*
X82395904Y-68704619D01*
X82348285Y-68799857D01*
X82348285Y-69037952D01*
X82395904Y-69133190D01*
X82443523Y-69180809D01*
X82538761Y-69228428D01*
X82729238Y-69228428D01*
X82824476Y-69180809D01*
X82872095Y-69133190D01*
X82919714Y-69037952D01*
X59632380Y-69392857D02*
X59156190Y-69726190D01*
X59632380Y-69964285D02*
X58632380Y-69964285D01*
X58632380Y-69583333D01*
X58680000Y-69488095D01*
X58727619Y-69440476D01*
X58822857Y-69392857D01*
X58965714Y-69392857D01*
X59060952Y-69440476D01*
X59108571Y-69488095D01*
X59156190Y-69583333D01*
X59156190Y-69964285D01*
X59632380Y-68440476D02*
X59632380Y-69011904D01*
X59632380Y-68726190D02*
X58632380Y-68726190D01*
X58775238Y-68821428D01*
X58870476Y-68916666D01*
X58918095Y-69011904D01*
X58632380Y-67821428D02*
X58632380Y-67726190D01*
X58680000Y-67630952D01*
X58727619Y-67583333D01*
X58822857Y-67535714D01*
X59013333Y-67488095D01*
X59251428Y-67488095D01*
X59441904Y-67535714D01*
X59537142Y-67583333D01*
X59584761Y-67630952D01*
X59632380Y-67726190D01*
X59632380Y-67821428D01*
X59584761Y-67916666D01*
X59537142Y-67964285D01*
X59441904Y-68011904D01*
X59251428Y-68059523D01*
X59013333Y-68059523D01*
X58822857Y-68011904D01*
X58727619Y-67964285D01*
X58680000Y-67916666D01*
X58632380Y-67821428D01*
X63132380Y-69392857D02*
X62656190Y-69726190D01*
X63132380Y-69964285D02*
X62132380Y-69964285D01*
X62132380Y-69583333D01*
X62180000Y-69488095D01*
X62227619Y-69440476D01*
X62322857Y-69392857D01*
X62465714Y-69392857D01*
X62560952Y-69440476D01*
X62608571Y-69488095D01*
X62656190Y-69583333D01*
X62656190Y-69964285D01*
X63132380Y-68440476D02*
X63132380Y-69011904D01*
X63132380Y-68726190D02*
X62132380Y-68726190D01*
X62275238Y-68821428D01*
X62370476Y-68916666D01*
X62418095Y-69011904D01*
X63132380Y-67488095D02*
X63132380Y-68059523D01*
X63132380Y-67773809D02*
X62132380Y-67773809D01*
X62275238Y-67869047D01*
X62370476Y-67964285D01*
X62418095Y-68059523D01*
X66632380Y-69392857D02*
X66156190Y-69726190D01*
X66632380Y-69964285D02*
X65632380Y-69964285D01*
X65632380Y-69583333D01*
X65680000Y-69488095D01*
X65727619Y-69440476D01*
X65822857Y-69392857D01*
X65965714Y-69392857D01*
X66060952Y-69440476D01*
X66108571Y-69488095D01*
X66156190Y-69583333D01*
X66156190Y-69964285D01*
X66632380Y-68440476D02*
X66632380Y-69011904D01*
X66632380Y-68726190D02*
X65632380Y-68726190D01*
X65775238Y-68821428D01*
X65870476Y-68916666D01*
X65918095Y-69011904D01*
X65632380Y-68107142D02*
X65632380Y-67488095D01*
X66013333Y-67821428D01*
X66013333Y-67678571D01*
X66060952Y-67583333D01*
X66108571Y-67535714D01*
X66203809Y-67488095D01*
X66441904Y-67488095D01*
X66537142Y-67535714D01*
X66584761Y-67583333D01*
X66632380Y-67678571D01*
X66632380Y-67964285D01*
X66584761Y-68059523D01*
X66537142Y-68107142D01*
X70132380Y-69392857D02*
X69656190Y-69726190D01*
X70132380Y-69964285D02*
X69132380Y-69964285D01*
X69132380Y-69583333D01*
X69180000Y-69488095D01*
X69227619Y-69440476D01*
X69322857Y-69392857D01*
X69465714Y-69392857D01*
X69560952Y-69440476D01*
X69608571Y-69488095D01*
X69656190Y-69583333D01*
X69656190Y-69964285D01*
X70132380Y-68440476D02*
X70132380Y-69011904D01*
X70132380Y-68726190D02*
X69132380Y-68726190D01*
X69275238Y-68821428D01*
X69370476Y-68916666D01*
X69418095Y-69011904D01*
X69132380Y-67535714D02*
X69132380Y-68011904D01*
X69608571Y-68059523D01*
X69560952Y-68011904D01*
X69513333Y-67916666D01*
X69513333Y-67678571D01*
X69560952Y-67583333D01*
X69608571Y-67535714D01*
X69703809Y-67488095D01*
X69941904Y-67488095D01*
X70037142Y-67535714D01*
X70084761Y-67583333D01*
X70132380Y-67678571D01*
X70132380Y-67916666D01*
X70084761Y-68011904D01*
X70037142Y-68059523D01*
X73632380Y-69392857D02*
X73156190Y-69726190D01*
X73632380Y-69964285D02*
X72632380Y-69964285D01*
X72632380Y-69583333D01*
X72680000Y-69488095D01*
X72727619Y-69440476D01*
X72822857Y-69392857D01*
X72965714Y-69392857D01*
X73060952Y-69440476D01*
X73108571Y-69488095D01*
X73156190Y-69583333D01*
X73156190Y-69964285D01*
X73632380Y-68440476D02*
X73632380Y-69011904D01*
X73632380Y-68726190D02*
X72632380Y-68726190D01*
X72775238Y-68821428D01*
X72870476Y-68916666D01*
X72918095Y-69011904D01*
X73060952Y-67869047D02*
X73013333Y-67964285D01*
X72965714Y-68011904D01*
X72870476Y-68059523D01*
X72822857Y-68059523D01*
X72727619Y-68011904D01*
X72680000Y-67964285D01*
X72632380Y-67869047D01*
X72632380Y-67678571D01*
X72680000Y-67583333D01*
X72727619Y-67535714D01*
X72822857Y-67488095D01*
X72870476Y-67488095D01*
X72965714Y-67535714D01*
X73013333Y-67583333D01*
X73060952Y-67678571D01*
X73060952Y-67869047D01*
X73108571Y-67964285D01*
X73156190Y-68011904D01*
X73251428Y-68059523D01*
X73441904Y-68059523D01*
X73537142Y-68011904D01*
X73584761Y-67964285D01*
X73632380Y-67869047D01*
X73632380Y-67678571D01*
X73584761Y-67583333D01*
X73537142Y-67535714D01*
X73441904Y-67488095D01*
X73251428Y-67488095D01*
X73156190Y-67535714D01*
X73108571Y-67583333D01*
X73060952Y-67678571D01*
D10*
X39377333Y-54201238D02*
X39522476Y-54249619D01*
X39764380Y-54249619D01*
X39861142Y-54201238D01*
X39909523Y-54152857D01*
X39957904Y-54056095D01*
X39957904Y-53959333D01*
X39909523Y-53862571D01*
X39861142Y-53814190D01*
X39764380Y-53765809D01*
X39570857Y-53717428D01*
X39474095Y-53669047D01*
X39425714Y-53620666D01*
X39377333Y-53523904D01*
X39377333Y-53427142D01*
X39425714Y-53330380D01*
X39474095Y-53282000D01*
X39570857Y-53233619D01*
X39812761Y-53233619D01*
X39957904Y-53282000D01*
X40296571Y-53233619D02*
X40538476Y-54249619D01*
X40732000Y-53523904D01*
X40925523Y-54249619D01*
X41167428Y-53233619D01*
X42086666Y-54249619D02*
X41506095Y-54249619D01*
X41796380Y-54249619D02*
X41796380Y-53233619D01*
X41699619Y-53378761D01*
X41602857Y-53475523D01*
X41506095Y-53523904D01*
D16*
X54829095Y-33684380D02*
X54829095Y-34493904D01*
X54876714Y-34589142D01*
X54924333Y-34636761D01*
X55019571Y-34684380D01*
X55210047Y-34684380D01*
X55305285Y-34636761D01*
X55352904Y-34589142D01*
X55400523Y-34493904D01*
X55400523Y-33684380D01*
X56352904Y-33684380D02*
X55876714Y-33684380D01*
X55829095Y-34160571D01*
X55876714Y-34112952D01*
X55971952Y-34065333D01*
X56210047Y-34065333D01*
X56305285Y-34112952D01*
X56352904Y-34160571D01*
X56400523Y-34255809D01*
X56400523Y-34493904D01*
X56352904Y-34589142D01*
X56305285Y-34636761D01*
X56210047Y-34684380D01*
X55971952Y-34684380D01*
X55876714Y-34636761D01*
X55829095Y-34589142D01*
D10*
X49443619Y-61774095D02*
X50266095Y-61774095D01*
X50362857Y-61725714D01*
X50411238Y-61677333D01*
X50459619Y-61580571D01*
X50459619Y-61387047D01*
X50411238Y-61290285D01*
X50362857Y-61241904D01*
X50266095Y-61193523D01*
X49443619Y-61193523D01*
X49443619Y-60806476D02*
X49443619Y-60129142D01*
X50459619Y-60564571D01*
X56443619Y-61774095D02*
X57266095Y-61774095D01*
X57362857Y-61725714D01*
X57411238Y-61677333D01*
X57459619Y-61580571D01*
X57459619Y-61387047D01*
X57411238Y-61290285D01*
X57362857Y-61241904D01*
X57266095Y-61193523D01*
X56443619Y-61193523D01*
X57459619Y-60661333D02*
X57459619Y-60467809D01*
X57411238Y-60371047D01*
X57362857Y-60322666D01*
X57217714Y-60225904D01*
X57024190Y-60177523D01*
X56637142Y-60177523D01*
X56540380Y-60225904D01*
X56492000Y-60274285D01*
X56443619Y-60371047D01*
X56443619Y-60564571D01*
X56492000Y-60661333D01*
X56540380Y-60709714D01*
X56637142Y-60758095D01*
X56879047Y-60758095D01*
X56975809Y-60709714D01*
X57024190Y-60661333D01*
X57072571Y-60564571D01*
X57072571Y-60371047D01*
X57024190Y-60274285D01*
X56975809Y-60225904D01*
X56879047Y-60177523D01*
X63443619Y-62257904D02*
X64266095Y-62257904D01*
X64362857Y-62209523D01*
X64411238Y-62161142D01*
X64459619Y-62064380D01*
X64459619Y-61870857D01*
X64411238Y-61774095D01*
X64362857Y-61725714D01*
X64266095Y-61677333D01*
X63443619Y-61677333D01*
X64459619Y-60661333D02*
X64459619Y-61241904D01*
X64459619Y-60951619D02*
X63443619Y-60951619D01*
X63588761Y-61048380D01*
X63685523Y-61145142D01*
X63733904Y-61241904D01*
X64459619Y-59693714D02*
X64459619Y-60274285D01*
X64459619Y-59984000D02*
X63443619Y-59984000D01*
X63588761Y-60080761D01*
X63685523Y-60177523D01*
X63733904Y-60274285D01*
X70443619Y-62257904D02*
X71266095Y-62257904D01*
X71362857Y-62209523D01*
X71411238Y-62161142D01*
X71459619Y-62064380D01*
X71459619Y-61870857D01*
X71411238Y-61774095D01*
X71362857Y-61725714D01*
X71266095Y-61677333D01*
X70443619Y-61677333D01*
X71459619Y-60661333D02*
X71459619Y-61241904D01*
X71459619Y-60951619D02*
X70443619Y-60951619D01*
X70588761Y-61048380D01*
X70685523Y-61145142D01*
X70733904Y-61241904D01*
X70540380Y-60274285D02*
X70492000Y-60225904D01*
X70443619Y-60129142D01*
X70443619Y-59887238D01*
X70492000Y-59790476D01*
X70540380Y-59742095D01*
X70637142Y-59693714D01*
X70733904Y-59693714D01*
X70879047Y-59742095D01*
X71459619Y-60322666D01*
X71459619Y-59693714D01*
D16*
X81110142Y-75324380D02*
X80776809Y-74848190D01*
X80538714Y-75324380D02*
X80538714Y-74324380D01*
X80919666Y-74324380D01*
X81014904Y-74372000D01*
X81062523Y-74419619D01*
X81110142Y-74514857D01*
X81110142Y-74657714D01*
X81062523Y-74752952D01*
X81014904Y-74800571D01*
X80919666Y-74848190D01*
X80538714Y-74848190D01*
X82062523Y-75324380D02*
X81491095Y-75324380D01*
X81776809Y-75324380D02*
X81776809Y-74324380D01*
X81681571Y-74467238D01*
X81586333Y-74562476D01*
X81491095Y-74610095D01*
X82443476Y-74419619D02*
X82491095Y-74372000D01*
X82586333Y-74324380D01*
X82824428Y-74324380D01*
X82919666Y-74372000D01*
X82967285Y-74419619D01*
X83014904Y-74514857D01*
X83014904Y-74610095D01*
X82967285Y-74752952D01*
X82395857Y-75324380D01*
X83014904Y-75324380D01*
X34120142Y-49543380D02*
X33786809Y-49067190D01*
X33548714Y-49543380D02*
X33548714Y-48543380D01*
X33929666Y-48543380D01*
X34024904Y-48591000D01*
X34072523Y-48638619D01*
X34120142Y-48733857D01*
X34120142Y-48876714D01*
X34072523Y-48971952D01*
X34024904Y-49019571D01*
X33929666Y-49067190D01*
X33548714Y-49067190D01*
X35072523Y-49543380D02*
X34501095Y-49543380D01*
X34786809Y-49543380D02*
X34786809Y-48543380D01*
X34691571Y-48686238D01*
X34596333Y-48781476D01*
X34501095Y-48829095D01*
X35929666Y-48876714D02*
X35929666Y-49543380D01*
X35691571Y-48495761D02*
X35453476Y-49210047D01*
X36072523Y-49210047D01*
X34120142Y-52845380D02*
X33786809Y-52369190D01*
X33548714Y-52845380D02*
X33548714Y-51845380D01*
X33929666Y-51845380D01*
X34024904Y-51893000D01*
X34072523Y-51940619D01*
X34120142Y-52035857D01*
X34120142Y-52178714D01*
X34072523Y-52273952D01*
X34024904Y-52321571D01*
X33929666Y-52369190D01*
X33548714Y-52369190D01*
X35072523Y-52845380D02*
X34501095Y-52845380D01*
X34786809Y-52845380D02*
X34786809Y-51845380D01*
X34691571Y-51988238D01*
X34596333Y-52083476D01*
X34501095Y-52131095D01*
X35929666Y-51845380D02*
X35739190Y-51845380D01*
X35643952Y-51893000D01*
X35596333Y-51940619D01*
X35501095Y-52083476D01*
X35453476Y-52273952D01*
X35453476Y-52654904D01*
X35501095Y-52750142D01*
X35548714Y-52797761D01*
X35643952Y-52845380D01*
X35834428Y-52845380D01*
X35929666Y-52797761D01*
X35977285Y-52750142D01*
X36024904Y-52654904D01*
X36024904Y-52416809D01*
X35977285Y-52321571D01*
X35929666Y-52273952D01*
X35834428Y-52226333D01*
X35643952Y-52226333D01*
X35548714Y-52273952D01*
X35501095Y-52321571D01*
X35453476Y-52416809D01*
X34120142Y-51194380D02*
X33786809Y-50718190D01*
X33548714Y-51194380D02*
X33548714Y-50194380D01*
X33929666Y-50194380D01*
X34024904Y-50242000D01*
X34072523Y-50289619D01*
X34120142Y-50384857D01*
X34120142Y-50527714D01*
X34072523Y-50622952D01*
X34024904Y-50670571D01*
X33929666Y-50718190D01*
X33548714Y-50718190D01*
X35072523Y-51194380D02*
X34501095Y-51194380D01*
X34786809Y-51194380D02*
X34786809Y-50194380D01*
X34691571Y-50337238D01*
X34596333Y-50432476D01*
X34501095Y-50480095D01*
X35405857Y-50194380D02*
X36072523Y-50194380D01*
X35643952Y-51194380D01*
X37682380Y-42883333D02*
X38396666Y-42883333D01*
X38539523Y-42930952D01*
X38634761Y-43026190D01*
X38682380Y-43169047D01*
X38682380Y-43264285D01*
X37777619Y-42454761D02*
X37730000Y-42407142D01*
X37682380Y-42311904D01*
X37682380Y-42073809D01*
X37730000Y-41978571D01*
X37777619Y-41930952D01*
X37872857Y-41883333D01*
X37968095Y-41883333D01*
X38110952Y-41930952D01*
X38682380Y-42502380D01*
X38682380Y-41883333D01*
D10*
X67225904Y-54193619D02*
X67225904Y-55016095D01*
X67274285Y-55112857D01*
X67322666Y-55161238D01*
X67419428Y-55209619D01*
X67612952Y-55209619D01*
X67709714Y-55161238D01*
X67758095Y-55112857D01*
X67806476Y-55016095D01*
X67806476Y-54193619D01*
X68435428Y-54629047D02*
X68338666Y-54580666D01*
X68290285Y-54532285D01*
X68241904Y-54435523D01*
X68241904Y-54387142D01*
X68290285Y-54290380D01*
X68338666Y-54242000D01*
X68435428Y-54193619D01*
X68628952Y-54193619D01*
X68725714Y-54242000D01*
X68774095Y-54290380D01*
X68822476Y-54387142D01*
X68822476Y-54435523D01*
X68774095Y-54532285D01*
X68725714Y-54580666D01*
X68628952Y-54629047D01*
X68435428Y-54629047D01*
X68338666Y-54677428D01*
X68290285Y-54725809D01*
X68241904Y-54822571D01*
X68241904Y-55016095D01*
X68290285Y-55112857D01*
X68338666Y-55161238D01*
X68435428Y-55209619D01*
X68628952Y-55209619D01*
X68725714Y-55161238D01*
X68774095Y-55112857D01*
X68822476Y-55016095D01*
X68822476Y-54822571D01*
X68774095Y-54725809D01*
X68725714Y-54677428D01*
X68628952Y-54629047D01*
M02*
