M48
; DRILL file {KiCad (5.1.2-1)-1} date Sunday, May 05, 2019 at 01:35:16 PM
; FORMAT={-:-/ absolute / inch / decimal}
; #@! TF.CreationDate,2019-05-05T13:35:16-05:00
; #@! TF.GenerationSoftware,Kicad,Pcbnew,(5.1.2-1)-1
FMAT,2
INCH
T1C0.0100
T2C0.0118
T3C0.0130
T4C0.0150
T5C0.0173
T6C0.0250
T7C0.0394
T8C0.0472
T9C0.0531
T10C0.1260
%
G90
G05
T1
X1.2894Y-2.3727
X1.2894Y-2.3927
X1.2894Y-2.4127
X1.2894Y-2.4327
X1.2894Y-2.4527
X1.3186Y-2.4527
X1.3189Y-2.3727
X1.3189Y-2.3927
X1.3189Y-2.4127
X1.3189Y-2.4327
X1.4173Y-1.998
X1.4685Y-2.4843
X1.4836Y-2.065
X1.6036Y-2.1627
X1.6036Y-2.1827
X1.6036Y-2.2027
X1.6036Y-2.2227
X1.6036Y-2.2427
X1.6142Y-1.3976
X1.6181Y-2.3228
X1.6222Y-2.5472
X1.6336Y-2.1627
X1.6336Y-2.1827
X1.6336Y-2.2027
X1.6336Y-2.2227
X1.6336Y-2.2427
X1.6535Y-1.7717
X1.6576Y-2.622
X1.6634Y-1.3976
X1.7224Y-1.7028
X1.7815Y-1.9587
X1.811Y-1.3976
X1.811Y-1.6043
X1.811Y-2.0217
X1.8307Y-1.8012
X1.8307Y-1.8406
X1.8504Y-1.8209
X1.8504Y-1.8602
X1.9136Y-2.0027
X1.9193Y-1.5846
X1.939Y-1.6043
X1.939Y-2.0374
X1.9587Y-1.624
X1.9783Y-1.6437
X1.998Y-1.6634
X2.0036Y-1.5252
X2.0374Y-2.2047
X2.0571Y-1.6043
X2.0571Y-2.0571
X2.0571Y-2.185
X2.0571Y-2.3287
X2.0611Y-1.6634
X2.0768Y-2.0277
X2.0773Y-1.643
X2.0795Y-1.9977
X2.0965Y-2.1457
X2.1161Y-2.2047
X2.1752Y-1.6339
X2.1752Y-1.8196
X2.1949Y-1.8012
X2.1949Y-1.8898
X2.1949Y-2.0768
X2.1949Y-2.185
X2.2146Y-1.7224
X2.2146Y-1.7815
X2.2343Y-1.7618
X2.2638Y-1.7877
X2.2933Y-2.2047
X2.3031Y-1.7028
X2.3327Y-1.5945
X2.3327Y-1.6993
X2.3327Y-2.3287
X2.372Y-1.5784
X2.372Y-2.1654
X2.4149Y-1.7913
X2.4409Y-1.7913
X2.4606Y-1.5551
X2.4606Y-1.6993
X2.5098Y-1.5354
X2.5394Y-1.5059
X2.5394Y-1.5945
X2.5394Y-1.752
X2.5584Y-1.6183
X2.5689Y-1.5059
X2.5689Y-1.5945
X2.5689Y-1.752
X2.5984Y-1.752
X2.6083Y-2.3287
X2.628Y-1.5059
X2.628Y-1.5945
X2.628Y-1.752
X2.6378Y-2.0965
X2.8346Y-2.2794
X2.8839Y-2.3287
X2.9035Y-2.2047
X3.061Y-2.185
X3.0906Y-1.9488
X3.1102Y-1.9685
X3.1299Y-1.8996
X3.1594Y-1.5551
X3.1791Y-1.5354
X3.1988Y-1.9685
X3.2185Y-1.9488
X1.5236Y-2.5
X1.5669Y-2.5
T2
X2.9258Y-1.8091
X2.9258Y-1.8563
X2.9258Y-1.9035
X2.973Y-1.8091
X2.973Y-1.8563
X2.973Y-1.9035
X3.0203Y-1.8091
X3.0203Y-1.8563
X3.0203Y-1.9035
T3
X2.3636Y-1.3452
T4
X1.25Y-2.7165
X2.0571Y-2.5591
X2.0669Y-3.1004
X2.2047Y-3.1004
X2.3327Y-2.5591
X2.3425Y-3.1004
X2.4803Y-3.1004
X2.6083Y-2.5591
X2.8839Y-2.5591
X3.3366Y-2.687
T5
X1.3681Y-1.6496
X1.3681Y-1.7008
X1.4075Y-1.624
X1.4075Y-1.6752
X1.4075Y-1.7264
T6
X1.578Y-1.4744
X2.762Y-1.5983
X2.777Y-2.0388
X2.8937Y-2.0177
X2.977Y-2.1654
X3.017Y-2.0519
X3.3366Y-2.3228
T7
X3.435Y-1.9685
X3.435Y-2.0685
T8
X1.7126Y-2.9232
X1.8504Y-2.9232
X1.9882Y-2.9232
X2.126Y-2.9232
X2.2638Y-2.9232
X2.4016Y-2.9232
X2.5394Y-2.9245
X2.6772Y-2.9232
X2.815Y-2.9232
X2.9528Y-2.9232
T9
X1.3988Y-1.5344
X1.3988Y-1.8159
T10
X1.1811Y-1.3976
X1.1811Y-3.1102
X3.4646Y-3.1102
X3.4646Y-1.3976
T0
M30
