G04 #@! TF.GenerationSoftware,KiCad,Pcbnew,(5.0.0-rc2-dev-390-g2bfbff1)*
G04 #@! TF.CreationDate,2018-04-26T20:39:25-05:00*
G04 #@! TF.ProjectId,WiFi-Gate-Controller,576946692D476174652D436F6E74726F,rev?*
G04 #@! TF.SameCoordinates,Original*
G04 #@! TF.FileFunction,Legend,Top*
G04 #@! TF.FilePolarity,Positive*
%FSLAX46Y46*%
G04 Gerber Fmt 4.6, Leading zero omitted, Abs format (unit mm)*
G04 Created by KiCad (PCBNEW (5.0.0-rc2-dev-390-g2bfbff1)) date Thursday, April 26, 2018 at 08:39:25 PM*
%MOMM*%
%LPD*%
G01*
G04 APERTURE LIST*
%ADD10C,0.152400*%
%ADD11C,0.177800*%
%ADD12C,0.254000*%
%ADD13C,0.304800*%
%ADD14C,0.120000*%
%ADD15C,0.400000*%
%ADD16C,0.150000*%
%ADD17C,0.127000*%
%ADD18C,0.203200*%
G04 APERTURE END LIST*
D10*
X39242095Y-47959619D02*
X38903428Y-47475809D01*
X38661523Y-47959619D02*
X38661523Y-46943619D01*
X39048571Y-46943619D01*
X39145333Y-46992000D01*
X39193714Y-47040380D01*
X39242095Y-47137142D01*
X39242095Y-47282285D01*
X39193714Y-47379047D01*
X39145333Y-47427428D01*
X39048571Y-47475809D01*
X38661523Y-47475809D01*
X40064571Y-47911238D02*
X39967809Y-47959619D01*
X39774285Y-47959619D01*
X39677523Y-47911238D01*
X39629142Y-47814476D01*
X39629142Y-47427428D01*
X39677523Y-47330666D01*
X39774285Y-47282285D01*
X39967809Y-47282285D01*
X40064571Y-47330666D01*
X40112952Y-47427428D01*
X40112952Y-47524190D01*
X39629142Y-47620952D01*
X40500000Y-47911238D02*
X40596761Y-47959619D01*
X40790285Y-47959619D01*
X40887047Y-47911238D01*
X40935428Y-47814476D01*
X40935428Y-47766095D01*
X40887047Y-47669333D01*
X40790285Y-47620952D01*
X40645142Y-47620952D01*
X40548380Y-47572571D01*
X40500000Y-47475809D01*
X40500000Y-47427428D01*
X40548380Y-47330666D01*
X40645142Y-47282285D01*
X40790285Y-47282285D01*
X40887047Y-47330666D01*
X41757904Y-47911238D02*
X41661142Y-47959619D01*
X41467619Y-47959619D01*
X41370857Y-47911238D01*
X41322476Y-47814476D01*
X41322476Y-47427428D01*
X41370857Y-47330666D01*
X41467619Y-47282285D01*
X41661142Y-47282285D01*
X41757904Y-47330666D01*
X41806285Y-47427428D01*
X41806285Y-47524190D01*
X41322476Y-47620952D01*
X42096571Y-47282285D02*
X42483619Y-47282285D01*
X42241714Y-46943619D02*
X42241714Y-47814476D01*
X42290095Y-47911238D01*
X42386857Y-47959619D01*
X42483619Y-47959619D01*
X41419619Y-40459619D02*
X41419619Y-39443619D01*
X41661523Y-39443619D01*
X41806666Y-39492000D01*
X41903428Y-39588761D01*
X41951809Y-39685523D01*
X42000190Y-39879047D01*
X42000190Y-40024190D01*
X41951809Y-40217714D01*
X41903428Y-40314476D01*
X41806666Y-40411238D01*
X41661523Y-40459619D01*
X41419619Y-40459619D01*
X42822666Y-40411238D02*
X42725904Y-40459619D01*
X42532380Y-40459619D01*
X42435619Y-40411238D01*
X42387238Y-40314476D01*
X42387238Y-39927428D01*
X42435619Y-39830666D01*
X42532380Y-39782285D01*
X42725904Y-39782285D01*
X42822666Y-39830666D01*
X42871047Y-39927428D01*
X42871047Y-40024190D01*
X42387238Y-40120952D01*
X43306476Y-40459619D02*
X43306476Y-39443619D01*
X43306476Y-39830666D02*
X43403238Y-39782285D01*
X43596761Y-39782285D01*
X43693523Y-39830666D01*
X43741904Y-39879047D01*
X43790285Y-39975809D01*
X43790285Y-40266095D01*
X43741904Y-40362857D01*
X43693523Y-40411238D01*
X43596761Y-40459619D01*
X43403238Y-40459619D01*
X43306476Y-40411238D01*
X44661142Y-39782285D02*
X44661142Y-40459619D01*
X44225714Y-39782285D02*
X44225714Y-40314476D01*
X44274095Y-40411238D01*
X44370857Y-40459619D01*
X44516000Y-40459619D01*
X44612761Y-40411238D01*
X44661142Y-40362857D01*
X45580380Y-39782285D02*
X45580380Y-40604761D01*
X45532000Y-40701523D01*
X45483619Y-40749904D01*
X45386857Y-40798285D01*
X45241714Y-40798285D01*
X45144952Y-40749904D01*
X45580380Y-40411238D02*
X45483619Y-40459619D01*
X45290095Y-40459619D01*
X45193333Y-40411238D01*
X45144952Y-40362857D01*
X45096571Y-40266095D01*
X45096571Y-39975809D01*
X45144952Y-39879047D01*
X45193333Y-39830666D01*
X45290095Y-39782285D01*
X45483619Y-39782285D01*
X45580380Y-39830666D01*
D11*
X55750000Y-50750000D02*
G75*
G03X55750000Y-50750000I-250000J0D01*
G01*
X55600000Y-50750000D02*
G75*
G03X55600000Y-50750000I-100000J0D01*
G01*
X55900000Y-50750000D02*
G75*
G03X55900000Y-50750000I-400000J0D01*
G01*
X83250000Y-56250000D02*
X83250000Y-67750000D01*
X91750000Y-56250000D02*
X91750000Y-67750000D01*
X75250000Y-60000000D02*
X80500000Y-60000000D01*
X75250000Y-62000000D02*
X80500000Y-62000000D01*
X75250000Y-64000000D02*
X80500000Y-64000000D01*
X77750000Y-58750000D02*
X77750000Y-65500000D01*
X91750000Y-65000000D02*
X83250000Y-65000000D01*
X91750000Y-62000000D02*
X83250000Y-62000000D01*
X91750000Y-67750000D02*
X83250000Y-67750000D01*
X91750000Y-59000000D02*
X83250000Y-59000000D01*
X83250000Y-56250000D02*
X91750000Y-56250000D01*
D10*
X90459619Y-54675225D02*
X90459619Y-55159035D01*
X89443619Y-55159035D01*
X89927428Y-54336559D02*
X89927428Y-53997892D01*
X90459619Y-53852749D02*
X90459619Y-54336559D01*
X89443619Y-54336559D01*
X89443619Y-53852749D01*
X90459619Y-53417320D02*
X89443619Y-53417320D01*
X89443619Y-53175416D01*
X89492000Y-53030273D01*
X89588761Y-52933511D01*
X89685523Y-52885130D01*
X89879047Y-52836749D01*
X90024190Y-52836749D01*
X90217714Y-52885130D01*
X90314476Y-52933511D01*
X90411238Y-53030273D01*
X90459619Y-53175416D01*
X90459619Y-53417320D01*
X89927428Y-51627225D02*
X89927428Y-51288559D01*
X90459619Y-51143416D02*
X90459619Y-51627225D01*
X89443619Y-51627225D01*
X89443619Y-51143416D01*
X89782285Y-50707987D02*
X90459619Y-50707987D01*
X89879047Y-50707987D02*
X89830666Y-50659606D01*
X89782285Y-50562844D01*
X89782285Y-50417701D01*
X89830666Y-50320940D01*
X89927428Y-50272559D01*
X90459619Y-50272559D01*
X90459619Y-49353320D02*
X89927428Y-49353320D01*
X89830666Y-49401701D01*
X89782285Y-49498463D01*
X89782285Y-49691987D01*
X89830666Y-49788749D01*
X90411238Y-49353320D02*
X90459619Y-49450082D01*
X90459619Y-49691987D01*
X90411238Y-49788749D01*
X90314476Y-49837130D01*
X90217714Y-49837130D01*
X90120952Y-49788749D01*
X90072571Y-49691987D01*
X90072571Y-49450082D01*
X90024190Y-49353320D01*
X90459619Y-48869511D02*
X89443619Y-48869511D01*
X89830666Y-48869511D02*
X89782285Y-48772749D01*
X89782285Y-48579225D01*
X89830666Y-48482463D01*
X89879047Y-48434082D01*
X89975809Y-48385701D01*
X90266095Y-48385701D01*
X90362857Y-48434082D01*
X90411238Y-48482463D01*
X90459619Y-48579225D01*
X90459619Y-48772749D01*
X90411238Y-48869511D01*
X90459619Y-47805130D02*
X90411238Y-47901892D01*
X90314476Y-47950273D01*
X89443619Y-47950273D01*
X90411238Y-47031035D02*
X90459619Y-47127797D01*
X90459619Y-47321320D01*
X90411238Y-47418082D01*
X90314476Y-47466463D01*
X89927428Y-47466463D01*
X89830666Y-47418082D01*
X89782285Y-47321320D01*
X89782285Y-47127797D01*
X89830666Y-47031035D01*
X89927428Y-46982654D01*
X90024190Y-46982654D01*
X90120952Y-47466463D01*
X56445821Y-38943619D02*
X57026393Y-38943619D01*
X56736107Y-39959619D02*
X56736107Y-38943619D01*
X57752107Y-39911238D02*
X57655345Y-39959619D01*
X57461821Y-39959619D01*
X57365060Y-39911238D01*
X57316679Y-39814476D01*
X57316679Y-39427428D01*
X57365060Y-39330666D01*
X57461821Y-39282285D01*
X57655345Y-39282285D01*
X57752107Y-39330666D01*
X57800488Y-39427428D01*
X57800488Y-39524190D01*
X57316679Y-39620952D01*
X58235917Y-39959619D02*
X58235917Y-39282285D01*
X58235917Y-39379047D02*
X58284298Y-39330666D01*
X58381060Y-39282285D01*
X58526202Y-39282285D01*
X58622964Y-39330666D01*
X58671345Y-39427428D01*
X58671345Y-39959619D01*
X58671345Y-39427428D02*
X58719726Y-39330666D01*
X58816488Y-39282285D01*
X58961631Y-39282285D01*
X59058393Y-39330666D01*
X59106774Y-39427428D01*
X59106774Y-39959619D01*
X59590583Y-39282285D02*
X59590583Y-40298285D01*
X59590583Y-39330666D02*
X59687345Y-39282285D01*
X59880869Y-39282285D01*
X59977631Y-39330666D01*
X60026012Y-39379047D01*
X60074393Y-39475809D01*
X60074393Y-39766095D01*
X60026012Y-39862857D01*
X59977631Y-39911238D01*
X59880869Y-39959619D01*
X59687345Y-39959619D01*
X59590583Y-39911238D01*
D12*
X66574523Y-51206804D02*
X65969761Y-51630138D01*
X66574523Y-51932519D02*
X65304523Y-51932519D01*
X65304523Y-51448709D01*
X65365000Y-51327757D01*
X65425476Y-51267280D01*
X65546428Y-51206804D01*
X65727857Y-51206804D01*
X65848809Y-51267280D01*
X65909285Y-51327757D01*
X65969761Y-51448709D01*
X65969761Y-51932519D01*
X66514047Y-50178709D02*
X66574523Y-50299661D01*
X66574523Y-50541566D01*
X66514047Y-50662519D01*
X66393095Y-50722995D01*
X65909285Y-50722995D01*
X65788333Y-50662519D01*
X65727857Y-50541566D01*
X65727857Y-50299661D01*
X65788333Y-50178709D01*
X65909285Y-50118233D01*
X66030238Y-50118233D01*
X66151190Y-50722995D01*
X65727857Y-49694900D02*
X66574523Y-49392519D01*
X65727857Y-49090138D01*
X66574523Y-46973471D02*
X66574523Y-47699185D01*
X66574523Y-47336328D02*
X65304523Y-47336328D01*
X65485952Y-47457280D01*
X65606904Y-47578233D01*
X65667380Y-47699185D01*
X66453571Y-46429185D02*
X66514047Y-46368709D01*
X66574523Y-46429185D01*
X66514047Y-46489661D01*
X66453571Y-46429185D01*
X66574523Y-46429185D01*
X65304523Y-45582519D02*
X65304523Y-45461566D01*
X65365000Y-45340614D01*
X65425476Y-45280138D01*
X65546428Y-45219661D01*
X65788333Y-45159185D01*
X66090714Y-45159185D01*
X66332619Y-45219661D01*
X66453571Y-45280138D01*
X66514047Y-45340614D01*
X66574523Y-45461566D01*
X66574523Y-45582519D01*
X66514047Y-45703471D01*
X66453571Y-45763947D01*
X66332619Y-45824423D01*
X66090714Y-45884900D01*
X65788333Y-45884900D01*
X65546428Y-45824423D01*
X65425476Y-45763947D01*
X65365000Y-45703471D01*
X65304523Y-45582519D01*
X66211666Y-43707757D02*
X66211666Y-43102995D01*
X66574523Y-43828709D02*
X65304523Y-43405376D01*
X66574523Y-42982042D01*
X65727857Y-42558709D02*
X66997857Y-42558709D01*
X65788333Y-42558709D02*
X65727857Y-42437757D01*
X65727857Y-42195852D01*
X65788333Y-42074900D01*
X65848809Y-42014423D01*
X65969761Y-41953947D01*
X66332619Y-41953947D01*
X66453571Y-42014423D01*
X66514047Y-42074900D01*
X66574523Y-42195852D01*
X66574523Y-42437757D01*
X66514047Y-42558709D01*
X66574523Y-41409661D02*
X65727857Y-41409661D01*
X65969761Y-41409661D02*
X65848809Y-41349185D01*
X65788333Y-41288709D01*
X65727857Y-41167757D01*
X65727857Y-41046804D01*
X66574523Y-40623471D02*
X65727857Y-40623471D01*
X65304523Y-40623471D02*
X65365000Y-40683947D01*
X65425476Y-40623471D01*
X65365000Y-40562995D01*
X65304523Y-40623471D01*
X65425476Y-40623471D01*
X66574523Y-39837280D02*
X66514047Y-39958233D01*
X66393095Y-40018709D01*
X65304523Y-40018709D01*
X65425476Y-38446328D02*
X65365000Y-38385852D01*
X65304523Y-38264900D01*
X65304523Y-37962519D01*
X65365000Y-37841566D01*
X65425476Y-37781090D01*
X65546428Y-37720614D01*
X65667380Y-37720614D01*
X65848809Y-37781090D01*
X66574523Y-38506804D01*
X66574523Y-37720614D01*
X65304523Y-36934423D02*
X65304523Y-36813471D01*
X65365000Y-36692519D01*
X65425476Y-36632042D01*
X65546428Y-36571566D01*
X65788333Y-36511090D01*
X66090714Y-36511090D01*
X66332619Y-36571566D01*
X66453571Y-36632042D01*
X66514047Y-36692519D01*
X66574523Y-36813471D01*
X66574523Y-36934423D01*
X66514047Y-37055376D01*
X66453571Y-37115852D01*
X66332619Y-37176328D01*
X66090714Y-37236804D01*
X65788333Y-37236804D01*
X65546428Y-37176328D01*
X65425476Y-37115852D01*
X65365000Y-37055376D01*
X65304523Y-36934423D01*
X66574523Y-35301566D02*
X66574523Y-36027280D01*
X66574523Y-35664423D02*
X65304523Y-35664423D01*
X65485952Y-35785376D01*
X65606904Y-35906328D01*
X65667380Y-36027280D01*
X65848809Y-34575852D02*
X65788333Y-34696804D01*
X65727857Y-34757280D01*
X65606904Y-34817757D01*
X65546428Y-34817757D01*
X65425476Y-34757280D01*
X65365000Y-34696804D01*
X65304523Y-34575852D01*
X65304523Y-34333947D01*
X65365000Y-34212995D01*
X65425476Y-34152519D01*
X65546428Y-34092042D01*
X65606904Y-34092042D01*
X65727857Y-34152519D01*
X65788333Y-34212995D01*
X65848809Y-34333947D01*
X65848809Y-34575852D01*
X65909285Y-34696804D01*
X65969761Y-34757280D01*
X66090714Y-34817757D01*
X66332619Y-34817757D01*
X66453571Y-34757280D01*
X66514047Y-34696804D01*
X66574523Y-34575852D01*
X66574523Y-34333947D01*
X66514047Y-34212995D01*
X66453571Y-34152519D01*
X66332619Y-34092042D01*
X66090714Y-34092042D01*
X65969761Y-34152519D01*
X65909285Y-34212995D01*
X65848809Y-34333947D01*
X64574523Y-51932519D02*
X63304523Y-51932519D01*
X64211666Y-51509185D01*
X63304523Y-51085852D01*
X64574523Y-51085852D01*
X64574523Y-50481090D02*
X63727857Y-50481090D01*
X63304523Y-50481090D02*
X63365000Y-50541566D01*
X63425476Y-50481090D01*
X63365000Y-50420614D01*
X63304523Y-50481090D01*
X63425476Y-50481090D01*
X64574523Y-49876328D02*
X63304523Y-49876328D01*
X64090714Y-49755376D02*
X64574523Y-49392519D01*
X63727857Y-49392519D02*
X64211666Y-49876328D01*
X64514047Y-48364423D02*
X64574523Y-48485376D01*
X64574523Y-48727280D01*
X64514047Y-48848233D01*
X64393095Y-48908709D01*
X63909285Y-48908709D01*
X63788333Y-48848233D01*
X63727857Y-48727280D01*
X63727857Y-48485376D01*
X63788333Y-48364423D01*
X63909285Y-48303947D01*
X64030238Y-48303947D01*
X64151190Y-48908709D01*
X64574523Y-46187280D02*
X64574523Y-46792042D01*
X63304523Y-46792042D01*
X64574523Y-45219661D02*
X63909285Y-45219661D01*
X63788333Y-45280138D01*
X63727857Y-45401090D01*
X63727857Y-45642995D01*
X63788333Y-45763947D01*
X64514047Y-45219661D02*
X64574523Y-45340614D01*
X64574523Y-45642995D01*
X64514047Y-45763947D01*
X64393095Y-45824423D01*
X64272142Y-45824423D01*
X64151190Y-45763947D01*
X64090714Y-45642995D01*
X64090714Y-45340614D01*
X64030238Y-45219661D01*
X63727857Y-44735852D02*
X64574523Y-44493947D01*
X63969761Y-44252042D01*
X64574523Y-44010138D01*
X63727857Y-43768233D01*
X64574523Y-43284423D02*
X63727857Y-43284423D01*
X63969761Y-43284423D02*
X63848809Y-43223947D01*
X63788333Y-43163471D01*
X63727857Y-43042519D01*
X63727857Y-42921566D01*
X64514047Y-42014423D02*
X64574523Y-42135376D01*
X64574523Y-42377280D01*
X64514047Y-42498233D01*
X64393095Y-42558709D01*
X63909285Y-42558709D01*
X63788333Y-42498233D01*
X63727857Y-42377280D01*
X63727857Y-42135376D01*
X63788333Y-42014423D01*
X63909285Y-41953947D01*
X64030238Y-41953947D01*
X64151190Y-42558709D01*
X63727857Y-41409661D02*
X64574523Y-41409661D01*
X63848809Y-41409661D02*
X63788333Y-41349185D01*
X63727857Y-41228233D01*
X63727857Y-41046804D01*
X63788333Y-40925852D01*
X63909285Y-40865376D01*
X64574523Y-40865376D01*
X64514047Y-39716328D02*
X64574523Y-39837280D01*
X64574523Y-40079185D01*
X64514047Y-40200138D01*
X64453571Y-40260614D01*
X64332619Y-40321090D01*
X63969761Y-40321090D01*
X63848809Y-40260614D01*
X63788333Y-40200138D01*
X63727857Y-40079185D01*
X63727857Y-39837280D01*
X63788333Y-39716328D01*
X64514047Y-38688233D02*
X64574523Y-38809185D01*
X64574523Y-39051090D01*
X64514047Y-39172042D01*
X64393095Y-39232519D01*
X63909285Y-39232519D01*
X63788333Y-39172042D01*
X63727857Y-39051090D01*
X63727857Y-38809185D01*
X63788333Y-38688233D01*
X63909285Y-38627757D01*
X64030238Y-38627757D01*
X64151190Y-39232519D01*
D13*
X45220262Y-55706785D02*
X45673834Y-57611785D01*
X46036691Y-56251071D01*
X46399548Y-57611785D01*
X46853120Y-55706785D01*
X47578834Y-57611785D02*
X47578834Y-56341785D01*
X47578834Y-55706785D02*
X47488120Y-55797500D01*
X47578834Y-55888214D01*
X47669548Y-55797500D01*
X47578834Y-55706785D01*
X47578834Y-55888214D01*
X49120977Y-56613928D02*
X48485977Y-56613928D01*
X48485977Y-57611785D02*
X48485977Y-55706785D01*
X49393120Y-55706785D01*
X50118834Y-57611785D02*
X50118834Y-56341785D01*
X50118834Y-55706785D02*
X50028120Y-55797500D01*
X50118834Y-55888214D01*
X50209548Y-55797500D01*
X50118834Y-55706785D01*
X50118834Y-55888214D01*
X53475262Y-55797500D02*
X53293834Y-55706785D01*
X53021691Y-55706785D01*
X52749548Y-55797500D01*
X52568120Y-55978928D01*
X52477405Y-56160357D01*
X52386691Y-56523214D01*
X52386691Y-56795357D01*
X52477405Y-57158214D01*
X52568120Y-57339642D01*
X52749548Y-57521071D01*
X53021691Y-57611785D01*
X53203120Y-57611785D01*
X53475262Y-57521071D01*
X53565977Y-57430357D01*
X53565977Y-56795357D01*
X53203120Y-56795357D01*
X55198834Y-57611785D02*
X55198834Y-56613928D01*
X55108120Y-56432500D01*
X54926691Y-56341785D01*
X54563834Y-56341785D01*
X54382405Y-56432500D01*
X55198834Y-57521071D02*
X55017405Y-57611785D01*
X54563834Y-57611785D01*
X54382405Y-57521071D01*
X54291691Y-57339642D01*
X54291691Y-57158214D01*
X54382405Y-56976785D01*
X54563834Y-56886071D01*
X55017405Y-56886071D01*
X55198834Y-56795357D01*
X55833834Y-56341785D02*
X56559548Y-56341785D01*
X56105977Y-55706785D02*
X56105977Y-57339642D01*
X56196691Y-57521071D01*
X56378120Y-57611785D01*
X56559548Y-57611785D01*
X57920262Y-57521071D02*
X57738834Y-57611785D01*
X57375977Y-57611785D01*
X57194548Y-57521071D01*
X57103834Y-57339642D01*
X57103834Y-56613928D01*
X57194548Y-56432500D01*
X57375977Y-56341785D01*
X57738834Y-56341785D01*
X57920262Y-56432500D01*
X58010977Y-56613928D01*
X58010977Y-56795357D01*
X57103834Y-56976785D01*
X61367405Y-57430357D02*
X61276691Y-57521071D01*
X61004548Y-57611785D01*
X60823120Y-57611785D01*
X60550977Y-57521071D01*
X60369548Y-57339642D01*
X60278834Y-57158214D01*
X60188120Y-56795357D01*
X60188120Y-56523214D01*
X60278834Y-56160357D01*
X60369548Y-55978928D01*
X60550977Y-55797500D01*
X60823120Y-55706785D01*
X61004548Y-55706785D01*
X61276691Y-55797500D01*
X61367405Y-55888214D01*
X62455977Y-57611785D02*
X62274548Y-57521071D01*
X62183834Y-57430357D01*
X62093120Y-57248928D01*
X62093120Y-56704642D01*
X62183834Y-56523214D01*
X62274548Y-56432500D01*
X62455977Y-56341785D01*
X62728120Y-56341785D01*
X62909548Y-56432500D01*
X63000262Y-56523214D01*
X63090977Y-56704642D01*
X63090977Y-57248928D01*
X63000262Y-57430357D01*
X62909548Y-57521071D01*
X62728120Y-57611785D01*
X62455977Y-57611785D01*
X63907405Y-56341785D02*
X63907405Y-57611785D01*
X63907405Y-56523214D02*
X63998120Y-56432500D01*
X64179548Y-56341785D01*
X64451691Y-56341785D01*
X64633120Y-56432500D01*
X64723834Y-56613928D01*
X64723834Y-57611785D01*
X65358834Y-56341785D02*
X66084548Y-56341785D01*
X65630977Y-55706785D02*
X65630977Y-57339642D01*
X65721691Y-57521071D01*
X65903120Y-57611785D01*
X66084548Y-57611785D01*
X66719548Y-57611785D02*
X66719548Y-56341785D01*
X66719548Y-56704642D02*
X66810262Y-56523214D01*
X66900977Y-56432500D01*
X67082405Y-56341785D01*
X67263834Y-56341785D01*
X68170977Y-57611785D02*
X67989548Y-57521071D01*
X67898834Y-57430357D01*
X67808120Y-57248928D01*
X67808120Y-56704642D01*
X67898834Y-56523214D01*
X67989548Y-56432500D01*
X68170977Y-56341785D01*
X68443120Y-56341785D01*
X68624548Y-56432500D01*
X68715262Y-56523214D01*
X68805977Y-56704642D01*
X68805977Y-57248928D01*
X68715262Y-57430357D01*
X68624548Y-57521071D01*
X68443120Y-57611785D01*
X68170977Y-57611785D01*
X69894548Y-57611785D02*
X69713120Y-57521071D01*
X69622405Y-57339642D01*
X69622405Y-55706785D01*
X70892405Y-57611785D02*
X70710977Y-57521071D01*
X70620262Y-57339642D01*
X70620262Y-55706785D01*
X72343834Y-57521071D02*
X72162405Y-57611785D01*
X71799548Y-57611785D01*
X71618120Y-57521071D01*
X71527405Y-57339642D01*
X71527405Y-56613928D01*
X71618120Y-56432500D01*
X71799548Y-56341785D01*
X72162405Y-56341785D01*
X72343834Y-56432500D01*
X72434548Y-56613928D01*
X72434548Y-56795357D01*
X71527405Y-56976785D01*
X73250977Y-57611785D02*
X73250977Y-56341785D01*
X73250977Y-56704642D02*
X73341691Y-56523214D01*
X73432405Y-56432500D01*
X73613834Y-56341785D01*
X73795262Y-56341785D01*
D11*
X39600000Y-38500000D02*
G75*
G03X39600000Y-38500000I-100000J0D01*
G01*
X39750000Y-38500000D02*
G75*
G03X39750000Y-38500000I-250000J0D01*
G01*
X39900000Y-38500000D02*
G75*
G03X39900000Y-38500000I-400000J0D01*
G01*
D13*
X88036691Y-67189428D02*
X87310977Y-67189428D01*
X87310977Y-65665428D01*
X88544691Y-66391142D02*
X89052691Y-66391142D01*
X89270405Y-67189428D02*
X88544691Y-67189428D01*
X88544691Y-65665428D01*
X89270405Y-65665428D01*
X89923548Y-67189428D02*
X89923548Y-65665428D01*
X90286405Y-65665428D01*
X90504120Y-65738000D01*
X90649262Y-65883142D01*
X90721834Y-66028285D01*
X90794405Y-66318571D01*
X90794405Y-66536285D01*
X90721834Y-66826571D01*
X90649262Y-66971714D01*
X90504120Y-67116857D01*
X90286405Y-67189428D01*
X89923548Y-67189428D01*
X87310977Y-64189428D02*
X87310977Y-62665428D01*
X88181834Y-64189428D01*
X88181834Y-62665428D01*
X89488120Y-64116857D02*
X89342977Y-64189428D01*
X89052691Y-64189428D01*
X88907548Y-64116857D01*
X88834977Y-63971714D01*
X88834977Y-63391142D01*
X88907548Y-63246000D01*
X89052691Y-63173428D01*
X89342977Y-63173428D01*
X89488120Y-63246000D01*
X89560691Y-63391142D01*
X89560691Y-63536285D01*
X88834977Y-63681428D01*
X89996120Y-63173428D02*
X90576691Y-63173428D01*
X90213834Y-62665428D02*
X90213834Y-63971714D01*
X90286405Y-64116857D01*
X90431548Y-64189428D01*
X90576691Y-64189428D01*
X87238405Y-60754000D02*
X87964120Y-60754000D01*
X87093262Y-61189428D02*
X87601262Y-59665428D01*
X88109262Y-61189428D01*
X89270405Y-61116857D02*
X89125262Y-61189428D01*
X88834977Y-61189428D01*
X88689834Y-61116857D01*
X88617262Y-61044285D01*
X88544691Y-60899142D01*
X88544691Y-60463714D01*
X88617262Y-60318571D01*
X88689834Y-60246000D01*
X88834977Y-60173428D01*
X89125262Y-60173428D01*
X89270405Y-60246000D01*
X89705834Y-60173428D02*
X90286405Y-60173428D01*
X89923548Y-59665428D02*
X89923548Y-60971714D01*
X89996120Y-61116857D01*
X90141262Y-61189428D01*
X90286405Y-61189428D01*
X87310977Y-57391142D02*
X87818977Y-57391142D01*
X88036691Y-58189428D02*
X87310977Y-58189428D01*
X87310977Y-56665428D01*
X88036691Y-56665428D01*
X88689834Y-58189428D02*
X88689834Y-57173428D01*
X88689834Y-57463714D02*
X88762405Y-57318571D01*
X88834977Y-57246000D01*
X88980120Y-57173428D01*
X89125262Y-57173428D01*
X89633262Y-58189428D02*
X89633262Y-57173428D01*
X89633262Y-57463714D02*
X89705834Y-57318571D01*
X89778405Y-57246000D01*
X89923548Y-57173428D01*
X90068691Y-57173428D01*
X75689428Y-81262405D02*
X74165428Y-81262405D01*
X74673428Y-79883548D02*
X75689428Y-79883548D01*
X74092857Y-80246405D02*
X75181428Y-80609262D01*
X75181428Y-79665834D01*
X72189428Y-81262405D02*
X70665428Y-81262405D01*
X70665428Y-80681834D02*
X70665428Y-79738405D01*
X71246000Y-80246405D01*
X71246000Y-80028691D01*
X71318571Y-79883548D01*
X71391142Y-79810977D01*
X71536285Y-79738405D01*
X71899142Y-79738405D01*
X72044285Y-79810977D01*
X72116857Y-79883548D01*
X72189428Y-80028691D01*
X72189428Y-80464120D01*
X72116857Y-80609262D01*
X72044285Y-80681834D01*
X68689428Y-81262405D02*
X67165428Y-81262405D01*
X67310571Y-80609262D02*
X67238000Y-80536691D01*
X67165428Y-80391548D01*
X67165428Y-80028691D01*
X67238000Y-79883548D01*
X67310571Y-79810977D01*
X67455714Y-79738405D01*
X67600857Y-79738405D01*
X67818571Y-79810977D01*
X68689428Y-80681834D01*
X68689428Y-79738405D01*
X65189428Y-81262405D02*
X63665428Y-81262405D01*
X65189428Y-79738405D02*
X65189428Y-80609262D01*
X65189428Y-80173834D02*
X63665428Y-80173834D01*
X63883142Y-80318977D01*
X64028285Y-80464120D01*
X64100857Y-80609262D01*
X60165428Y-81842977D02*
X60165428Y-81552691D01*
X60238000Y-81407548D01*
X60383142Y-81262405D01*
X60673428Y-81189834D01*
X61181428Y-81189834D01*
X61471714Y-81262405D01*
X61616857Y-81407548D01*
X61689428Y-81552691D01*
X61689428Y-81842977D01*
X61616857Y-81988120D01*
X61471714Y-82133262D01*
X61181428Y-82205834D01*
X60673428Y-82205834D01*
X60383142Y-82133262D01*
X60238000Y-81988120D01*
X60165428Y-81842977D01*
X60673428Y-79883548D02*
X61689428Y-79883548D01*
X60092857Y-80246405D02*
X61181428Y-80609262D01*
X61181428Y-79665834D01*
X56665428Y-81842977D02*
X56665428Y-81552691D01*
X56738000Y-81407548D01*
X56883142Y-81262405D01*
X57173428Y-81189834D01*
X57681428Y-81189834D01*
X57971714Y-81262405D01*
X58116857Y-81407548D01*
X58189428Y-81552691D01*
X58189428Y-81842977D01*
X58116857Y-81988120D01*
X57971714Y-82133262D01*
X57681428Y-82205834D01*
X57173428Y-82205834D01*
X56883142Y-82133262D01*
X56738000Y-81988120D01*
X56665428Y-81842977D01*
X56665428Y-80681834D02*
X56665428Y-79738405D01*
X57246000Y-80246405D01*
X57246000Y-80028691D01*
X57318571Y-79883548D01*
X57391142Y-79810977D01*
X57536285Y-79738405D01*
X57899142Y-79738405D01*
X58044285Y-79810977D01*
X58116857Y-79883548D01*
X58189428Y-80028691D01*
X58189428Y-80464120D01*
X58116857Y-80609262D01*
X58044285Y-80681834D01*
X53165428Y-81842977D02*
X53165428Y-81552691D01*
X53238000Y-81407548D01*
X53383142Y-81262405D01*
X53673428Y-81189834D01*
X54181428Y-81189834D01*
X54471714Y-81262405D01*
X54616857Y-81407548D01*
X54689428Y-81552691D01*
X54689428Y-81842977D01*
X54616857Y-81988120D01*
X54471714Y-82133262D01*
X54181428Y-82205834D01*
X53673428Y-82205834D01*
X53383142Y-82133262D01*
X53238000Y-81988120D01*
X53165428Y-81842977D01*
X53310571Y-80609262D02*
X53238000Y-80536691D01*
X53165428Y-80391548D01*
X53165428Y-80028691D01*
X53238000Y-79883548D01*
X53310571Y-79810977D01*
X53455714Y-79738405D01*
X53600857Y-79738405D01*
X53818571Y-79810977D01*
X54689428Y-80681834D01*
X54689428Y-79738405D01*
X49665428Y-81842977D02*
X49665428Y-81552691D01*
X49738000Y-81407548D01*
X49883142Y-81262405D01*
X50173428Y-81189834D01*
X50681428Y-81189834D01*
X50971714Y-81262405D01*
X51116857Y-81407548D01*
X51189428Y-81552691D01*
X51189428Y-81842977D01*
X51116857Y-81988120D01*
X50971714Y-82133262D01*
X50681428Y-82205834D01*
X50173428Y-82205834D01*
X49883142Y-82133262D01*
X49738000Y-81988120D01*
X49665428Y-81842977D01*
X51189428Y-79738405D02*
X51189428Y-80609262D01*
X51189428Y-80173834D02*
X49665428Y-80173834D01*
X49883142Y-80318977D01*
X50028285Y-80464120D01*
X50100857Y-80609262D01*
X47108857Y-82278405D02*
X47108857Y-81117262D01*
X46165428Y-80609262D02*
X47689428Y-80101262D01*
X46165428Y-79593262D01*
X43608857Y-82278405D02*
X43608857Y-81117262D01*
X44189428Y-81697834D02*
X43028285Y-81697834D01*
X42665428Y-80609262D02*
X44189428Y-80101262D01*
X42665428Y-79593262D01*
D14*
X40400000Y-66000000D02*
X41100000Y-66000000D01*
X41100000Y-67200000D02*
X40400000Y-67200000D01*
D15*
X41650000Y-65800000D02*
G75*
G03X41650000Y-65800000I-100000J0D01*
G01*
D10*
X41250000Y-61500000D02*
X41250000Y-65500000D01*
X37250000Y-61500000D02*
X41250000Y-61500000D01*
X37250000Y-65500000D02*
X37250000Y-61500000D01*
X41250000Y-65500000D02*
X37250000Y-65500000D01*
D14*
X39400000Y-49100000D02*
X39100000Y-49100000D01*
X39100000Y-49100000D02*
X39100000Y-52400000D01*
X39100000Y-52400000D02*
X39400000Y-52400000D01*
X41600000Y-49100000D02*
X41900000Y-49100000D01*
X41900000Y-49100000D02*
X41900000Y-52400000D01*
X41900000Y-52400000D02*
X41600000Y-52400000D01*
D10*
X56650000Y-50500000D02*
X56650000Y-47500000D01*
X58850000Y-50500000D02*
X58850000Y-47500000D01*
D14*
X46670000Y-33735000D02*
X46735000Y-33735000D01*
X46670000Y-37265000D02*
X46735000Y-37265000D01*
X40265000Y-33735000D02*
X40330000Y-33735000D01*
X40265000Y-37265000D02*
X40330000Y-37265000D01*
X40330000Y-38590000D02*
X40330000Y-37265000D01*
X46735000Y-37265000D02*
X46735000Y-33735000D01*
X40265000Y-37265000D02*
X40265000Y-33735000D01*
D16*
X76748000Y-71212000D02*
X41748000Y-71212000D01*
X76748000Y-78812000D02*
X76748000Y-71212000D01*
X41748000Y-71212000D02*
X41748000Y-78812000D01*
X41748000Y-78412000D02*
X76748000Y-78412000D01*
X41748000Y-77312000D02*
X76748000Y-77312000D01*
X55748000Y-78412000D02*
X55748000Y-78812000D01*
X48748000Y-78412000D02*
X48748000Y-78812000D01*
X45248000Y-78412000D02*
X45248000Y-78812000D01*
X59248000Y-78412000D02*
X59248000Y-78812000D01*
X62748000Y-78412000D02*
X62748000Y-78812000D01*
X52248000Y-78412000D02*
X52248000Y-78812000D01*
X66248000Y-78412000D02*
X66248000Y-78812000D01*
X73248000Y-78412000D02*
X73248000Y-78812000D01*
X69748000Y-78412000D02*
X69748000Y-78812000D01*
X37430000Y-40250000D02*
X37430000Y-42250000D01*
X33930000Y-46700000D02*
X34405000Y-46700000D01*
X33930000Y-38400000D02*
X33930000Y-46700000D01*
X34405000Y-38400000D02*
X33930000Y-38400000D01*
X37130000Y-46700000D02*
X36655000Y-46700000D01*
X37130000Y-38400000D02*
X37130000Y-46700000D01*
X36655000Y-38400000D02*
X37130000Y-38400000D01*
D14*
X41000000Y-71200000D02*
X41000000Y-79600000D01*
X34500000Y-71200000D02*
X34500000Y-79600000D01*
X34500000Y-71200000D02*
X41000000Y-71200000D01*
D17*
X68635000Y-31700000D02*
X83365000Y-31700000D01*
D18*
X85265000Y-50750000D02*
G75*
G03X85265000Y-50750000I-150000J0D01*
G01*
D17*
X83365000Y-51400000D02*
X83365000Y-53420000D01*
X83365000Y-53420000D02*
X81350000Y-53420000D01*
X69900000Y-53420000D02*
X68635000Y-53420000D01*
X68635000Y-53420000D02*
X68635000Y-50400000D01*
D14*
X30850000Y-69400000D02*
X30850000Y-70100000D01*
X29650000Y-70100000D02*
X29650000Y-69400000D01*
X31150000Y-49150000D02*
X31850000Y-49150000D01*
X31850000Y-50350000D02*
X31150000Y-50350000D01*
X31150000Y-52150000D02*
X31850000Y-52150000D01*
X31850000Y-53350000D02*
X31150000Y-53350000D01*
X57900000Y-33650000D02*
X58600000Y-33650000D01*
X58600000Y-34850000D02*
X57900000Y-34850000D01*
X57400000Y-45650000D02*
X58100000Y-45650000D01*
X58100000Y-46850000D02*
X57400000Y-46850000D01*
X52418750Y-40150000D02*
X52418750Y-40850000D01*
X51218750Y-40850000D02*
X51218750Y-40150000D01*
X52418750Y-52150000D02*
X52418750Y-52850000D01*
X51218750Y-52850000D02*
X51218750Y-52150000D01*
X44650000Y-48650000D02*
X45350000Y-48650000D01*
X45350000Y-49850000D02*
X44650000Y-49850000D01*
X51100000Y-53150000D02*
X51100000Y-53850000D01*
X49900000Y-53850000D02*
X49900000Y-53150000D01*
X60850000Y-50800000D02*
X60150000Y-50800000D01*
X60150000Y-49600000D02*
X60850000Y-49600000D01*
X60150000Y-47200000D02*
X60850000Y-47200000D01*
X60850000Y-48400000D02*
X60150000Y-48400000D01*
X37850000Y-54600000D02*
X37150000Y-54600000D01*
X37150000Y-53400000D02*
X37850000Y-53400000D01*
X27000000Y-68800000D02*
X29000000Y-68800000D01*
X27000000Y-68800000D02*
X27000000Y-72000000D01*
X29000000Y-72000000D02*
X29000000Y-68800000D01*
X27750000Y-55750000D02*
X30950000Y-55750000D01*
X30950000Y-53750000D02*
X27750000Y-53750000D01*
X30950000Y-53750000D02*
X30950000Y-55750000D01*
X83700000Y-60000000D02*
X83700000Y-61000000D01*
X83700000Y-61000000D02*
X85800000Y-61000000D01*
X83700000Y-60000000D02*
X85800000Y-60000000D01*
X83700000Y-63000000D02*
X85800000Y-63000000D01*
X83700000Y-64000000D02*
X85800000Y-64000000D01*
X83700000Y-63000000D02*
X83700000Y-64000000D01*
X58750000Y-33430000D02*
X57750000Y-33430000D01*
X57750000Y-32070000D02*
X58750000Y-32070000D01*
X51570000Y-67750000D02*
X51570000Y-69750000D01*
X49430000Y-69750000D02*
X49430000Y-67750000D01*
X55070000Y-67750000D02*
X55070000Y-69750000D01*
X52930000Y-69750000D02*
X52930000Y-67750000D01*
X56430000Y-69750000D02*
X56430000Y-67750000D01*
X58570000Y-67750000D02*
X58570000Y-69750000D01*
X81500000Y-62820000D02*
X82500000Y-62820000D01*
X82500000Y-64180000D02*
X81500000Y-64180000D01*
X82500000Y-61180000D02*
X81500000Y-61180000D01*
X81500000Y-59820000D02*
X82500000Y-59820000D01*
X81500000Y-56820000D02*
X82500000Y-56820000D01*
X82500000Y-58180000D02*
X81500000Y-58180000D01*
X59930000Y-69750000D02*
X59930000Y-67750000D01*
X62070000Y-67750000D02*
X62070000Y-69750000D01*
X65570000Y-67750000D02*
X65570000Y-69750000D01*
X63430000Y-69750000D02*
X63430000Y-67750000D01*
X82500000Y-67180000D02*
X81500000Y-67180000D01*
X81500000Y-65820000D02*
X82500000Y-65820000D01*
X66930000Y-69750000D02*
X66930000Y-67750000D01*
X69070000Y-67750000D02*
X69070000Y-69750000D01*
X38000000Y-49730000D02*
X37000000Y-49730000D01*
X37000000Y-48370000D02*
X38000000Y-48370000D01*
X72570000Y-67800000D02*
X72570000Y-69800000D01*
X70430000Y-69800000D02*
X70430000Y-67800000D01*
X37000000Y-51770000D02*
X38000000Y-51770000D01*
X38000000Y-53130000D02*
X37000000Y-53130000D01*
X38000000Y-51430000D02*
X37000000Y-51430000D01*
X37000000Y-50070000D02*
X38000000Y-50070000D01*
X73930000Y-69750000D02*
X73930000Y-67750000D01*
X76070000Y-67750000D02*
X76070000Y-69750000D01*
D16*
X56575000Y-35250000D02*
X55325000Y-35250000D01*
X56575000Y-38425000D02*
X59925000Y-38425000D01*
X56575000Y-35075000D02*
X59925000Y-35075000D01*
X56575000Y-38425000D02*
X56575000Y-38175000D01*
X59925000Y-38425000D02*
X59925000Y-38175000D01*
X59925000Y-35075000D02*
X59925000Y-35325000D01*
X56575000Y-35075000D02*
X56575000Y-35250000D01*
D14*
X53860000Y-61900000D02*
X53860000Y-60100000D01*
X50640000Y-60100000D02*
X50640000Y-62550000D01*
X57640000Y-60100000D02*
X57640000Y-62550000D01*
X60860000Y-61900000D02*
X60860000Y-60100000D01*
D16*
X47443750Y-50125000D02*
X47968750Y-50125000D01*
X47443750Y-42875000D02*
X47968750Y-42875000D01*
X54693750Y-42875000D02*
X54168750Y-42875000D01*
X54693750Y-50125000D02*
X54168750Y-50125000D01*
X47443750Y-42875000D02*
X47443750Y-43400000D01*
X54693750Y-42875000D02*
X54693750Y-43400000D01*
X47443750Y-50125000D02*
X47443750Y-49600000D01*
D14*
X67860000Y-61900000D02*
X67860000Y-60100000D01*
X64640000Y-60100000D02*
X64640000Y-62550000D01*
X71640000Y-60100000D02*
X71640000Y-62550000D01*
X74860000Y-61900000D02*
X74860000Y-60100000D01*
X50670000Y-65510000D02*
X50670000Y-64050000D01*
X53830000Y-65510000D02*
X53830000Y-63350000D01*
X53830000Y-65510000D02*
X52900000Y-65510000D01*
X50670000Y-65510000D02*
X51600000Y-65510000D01*
X57670000Y-65510000D02*
X58600000Y-65510000D01*
X60830000Y-65510000D02*
X59900000Y-65510000D01*
X60830000Y-65510000D02*
X60830000Y-63350000D01*
X57670000Y-65510000D02*
X57670000Y-64050000D01*
X30750000Y-71430000D02*
X32750000Y-71430000D01*
X32750000Y-73570000D02*
X30750000Y-73570000D01*
X29820000Y-50250000D02*
X29820000Y-52250000D01*
X27680000Y-52250000D02*
X27680000Y-50250000D01*
X33850000Y-69400000D02*
X33850000Y-70100000D01*
X32650000Y-70100000D02*
X32650000Y-69400000D01*
X26560000Y-64930000D02*
X26560000Y-57310000D01*
X27320000Y-65690000D02*
X26560000Y-64930000D01*
X34940000Y-64930000D02*
X34180000Y-65690000D01*
X34940000Y-57310000D02*
X34940000Y-64930000D01*
X34180000Y-65690000D02*
X32260000Y-65690000D01*
X27320000Y-65690000D02*
X29240000Y-65690000D01*
X26560000Y-57310000D02*
X29240000Y-57310000D01*
X34940000Y-57310000D02*
X32260000Y-57310000D01*
X35150000Y-63000000D02*
X35150000Y-64000000D01*
X36850000Y-64000000D02*
X36850000Y-63000000D01*
X40500000Y-59650000D02*
X39500000Y-59650000D01*
X39500000Y-61350000D02*
X40500000Y-61350000D01*
X88580000Y-48670000D02*
X88580000Y-50000000D01*
X87250000Y-48670000D02*
X88580000Y-48670000D01*
X88580000Y-51270000D02*
X88580000Y-53870000D01*
X85980000Y-51270000D02*
X88580000Y-51270000D01*
X85980000Y-48670000D02*
X85980000Y-51270000D01*
X88580000Y-53870000D02*
X85920000Y-53870000D01*
X85980000Y-48670000D02*
X85920000Y-48670000D01*
X85920000Y-48670000D02*
X85920000Y-53870000D01*
X30450000Y-41050000D02*
X30450000Y-44000000D01*
X33550000Y-43450000D02*
X33550000Y-41050000D01*
X83700000Y-57000000D02*
X85800000Y-57000000D01*
X83700000Y-58000000D02*
X85800000Y-58000000D01*
X83700000Y-57000000D02*
X83700000Y-58000000D01*
X64670000Y-65510000D02*
X65600000Y-65510000D01*
X67830000Y-65510000D02*
X66900000Y-65510000D01*
X67830000Y-65510000D02*
X67830000Y-63350000D01*
X64670000Y-65510000D02*
X64670000Y-64050000D01*
X83700000Y-66000000D02*
X83700000Y-67000000D01*
X83700000Y-67000000D02*
X85800000Y-67000000D01*
X83700000Y-66000000D02*
X85800000Y-66000000D01*
X71670000Y-65510000D02*
X71670000Y-64050000D01*
X74830000Y-65510000D02*
X74830000Y-63350000D01*
X74830000Y-65510000D02*
X73900000Y-65510000D01*
X71670000Y-65510000D02*
X72600000Y-65510000D01*
X45930000Y-66000000D02*
X45930000Y-64000000D01*
X48070000Y-64000000D02*
X48070000Y-66000000D01*
X31500000Y-45570000D02*
X32500000Y-45570000D01*
X32500000Y-46930000D02*
X31500000Y-46930000D01*
X43080000Y-62000000D02*
X43080000Y-63000000D01*
X41720000Y-63000000D02*
X41720000Y-62000000D01*
X41720000Y-65150000D02*
X41720000Y-64150000D01*
X43080000Y-64150000D02*
X43080000Y-65150000D01*
D16*
X40583333Y-68457142D02*
X40535714Y-68504761D01*
X40392857Y-68552380D01*
X40297619Y-68552380D01*
X40154761Y-68504761D01*
X40059523Y-68409523D01*
X40011904Y-68314285D01*
X39964285Y-68123809D01*
X39964285Y-67980952D01*
X40011904Y-67790476D01*
X40059523Y-67695238D01*
X40154761Y-67600000D01*
X40297619Y-67552380D01*
X40392857Y-67552380D01*
X40535714Y-67600000D01*
X40583333Y-67647619D01*
X40916666Y-67552380D02*
X41583333Y-67552380D01*
X41154761Y-68552380D01*
D10*
X37225904Y-65943619D02*
X37225904Y-66766095D01*
X37274285Y-66862857D01*
X37322666Y-66911238D01*
X37419428Y-66959619D01*
X37612952Y-66959619D01*
X37709714Y-66911238D01*
X37758095Y-66862857D01*
X37806476Y-66766095D01*
X37806476Y-65943619D01*
X38241904Y-66040380D02*
X38290285Y-65992000D01*
X38387047Y-65943619D01*
X38628952Y-65943619D01*
X38725714Y-65992000D01*
X38774095Y-66040380D01*
X38822476Y-66137142D01*
X38822476Y-66233904D01*
X38774095Y-66379047D01*
X38193523Y-66959619D01*
X38822476Y-66959619D01*
X39145333Y-54209238D02*
X39290476Y-54257619D01*
X39532380Y-54257619D01*
X39629142Y-54209238D01*
X39677523Y-54160857D01*
X39725904Y-54064095D01*
X39725904Y-53967333D01*
X39677523Y-53870571D01*
X39629142Y-53822190D01*
X39532380Y-53773809D01*
X39338857Y-53725428D01*
X39242095Y-53677047D01*
X39193714Y-53628666D01*
X39145333Y-53531904D01*
X39145333Y-53435142D01*
X39193714Y-53338380D01*
X39242095Y-53290000D01*
X39338857Y-53241619D01*
X39580761Y-53241619D01*
X39725904Y-53290000D01*
X40064571Y-53241619D02*
X40306476Y-54257619D01*
X40500000Y-53531904D01*
X40693523Y-54257619D01*
X40935428Y-53241619D01*
X41854666Y-54257619D02*
X41274095Y-54257619D01*
X41564380Y-54257619D02*
X41564380Y-53241619D01*
X41467619Y-53386761D01*
X41370857Y-53483523D01*
X41274095Y-53531904D01*
X57266190Y-51725809D02*
X57266190Y-52209619D01*
X56927523Y-51193619D02*
X57266190Y-51725809D01*
X57604857Y-51193619D01*
X58475714Y-52209619D02*
X57895142Y-52209619D01*
X58185428Y-52209619D02*
X58185428Y-51193619D01*
X58088666Y-51338761D01*
X57991904Y-51435523D01*
X57895142Y-51483904D01*
X38911333Y-34693619D02*
X38911333Y-35419333D01*
X38862952Y-35564476D01*
X38766190Y-35661238D01*
X38621047Y-35709619D01*
X38524285Y-35709619D01*
X39298380Y-34693619D02*
X39927333Y-34693619D01*
X39588666Y-35080666D01*
X39733809Y-35080666D01*
X39830571Y-35129047D01*
X39878952Y-35177428D01*
X39927333Y-35274190D01*
X39927333Y-35516095D01*
X39878952Y-35612857D01*
X39830571Y-35661238D01*
X39733809Y-35709619D01*
X39443523Y-35709619D01*
X39346761Y-35661238D01*
X39298380Y-35612857D01*
X42161333Y-69693619D02*
X42161333Y-70419333D01*
X42112952Y-70564476D01*
X42016190Y-70661238D01*
X41871047Y-70709619D01*
X41774285Y-70709619D01*
X43177333Y-70709619D02*
X42596761Y-70709619D01*
X42887047Y-70709619D02*
X42887047Y-69693619D01*
X42790285Y-69838761D01*
X42693523Y-69935523D01*
X42596761Y-69983904D01*
X35161333Y-36693619D02*
X35161333Y-37419333D01*
X35112952Y-37564476D01*
X35016190Y-37661238D01*
X34871047Y-37709619D01*
X34774285Y-37709619D01*
X35596761Y-36790380D02*
X35645142Y-36742000D01*
X35741904Y-36693619D01*
X35983809Y-36693619D01*
X36080571Y-36742000D01*
X36128952Y-36790380D01*
X36177333Y-36887142D01*
X36177333Y-36983904D01*
X36128952Y-37129047D01*
X35548380Y-37709619D01*
X36177333Y-37709619D01*
X37000095Y-70709619D02*
X37000095Y-69693619D01*
X37242000Y-69693619D01*
X37387142Y-69742000D01*
X37483904Y-69838761D01*
X37532285Y-69935523D01*
X37580666Y-70129047D01*
X37580666Y-70274190D01*
X37532285Y-70467714D01*
X37483904Y-70564476D01*
X37387142Y-70661238D01*
X37242000Y-70709619D01*
X37000095Y-70709619D01*
X37919333Y-69693619D02*
X38596666Y-69693619D01*
X38161238Y-70709619D01*
X67975904Y-53693619D02*
X67975904Y-54516095D01*
X68024285Y-54612857D01*
X68072666Y-54661238D01*
X68169428Y-54709619D01*
X68362952Y-54709619D01*
X68459714Y-54661238D01*
X68508095Y-54612857D01*
X68556476Y-54516095D01*
X68556476Y-53693619D01*
X69185428Y-54129047D02*
X69088666Y-54080666D01*
X69040285Y-54032285D01*
X68991904Y-53935523D01*
X68991904Y-53887142D01*
X69040285Y-53790380D01*
X69088666Y-53742000D01*
X69185428Y-53693619D01*
X69378952Y-53693619D01*
X69475714Y-53742000D01*
X69524095Y-53790380D01*
X69572476Y-53887142D01*
X69572476Y-53935523D01*
X69524095Y-54032285D01*
X69475714Y-54080666D01*
X69378952Y-54129047D01*
X69185428Y-54129047D01*
X69088666Y-54177428D01*
X69040285Y-54225809D01*
X68991904Y-54322571D01*
X68991904Y-54516095D01*
X69040285Y-54612857D01*
X69088666Y-54661238D01*
X69185428Y-54709619D01*
X69378952Y-54709619D01*
X69475714Y-54661238D01*
X69524095Y-54612857D01*
X69572476Y-54516095D01*
X69572476Y-54322571D01*
X69524095Y-54225809D01*
X69475714Y-54177428D01*
X69378952Y-54129047D01*
X30080666Y-68112857D02*
X30032285Y-68161238D01*
X29887142Y-68209619D01*
X29790380Y-68209619D01*
X29645238Y-68161238D01*
X29548476Y-68064476D01*
X29500095Y-67967714D01*
X29451714Y-67774190D01*
X29451714Y-67629047D01*
X29500095Y-67435523D01*
X29548476Y-67338761D01*
X29645238Y-67242000D01*
X29790380Y-67193619D01*
X29887142Y-67193619D01*
X30032285Y-67242000D01*
X30080666Y-67290380D01*
X30467714Y-67290380D02*
X30516095Y-67242000D01*
X30612857Y-67193619D01*
X30854761Y-67193619D01*
X30951523Y-67242000D01*
X30999904Y-67290380D01*
X31048285Y-67387142D01*
X31048285Y-67483904D01*
X30999904Y-67629047D01*
X30419333Y-68209619D01*
X31048285Y-68209619D01*
X31330666Y-48762857D02*
X31282285Y-48811238D01*
X31137142Y-48859619D01*
X31040380Y-48859619D01*
X30895238Y-48811238D01*
X30798476Y-48714476D01*
X30750095Y-48617714D01*
X30701714Y-48424190D01*
X30701714Y-48279047D01*
X30750095Y-48085523D01*
X30798476Y-47988761D01*
X30895238Y-47892000D01*
X31040380Y-47843619D01*
X31137142Y-47843619D01*
X31282285Y-47892000D01*
X31330666Y-47940380D01*
X31669333Y-47843619D02*
X32298285Y-47843619D01*
X31959619Y-48230666D01*
X32104761Y-48230666D01*
X32201523Y-48279047D01*
X32249904Y-48327428D01*
X32298285Y-48424190D01*
X32298285Y-48666095D01*
X32249904Y-48762857D01*
X32201523Y-48811238D01*
X32104761Y-48859619D01*
X31814476Y-48859619D01*
X31717714Y-48811238D01*
X31669333Y-48762857D01*
X31330666Y-51762857D02*
X31282285Y-51811238D01*
X31137142Y-51859619D01*
X31040380Y-51859619D01*
X30895238Y-51811238D01*
X30798476Y-51714476D01*
X30750095Y-51617714D01*
X30701714Y-51424190D01*
X30701714Y-51279047D01*
X30750095Y-51085523D01*
X30798476Y-50988761D01*
X30895238Y-50892000D01*
X31040380Y-50843619D01*
X31137142Y-50843619D01*
X31282285Y-50892000D01*
X31330666Y-50940380D01*
X32201523Y-51182285D02*
X32201523Y-51859619D01*
X31959619Y-50795238D02*
X31717714Y-51520952D01*
X32346666Y-51520952D01*
X60580666Y-34612857D02*
X60532285Y-34661238D01*
X60387142Y-34709619D01*
X60290380Y-34709619D01*
X60145238Y-34661238D01*
X60048476Y-34564476D01*
X60000095Y-34467714D01*
X59951714Y-34274190D01*
X59951714Y-34129047D01*
X60000095Y-33935523D01*
X60048476Y-33838761D01*
X60145238Y-33742000D01*
X60290380Y-33693619D01*
X60387142Y-33693619D01*
X60532285Y-33742000D01*
X60580666Y-33790380D01*
X61064476Y-34709619D02*
X61258000Y-34709619D01*
X61354761Y-34661238D01*
X61403142Y-34612857D01*
X61499904Y-34467714D01*
X61548285Y-34274190D01*
X61548285Y-33887142D01*
X61499904Y-33790380D01*
X61451523Y-33742000D01*
X61354761Y-33693619D01*
X61161238Y-33693619D01*
X61064476Y-33742000D01*
X61016095Y-33790380D01*
X60967714Y-33887142D01*
X60967714Y-34129047D01*
X61016095Y-34225809D01*
X61064476Y-34274190D01*
X61161238Y-34322571D01*
X61354761Y-34322571D01*
X61451523Y-34274190D01*
X61499904Y-34225809D01*
X61548285Y-34129047D01*
X57096857Y-45362857D02*
X57048476Y-45411238D01*
X56903333Y-45459619D01*
X56806571Y-45459619D01*
X56661428Y-45411238D01*
X56564666Y-45314476D01*
X56516285Y-45217714D01*
X56467904Y-45024190D01*
X56467904Y-44879047D01*
X56516285Y-44685523D01*
X56564666Y-44588761D01*
X56661428Y-44492000D01*
X56806571Y-44443619D01*
X56903333Y-44443619D01*
X57048476Y-44492000D01*
X57096857Y-44540380D01*
X58064476Y-45459619D02*
X57483904Y-45459619D01*
X57774190Y-45459619D02*
X57774190Y-44443619D01*
X57677428Y-44588761D01*
X57580666Y-44685523D01*
X57483904Y-44733904D01*
X58693428Y-44443619D02*
X58790190Y-44443619D01*
X58886952Y-44492000D01*
X58935333Y-44540380D01*
X58983714Y-44637142D01*
X59032095Y-44830666D01*
X59032095Y-45072571D01*
X58983714Y-45266095D01*
X58935333Y-45362857D01*
X58886952Y-45411238D01*
X58790190Y-45459619D01*
X58693428Y-45459619D01*
X58596666Y-45411238D01*
X58548285Y-45362857D01*
X58499904Y-45266095D01*
X58451523Y-45072571D01*
X58451523Y-44830666D01*
X58499904Y-44637142D01*
X58548285Y-44540380D01*
X58596666Y-44492000D01*
X58693428Y-44443619D01*
X51096857Y-38862857D02*
X51048476Y-38911238D01*
X50903333Y-38959619D01*
X50806571Y-38959619D01*
X50661428Y-38911238D01*
X50564666Y-38814476D01*
X50516285Y-38717714D01*
X50467904Y-38524190D01*
X50467904Y-38379047D01*
X50516285Y-38185523D01*
X50564666Y-38088761D01*
X50661428Y-37992000D01*
X50806571Y-37943619D01*
X50903333Y-37943619D01*
X51048476Y-37992000D01*
X51096857Y-38040380D01*
X52064476Y-38959619D02*
X51483904Y-38959619D01*
X51774190Y-38959619D02*
X51774190Y-37943619D01*
X51677428Y-38088761D01*
X51580666Y-38185523D01*
X51483904Y-38233904D01*
X52403142Y-37943619D02*
X53032095Y-37943619D01*
X52693428Y-38330666D01*
X52838571Y-38330666D01*
X52935333Y-38379047D01*
X52983714Y-38427428D01*
X53032095Y-38524190D01*
X53032095Y-38766095D01*
X52983714Y-38862857D01*
X52935333Y-38911238D01*
X52838571Y-38959619D01*
X52548285Y-38959619D01*
X52451523Y-38911238D01*
X52403142Y-38862857D01*
X53346857Y-52862857D02*
X53298476Y-52911238D01*
X53153333Y-52959619D01*
X53056571Y-52959619D01*
X52911428Y-52911238D01*
X52814666Y-52814476D01*
X52766285Y-52717714D01*
X52717904Y-52524190D01*
X52717904Y-52379047D01*
X52766285Y-52185523D01*
X52814666Y-52088761D01*
X52911428Y-51992000D01*
X53056571Y-51943619D01*
X53153333Y-51943619D01*
X53298476Y-51992000D01*
X53346857Y-52040380D01*
X54314476Y-52959619D02*
X53733904Y-52959619D01*
X54024190Y-52959619D02*
X54024190Y-51943619D01*
X53927428Y-52088761D01*
X53830666Y-52185523D01*
X53733904Y-52233904D01*
X55282095Y-52959619D02*
X54701523Y-52959619D01*
X54991809Y-52959619D02*
X54991809Y-51943619D01*
X54895047Y-52088761D01*
X54798285Y-52185523D01*
X54701523Y-52233904D01*
X44346857Y-48362857D02*
X44298476Y-48411238D01*
X44153333Y-48459619D01*
X44056571Y-48459619D01*
X43911428Y-48411238D01*
X43814666Y-48314476D01*
X43766285Y-48217714D01*
X43717904Y-48024190D01*
X43717904Y-47879047D01*
X43766285Y-47685523D01*
X43814666Y-47588761D01*
X43911428Y-47492000D01*
X44056571Y-47443619D01*
X44153333Y-47443619D01*
X44298476Y-47492000D01*
X44346857Y-47540380D01*
X45314476Y-48459619D02*
X44733904Y-48459619D01*
X45024190Y-48459619D02*
X45024190Y-47443619D01*
X44927428Y-47588761D01*
X44830666Y-47685523D01*
X44733904Y-47733904D01*
X45701523Y-47540380D02*
X45749904Y-47492000D01*
X45846666Y-47443619D01*
X46088571Y-47443619D01*
X46185333Y-47492000D01*
X46233714Y-47540380D01*
X46282095Y-47637142D01*
X46282095Y-47733904D01*
X46233714Y-47879047D01*
X45653142Y-48459619D01*
X46282095Y-48459619D01*
X47596857Y-53862857D02*
X47548476Y-53911238D01*
X47403333Y-53959619D01*
X47306571Y-53959619D01*
X47161428Y-53911238D01*
X47064666Y-53814476D01*
X47016285Y-53717714D01*
X46967904Y-53524190D01*
X46967904Y-53379047D01*
X47016285Y-53185523D01*
X47064666Y-53088761D01*
X47161428Y-52992000D01*
X47306571Y-52943619D01*
X47403333Y-52943619D01*
X47548476Y-52992000D01*
X47596857Y-53040380D01*
X48564476Y-53959619D02*
X47983904Y-53959619D01*
X48274190Y-53959619D02*
X48274190Y-52943619D01*
X48177428Y-53088761D01*
X48080666Y-53185523D01*
X47983904Y-53233904D01*
X49435333Y-53282285D02*
X49435333Y-53959619D01*
X49193428Y-52895238D02*
X48951523Y-53620952D01*
X49580476Y-53620952D01*
X59846857Y-51962857D02*
X59798476Y-52011238D01*
X59653333Y-52059619D01*
X59556571Y-52059619D01*
X59411428Y-52011238D01*
X59314666Y-51914476D01*
X59266285Y-51817714D01*
X59217904Y-51624190D01*
X59217904Y-51479047D01*
X59266285Y-51285523D01*
X59314666Y-51188761D01*
X59411428Y-51092000D01*
X59556571Y-51043619D01*
X59653333Y-51043619D01*
X59798476Y-51092000D01*
X59846857Y-51140380D01*
X60814476Y-52059619D02*
X60233904Y-52059619D01*
X60524190Y-52059619D02*
X60524190Y-51043619D01*
X60427428Y-51188761D01*
X60330666Y-51285523D01*
X60233904Y-51333904D01*
X61685333Y-51043619D02*
X61491809Y-51043619D01*
X61395047Y-51092000D01*
X61346666Y-51140380D01*
X61249904Y-51285523D01*
X61201523Y-51479047D01*
X61201523Y-51866095D01*
X61249904Y-51962857D01*
X61298285Y-52011238D01*
X61395047Y-52059619D01*
X61588571Y-52059619D01*
X61685333Y-52011238D01*
X61733714Y-51962857D01*
X61782095Y-51866095D01*
X61782095Y-51624190D01*
X61733714Y-51527428D01*
X61685333Y-51479047D01*
X61588571Y-51430666D01*
X61395047Y-51430666D01*
X61298285Y-51479047D01*
X61249904Y-51527428D01*
X61201523Y-51624190D01*
X59846857Y-46862857D02*
X59798476Y-46911238D01*
X59653333Y-46959619D01*
X59556571Y-46959619D01*
X59411428Y-46911238D01*
X59314666Y-46814476D01*
X59266285Y-46717714D01*
X59217904Y-46524190D01*
X59217904Y-46379047D01*
X59266285Y-46185523D01*
X59314666Y-46088761D01*
X59411428Y-45992000D01*
X59556571Y-45943619D01*
X59653333Y-45943619D01*
X59798476Y-45992000D01*
X59846857Y-46040380D01*
X60814476Y-46959619D02*
X60233904Y-46959619D01*
X60524190Y-46959619D02*
X60524190Y-45943619D01*
X60427428Y-46088761D01*
X60330666Y-46185523D01*
X60233904Y-46233904D01*
X61153142Y-45943619D02*
X61830476Y-45943619D01*
X61395047Y-46959619D01*
X34096857Y-54362857D02*
X34048476Y-54411238D01*
X33903333Y-54459619D01*
X33806571Y-54459619D01*
X33661428Y-54411238D01*
X33564666Y-54314476D01*
X33516285Y-54217714D01*
X33467904Y-54024190D01*
X33467904Y-53879047D01*
X33516285Y-53685523D01*
X33564666Y-53588761D01*
X33661428Y-53492000D01*
X33806571Y-53443619D01*
X33903333Y-53443619D01*
X34048476Y-53492000D01*
X34096857Y-53540380D01*
X35064476Y-54459619D02*
X34483904Y-54459619D01*
X34774190Y-54459619D02*
X34774190Y-53443619D01*
X34677428Y-53588761D01*
X34580666Y-53685523D01*
X34483904Y-53733904D01*
X35645047Y-53879047D02*
X35548285Y-53830666D01*
X35499904Y-53782285D01*
X35451523Y-53685523D01*
X35451523Y-53637142D01*
X35499904Y-53540380D01*
X35548285Y-53492000D01*
X35645047Y-53443619D01*
X35838571Y-53443619D01*
X35935333Y-53492000D01*
X35983714Y-53540380D01*
X36032095Y-53637142D01*
X36032095Y-53685523D01*
X35983714Y-53782285D01*
X35935333Y-53830666D01*
X35838571Y-53879047D01*
X35645047Y-53879047D01*
X35548285Y-53927428D01*
X35499904Y-53975809D01*
X35451523Y-54072571D01*
X35451523Y-54266095D01*
X35499904Y-54362857D01*
X35548285Y-54411238D01*
X35645047Y-54459619D01*
X35838571Y-54459619D01*
X35935333Y-54411238D01*
X35983714Y-54362857D01*
X36032095Y-54266095D01*
X36032095Y-54072571D01*
X35983714Y-53975809D01*
X35935333Y-53927428D01*
X35838571Y-53879047D01*
X27250095Y-68459619D02*
X27250095Y-67443619D01*
X27492000Y-67443619D01*
X27637142Y-67492000D01*
X27733904Y-67588761D01*
X27782285Y-67685523D01*
X27830666Y-67879047D01*
X27830666Y-68024190D01*
X27782285Y-68217714D01*
X27733904Y-68314476D01*
X27637142Y-68411238D01*
X27492000Y-68459619D01*
X27250095Y-68459619D01*
X28217714Y-67540380D02*
X28266095Y-67492000D01*
X28362857Y-67443619D01*
X28604761Y-67443619D01*
X28701523Y-67492000D01*
X28749904Y-67540380D01*
X28798285Y-67637142D01*
X28798285Y-67733904D01*
X28749904Y-67879047D01*
X28169333Y-68459619D01*
X28798285Y-68459619D01*
X31350095Y-55209619D02*
X31350095Y-54193619D01*
X31592000Y-54193619D01*
X31737142Y-54242000D01*
X31833904Y-54338761D01*
X31882285Y-54435523D01*
X31930666Y-54629047D01*
X31930666Y-54774190D01*
X31882285Y-54967714D01*
X31833904Y-55064476D01*
X31737142Y-55161238D01*
X31592000Y-55209619D01*
X31350095Y-55209619D01*
X32269333Y-54193619D02*
X32898285Y-54193619D01*
X32559619Y-54580666D01*
X32704761Y-54580666D01*
X32801523Y-54629047D01*
X32849904Y-54677428D01*
X32898285Y-54774190D01*
X32898285Y-55016095D01*
X32849904Y-55112857D01*
X32801523Y-55161238D01*
X32704761Y-55209619D01*
X32414476Y-55209619D01*
X32317714Y-55161238D01*
X32269333Y-55112857D01*
X78220500Y-61478166D02*
X78220500Y-60589166D01*
X78432166Y-60589166D01*
X78559166Y-60631500D01*
X78643833Y-60716166D01*
X78686166Y-60800833D01*
X78728500Y-60970166D01*
X78728500Y-61097166D01*
X78686166Y-61266500D01*
X78643833Y-61351166D01*
X78559166Y-61435833D01*
X78432166Y-61478166D01*
X78220500Y-61478166D01*
X79575166Y-61478166D02*
X79067166Y-61478166D01*
X79321166Y-61478166D02*
X79321166Y-60589166D01*
X79236500Y-60716166D01*
X79151833Y-60800833D01*
X79067166Y-60843166D01*
X79913833Y-60673833D02*
X79956166Y-60631500D01*
X80040833Y-60589166D01*
X80252500Y-60589166D01*
X80337166Y-60631500D01*
X80379500Y-60673833D01*
X80421833Y-60758500D01*
X80421833Y-60843166D01*
X80379500Y-60970166D01*
X79871500Y-61478166D01*
X80421833Y-61478166D01*
X78220500Y-63478166D02*
X78220500Y-62589166D01*
X78432166Y-62589166D01*
X78559166Y-62631500D01*
X78643833Y-62716166D01*
X78686166Y-62800833D01*
X78728500Y-62970166D01*
X78728500Y-63097166D01*
X78686166Y-63266500D01*
X78643833Y-63351166D01*
X78559166Y-63435833D01*
X78432166Y-63478166D01*
X78220500Y-63478166D01*
X79575166Y-63478166D02*
X79067166Y-63478166D01*
X79321166Y-63478166D02*
X79321166Y-62589166D01*
X79236500Y-62716166D01*
X79151833Y-62800833D01*
X79067166Y-62843166D01*
X79871500Y-62589166D02*
X80421833Y-62589166D01*
X80125500Y-62927833D01*
X80252500Y-62927833D01*
X80337166Y-62970166D01*
X80379500Y-63012500D01*
X80421833Y-63097166D01*
X80421833Y-63308833D01*
X80379500Y-63393500D01*
X80337166Y-63435833D01*
X80252500Y-63478166D01*
X79998500Y-63478166D01*
X79913833Y-63435833D01*
X79871500Y-63393500D01*
X60330666Y-33209619D02*
X59992000Y-32725809D01*
X59750095Y-33209619D02*
X59750095Y-32193619D01*
X60137142Y-32193619D01*
X60233904Y-32242000D01*
X60282285Y-32290380D01*
X60330666Y-32387142D01*
X60330666Y-32532285D01*
X60282285Y-32629047D01*
X60233904Y-32677428D01*
X60137142Y-32725809D01*
X59750095Y-32725809D01*
X60669333Y-32193619D02*
X61298285Y-32193619D01*
X60959619Y-32580666D01*
X61104761Y-32580666D01*
X61201523Y-32629047D01*
X61249904Y-32677428D01*
X61298285Y-32774190D01*
X61298285Y-33016095D01*
X61249904Y-33112857D01*
X61201523Y-33161238D01*
X61104761Y-33209619D01*
X60814476Y-33209619D01*
X60717714Y-33161238D01*
X60669333Y-33112857D01*
X52652166Y-68898166D02*
X52228833Y-69194500D01*
X52652166Y-69406166D02*
X51763166Y-69406166D01*
X51763166Y-69067500D01*
X51805500Y-68982833D01*
X51847833Y-68940500D01*
X51932500Y-68898166D01*
X52059500Y-68898166D01*
X52144166Y-68940500D01*
X52186500Y-68982833D01*
X52228833Y-69067500D01*
X52228833Y-69406166D01*
X52059500Y-68136166D02*
X52652166Y-68136166D01*
X51720833Y-68347833D02*
X52355833Y-68559500D01*
X52355833Y-68009166D01*
X56152166Y-68898166D02*
X55728833Y-69194500D01*
X56152166Y-69406166D02*
X55263166Y-69406166D01*
X55263166Y-69067500D01*
X55305500Y-68982833D01*
X55347833Y-68940500D01*
X55432500Y-68898166D01*
X55559500Y-68898166D01*
X55644166Y-68940500D01*
X55686500Y-68982833D01*
X55728833Y-69067500D01*
X55728833Y-69406166D01*
X55263166Y-68093833D02*
X55263166Y-68517166D01*
X55686500Y-68559500D01*
X55644166Y-68517166D01*
X55601833Y-68432500D01*
X55601833Y-68220833D01*
X55644166Y-68136166D01*
X55686500Y-68093833D01*
X55771166Y-68051500D01*
X55982833Y-68051500D01*
X56067500Y-68093833D01*
X56109833Y-68136166D01*
X56152166Y-68220833D01*
X56152166Y-68432500D01*
X56109833Y-68517166D01*
X56067500Y-68559500D01*
X59652166Y-68898166D02*
X59228833Y-69194500D01*
X59652166Y-69406166D02*
X58763166Y-69406166D01*
X58763166Y-69067500D01*
X58805500Y-68982833D01*
X58847833Y-68940500D01*
X58932500Y-68898166D01*
X59059500Y-68898166D01*
X59144166Y-68940500D01*
X59186500Y-68982833D01*
X59228833Y-69067500D01*
X59228833Y-69406166D01*
X58763166Y-68136166D02*
X58763166Y-68305500D01*
X58805500Y-68390166D01*
X58847833Y-68432500D01*
X58974833Y-68517166D01*
X59144166Y-68559500D01*
X59482833Y-68559500D01*
X59567500Y-68517166D01*
X59609833Y-68474833D01*
X59652166Y-68390166D01*
X59652166Y-68220833D01*
X59609833Y-68136166D01*
X59567500Y-68093833D01*
X59482833Y-68051500D01*
X59271166Y-68051500D01*
X59186500Y-68093833D01*
X59144166Y-68136166D01*
X59101833Y-68220833D01*
X59101833Y-68390166D01*
X59144166Y-68474833D01*
X59186500Y-68517166D01*
X59271166Y-68559500D01*
X76151833Y-63478166D02*
X75855500Y-63054833D01*
X75643833Y-63478166D02*
X75643833Y-62589166D01*
X75982500Y-62589166D01*
X76067166Y-62631500D01*
X76109500Y-62673833D01*
X76151833Y-62758500D01*
X76151833Y-62885500D01*
X76109500Y-62970166D01*
X76067166Y-63012500D01*
X75982500Y-63054833D01*
X75643833Y-63054833D01*
X76448166Y-62589166D02*
X77040833Y-62589166D01*
X76659833Y-63478166D01*
X76151833Y-61478166D02*
X75855500Y-61054833D01*
X75643833Y-61478166D02*
X75643833Y-60589166D01*
X75982500Y-60589166D01*
X76067166Y-60631500D01*
X76109500Y-60673833D01*
X76151833Y-60758500D01*
X76151833Y-60885500D01*
X76109500Y-60970166D01*
X76067166Y-61012500D01*
X75982500Y-61054833D01*
X75643833Y-61054833D01*
X76659833Y-60970166D02*
X76575166Y-60927833D01*
X76532833Y-60885500D01*
X76490500Y-60800833D01*
X76490500Y-60758500D01*
X76532833Y-60673833D01*
X76575166Y-60631500D01*
X76659833Y-60589166D01*
X76829166Y-60589166D01*
X76913833Y-60631500D01*
X76956166Y-60673833D01*
X76998500Y-60758500D01*
X76998500Y-60800833D01*
X76956166Y-60885500D01*
X76913833Y-60927833D01*
X76829166Y-60970166D01*
X76659833Y-60970166D01*
X76575166Y-61012500D01*
X76532833Y-61054833D01*
X76490500Y-61139500D01*
X76490500Y-61308833D01*
X76532833Y-61393500D01*
X76575166Y-61435833D01*
X76659833Y-61478166D01*
X76829166Y-61478166D01*
X76913833Y-61435833D01*
X76956166Y-61393500D01*
X76998500Y-61308833D01*
X76998500Y-61139500D01*
X76956166Y-61054833D01*
X76913833Y-61012500D01*
X76829166Y-60970166D01*
X76151833Y-59652166D02*
X75855500Y-59228833D01*
X75643833Y-59652166D02*
X75643833Y-58763166D01*
X75982500Y-58763166D01*
X76067166Y-58805500D01*
X76109500Y-58847833D01*
X76151833Y-58932500D01*
X76151833Y-59059500D01*
X76109500Y-59144166D01*
X76067166Y-59186500D01*
X75982500Y-59228833D01*
X75643833Y-59228833D01*
X76575166Y-59652166D02*
X76744500Y-59652166D01*
X76829166Y-59609833D01*
X76871500Y-59567500D01*
X76956166Y-59440500D01*
X76998500Y-59271166D01*
X76998500Y-58932500D01*
X76956166Y-58847833D01*
X76913833Y-58805500D01*
X76829166Y-58763166D01*
X76659833Y-58763166D01*
X76575166Y-58805500D01*
X76532833Y-58847833D01*
X76490500Y-58932500D01*
X76490500Y-59144166D01*
X76532833Y-59228833D01*
X76575166Y-59271166D01*
X76659833Y-59313500D01*
X76829166Y-59313500D01*
X76913833Y-59271166D01*
X76956166Y-59228833D01*
X76998500Y-59144166D01*
X63152166Y-69321500D02*
X62728833Y-69617833D01*
X63152166Y-69829500D02*
X62263166Y-69829500D01*
X62263166Y-69490833D01*
X62305500Y-69406166D01*
X62347833Y-69363833D01*
X62432500Y-69321500D01*
X62559500Y-69321500D01*
X62644166Y-69363833D01*
X62686500Y-69406166D01*
X62728833Y-69490833D01*
X62728833Y-69829500D01*
X63152166Y-68474833D02*
X63152166Y-68982833D01*
X63152166Y-68728833D02*
X62263166Y-68728833D01*
X62390166Y-68813500D01*
X62474833Y-68898166D01*
X62517166Y-68982833D01*
X62263166Y-67924500D02*
X62263166Y-67839833D01*
X62305500Y-67755166D01*
X62347833Y-67712833D01*
X62432500Y-67670500D01*
X62601833Y-67628166D01*
X62813500Y-67628166D01*
X62982833Y-67670500D01*
X63067500Y-67712833D01*
X63109833Y-67755166D01*
X63152166Y-67839833D01*
X63152166Y-67924500D01*
X63109833Y-68009166D01*
X63067500Y-68051500D01*
X62982833Y-68093833D01*
X62813500Y-68136166D01*
X62601833Y-68136166D01*
X62432500Y-68093833D01*
X62347833Y-68051500D01*
X62305500Y-68009166D01*
X62263166Y-67924500D01*
X66652166Y-69321500D02*
X66228833Y-69617833D01*
X66652166Y-69829500D02*
X65763166Y-69829500D01*
X65763166Y-69490833D01*
X65805500Y-69406166D01*
X65847833Y-69363833D01*
X65932500Y-69321500D01*
X66059500Y-69321500D01*
X66144166Y-69363833D01*
X66186500Y-69406166D01*
X66228833Y-69490833D01*
X66228833Y-69829500D01*
X66652166Y-68474833D02*
X66652166Y-68982833D01*
X66652166Y-68728833D02*
X65763166Y-68728833D01*
X65890166Y-68813500D01*
X65974833Y-68898166D01*
X66017166Y-68982833D01*
X66652166Y-67628166D02*
X66652166Y-68136166D01*
X66652166Y-67882166D02*
X65763166Y-67882166D01*
X65890166Y-67966833D01*
X65974833Y-68051500D01*
X66017166Y-68136166D01*
X75728500Y-65478166D02*
X75432166Y-65054833D01*
X75220500Y-65478166D02*
X75220500Y-64589166D01*
X75559166Y-64589166D01*
X75643833Y-64631500D01*
X75686166Y-64673833D01*
X75728500Y-64758500D01*
X75728500Y-64885500D01*
X75686166Y-64970166D01*
X75643833Y-65012500D01*
X75559166Y-65054833D01*
X75220500Y-65054833D01*
X76575166Y-65478166D02*
X76067166Y-65478166D01*
X76321166Y-65478166D02*
X76321166Y-64589166D01*
X76236500Y-64716166D01*
X76151833Y-64800833D01*
X76067166Y-64843166D01*
X76913833Y-64673833D02*
X76956166Y-64631500D01*
X77040833Y-64589166D01*
X77252500Y-64589166D01*
X77337166Y-64631500D01*
X77379500Y-64673833D01*
X77421833Y-64758500D01*
X77421833Y-64843166D01*
X77379500Y-64970166D01*
X76871500Y-65478166D01*
X77421833Y-65478166D01*
X70152166Y-69321500D02*
X69728833Y-69617833D01*
X70152166Y-69829500D02*
X69263166Y-69829500D01*
X69263166Y-69490833D01*
X69305500Y-69406166D01*
X69347833Y-69363833D01*
X69432500Y-69321500D01*
X69559500Y-69321500D01*
X69644166Y-69363833D01*
X69686500Y-69406166D01*
X69728833Y-69490833D01*
X69728833Y-69829500D01*
X70152166Y-68474833D02*
X70152166Y-68982833D01*
X70152166Y-68728833D02*
X69263166Y-68728833D01*
X69390166Y-68813500D01*
X69474833Y-68898166D01*
X69517166Y-68982833D01*
X69263166Y-68178500D02*
X69263166Y-67628166D01*
X69601833Y-67924500D01*
X69601833Y-67797500D01*
X69644166Y-67712833D01*
X69686500Y-67670500D01*
X69771166Y-67628166D01*
X69982833Y-67628166D01*
X70067500Y-67670500D01*
X70109833Y-67712833D01*
X70152166Y-67797500D01*
X70152166Y-68051500D01*
X70109833Y-68136166D01*
X70067500Y-68178500D01*
X34096857Y-49509619D02*
X33758190Y-49025809D01*
X33516285Y-49509619D02*
X33516285Y-48493619D01*
X33903333Y-48493619D01*
X34000095Y-48542000D01*
X34048476Y-48590380D01*
X34096857Y-48687142D01*
X34096857Y-48832285D01*
X34048476Y-48929047D01*
X34000095Y-48977428D01*
X33903333Y-49025809D01*
X33516285Y-49025809D01*
X35064476Y-49509619D02*
X34483904Y-49509619D01*
X34774190Y-49509619D02*
X34774190Y-48493619D01*
X34677428Y-48638761D01*
X34580666Y-48735523D01*
X34483904Y-48783904D01*
X35935333Y-48832285D02*
X35935333Y-49509619D01*
X35693428Y-48445238D02*
X35451523Y-49170952D01*
X36080476Y-49170952D01*
X73652166Y-69371500D02*
X73228833Y-69667833D01*
X73652166Y-69879500D02*
X72763166Y-69879500D01*
X72763166Y-69540833D01*
X72805500Y-69456166D01*
X72847833Y-69413833D01*
X72932500Y-69371500D01*
X73059500Y-69371500D01*
X73144166Y-69413833D01*
X73186500Y-69456166D01*
X73228833Y-69540833D01*
X73228833Y-69879500D01*
X73652166Y-68524833D02*
X73652166Y-69032833D01*
X73652166Y-68778833D02*
X72763166Y-68778833D01*
X72890166Y-68863500D01*
X72974833Y-68948166D01*
X73017166Y-69032833D01*
X72763166Y-67720500D02*
X72763166Y-68143833D01*
X73186500Y-68186166D01*
X73144166Y-68143833D01*
X73101833Y-68059166D01*
X73101833Y-67847500D01*
X73144166Y-67762833D01*
X73186500Y-67720500D01*
X73271166Y-67678166D01*
X73482833Y-67678166D01*
X73567500Y-67720500D01*
X73609833Y-67762833D01*
X73652166Y-67847500D01*
X73652166Y-68059166D01*
X73609833Y-68143833D01*
X73567500Y-68186166D01*
X34096857Y-52909619D02*
X33758190Y-52425809D01*
X33516285Y-52909619D02*
X33516285Y-51893619D01*
X33903333Y-51893619D01*
X34000095Y-51942000D01*
X34048476Y-51990380D01*
X34096857Y-52087142D01*
X34096857Y-52232285D01*
X34048476Y-52329047D01*
X34000095Y-52377428D01*
X33903333Y-52425809D01*
X33516285Y-52425809D01*
X35064476Y-52909619D02*
X34483904Y-52909619D01*
X34774190Y-52909619D02*
X34774190Y-51893619D01*
X34677428Y-52038761D01*
X34580666Y-52135523D01*
X34483904Y-52183904D01*
X35935333Y-51893619D02*
X35741809Y-51893619D01*
X35645047Y-51942000D01*
X35596666Y-51990380D01*
X35499904Y-52135523D01*
X35451523Y-52329047D01*
X35451523Y-52716095D01*
X35499904Y-52812857D01*
X35548285Y-52861238D01*
X35645047Y-52909619D01*
X35838571Y-52909619D01*
X35935333Y-52861238D01*
X35983714Y-52812857D01*
X36032095Y-52716095D01*
X36032095Y-52474190D01*
X35983714Y-52377428D01*
X35935333Y-52329047D01*
X35838571Y-52280666D01*
X35645047Y-52280666D01*
X35548285Y-52329047D01*
X35499904Y-52377428D01*
X35451523Y-52474190D01*
X34096857Y-51209619D02*
X33758190Y-50725809D01*
X33516285Y-51209619D02*
X33516285Y-50193619D01*
X33903333Y-50193619D01*
X34000095Y-50242000D01*
X34048476Y-50290380D01*
X34096857Y-50387142D01*
X34096857Y-50532285D01*
X34048476Y-50629047D01*
X34000095Y-50677428D01*
X33903333Y-50725809D01*
X33516285Y-50725809D01*
X35064476Y-51209619D02*
X34483904Y-51209619D01*
X34774190Y-51209619D02*
X34774190Y-50193619D01*
X34677428Y-50338761D01*
X34580666Y-50435523D01*
X34483904Y-50483904D01*
X35403142Y-50193619D02*
X36080476Y-50193619D01*
X35645047Y-51209619D01*
X77152166Y-69321500D02*
X76728833Y-69617833D01*
X77152166Y-69829500D02*
X76263166Y-69829500D01*
X76263166Y-69490833D01*
X76305500Y-69406166D01*
X76347833Y-69363833D01*
X76432500Y-69321500D01*
X76559500Y-69321500D01*
X76644166Y-69363833D01*
X76686500Y-69406166D01*
X76728833Y-69490833D01*
X76728833Y-69829500D01*
X77152166Y-68474833D02*
X77152166Y-68982833D01*
X77152166Y-68728833D02*
X76263166Y-68728833D01*
X76390166Y-68813500D01*
X76474833Y-68898166D01*
X76517166Y-68982833D01*
X76644166Y-67966833D02*
X76601833Y-68051500D01*
X76559500Y-68093833D01*
X76474833Y-68136166D01*
X76432500Y-68136166D01*
X76347833Y-68093833D01*
X76305500Y-68051500D01*
X76263166Y-67966833D01*
X76263166Y-67797500D01*
X76305500Y-67712833D01*
X76347833Y-67670500D01*
X76432500Y-67628166D01*
X76474833Y-67628166D01*
X76559500Y-67670500D01*
X76601833Y-67712833D01*
X76644166Y-67797500D01*
X76644166Y-67966833D01*
X76686500Y-68051500D01*
X76728833Y-68093833D01*
X76813500Y-68136166D01*
X76982833Y-68136166D01*
X77067500Y-68093833D01*
X77109833Y-68051500D01*
X77152166Y-67966833D01*
X77152166Y-67797500D01*
X77109833Y-67712833D01*
X77067500Y-67670500D01*
X76982833Y-67628166D01*
X76813500Y-67628166D01*
X76728833Y-67670500D01*
X76686500Y-67712833D01*
X76644166Y-67797500D01*
X54725904Y-33693619D02*
X54725904Y-34516095D01*
X54774285Y-34612857D01*
X54822666Y-34661238D01*
X54919428Y-34709619D01*
X55112952Y-34709619D01*
X55209714Y-34661238D01*
X55258095Y-34612857D01*
X55306476Y-34516095D01*
X55306476Y-33693619D01*
X56274095Y-33693619D02*
X55790285Y-33693619D01*
X55741904Y-34177428D01*
X55790285Y-34129047D01*
X55887047Y-34080666D01*
X56128952Y-34080666D01*
X56225714Y-34129047D01*
X56274095Y-34177428D01*
X56322476Y-34274190D01*
X56322476Y-34516095D01*
X56274095Y-34612857D01*
X56225714Y-34661238D01*
X56128952Y-34709619D01*
X55887047Y-34709619D01*
X55790285Y-34661238D01*
X55741904Y-34612857D01*
X49443619Y-61774095D02*
X50266095Y-61774095D01*
X50362857Y-61725714D01*
X50411238Y-61677333D01*
X50459619Y-61580571D01*
X50459619Y-61387047D01*
X50411238Y-61290285D01*
X50362857Y-61241904D01*
X50266095Y-61193523D01*
X49443619Y-61193523D01*
X49443619Y-60806476D02*
X49443619Y-60129142D01*
X50459619Y-60564571D01*
X56443619Y-61774095D02*
X57266095Y-61774095D01*
X57362857Y-61725714D01*
X57411238Y-61677333D01*
X57459619Y-61580571D01*
X57459619Y-61387047D01*
X57411238Y-61290285D01*
X57362857Y-61241904D01*
X57266095Y-61193523D01*
X56443619Y-61193523D01*
X57459619Y-60661333D02*
X57459619Y-60467809D01*
X57411238Y-60371047D01*
X57362857Y-60322666D01*
X57217714Y-60225904D01*
X57024190Y-60177523D01*
X56637142Y-60177523D01*
X56540380Y-60225904D01*
X56492000Y-60274285D01*
X56443619Y-60371047D01*
X56443619Y-60564571D01*
X56492000Y-60661333D01*
X56540380Y-60709714D01*
X56637142Y-60758095D01*
X56879047Y-60758095D01*
X56975809Y-60709714D01*
X57024190Y-60661333D01*
X57072571Y-60564571D01*
X57072571Y-60371047D01*
X57024190Y-60274285D01*
X56975809Y-60225904D01*
X56879047Y-60177523D01*
X47742095Y-41193619D02*
X47742095Y-42016095D01*
X47790476Y-42112857D01*
X47838857Y-42161238D01*
X47935619Y-42209619D01*
X48129142Y-42209619D01*
X48225904Y-42161238D01*
X48274285Y-42112857D01*
X48322666Y-42016095D01*
X48322666Y-41193619D01*
X49338666Y-42209619D02*
X48758095Y-42209619D01*
X49048380Y-42209619D02*
X49048380Y-41193619D01*
X48951619Y-41338761D01*
X48854857Y-41435523D01*
X48758095Y-41483904D01*
X49967619Y-41193619D02*
X50064380Y-41193619D01*
X50161142Y-41242000D01*
X50209523Y-41290380D01*
X50257904Y-41387142D01*
X50306285Y-41580666D01*
X50306285Y-41822571D01*
X50257904Y-42016095D01*
X50209523Y-42112857D01*
X50161142Y-42161238D01*
X50064380Y-42209619D01*
X49967619Y-42209619D01*
X49870857Y-42161238D01*
X49822476Y-42112857D01*
X49774095Y-42016095D01*
X49725714Y-41822571D01*
X49725714Y-41580666D01*
X49774095Y-41387142D01*
X49822476Y-41290380D01*
X49870857Y-41242000D01*
X49967619Y-41193619D01*
X63443619Y-62257904D02*
X64266095Y-62257904D01*
X64362857Y-62209523D01*
X64411238Y-62161142D01*
X64459619Y-62064380D01*
X64459619Y-61870857D01*
X64411238Y-61774095D01*
X64362857Y-61725714D01*
X64266095Y-61677333D01*
X63443619Y-61677333D01*
X64459619Y-60661333D02*
X64459619Y-61241904D01*
X64459619Y-60951619D02*
X63443619Y-60951619D01*
X63588761Y-61048380D01*
X63685523Y-61145142D01*
X63733904Y-61241904D01*
X64459619Y-59693714D02*
X64459619Y-60274285D01*
X64459619Y-59984000D02*
X63443619Y-59984000D01*
X63588761Y-60080761D01*
X63685523Y-60177523D01*
X63733904Y-60274285D01*
X70443619Y-62257904D02*
X71266095Y-62257904D01*
X71362857Y-62209523D01*
X71411238Y-62161142D01*
X71459619Y-62064380D01*
X71459619Y-61870857D01*
X71411238Y-61774095D01*
X71362857Y-61725714D01*
X71266095Y-61677333D01*
X70443619Y-61677333D01*
X71459619Y-60661333D02*
X71459619Y-61241904D01*
X71459619Y-60951619D02*
X70443619Y-60951619D01*
X70588761Y-61048380D01*
X70685523Y-61145142D01*
X70733904Y-61241904D01*
X70540380Y-60274285D02*
X70492000Y-60225904D01*
X70443619Y-60129142D01*
X70443619Y-59887238D01*
X70492000Y-59790476D01*
X70540380Y-59742095D01*
X70637142Y-59693714D01*
X70733904Y-59693714D01*
X70879047Y-59742095D01*
X71459619Y-60322666D01*
X71459619Y-59693714D01*
X50459619Y-65499904D02*
X49443619Y-65499904D01*
X49443619Y-65258000D01*
X49492000Y-65112857D01*
X49588761Y-65016095D01*
X49685523Y-64967714D01*
X49879047Y-64919333D01*
X50024190Y-64919333D01*
X50217714Y-64967714D01*
X50314476Y-65016095D01*
X50411238Y-65112857D01*
X50459619Y-65258000D01*
X50459619Y-65499904D01*
X49879047Y-64338761D02*
X49830666Y-64435523D01*
X49782285Y-64483904D01*
X49685523Y-64532285D01*
X49637142Y-64532285D01*
X49540380Y-64483904D01*
X49492000Y-64435523D01*
X49443619Y-64338761D01*
X49443619Y-64145238D01*
X49492000Y-64048476D01*
X49540380Y-64000095D01*
X49637142Y-63951714D01*
X49685523Y-63951714D01*
X49782285Y-64000095D01*
X49830666Y-64048476D01*
X49879047Y-64145238D01*
X49879047Y-64338761D01*
X49927428Y-64435523D01*
X49975809Y-64483904D01*
X50072571Y-64532285D01*
X50266095Y-64532285D01*
X50362857Y-64483904D01*
X50411238Y-64435523D01*
X50459619Y-64338761D01*
X50459619Y-64145238D01*
X50411238Y-64048476D01*
X50362857Y-64000095D01*
X50266095Y-63951714D01*
X50072571Y-63951714D01*
X49975809Y-64000095D01*
X49927428Y-64048476D01*
X49879047Y-64145238D01*
X57459619Y-65499904D02*
X56443619Y-65499904D01*
X56443619Y-65258000D01*
X56492000Y-65112857D01*
X56588761Y-65016095D01*
X56685523Y-64967714D01*
X56879047Y-64919333D01*
X57024190Y-64919333D01*
X57217714Y-64967714D01*
X57314476Y-65016095D01*
X57411238Y-65112857D01*
X57459619Y-65258000D01*
X57459619Y-65499904D01*
X57459619Y-64435523D02*
X57459619Y-64242000D01*
X57411238Y-64145238D01*
X57362857Y-64096857D01*
X57217714Y-64000095D01*
X57024190Y-63951714D01*
X56637142Y-63951714D01*
X56540380Y-64000095D01*
X56492000Y-64048476D01*
X56443619Y-64145238D01*
X56443619Y-64338761D01*
X56492000Y-64435523D01*
X56540380Y-64483904D01*
X56637142Y-64532285D01*
X56879047Y-64532285D01*
X56975809Y-64483904D01*
X57024190Y-64435523D01*
X57072571Y-64338761D01*
X57072571Y-64145238D01*
X57024190Y-64048476D01*
X56975809Y-64000095D01*
X56879047Y-63951714D01*
X31580666Y-74959619D02*
X31096857Y-74959619D01*
X31096857Y-73943619D01*
X32451523Y-74959619D02*
X31870952Y-74959619D01*
X32161238Y-74959619D02*
X32161238Y-73943619D01*
X32064476Y-74088761D01*
X31967714Y-74185523D01*
X31870952Y-74233904D01*
X28580666Y-48959619D02*
X28096857Y-48959619D01*
X28096857Y-47943619D01*
X28870952Y-48040380D02*
X28919333Y-47992000D01*
X29016095Y-47943619D01*
X29258000Y-47943619D01*
X29354761Y-47992000D01*
X29403142Y-48040380D01*
X29451523Y-48137142D01*
X29451523Y-48233904D01*
X29403142Y-48379047D01*
X28822571Y-48959619D01*
X29451523Y-48959619D01*
X33080666Y-68112857D02*
X33032285Y-68161238D01*
X32887142Y-68209619D01*
X32790380Y-68209619D01*
X32645238Y-68161238D01*
X32548476Y-68064476D01*
X32500095Y-67967714D01*
X32451714Y-67774190D01*
X32451714Y-67629047D01*
X32500095Y-67435523D01*
X32548476Y-67338761D01*
X32645238Y-67242000D01*
X32790380Y-67193619D01*
X32887142Y-67193619D01*
X33032285Y-67242000D01*
X33080666Y-67290380D01*
X34048285Y-68209619D02*
X33467714Y-68209619D01*
X33758000Y-68209619D02*
X33758000Y-67193619D01*
X33661238Y-67338761D01*
X33564476Y-67435523D01*
X33467714Y-67483904D01*
X33580666Y-56862857D02*
X33532285Y-56911238D01*
X33387142Y-56959619D01*
X33290380Y-56959619D01*
X33145238Y-56911238D01*
X33048476Y-56814476D01*
X33000095Y-56717714D01*
X32951714Y-56524190D01*
X32951714Y-56379047D01*
X33000095Y-56185523D01*
X33048476Y-56088761D01*
X33145238Y-55992000D01*
X33290380Y-55943619D01*
X33387142Y-55943619D01*
X33532285Y-55992000D01*
X33580666Y-56040380D01*
X34499904Y-55943619D02*
X34016095Y-55943619D01*
X33967714Y-56427428D01*
X34016095Y-56379047D01*
X34112857Y-56330666D01*
X34354761Y-56330666D01*
X34451523Y-56379047D01*
X34499904Y-56427428D01*
X34548285Y-56524190D01*
X34548285Y-56766095D01*
X34499904Y-56862857D01*
X34451523Y-56911238D01*
X34354761Y-56959619D01*
X34112857Y-56959619D01*
X34016095Y-56911238D01*
X33967714Y-56862857D01*
D16*
X34721428Y-66660952D02*
X34721428Y-65899047D01*
X35102380Y-66280000D02*
X34340476Y-66280000D01*
D10*
X35830666Y-61612857D02*
X35782285Y-61661238D01*
X35637142Y-61709619D01*
X35540380Y-61709619D01*
X35395238Y-61661238D01*
X35298476Y-61564476D01*
X35250095Y-61467714D01*
X35201714Y-61274190D01*
X35201714Y-61129047D01*
X35250095Y-60935523D01*
X35298476Y-60838761D01*
X35395238Y-60742000D01*
X35540380Y-60693619D01*
X35637142Y-60693619D01*
X35782285Y-60742000D01*
X35830666Y-60790380D01*
X36701523Y-60693619D02*
X36508000Y-60693619D01*
X36411238Y-60742000D01*
X36362857Y-60790380D01*
X36266095Y-60935523D01*
X36217714Y-61129047D01*
X36217714Y-61516095D01*
X36266095Y-61612857D01*
X36314476Y-61661238D01*
X36411238Y-61709619D01*
X36604761Y-61709619D01*
X36701523Y-61661238D01*
X36749904Y-61612857D01*
X36798285Y-61516095D01*
X36798285Y-61274190D01*
X36749904Y-61177428D01*
X36701523Y-61129047D01*
X36604761Y-61080666D01*
X36411238Y-61080666D01*
X36314476Y-61129047D01*
X36266095Y-61177428D01*
X36217714Y-61274190D01*
X39830666Y-59262857D02*
X39782285Y-59311238D01*
X39637142Y-59359619D01*
X39540380Y-59359619D01*
X39395238Y-59311238D01*
X39298476Y-59214476D01*
X39250095Y-59117714D01*
X39201714Y-58924190D01*
X39201714Y-58779047D01*
X39250095Y-58585523D01*
X39298476Y-58488761D01*
X39395238Y-58392000D01*
X39540380Y-58343619D01*
X39637142Y-58343619D01*
X39782285Y-58392000D01*
X39830666Y-58440380D01*
X40411238Y-58779047D02*
X40314476Y-58730666D01*
X40266095Y-58682285D01*
X40217714Y-58585523D01*
X40217714Y-58537142D01*
X40266095Y-58440380D01*
X40314476Y-58392000D01*
X40411238Y-58343619D01*
X40604761Y-58343619D01*
X40701523Y-58392000D01*
X40749904Y-58440380D01*
X40798285Y-58537142D01*
X40798285Y-58585523D01*
X40749904Y-58682285D01*
X40701523Y-58730666D01*
X40604761Y-58779047D01*
X40411238Y-58779047D01*
X40314476Y-58827428D01*
X40266095Y-58875809D01*
X40217714Y-58972571D01*
X40217714Y-59166095D01*
X40266095Y-59262857D01*
X40314476Y-59311238D01*
X40411238Y-59359619D01*
X40604761Y-59359619D01*
X40701523Y-59311238D01*
X40749904Y-59262857D01*
X40798285Y-59166095D01*
X40798285Y-58972571D01*
X40749904Y-58875809D01*
X40701523Y-58827428D01*
X40604761Y-58779047D01*
X86403333Y-47343619D02*
X86403333Y-48069333D01*
X86354952Y-48214476D01*
X86258190Y-48311238D01*
X86113047Y-48359619D01*
X86016285Y-48359619D01*
X86887142Y-48359619D02*
X86887142Y-47343619D01*
X87274190Y-47343619D01*
X87370952Y-47392000D01*
X87419333Y-47440380D01*
X87467714Y-47537142D01*
X87467714Y-47682285D01*
X87419333Y-47779047D01*
X87370952Y-47827428D01*
X87274190Y-47875809D01*
X86887142Y-47875809D01*
X88435333Y-48359619D02*
X87854761Y-48359619D01*
X88145047Y-48359619D02*
X88145047Y-47343619D01*
X88048285Y-47488761D01*
X87951523Y-47585523D01*
X87854761Y-47633904D01*
D16*
X30202380Y-43464285D02*
X29202380Y-43464285D01*
X29202380Y-43226190D01*
X29250000Y-43083333D01*
X29345238Y-42988095D01*
X29440476Y-42940476D01*
X29630952Y-42892857D01*
X29773809Y-42892857D01*
X29964285Y-42940476D01*
X30059523Y-42988095D01*
X30154761Y-43083333D01*
X30202380Y-43226190D01*
X30202380Y-43464285D01*
X30202380Y-41940476D02*
X30202380Y-42511904D01*
X30202380Y-42226190D02*
X29202380Y-42226190D01*
X29345238Y-42321428D01*
X29440476Y-42416666D01*
X29488095Y-42511904D01*
X29202380Y-41321428D02*
X29202380Y-41226190D01*
X29250000Y-41130952D01*
X29297619Y-41083333D01*
X29392857Y-41035714D01*
X29583333Y-40988095D01*
X29821428Y-40988095D01*
X30011904Y-41035714D01*
X30107142Y-41083333D01*
X30154761Y-41130952D01*
X30202380Y-41226190D01*
X30202380Y-41321428D01*
X30154761Y-41416666D01*
X30107142Y-41464285D01*
X30011904Y-41511904D01*
X29821428Y-41559523D01*
X29583333Y-41559523D01*
X29392857Y-41511904D01*
X29297619Y-41464285D01*
X29250000Y-41416666D01*
X29202380Y-41321428D01*
D10*
X78220500Y-59652166D02*
X78220500Y-58763166D01*
X78432166Y-58763166D01*
X78559166Y-58805500D01*
X78643833Y-58890166D01*
X78686166Y-58974833D01*
X78728500Y-59144166D01*
X78728500Y-59271166D01*
X78686166Y-59440500D01*
X78643833Y-59525166D01*
X78559166Y-59609833D01*
X78432166Y-59652166D01*
X78220500Y-59652166D01*
X79575166Y-59652166D02*
X79067166Y-59652166D01*
X79321166Y-59652166D02*
X79321166Y-58763166D01*
X79236500Y-58890166D01*
X79151833Y-58974833D01*
X79067166Y-59017166D01*
X80421833Y-59652166D02*
X79913833Y-59652166D01*
X80167833Y-59652166D02*
X80167833Y-58763166D01*
X80083166Y-58890166D01*
X79998500Y-58974833D01*
X79913833Y-59017166D01*
D16*
X64452380Y-65964285D02*
X63452380Y-65964285D01*
X63452380Y-65726190D01*
X63500000Y-65583333D01*
X63595238Y-65488095D01*
X63690476Y-65440476D01*
X63880952Y-65392857D01*
X64023809Y-65392857D01*
X64214285Y-65440476D01*
X64309523Y-65488095D01*
X64404761Y-65583333D01*
X64452380Y-65726190D01*
X64452380Y-65964285D01*
X64452380Y-64440476D02*
X64452380Y-65011904D01*
X64452380Y-64726190D02*
X63452380Y-64726190D01*
X63595238Y-64821428D01*
X63690476Y-64916666D01*
X63738095Y-65011904D01*
X63785714Y-63583333D02*
X64452380Y-63583333D01*
X63404761Y-63821428D02*
X64119047Y-64059523D01*
X64119047Y-63440476D01*
D10*
X78220500Y-65502166D02*
X78220500Y-64613166D01*
X78432166Y-64613166D01*
X78559166Y-64655500D01*
X78643833Y-64740166D01*
X78686166Y-64824833D01*
X78728500Y-64994166D01*
X78728500Y-65121166D01*
X78686166Y-65290500D01*
X78643833Y-65375166D01*
X78559166Y-65459833D01*
X78432166Y-65502166D01*
X78220500Y-65502166D01*
X79575166Y-65502166D02*
X79067166Y-65502166D01*
X79321166Y-65502166D02*
X79321166Y-64613166D01*
X79236500Y-64740166D01*
X79151833Y-64824833D01*
X79067166Y-64867166D01*
X80379500Y-64613166D02*
X79956166Y-64613166D01*
X79913833Y-65036500D01*
X79956166Y-64994166D01*
X80040833Y-64951833D01*
X80252500Y-64951833D01*
X80337166Y-64994166D01*
X80379500Y-65036500D01*
X80421833Y-65121166D01*
X80421833Y-65332833D01*
X80379500Y-65417500D01*
X80337166Y-65459833D01*
X80252500Y-65502166D01*
X80040833Y-65502166D01*
X79956166Y-65459833D01*
X79913833Y-65417500D01*
D16*
X71452380Y-65964285D02*
X70452380Y-65964285D01*
X70452380Y-65726190D01*
X70500000Y-65583333D01*
X70595238Y-65488095D01*
X70690476Y-65440476D01*
X70880952Y-65392857D01*
X71023809Y-65392857D01*
X71214285Y-65440476D01*
X71309523Y-65488095D01*
X71404761Y-65583333D01*
X71452380Y-65726190D01*
X71452380Y-65964285D01*
X71452380Y-64440476D02*
X71452380Y-65011904D01*
X71452380Y-64726190D02*
X70452380Y-64726190D01*
X70595238Y-64821428D01*
X70690476Y-64916666D01*
X70738095Y-65011904D01*
X70452380Y-63583333D02*
X70452380Y-63773809D01*
X70500000Y-63869047D01*
X70547619Y-63916666D01*
X70690476Y-64011904D01*
X70880952Y-64059523D01*
X71261904Y-64059523D01*
X71357142Y-64011904D01*
X71404761Y-63964285D01*
X71452380Y-63869047D01*
X71452380Y-63678571D01*
X71404761Y-63583333D01*
X71357142Y-63535714D01*
X71261904Y-63488095D01*
X71023809Y-63488095D01*
X70928571Y-63535714D01*
X70880952Y-63583333D01*
X70833333Y-63678571D01*
X70833333Y-63869047D01*
X70880952Y-63964285D01*
X70928571Y-64011904D01*
X71023809Y-64059523D01*
X46833333Y-62702380D02*
X46357142Y-62702380D01*
X46357142Y-61702380D01*
X47071428Y-61702380D02*
X47690476Y-61702380D01*
X47357142Y-62083333D01*
X47500000Y-62083333D01*
X47595238Y-62130952D01*
X47642857Y-62178571D01*
X47690476Y-62273809D01*
X47690476Y-62511904D01*
X47642857Y-62607142D01*
X47595238Y-62654761D01*
X47500000Y-62702380D01*
X47214285Y-62702380D01*
X47119047Y-62654761D01*
X47071428Y-62607142D01*
X29733333Y-46702380D02*
X29257142Y-46702380D01*
X29257142Y-45702380D01*
X30495238Y-46035714D02*
X30495238Y-46702380D01*
X30257142Y-45654761D02*
X30019047Y-46369047D01*
X30638095Y-46369047D01*
X44033333Y-62952380D02*
X43700000Y-62476190D01*
X43461904Y-62952380D02*
X43461904Y-61952380D01*
X43842857Y-61952380D01*
X43938095Y-62000000D01*
X43985714Y-62047619D01*
X44033333Y-62142857D01*
X44033333Y-62285714D01*
X43985714Y-62380952D01*
X43938095Y-62428571D01*
X43842857Y-62476190D01*
X43461904Y-62476190D01*
X44985714Y-62952380D02*
X44414285Y-62952380D01*
X44700000Y-62952380D02*
X44700000Y-61952380D01*
X44604761Y-62095238D01*
X44509523Y-62190476D01*
X44414285Y-62238095D01*
X44033333Y-65102380D02*
X43700000Y-64626190D01*
X43461904Y-65102380D02*
X43461904Y-64102380D01*
X43842857Y-64102380D01*
X43938095Y-64150000D01*
X43985714Y-64197619D01*
X44033333Y-64292857D01*
X44033333Y-64435714D01*
X43985714Y-64530952D01*
X43938095Y-64578571D01*
X43842857Y-64626190D01*
X43461904Y-64626190D01*
X44414285Y-64197619D02*
X44461904Y-64150000D01*
X44557142Y-64102380D01*
X44795238Y-64102380D01*
X44890476Y-64150000D01*
X44938095Y-64197619D01*
X44985714Y-64292857D01*
X44985714Y-64388095D01*
X44938095Y-64530952D01*
X44366666Y-65102380D01*
X44985714Y-65102380D01*
M02*
